<svg version="1.1" viewBox="0.0 0.0 3840.0 2160.0" fill="none" stroke="none" stroke-linecap="square" stroke-miterlimit="10" xmlns:xlink="http://www.w3.org/1999/xlink" xmlns="http://www.w3.org/2000/svg"><clipPath id="p.0"><path d="m0 0l3840.0 0l0 2160.0l-3840.0 0l0 -2160.0z" clip-rule="nonzero"/></clipPath><g clip-path="url(#p.0)"><path fill="#161616" d="m0 0l3840.0 0l0 2160.0l-3840.0 0z" fill-rule="evenodd"/><path fill="#000000" fill-opacity="0.0" d="m-80.42519 116.74541l4052.882 0" fill-rule="evenodd"/><path stroke="#ff9900" stroke-width="8.0" stroke-linejoin="round" stroke-linecap="butt" d="m-80.42519 116.74541l4052.882 0" fill-rule="evenodd"/><path fill="#000000" fill-opacity="0.0" d="m8.616797 0l2300.756 0l0 116.755905l-2300.756 0z" fill-rule="evenodd"/><path fill="#ff9900" d="m21.132423 43.896698l34.5625 12.5625l0 12.875l-34.5625 12.640625l0 -13.03125l20.484375 -6.0l-20.484375 -6.0l0 -13.046875z" fill-rule="nonzero"/><path fill="#ffffff" d="m99.701744 30.865448q4.3125 0 9.703125 0.515625q5.40625 0.515625 10.375 2.28125l-1.046875 11.109375q-3.59375 -0.078125 -8.921875 -0.109375q-5.3125 -0.046875 -10.515625 -0.046875q-1.515625 0 -2.515625 0.078125q-1.0 0.078125 -1.5625 0.328125q-0.5625 0.234375 -0.8125 0.640625q-0.234375 0.390625 -0.234375 1.03125q0 1.125 1.0 1.890625q1.0 0.75 3.8125 1.875l10.0 4.15625q6.875 2.96875 9.625 6.84375q2.765625 3.875 2.765625 9.953125q0 4.640625 -1.125 7.890625q-1.109375 3.234375 -3.71875 5.203125q-2.59375 1.953125 -6.921875 2.875q-4.3125 0.921875 -10.796875 0.921875q-2.796875 0 -8.484375 -0.453125q-5.671875 -0.4375 -12.875 -2.265625l1.046875 -12.171875q4.796875 0.078125 8.796875 0.203125q4.0 0.125 6.921875 0.171875q2.921875 0.03125 4.359375 0.03125q2.234375 0 3.390625 -0.15625q1.171875 -0.171875 1.609375 -0.609375q0.4375 -0.4375 0.4375 -1.15625q0 -0.796875 -0.328125 -1.3125q-0.3125 -0.53125 -1.109375 -1.0q-0.796875 -0.484375 -2.3125 -1.046875l-10.96875 -4.796875q-6.71875 -3.046875 -9.515625 -6.796875q-2.796875 -3.765625 -2.796875 -9.84375q0 -4.71875 1.234375 -7.84375q1.234375 -3.125 3.875 -4.953125q2.640625 -1.84375 7.0 -2.640625q4.359375 -0.796875 10.609375 -0.796875zm48.3937 15.1875q11.28125 0 16.0 3.609375q4.71875 3.59375 4.796875 10.640625q0.078125 5.59375 -3.328125 8.078125q-3.390625 2.484375 -12.1875 2.484375l-21.515625 0l0 -7.921875l16.796875 0q2.71875 0 3.4375 -0.515625q0.71875 -0.53125 0.71875 -2.53125q0 -1.921875 -0.96875 -2.46875q-0.953125 -0.5625 -3.265625 -0.5625q-2.328125 -0.09375 -3.53125 0.46875q-1.1875 0.5625 -1.640625 2.453125q-0.4375 1.875 -0.4375 5.875q0 3.671875 0.515625 5.75q0.53125 2.078125 2.046875 2.96875q1.53125 0.875 4.484375 0.875q2.40625 0 6.765625 -0.15625q4.359375 -0.15625 9.46875 -0.71875l1.53125 10.078125q-2.8125 1.4375 -6.015625 2.234375q-3.1875 0.796875 -6.59375 1.109375q-3.390625 0.328125 -7.0 0.328125q-8.3125 0 -13.359375 -2.3125q-5.03125 -2.328125 -7.2343674 -6.921875q-2.203125 -4.59375 -2.203125 -11.40625q0 -7.90625 2.234375 -12.578125q2.2499924 -4.6875 7.2499924 -6.765625q5.0 -2.09375 13.234375 -2.09375zm42.715576 -14.875l0 41.4375q0 1.515625 1.0 2.203125q1.0 0.671875 3.0 0.671875l2.71875 0l1.84375 10.734375q-1.203125 0.71875 -3.40625 1.15625q-2.1875 0.4375 -4.46875 0.671875q-2.28125 0.25 -3.875 0.25q-6.328125 0 -9.9375 -2.953125q-3.59375 -2.96875 -3.59375 -8.25l0 -45.921875l16.71875 0zm33.124344 14.875q11.28125 0 16.0 3.609375q4.71875 3.59375 4.796875 10.640625q0.078125 5.59375 -3.328125 8.078125q-3.390625 2.484375 -12.1875 2.484375l-21.515625 0l0 -7.921875l16.796875 0q2.71875 0 3.4375 -0.515625q0.71875 -0.53125 0.71875 -2.53125q0 -1.921875 -0.96875 -2.46875q-0.953125 -0.5625 -3.265625 -0.5625q-2.328125 -0.09375 -3.53125 0.46875q-1.1875 0.5625 -1.640625 2.453125q-0.4375 1.875 -0.4375 5.875q0 3.671875 0.515625 5.75q0.53125 2.078125 2.046875 2.96875q1.53125 0.875 4.484375 0.875q2.40625 0 6.765625 -0.15625q4.359375 -0.15625 9.46875 -0.71875l1.53125 10.078125q-2.8125 1.4375 -6.015625 2.234375q-3.1875 0.796875 -6.59375 1.109375q-3.390625 0.328125 -7.0 0.328125q-8.3125 0 -13.359375 -2.3125q-5.03125 -2.328125 -7.234375 -6.921875q-2.203125 -4.59375 -2.203125 -11.40625q0 -7.90625 2.234375 -12.578125q2.25 -4.6875 7.25 -6.765625q5.0 -2.09375 13.234375 -2.09375zm45.996826 0q2.484375 0 5.4375 0.25q2.96875 0.234375 5.921875 0.875q2.96875 0.640625 5.359375 1.84375l-1.671875 10.390625q-3.84375 0 -6.734375 0q-2.875 0 -5.421875 0q-2.5625 0 -4.046875 0.640625q-1.484375 0.640625 -2.078125 2.28125q-0.59375 1.640625 -0.59375 4.765625q0 3.125 0.59375 4.8125q0.59375 1.671875 2.078125 2.3125q1.484375 0.640625 4.046875 0.640625q1.359375 0 3.390625 -0.046875q2.046875 -0.046875 4.515625 -0.15625q2.484375 -0.125 4.96875 -0.359375l1.515625 10.46875q-3.515625 1.84375 -8.15625 2.59375q-4.640625 0.765625 -9.28125 0.765625q-7.84375 0 -12.53125 -2.03125q-4.671875 -2.046875 -6.71875 -6.6875q-2.03125 -4.640625 -2.03125 -12.3125q0 -7.765625 2.078125 -12.359375q2.078125 -4.609375 6.796875 -6.640625q4.734375 -2.046875 12.5625 -2.046875zm43.130585 -9.359375l0 35.921875q0 1.515625 0.796875 2.203125q0.796875 0.671875 2.640625 0.671875l4.234375 0l1.84375 10.734375q-1.6875 0.71875 -4.171875 1.15625q-2.46875 0.4375 -5.0 0.671875q-2.515625 0.25 -4.4375 0.25q-5.828125 0 -9.28125 -2.953125q-3.4375 -2.96875 -3.4375 -8.25l-0.078125 -40.40625l16.890625 0zm9.671875 10.484375l0 10.078125l-33.28125 0l0 -9.671875l7.6875 -0.40625l25.59375 0zm42.88684 -16.3125q4.3125 0 9.703125 0.515625q5.40625 0.515625 10.375 2.28125l-1.046875 11.109375q-3.59375 -0.078125 -8.921875 -0.109375q-5.3125 -0.046875 -10.515625 -0.046875q-1.515625 0 -2.515625 0.078125q-1.0 0.078125 -1.5625 0.328125q-0.5625 0.234375 -0.8125 0.640625q-0.234375 0.390625 -0.234375 1.03125q0 1.125 1.0 1.890625q1.0 0.75 3.8125 1.875l10.0 4.15625q6.875 2.96875 9.625 6.84375q2.765625 3.875 2.765625 9.953125q0 4.640625 -1.125 7.890625q-1.109375 3.234375 -3.71875 5.203125q-2.59375 1.953125 -6.921875 2.875q-4.3125 0.921875 -10.796875 0.921875q-2.796875 0 -8.484375 -0.453125q-5.671875 -0.4375 -12.875 -2.265625l1.046875 -12.171875q4.796875 0.078125 8.796875 0.203125q4.0 0.125 6.921875 0.171875q2.921875 0.03125 4.359375 0.03125q2.234375 0 3.390625 -0.15625q1.171875 -0.171875 1.609375 -0.609375q0.4375 -0.4375 0.4375 -1.15625q0 -0.796875 -0.328125 -1.3125q-0.3125 -0.53125 -1.109375 -1.0q-0.796875 -0.484375 -2.3125 -1.046875l-10.96875 -4.796875q-6.71875 -3.046875 -9.515625 -6.796875q-2.796875 -3.765625 -2.796875 -9.84375q0 -4.71875 1.234375 -7.84375q1.234375 -3.125 3.875 -4.953125q2.640625 -1.84375 7.0 -2.640625q4.359375 -0.796875 10.609375 -0.796875zm48.393677 15.1875q11.28125 0 16.0 3.609375q4.71875 3.59375 4.796875 10.640625q0.078125 5.59375 -3.328125 8.078125q-3.390625 2.484375 -12.1875 2.484375l-21.515625 0l0 -7.921875l16.796875 0q2.71875 0 3.4375 -0.515625q0.71875 -0.53125 0.71875 -2.53125q0 -1.921875 -0.96875 -2.46875q-0.953125 -0.5625 -3.265625 -0.5625q-2.328125 -0.09375 -3.53125 0.46875q-1.1875 0.5625 -1.640625 2.453125q-0.4375 1.875 -0.4375 5.875q0 3.671875 0.515625 5.75q0.53125 2.078125 2.046875 2.96875q1.53125 0.875 4.484375 0.875q2.40625 0 6.765625 -0.15625q4.359375 -0.15625 9.46875 -0.71875l1.53125 10.078125q-2.8125 1.4375 -6.015625 2.234375q-3.1875 0.796875 -6.59375 1.109375q-3.390625 0.328125 -7.0 0.328125q-8.3125 0 -13.359375 -2.3125q-5.03125 -2.328125 -7.234375 -6.921875q-2.203125 -4.59375 -2.203125 -11.40625q0 -7.90625 2.234375 -12.578125q2.25 -4.6875 7.25 -6.765625q5.0 -2.09375 13.234375 -2.09375zm46.88745 -9.359375l0 35.921875q0 1.515625 0.796875 2.203125q0.796875 0.671875 2.640625 0.671875l4.234375 0l1.84375 10.734375q-1.6875 0.71875 -4.171875 1.15625q-2.46875 0.4375 -5.0 0.671875q-2.515625 0.25 -4.4375 0.25q-5.828125 0 -9.28125 -2.953125q-3.4375 -2.96875 -3.4375 -8.25l-0.078125 -40.40625l16.890625 0zm9.671875 10.484375l0 10.078125l-33.28125 0l0 -9.671875l7.6875 -0.40625l25.59375 0z" fill-rule="nonzero"/><path fill="#ff9900" d="m491.85196 43.896698l34.56253 12.5625l0 12.875l-34.56253 12.640625l0 -13.03125l20.484406 -6.0l-20.484406 -6.0l0 -13.046875z" fill-rule="nonzero"/><path fill="#ffffff" d="m570.4213 30.865448q4.3125 0 9.703125 0.515625q5.40625 0.515625 10.375 2.28125l-1.046875 11.109375q-3.59375 -0.078125 -8.921875 -0.109375q-5.3125 -0.046875 -10.515625 -0.046875q-1.515625 0 -2.515625 0.078125q-1.0 0.078125 -1.5625 0.328125q-0.5625 0.234375 -0.8125 0.640625q-0.234375 0.390625 -0.234375 1.03125q0 1.125 1.0 1.890625q1.0 0.75 3.8125 1.875l10.0 4.15625q6.875 2.96875 9.625 6.84375q2.765625 3.875 2.765625 9.953125q0 4.640625 -1.125 7.890625q-1.109375 3.234375 -3.71875 5.203125q-2.59375 1.953125 -6.921875 2.875q-4.3125 0.921875 -10.796875 0.921875q-2.796875 0 -8.484375 -0.453125q-5.671875 -0.4375 -12.875 -2.265625l1.046875 -12.171875q4.796875 0.078125 8.796875 0.203125q4.0 0.125 6.921875 0.171875q2.921875 0.03125 4.359375 0.03125q2.234375 0 3.390625 -0.15625q1.171875 -0.171875 1.609375 -0.609375q0.4375 -0.4375 0.4375 -1.15625q0 -0.796875 -0.328125 -1.3125q-0.3125 -0.53125 -1.109375 -1.0q-0.796875 -0.484375 -2.3125 -1.046875l-10.96875 -4.796875q-6.71875 -3.046875 -9.515625 -6.796875q-2.796875 -3.765625 -2.796875 -9.84375q0 -4.71875 1.234375 -7.84375q1.234375 -3.125 3.875 -4.953125q2.640625 -1.84375 7.0 -2.640625q4.359375 -0.796875 10.609375 -0.796875zm48.393738 15.1875q11.28125 0 16.0 3.609375q4.71875 3.59375 4.796875 10.640625q0.078125 5.59375 -3.328125 8.078125q-3.390625 2.484375 -12.1875 2.484375l-21.515625 0l0 -7.921875l16.796875 0q2.71875 0 3.4375 -0.515625q0.71875 -0.53125 0.71875 -2.53125q0 -1.921875 -0.96875 -2.46875q-0.953125 -0.5625 -3.265625 -0.5625q-2.328125 -0.09375 -3.53125 0.46875q-1.1875 0.5625 -1.640625 2.453125q-0.4375 1.875 -0.4375 5.875q0 3.671875 0.515625 5.75q0.53125 2.078125 2.046875 2.96875q1.53125 0.875 4.484375 0.875q2.40625 0 6.765625 -0.15625q4.359375 -0.15625 9.46875 -0.71875l1.53125 10.078125q-2.8125 1.4375 -6.015625 2.234375q-3.1875 0.796875 -6.59375 1.109375q-3.390625 0.328125 -7.0 0.328125q-8.3125 0 -13.359375 -2.3125q-5.03125 -2.328125 -7.234375 -6.921875q-2.203125 -4.59375 -2.203125 -11.40625q0 -7.90625 2.234375 -12.578125q2.25 -4.6875 7.25 -6.765625q5.0 -2.09375 13.234375 -2.09375zm42.715576 -14.875l0 41.4375q0 1.515625 1.0 2.203125q1.0 0.671875 3.0 0.671875l2.71875 0l1.84375 10.734375q-1.203125 0.71875 -3.40625 1.15625q-2.1875 0.4375 -4.46875 0.671875q-2.28125 0.25 -3.875 0.25q-6.328125 0 -9.9375 -2.953125q-3.59375 -2.96875 -3.59375 -8.25l0 -45.921875l16.71875 0zm33.12433 14.875q11.28125 0 16.0 3.609375q4.71875 3.59375 4.796875 10.640625q0.078125 5.59375 -3.328125 8.078125q-3.390625 2.484375 -12.1875 2.484375l-21.515625 0l0 -7.921875l16.796875 0q2.71875 0 3.4375 -0.515625q0.71875 -0.53125 0.71875 -2.53125q0 -1.921875 -0.96875 -2.46875q-0.953125 -0.5625 -3.265625 -0.5625q-2.328125 -0.09375 -3.53125 0.46875q-1.1875 0.5625 -1.640625 2.453125q-0.4375 1.875 -0.4375 5.875q0 3.671875 0.515625 5.75q0.53125 2.078125 2.046875 2.96875q1.53125 0.875 4.484375 0.875q2.40625 0 6.765625 -0.15625q4.359375 -0.15625 9.46875 -0.71875l1.53125 10.078125q-2.8125 1.4375 -6.015625 2.234375q-3.1875 0.796875 -6.59375 1.109375q-3.390625 0.328125 -7.0 0.328125q-8.3125 0 -13.359375 -2.3125q-5.03125 -2.328125 -7.234375 -6.921875q-2.203125 -4.59375 -2.203125 -11.40625q0 -7.90625 2.234375 -12.578125q2.25 -4.6875 7.25 -6.765625q5.0 -2.09375 13.234375 -2.09375zm45.996826 0q2.484375 0 5.4375 0.25q2.96875 0.234375 5.921875 0.875q2.96875 0.640625 5.359375 1.84375l-1.671875 10.390625q-3.84375 0 -6.734375 0q-2.875 0 -5.421875 0q-2.5625 0 -4.046875 0.640625q-1.484375 0.640625 -2.078125 2.28125q-0.59375 1.640625 -0.59375 4.765625q0 3.125 0.59375 4.8125q0.59375 1.671875 2.078125 2.3125q1.484375 0.640625 4.046875 0.640625q1.359375 0 3.390625 -0.046875q2.046875 -0.046875 4.515625 -0.15625q2.484375 -0.125 4.96875 -0.359375l1.515625 10.46875q-3.515625 1.84375 -8.15625 2.59375q-4.640625 0.765625 -9.28125 0.765625q-7.84375 0 -12.53125 -2.03125q-4.671875 -2.046875 -6.71875 -6.6875q-2.03125 -4.640625 -2.03125 -12.3125q0 -7.765625 2.078125 -12.359375q2.078125 -4.609375 6.796875 -6.640625q4.734375 -2.046875 12.5625 -2.046875zm43.130554 -9.359375l0 35.921875q0 1.515625 0.796875 2.203125q0.796875 0.671875 2.640625 0.671875l4.234375 0l1.84375 10.734375q-1.6875 0.71875 -4.171875 1.15625q-2.46875 0.4375 -5.0 0.671875q-2.515625 0.25 -4.4375 0.25q-5.828125 0 -9.28125 -2.953125q-3.4375 -2.96875 -3.4375 -8.25l-0.078125 -40.40625l16.890625 0zm9.671875 10.484375l0 10.078125l-33.28125 0l0 -9.671875l7.6875 -0.40625l25.59375 0zm51.125 -15.203125q2.078125 0 3.671875 1.203125q1.609375 1.203125 2.171875 3.28125l14.3125 50.71875l-17.671875 0l-8.328125 -35.921875q-0.3125 -1.515625 -0.5625 -3.15625q-0.234375 -1.640625 -0.390625 -3.15625l-2.171875 0q-0.15625 1.515625 -0.40625 3.15625q-0.234375 1.640625 -0.546875 3.15625l-8.328125 35.921875l-17.671875 0l14.3125 -50.71875q0.5625 -2.078125 2.15625 -3.28125q1.609375 -1.203125 3.6875 -1.203125l15.765625 0zm6.796875 31.125l0 12.15625l-29.359375 0l0 -12.15625l29.359375 0zm36.155518 -17.046875q2.484375 0 5.4375 0.25q2.96875 0.234375 5.921875 0.875q2.96875 0.640625 5.359375 1.84375l-1.671875 10.390625q-3.84375 0 -6.734375 0q-2.875 0 -5.421875 0q-2.5625 0 -4.046875 0.640625q-1.484375 0.640625 -2.078125 2.28125q-0.59375 1.640625 -0.59375 4.765625q0 3.125 0.59375 4.8125q0.59375 1.671875 2.078125 2.3125q1.484375 0.640625 4.046875 0.640625q1.359375 0 3.390625 -0.046875q2.046875 -0.046875 4.515625 -0.15625q2.484375 -0.125 4.96875 -0.359375l1.515625 10.46875q-3.515625 1.84375 -8.15625 2.59375q-4.640625 0.765625 -9.28125 0.765625q-7.84375 0 -12.53125 -2.03125q-4.671875 -2.046875 -6.71875 -6.6875q-2.03125 -4.640625 -2.03125 -12.3125q0 -7.765625 2.078125 -12.359375q2.078125 -4.609375 6.796875 -6.640625q4.734375 -2.046875 12.5625 -2.046875zm43.130615 -9.359375l0 35.921875q0 1.515625 0.796875 2.203125q0.796875 0.671875 2.640625 0.671875l4.234375 0l1.84375 10.734375q-1.6875 0.71875 -4.171875 1.15625q-2.46875 0.4375 -5.0 0.671875q-2.515625 0.25 -4.4375 0.25q-5.828125 0 -9.28125 -2.953125q-3.4375 -2.96875 -3.4375 -8.25l-0.078125 -40.40625l16.890625 0zm9.671875 10.484375l0 10.078125l-33.28125 0l0 -9.671875l7.6875 -0.40625l25.59375 0zm21.446228 0l0 40.0l-16.71875 0l0 -40.0l16.71875 0zm-4.796875 -18.3125q4.875 0 4.875 4.953125l0 4.078125q0 4.96875 -4.875 4.96875l-7.125 0q-4.875 0 -4.875 -4.96875l0 -4.078125q0 -4.953125 4.875 -4.953125l7.125 0zm56.86499 18.3125l-11.828125 36.078125q-0.5625 1.765625 -1.96875 2.84375q-1.390625 1.078125 -3.3125 1.078125l-14.328125 0q-1.921875 0 -3.328125 -1.078125q-1.390625 -1.078125 -1.953125 -2.84375l-11.828125 -36.078125l17.75 0l4.890625 22.078125q0.390625 1.84375 0.625 3.765625q0.25 1.921875 0.484375 3.75l1.046875 0q0.234375 -1.828125 0.546875 -3.75q0.328125 -1.921875 0.65625 -3.765625l4.796875 -22.078125l17.75 0zm20.25177 0l0 40.0l-16.718689 0l0 -40.0l16.718689 0zm-4.796875 -18.3125q4.875 0 4.875 4.953125l0 4.078125q0 4.96875 -4.875 4.96875l-7.124939 0q-4.875 0 -4.875 -4.96875l0 -4.078125q0 -4.953125 4.875 -4.953125l7.124939 0zm32.95874 7.828125l0 35.921875q0 1.515625 0.796875 2.203125q0.796875 0.671875 2.640625 0.671875l4.234375 0l1.84375 10.734375q-1.6875 0.71875 -4.171875 1.15625q-2.46875 0.4375 -5.0 0.671875q-2.515625 0.25 -4.4375 0.25q-5.828125 0 -9.28125 -2.953125q-3.4375 -2.96875 -3.4375 -8.25l-0.078125 -40.40625l16.890625 0zm9.671875 10.484375l0 10.078125l-33.28125 0l0 -9.671875l7.6875 -0.40625l25.59375 0zm49.274414 0l-12.71875 38.875q-1.03125 3.28125 -3.0 6.796875q-1.953125 3.53125 -5.125 6.28125q-3.15625 2.765625 -7.71875 3.921875q-4.546875 1.171875 -10.796875 -0.109375l-1.109375 -9.046875q4.953125 -1.03125 7.875 -2.765625q2.921875 -1.71875 4.4375 -5.078125l2.96875 -6.390625q0.875 -2.0 1.546875 -5.125q0.6875 -3.125 1.09375 -5.28125l4.71875 -22.078125l17.828125 0zm-30.71875 0l4.71875 22.078125q0.328125 1.84375 0.5625 3.765625q0.25 1.921875 0.484375 3.75l2.40625 0l-5.203125 10.40625l-3.6875 0q-1.921875 0 -3.328125 -1.078125q-1.390625 -1.078125 -1.953125 -2.84375l-11.828125 -36.078125l17.828125 0z" fill-rule="nonzero"/><path fill="#ff9900" d="m1139.6115 43.896698l34.5625 12.5625l0 12.875l-34.5625 12.640625l0 -13.03125l20.484375 -6.0l-20.484375 -6.0l0 -13.046875z" fill-rule="nonzero"/></g></svg>