<svg version="1.1" viewBox="0.0 0.0 3840.0 2160.0" fill="none" stroke="none" stroke-linecap="square" stroke-miterlimit="10" xmlns:xlink="http://www.w3.org/1999/xlink" xmlns="http://www.w3.org/2000/svg"><clipPath id="p.0"><path d="m0 0l3840.0 0l0 2160.0l-3840.0 0l0 -2160.0z" clip-rule="nonzero"/></clipPath><g clip-path="url(#p.0)"><path fill="#c3c7cb" d="m0 0l3840.0 0l0 2160.0l-3840.0 0z" fill-rule="evenodd"/><path fill="#0000aa" d="m0 0l3840.0 0l0 172.12599l-3840.0 0z" fill-rule="evenodd"/><path fill="#ffffff" d="m64.171875 92.13049l1.015625 -24.953125l-1.140625 0l-16.640625 45.953125l-16.640625 -45.953125l-1.15625 0l1.015625 24.953125l0 39.8125l-16.640625 0l0 -89.34375l22.65625 0l11.015625 30.078125l1.03125 0l11.0 -30.078125l21.125 0l0 89.34375l-16.640625 0l0 -39.8125zm83.97189 39.8125q-5.890625 0 -9.484375 -3.0q-3.578125 -3.015625 -4.21875 -8.640625l-0.640625 0q-1.796875 6.515625 -7.109375 9.84375q-5.3125 3.328125 -12.984375 3.328125q-9.609375 0 -15.4375 -5.171875q-5.8125 -5.1875 -5.8125 -14.53125q0 -10.375 7.546875 -15.359375q7.5625 -5.0 22.15625 -5.0l10.609375 0l0 -3.328125q0 -5.890625 -2.75 -8.890625q-2.75 -3.015625 -9.28125 -3.015625q-6.015625 0 -9.734375 2.3125q-3.703125 2.296875 -6.390625 6.015625l-10.359375 -9.21875q3.328125 -5.625 10.421875 -9.265625q7.109375 -3.65625 18.25 -3.65625q13.5625 0 21.171875 6.203125q7.625 6.203125 7.625 18.75l0 28.921875l7.296875 0l0 13.703125l-10.875 0zm-27.265625 -10.875q4.984375 0 8.4375 -2.4375q3.453125 -2.4375 3.453125 -7.046875l0 -7.921875l-10.109375 0q-11.640625 0 -11.640625 7.796875l0 2.5625q0 3.453125 2.6875 5.25q2.6875 1.796875 7.171875 1.796875zm84.22189 -63.625q-6.40625 0 -8.90625 -2.625q-2.484375 -2.625 -2.484375 -6.328125l0 -3.71875q0 -3.84375 2.484375 -6.390625q2.5 -2.5625 8.90625 -2.5625q6.390625 0 8.890625 2.5625q2.5 2.546875 2.5 6.390625l0 3.71875q0 3.703125 -2.5 6.328125q-2.5 2.625 -8.890625 2.625zm-30.46875 59.78125l21.0 0l0 -36.609375l-21.0 0l0 -14.71875l39.9375 0l0 51.328125l19.453125 0l0 14.71875l-59.390625 0l0 -14.71875zm73.08127 14.71875l0 -66.046875l18.953125 0l0 12.03125l0.765625 0q1.15625 -2.8125 2.8125 -5.25q1.671875 -2.4375 4.03125 -4.28125q2.375 -1.859375 5.5 -2.9375q3.140625 -1.09375 7.109375 -1.09375q4.734375 0 8.703125 1.59375q3.96875 1.59375 6.78125 4.796875q2.828125 3.203125 4.421875 7.8125q1.59375 4.609375 1.59375 10.625l0 42.75l-18.9375 0l0 -40.1875q0 -12.796875 -11.140625 -12.796875q-2.171875 0 -4.28125 0.578125q-2.109375 0.5625 -3.78125 1.78125q-1.65625 1.21875 -2.625 3.015625q-0.953125 1.78125 -0.953125 4.21875l0 43.390625l-18.953125 0zm200.45941 -39.8125l1.015625 -24.953125l-1.140625 0l-16.640625 45.953125l-16.640625 -45.953125l-1.15625 0l1.015625 24.953125l0 39.8125l-16.640625 0l0 -89.34375l22.65625 0l11.015625 30.078125l1.03125 0l11.0 -30.078125l21.125 0l0 89.34375l-16.640625 0l0 -39.8125zm61.815643 41.34375q-16.640625 0 -25.21875 -9.203125q-8.5625 -9.21875 -8.5625 -25.09375q0 -8.0625 2.234375 -14.53125q2.234375 -6.46875 6.390625 -11.0q4.171875 -4.546875 10.125 -6.90625q5.953125 -2.375 13.375 -2.375q7.421875 0 13.3125 2.375q5.890625 2.359375 9.984375 6.71875q4.09375 4.34375 6.328125 10.546875q2.25 6.203125 2.25 13.890625l0 5.625l-45.1875 0l0 1.15625q0 6.40625 3.96875 10.3125q3.96875 3.890625 11.640625 3.890625q5.890625 0 10.109375 -2.234375q4.234375 -2.234375 7.296875 -5.953125l10.25 11.140625q-3.84375 4.734375 -10.765625 8.1875q-6.90625 3.453125 -17.53125 3.453125zm-1.53125 -55.546875q-6.140625 0 -9.796875 3.78125q-3.640625 3.765625 -3.640625 10.171875l0 1.015625l26.625 0l0 -1.015625q0 -6.53125 -3.53125 -10.234375q-3.515625 -3.71875 -9.65625 -3.71875zm46.456238 54.015625l0 -66.046875l18.953125 0l0 12.03125l0.765625 0q1.15625 -2.8125 2.8125 -5.25q1.671875 -2.4375 4.03125 -4.28125q2.375 -1.859375 5.5 -2.9375q3.140625 -1.09375 7.109375 -1.09375q4.734375 0 8.703125 1.59375q3.96875 1.59375 6.78125 4.796875q2.828125 3.203125 4.421875 7.8125q1.59375 4.609375 1.59375 10.625l0 42.75l-18.9375 0l0 -40.1875q0 -12.796875 -11.140625 -12.796875q-2.171875 0 -4.28125 0.578125q-2.109375 0.5625 -3.78125 1.78125q-1.65625 1.21875 -2.625 3.015625q-0.953125 1.78125 -0.953125 4.21875l0 43.390625l-18.953125 0zm118.0188 -12.03125l-0.765625 0q-2.171875 5.625 -6.84375 9.59375q-4.671875 3.96875 -12.609375 3.96875q-4.734375 0 -8.703125 -1.59375q-3.96875 -1.59375 -6.78125 -4.796875q-2.8125 -3.203125 -4.421875 -7.8125q-1.59375 -4.609375 -1.59375 -10.625l0 -42.75l18.9375 0l0 40.1875q0 12.796875 11.140625 12.796875q2.171875 0 4.28125 -0.5625q2.109375 -0.578125 3.703125 -1.796875q1.609375 -1.21875 2.625 -3.0q1.03125 -1.796875 1.03125 -4.234375l0 -43.390625l18.953125 0l0 66.046875l-18.953125 0l0 -12.03125z" fill-rule="nonzero"/><path fill="#f2bb05" d="m787.87524 113.50549l38.015625 -20.09375l0 -1.015625l-38.015625 -20.09375l0 -17.671875l55.046875 29.4375l0 17.671875l-55.046875 29.4375l0 -17.671875z" fill-rule="nonzero"/><path fill="#ffffff" d="m967.5847 133.47424q-11.25 0 -19.578125 -3.703125q-8.3125 -3.71875 -13.4375 -10.109375l11.140625 -12.296875q4.859375 5.375 10.671875 7.9375q5.828125 2.5625 11.84375 2.5625q6.921875 0 10.5 -3.0625q3.59375 -3.078125 3.59375 -8.84375q0 -4.734375 -2.765625 -7.15625q-2.75 -2.4375 -9.265625 -3.46875l-9.34375 -1.53125q-12.046875 -2.046875 -17.421875 -8.890625q-5.375 -6.859375 -5.375 -16.71875q0 -12.921875 8.453125 -20.015625q8.453125 -7.109375 23.6875 -7.109375q10.359375 0 18.03125 3.203125q7.6875 3.1875 12.421875 8.703125l-10.875 12.15625q-3.578125 -3.96875 -8.453125 -6.203125q-4.859375 -2.25 -11.0 -2.25q-12.9375 0 -12.9375 10.625q0 4.609375 2.875 6.921875q2.890625 2.296875 9.421875 3.453125l9.34375 1.65625q10.875 1.921875 16.765625 8.203125q5.890625 6.265625 5.890625 16.890625q0 6.265625 -2.1875 11.578125q-2.171875 5.3125 -6.53125 9.21875q-4.34375 3.90625 -10.6875 6.078125q-6.328125 2.171875 -14.78125 2.171875zm80.003174 0q-16.640625 0 -25.218811 -9.203125q-8.5625 -9.21875 -8.5625 -25.09375q0 -8.0625 2.234375 -14.53125q2.234375 -6.46875 6.390625 -11.0q4.171936 -4.546875 10.125061 -6.90625q5.953125 -2.375 13.375 -2.375q7.421875 0 13.3125 2.375q5.890625 2.359375 9.984375 6.71875q4.09375 4.34375 6.328125 10.546875q2.25 6.203125 2.25 13.890625l0 5.625l-45.1875 0l0 1.15625q0 6.40625 3.96875 10.3125q3.96875 3.890625 11.640625 3.890625q5.890625 0 10.109375 -2.234375q4.234375 -2.234375 7.296875 -5.953125l10.25 11.140625q-3.84375 4.734375 -10.765625 8.1875q-6.90625 3.453125 -17.53125 3.453125zm-1.53125 -55.546875q-6.140625 0 -9.796875 3.78125q-3.640625 3.765625 -3.640625 10.171875l0 1.015625l26.625 0l0 -1.015625q0 -6.53125 -3.53125 -10.234375q-3.515625 -3.71875 -9.65625 -3.71875zm46.8468 39.296875l20.21875 0l0 -65.28125l-20.21875 0l0 -14.71875l39.171875 0l0 80.0l20.21875 0l0 14.71875l-59.390625 0l0 -14.71875zm108.284424 16.25q-16.640625 0 -25.21875 -9.203125q-8.5625 -9.21875 -8.5625 -25.09375q0 -8.0625 2.234375 -14.53125q2.234375 -6.46875 6.390625 -11.0q4.171875 -4.546875 10.125 -6.90625q5.953125 -2.375 13.375 -2.375q7.421875 0 13.3125 2.375q5.890625 2.359375 9.984375 6.71875q4.09375 4.34375 6.328125 10.546875q2.25 6.203125 2.25 13.890625l0 5.625l-45.1875 0l0 1.15625q0 6.40625 3.96875 10.3125q3.96875 3.890625 11.640625 3.890625q5.890625 0 10.109375 -2.234375q4.234375 -2.234375 7.296875 -5.953125l10.25 11.140625q-3.84375 4.734375 -10.765625 8.1875q-6.90625 3.453125 -17.53125 3.453125zm-1.53125 -55.546875q-6.140625 0 -9.796875 3.78125q-3.640625 3.765625 -3.640625 10.171875l0 1.015625l26.625 0l0 -1.015625q0 -6.53125 -3.53125 -10.234375q-3.515625 -3.71875 -9.65625 -3.71875zm79.23755 55.546875q-7.8125 0 -14.03125 -2.359375q-6.203125 -2.375 -10.5 -6.84375q-4.28125 -4.484375 -6.578125 -10.875q-2.296875 -6.40625 -2.296875 -14.484375q0 -8.0625 2.296875 -14.453125q2.296875 -6.40625 6.578125 -10.875q4.296875 -4.484375 10.5 -6.84375q6.21875 -2.375 13.890625 -2.375q10.890625 0 17.484375 4.421875q6.59375 4.40625 10.046875 11.703125l-14.59375 7.9375q-1.796875 -3.84375 -4.671875 -6.40625q-2.875 -2.5625 -8.265625 -2.5625q-6.515625 0 -10.046875 3.78125q-3.515625 3.78125 -3.515625 10.296875l0 10.765625q0 6.515625 3.515625 10.296875q3.53125 3.78125 10.3125 3.78125q5.5 0 8.625 -2.5625q3.140625 -2.5625 5.328125 -6.65625l14.328125 8.1875q-3.578125 7.296875 -10.4375 11.71875q-6.84375 4.40625 -17.96875 4.40625zm79.2218 -1.53125q-10.234375 0 -15.234375 -5.375q-4.984375 -5.375 -4.984375 -13.703125l0 -32.25l-17.921875 0l0 -14.71875l11.65625 0q4.21875 0 6.0 -1.65625q1.796875 -1.671875 1.796875 -6.15625l0 -15.484375l17.40625 0l0 23.296875l25.734375 0l0 14.71875l-25.734375 0l0 36.609375l25.734375 0l0 14.71875l-24.453125 0zm165.77197 0l-5.640625 -21.5l-24.453125 0l-5.5 21.5l-19.453125 0l24.1875 -89.34375l27.140625 0l24.1875 89.34375l-20.46875 0zm-17.28125 -70.78125l-1.03125 0l-8.703125 33.796875l18.4375 0l-8.703125 -33.796875zm79.48755 72.3125q-7.8125 0 -14.03125 -2.359375q-6.203125 -2.375 -10.5 -6.84375q-4.28125 -4.484375 -6.578125 -10.875q-2.296875 -6.40625 -2.296875 -14.484375q0 -8.0625 2.296875 -14.453125q2.296875 -6.40625 6.578125 -10.875q4.296875 -4.484375 10.5 -6.84375q6.21875 -2.375 13.890625 -2.375q10.890625 0 17.484375 4.421875q6.59375 4.40625 10.046875 11.703125l-14.59375 7.9375q-1.796875 -3.84375 -4.671875 -6.40625q-2.875 -2.5625 -8.265625 -2.5625q-6.515625 0 -10.046875 3.78125q-3.515625 3.78125 -3.515625 10.296875l0 10.765625q0 6.515625 3.515625 10.296875q3.53125 3.78125 10.3125 3.78125q5.5 0 8.625 -2.5625q3.140625 -2.5625 5.328125 -6.65625l14.328125 8.1875q-3.578125 7.296875 -10.4375 11.71875q-6.84375 4.40625 -17.96875 4.40625zm79.221924 -1.53125q-10.234375 0 -15.234375 -5.375q-4.984375 -5.375 -4.984375 -13.703125l0 -32.25l-17.921875 0l0 -14.71875l11.65625 0q4.21875 0 6.0 -1.65625q1.796875 -1.671875 1.796875 -6.15625l0 -15.484375l17.40625 0l0 23.296875l25.734375 0l0 14.71875l-25.734375 0l0 36.609375l25.734375 0l0 14.71875l-24.453125 0zm75.784424 -74.5q-6.40625 0 -8.90625 -2.625q-2.484375 -2.625 -2.484375 -6.328125l0 -3.71875q0 -3.84375 2.484375 -6.390625q2.5 -2.5625 8.90625 -2.5625q6.390625 0 8.890625 2.5625q2.5 2.546875 2.5 6.390625l0 3.71875q0 3.703125 -2.5 6.328125q-2.5 2.625 -8.890625 2.625zm-30.46875 59.78125l21.0 0l0 -36.609375l-21.0 0l0 -14.71875l39.9375 0l0 51.328125l19.453125 0l0 14.71875l-59.390625 0l0 -14.71875zm91.909424 14.71875l-23.6875 -66.046875l19.96875 0l8.578125 28.28125l6.265625 22.015625l1.03125 0l6.265625 -22.015625l8.578125 -28.28125l19.203125 0l-23.6875 66.046875l-22.515625 0zm92.159424 -74.5q-6.40625 0 -8.90625 -2.625q-2.484375 -2.625 -2.484375 -6.328125l0 -3.71875q0 -3.84375 2.484375 -6.390625q2.5 -2.5625 8.90625 -2.5625q6.390625 0 8.890625 2.5625q2.5 2.546875 2.5 6.390625l0 3.71875q0 3.703125 -2.5 6.328125q-2.5 2.625 -8.890625 2.625zm-30.46875 59.78125l21.0 0l0 -36.609375l-21.0 0l0 -14.71875l39.9375 0l0 51.328125l19.453125 0l0 14.71875l-59.390625 0l0 -14.71875zm108.284424 14.71875q-10.234375 0 -15.234375 -5.375q-4.984375 -5.375 -4.984375 -13.703125l0 -32.25l-17.921875 0l0 -14.71875l11.65625 0q4.21875 0 6.0 -1.65625q1.796875 -1.671875 1.796875 -6.15625l0 -15.484375l17.40625 0l0 23.296875l25.734375 0l0 14.71875l-25.734375 0l0 36.609375l25.734375 0l0 14.71875l-24.453125 0zm88.3313 -66.046875l19.328125 0l-31.109375 76.671875q-2.953125 7.296875 -7.8125 11.125q-4.859375 3.84375 -13.3125 3.84375l-13.046875 0l0 -14.71875l15.859375 0l4.109375 -11.265625l-26.625 -65.65625l20.34375 0l9.609375 27.78125l6.015625 19.1875l1.015625 0l5.765625 -19.1875l9.859375 -27.78125z" fill-rule="nonzero"/><path fill="#f2bb05" d="m2170.276 113.50549l38.015625 -20.09375l0 -1.015625l-38.015625 -20.09375l0 -17.671875l55.046875 29.4375l0 17.671875l-55.046875 29.4375l0 -17.671875z" fill-rule="nonzero"/><path fill="#c3c7cb" d="m3670.1746 11.197684l149.80688 0l0 149.80704l-149.80688 0z" fill-rule="evenodd"/><path stroke="#000000" stroke-width="3.0" stroke-linejoin="round" stroke-linecap="butt" d="m3670.1746 11.197684l149.80688 0l0 149.80704l-149.80688 0z" fill-rule="evenodd"/><path fill="#000000" d="m3768.5437 119.66683q0.59375 2.34375 0.59375 5.875q0 3.3593674 -0.59375 5.8593674l-11.734375 0q-0.578125 -2.5 -0.578125 -5.8593674q0 -3.53125 0.578125 -5.875l-4.390625 0q-0.59375 -2.484375 -0.59375 -5.859375q0 -3.53125 0.59375 -5.875l-2.9375 0q-0.59375 -2.484375 -0.59375 -5.859375q0 -3.515625 0.59375 -5.875l-8.796875 0q0.578125 2.359375 0.578125 5.875q0 3.375 -0.578125 5.859375l-2.9375 0q0.578125 2.34375 0.578125 5.875q0 3.375 -0.578125 5.859375l-4.40625 0q0.59375 2.34375 0.59375 5.875q0 3.3593674 -0.59375 5.8593674l-11.734375 0q-0.578125 -2.5 -0.578125 -5.8593674q0 -3.53125 0.578125 -5.875l4.40625 0q-0.59375 -2.484375 -0.59375 -5.859375q0 -3.53125 0.59375 -5.875l5.859375 0q-0.578125 -2.484375 -0.578125 -5.859375q0 -3.515625 0.578125 -5.875l4.40625 0q-0.59375 -2.484375 -0.59375 -5.859375q0 -3.515625 0.59375 -5.875l-4.40625 0q-0.578125 -2.484375 -0.578125 -5.859375q0 -3.515625 0.578125 -5.859375l-5.859375 0q-0.59375 -2.5 -0.59375 -5.875q0 -3.515625 0.59375 -5.859375l-4.40625 0q-0.578125 -2.5 -0.578125 -5.875q0 -3.515625 0.578125 -5.859375l11.734375 0q0.59375 2.34375 0.59375 5.859375q0 3.375 -0.59375 5.875l4.40625 0q0.578125 2.34375 0.578125 5.859375q0 3.375 -0.578125 5.875l2.9375 0q0.578125 2.34375 0.578125 5.859375q0 3.375 -0.578125 5.859375l8.796875 0q-0.59375 -2.484375 -0.59375 -5.859375q0 -3.515625 0.59375 -5.859375l2.9375 0q-0.59375 -2.5 -0.59375 -5.875q0 -3.515625 0.59375 -5.859375l4.390625 0q-0.578125 -2.5 -0.578125 -5.875q0 -3.515625 0.578125 -5.859375l11.734375 0q0.59375 2.34375 0.59375 5.859375q0 3.375 -0.59375 5.875l-4.40625 0q0.59375 2.34375 0.59375 5.859375q0 3.375 -0.59375 5.875l-5.859375 0q0.578125 2.34375 0.578125 5.859375q0 3.375 -0.578125 5.859375l-4.40625 0q0.59375 2.359375 0.59375 5.875q0 3.375 -0.59375 5.859375l4.40625 0q0.578125 2.359375 0.578125 5.875q0 3.375 -0.578125 5.859375l5.859375 0q0.59375 2.34375 0.59375 5.875q0 3.375 -0.59375 5.859375l4.40625 0z" fill-rule="nonzero"/><path fill="#c3c7cb" d="m3670.1746 11.197684l149.80688 0l0 0l-149.18384 0l0 149.18385l-0.6230469 0.6231842z" fill-rule="evenodd"/><path stroke="#ffffff" stroke-width="3.0" stroke-linejoin="round" stroke-linecap="butt" d="m3670.1746 11.197684l149.80688 0l0 0l-149.18384 0l0 149.18385l-0.6230469 0.6231842z" fill-rule="evenodd"/><path fill="#c3c7cb" d="m3503.1758 11.197684l149.80713 0l0 149.80704l-149.80713 0z" fill-rule="evenodd"/><path stroke="#000000" stroke-width="3.0" stroke-linejoin="round" stroke-linecap="butt" d="m3503.1758 11.197684l149.80713 0l0 149.80704l-149.80713 0z" fill-rule="evenodd"/><path fill="#000000" d="m3565.6199 119.66683q0.578125 2.34375 0.578125 5.875q0 3.3593674 -0.578125 5.8593674l-11.734375 0q-0.59375 -2.5 -0.59375 -5.8593674q0 -3.53125 0.59375 -5.875l-7.34375 0q-0.578125 -2.484375 -0.578125 -5.859375q0 -3.53125 0.578125 -5.875l-7.328125 0q-0.578125 -2.484375 -0.578125 -5.859375q0 -3.515625 0.578125 -5.875l-7.328125 0q-0.59375 -2.484375 -0.59375 -5.859375q0 -3.515625 0.59375 -5.875l7.328125 0q-0.578125 -2.484375 -0.578125 -5.859375q0 -3.515625 0.578125 -5.859375l7.328125 0q-0.578125 -2.5 -0.578125 -5.875q0 -3.515625 0.578125 -5.859375l7.34375 0q-0.59375 -2.5 -0.59375 -5.875q0 -3.515625 0.59375 -5.859375l11.734375 0q0.578125 2.34375 0.578125 5.859375q0 3.375 -0.578125 5.875l-7.34375 0q0.59375 2.34375 0.59375 5.859375q0 3.375 -0.59375 5.875l-7.328125 0q0.59375 2.34375 0.59375 5.859375q0 3.375 -0.59375 5.859375l-7.328125 0q0.578125 2.359375 0.578125 5.875q0 3.375 -0.578125 5.859375l7.328125 0q0.59375 2.359375 0.59375 5.875q0 3.375 -0.59375 5.859375l7.328125 0q0.59375 2.34375 0.59375 5.875q0 3.375 -0.59375 5.859375l7.34375 0zm56.459473 -35.203125q0.578125 2.359375 0.578125 5.875q0 3.375 -0.578125 5.859375l-29.328125 0q-0.59375 -2.484375 -0.59375 -5.859375q0 -3.515625 0.59375 -5.875l29.328125 0z" fill-rule="nonzero"/><path fill="#c3c7cb" d="m3503.1758 11.197684l149.80713 0l0 0l-149.18384 0l0 149.18385l-0.623291 0.6231842z" fill-rule="evenodd"/><path stroke="#ffffff" stroke-width="3.0" stroke-linejoin="round" stroke-linecap="butt" d="m3503.1758 11.197684l149.80713 0l0 0l-149.18384 0l0 149.18385l-0.623291 0.6231842z" fill-rule="evenodd"/></g></svg>