<svg version="1.1" viewBox="0.0 0.0 1920.0 1080.0" fill="none" stroke="none" stroke-linecap="square" stroke-miterlimit="10" xmlns:xlink="http://www.w3.org/1999/xlink" xmlns="http://www.w3.org/2000/svg"><clipPath id="p.0"><path d="m0 0l1920.0 0l0 1080.0l-1920.0 0l0 -1080.0z" clip-rule="nonzero"/></clipPath><g clip-path="url(#p.0)"><path fill="#161616" d="m0 0l1920.0 0l0 1080.0l-1920.0 0z" fill-rule="evenodd"/><path fill="#000000" fill-opacity="0.0" d="m4.3083987 0l1150.3938 0l0 58.362206l-1150.3938 0z" fill-rule="evenodd"/><path fill="#ff9900" d="m10.074024 21.940475l17.28125 6.28125l0 6.4375l-17.28125 6.328125l0 -6.53125l10.234375 -3.0l-10.234375 -3.0l0 -6.515625z" fill-rule="nonzero"/><path fill="#ffffff" d="m49.35088 15.42485q2.15625 0 4.859375 0.265625q2.703125 0.25 5.171875 1.125l-0.515625 5.5625q-1.796875 -0.03125 -4.46875 -0.046875q-2.65625 -0.03125 -5.25 -0.03125q-0.765625 0 -1.265625 0.046875q-0.5 0.03125 -0.78125 0.15625q-0.265625 0.125 -0.390625 0.328125q-0.125 0.1875 -0.125 0.515625q0 0.546875 0.5 0.9375q0.5 0.375 1.90625 0.9375l5.0 2.078125q3.4375 1.484375 4.8125 3.421875q1.390625 1.9375 1.390625 4.984375q0 2.3125 -0.5625 3.9375q-0.5625 1.625 -1.859375 2.609375q-1.296875 0.96875 -3.46875 1.421875q-2.15625 0.46875 -5.390625 0.46875q-1.40625 0 -4.25 -0.21875q-2.828125 -0.21875 -6.4375 -1.140625l0.515625 -6.078125q2.40625 0.03125 4.40625 0.09375q2.0 0.0625 3.453125 0.078125q1.46875 0.015625 2.1875 0.015625q1.125 0 1.703125 -0.078125q0.578125 -0.078125 0.796875 -0.296875q0.21875 -0.21875 0.21875 -0.578125q0 -0.40625 -0.15625 -0.65625q-0.15625 -0.265625 -0.5625 -0.5q-0.40625 -0.25 -1.15625 -0.515625l-5.484375 -2.40625q-3.359375 -1.515625 -4.765625 -3.390625q-1.390625 -1.890625 -1.390625 -4.9375q0 -2.359375 0.609375 -3.90625q0.625 -1.5625 1.9375 -2.484375q1.328125 -0.921875 3.5 -1.3125q2.1875 -0.40625 5.3125 -0.40625zm24.19685 7.59375q5.640625 0 8.0 1.8125q2.359375 1.796875 2.40625 5.3125q0.03125 2.796875 -1.671875 4.046875q-1.6875 1.234375 -6.09375 1.234375l-10.765625 0l0 -3.96875l8.40625 0q1.359375 0 1.71875 -0.25q0.359375 -0.265625 0.359375 -1.265625q0 -0.953125 -0.484375 -1.234375q-0.46875 -0.28125 -1.640625 -0.28125q-1.15625 -0.046875 -1.765625 0.234375q-0.59375 0.28125 -0.8125 1.21875q-0.21875 0.9375 -0.21875 2.9375q0 1.84375 0.25 2.890625q0.265625 1.03125 1.03125 1.484375q0.765625 0.4375 2.234375 0.4375q1.203125 0 3.375 -0.078125q2.1875 -0.09375 4.75 -0.375l0.765625 5.046875q-1.40625 0.71875 -3.015625 1.125q-1.59375 0.390625 -3.296875 0.546875q-1.6875 0.171875 -3.484375 0.171875q-4.171875 0 -6.6875 -1.15625q-2.515625 -1.171875 -3.6249962 -3.46875q-1.09375 -2.296875 -1.09375 -5.703125q0 -3.953125 1.109375 -6.296875q1.1249962 -2.34375 3.6249962 -3.375q2.5 -1.046875 6.625 -1.046875zm21.3656 -7.4375l0 20.71875q0 0.765625 0.5 1.109375q0.5 0.328125 1.5 0.328125l1.359375 0l0.921875 5.359375q-0.609375 0.359375 -1.71875 0.578125q-1.09375 0.21875 -2.234375 0.34375q-1.140625 0.125 -1.9375 0.125q-3.15625 0 -4.953125 -1.484375q-1.796875 -1.484375 -1.796875 -4.125l0 -22.953125l8.359375 0zm16.554367 7.4375q5.640625 0 8.0 1.8125q2.359375 1.796875 2.40625 5.3125q0.03125 2.796875 -1.671875 4.046875q-1.6875 1.234375 -6.09375 1.234375l-10.765625 0l0 -3.96875l8.40625 0q1.359375 0 1.71875 -0.25q0.359375 -0.265625 0.359375 -1.265625q0 -0.953125 -0.484375 -1.234375q-0.46875 -0.28125 -1.640625 -0.28125q-1.15625 -0.046875 -1.765625 0.234375q-0.59375 0.28125 -0.8125 1.21875q-0.21875 0.9375 -0.21875 2.9375q0 1.84375 0.25 2.890625q0.265625 1.03125 1.03125 1.484375q0.765625 0.4375 2.234375 0.4375q1.203125 0 3.375 -0.078125q2.1875 -0.09375 4.75 -0.375l0.765625 5.046875q-1.40625 0.71875 -3.015625 1.125q-1.59375 0.390625 -3.296875 0.546875q-1.6875 0.171875 -3.484375 0.171875q-4.171875 0 -6.6875 -1.15625q-2.515625 -1.171875 -3.625 -3.46875q-1.09375 -2.296875 -1.09375 -5.703125q0 -3.953125 1.109375 -6.296875q1.125 -2.34375 3.625 -3.375q2.5 -1.046875 6.625 -1.046875zm23.006226 0q1.234375 0 2.703125 0.125q1.484375 0.125 2.96875 0.4375q1.484375 0.3125 2.6875 0.921875l-0.84375 5.203125q-1.921875 0 -3.359375 0q-1.4375 0 -2.71875 0q-1.28125 0 -2.03125 0.328125q-0.734375 0.3125 -1.03125 1.140625q-0.296875 0.8125 -0.296875 2.359375q0 1.5625 0.296875 2.40625q0.296875 0.84375 1.03125 1.171875q0.75 0.3125 2.03125 0.3125q0.671875 0 1.6875 -0.015625q1.03125 -0.03125 2.265625 -0.078125q1.25 -0.0625 2.484375 -0.1875l0.765625 5.234375q-1.765625 0.921875 -4.09375 1.296875q-2.3125 0.390625 -4.625 0.390625q-3.921875 0 -6.265625 -1.015625q-2.34375 -1.03125 -3.359375 -3.34375q-1.015625 -2.328125 -1.015625 -6.171875q0 -3.875 1.03125 -6.171875q1.046875 -2.296875 3.40625 -3.3125q2.359375 -1.03125 6.28125 -1.03125zm21.55748 -4.671875l0 17.953125q0 0.765625 0.390625 1.109375q0.40625 0.328125 1.328125 0.328125l2.125 0l0.90625 5.359375q-0.828125 0.359375 -2.078125 0.578125q-1.234375 0.21875 -2.5 0.34375q-1.25 0.125 -2.21875 0.125q-2.921875 0 -4.640625 -1.484375q-1.71875 -1.484375 -1.71875 -4.125l-0.03125 -20.1875l8.4375 0zm4.84375 5.234375l0 5.046875l-16.640625 0l0 -4.84375l3.828125 -0.203125l12.8125 0zm21.435608 -8.15625q2.15625 0 4.859375 0.265625q2.703125 0.25 5.171875 1.125l-0.515625 5.5625q-1.796875 -0.03125 -4.46875 -0.046875q-2.65625 -0.03125 -5.25 -0.03125q-0.765625 0 -1.265625 0.046875q-0.5 0.03125 -0.78125 0.15625q-0.265625 0.125 -0.390625 0.328125q-0.125 0.1875 -0.125 0.515625q0 0.546875 0.5 0.9375q0.5 0.375 1.90625 0.9375l5.0 2.078125q3.4375 1.484375 4.8125 3.421875q1.390625 1.9375 1.390625 4.984375q0 2.3125 -0.5625 3.9375q-0.5625 1.625 -1.859375 2.609375q-1.296875 0.96875 -3.46875 1.421875q-2.15625 0.46875 -5.390625 0.46875q-1.40625 0 -4.25 -0.21875q-2.828125 -0.21875 -6.4375 -1.140625l0.515625 -6.078125q2.40625 0.03125 4.40625 0.09375q2.0 0.0625 3.453125 0.078125q1.46875 0.015625 2.1875 0.015625q1.125 0 1.703125 -0.078125q0.578125 -0.078125 0.796875 -0.296875q0.21875 -0.21875 0.21875 -0.578125q0 -0.40625 -0.15625 -0.65625q-0.15625 -0.265625 -0.5625 -0.5q-0.40625 -0.25 -1.15625 -0.515625l-5.484375 -2.40625q-3.359375 -1.515625 -4.765625 -3.390625q-1.390625 -1.890625 -1.390625 -4.9375q0 -2.359375 0.609375 -3.90625q0.625 -1.5625 1.9375 -2.484375q1.328125 -0.921875 3.5 -1.3125q2.1875 -0.40625 5.3125 -0.40625zm24.196854 7.59375q5.640625 0 8.0 1.8125q2.359375 1.796875 2.40625 5.3125q0.03125 2.796875 -1.671875 4.046875q-1.6875 1.234375 -6.09375 1.234375l-10.765625 0l0 -3.96875l8.40625 0q1.359375 0 1.71875 -0.25q0.359375 -0.265625 0.359375 -1.265625q0 -0.953125 -0.484375 -1.234375q-0.46875 -0.28125 -1.640625 -0.28125q-1.15625 -0.046875 -1.765625 0.234375q-0.59375 0.28125 -0.8125 1.21875q-0.21875 0.9375 -0.21875 2.9375q0 1.84375 0.25 2.890625q0.265625 1.03125 1.03125 1.484375q0.765625 0.4375 2.234375 0.4375q1.203125 0 3.375 -0.078125q2.1875 -0.09375 4.75 -0.375l0.765625 5.046875q-1.40625 0.71875 -3.015625 1.125q-1.59375 0.390625 -3.296875 0.546875q-1.6875 0.171875 -3.484375 0.171875q-4.171875 0 -6.6875 -1.15625q-2.515625 -1.171875 -3.625 -3.46875q-1.09375 -2.296875 -1.09375 -5.703125q0 -3.953125 1.109375 -6.296875q1.125 -2.34375 3.625 -3.375q2.5 -1.046875 6.625 -1.046875zm23.443726 -4.671875l0 17.953125q0 0.765625 0.390625 1.109375q0.40625 0.328125 1.328125 0.328125l2.125 0l0.90625 5.359375q-0.828125 0.359375 -2.078125 0.578125q-1.234375 0.21875 -2.5 0.34375q-1.25 0.125 -2.21875 0.125q-2.921875 0 -4.640625 -1.484375q-1.71875 -1.484375 -1.71875 -4.125l-0.03125 -20.1875l8.4375 0zm4.84375 5.234375l0 5.046875l-16.640625 0l0 -4.84375l3.828125 -0.203125l12.8125 0z" fill-rule="nonzero"/><path fill="#ff9900" d="m245.43382 21.940475l17.281265 6.28125l0 6.4375l-17.281265 6.328125l0 -6.53125l10.234375 -3.0l-10.234375 -3.0l0 -6.515625z" fill-rule="nonzero"/><path fill="#ffffff" d="m284.7107 15.42485q2.15625 0 4.859375 0.265625q2.703125 0.25 5.171875 1.125l-0.515625 5.5625q-1.796875 -0.03125 -4.46875 -0.046875q-2.65625 -0.03125 -5.25 -0.03125q-0.765625 0 -1.265625 0.046875q-0.5 0.03125 -0.78125 0.15625q-0.265625 0.125 -0.390625 0.328125q-0.125 0.1875 -0.125 0.515625q0 0.546875 0.5 0.9375q0.5 0.375 1.90625 0.9375l5.0 2.078125q3.4375 1.484375 4.8125 3.421875q1.390625 1.9375 1.390625 4.984375q0 2.3125 -0.5625 3.9375q-0.5625 1.625 -1.859375 2.609375q-1.296875 0.96875 -3.46875 1.421875q-2.15625 0.46875 -5.390625 0.46875q-1.40625 0 -4.25 -0.21875q-2.828125 -0.21875 -6.4375 -1.140625l0.515625 -6.078125q2.40625 0.03125 4.40625 0.09375q2.0 0.0625 3.453125 0.078125q1.46875 0.015625 2.1875 0.015625q1.125 0 1.703125 -0.078125q0.578125 -0.078125 0.796875 -0.296875q0.21875 -0.21875 0.21875 -0.578125q0 -0.40625 -0.15625 -0.65625q-0.15625 -0.265625 -0.5625 -0.5q-0.40625 -0.25 -1.15625 -0.515625l-5.484375 -2.40625q-3.359375 -1.515625 -4.765625 -3.390625q-1.390625 -1.890625 -1.390625 -4.9375q0 -2.359375 0.609375 -3.90625q0.625 -1.5625 1.9375 -2.484375q1.328125 -0.921875 3.5 -1.3125q2.1875 -0.40625 5.3125 -0.40625zm24.196838 7.59375q5.640625 0 8.0 1.8125q2.359375 1.796875 2.40625 5.3125q0.03125 2.796875 -1.671875 4.046875q-1.6875 1.234375 -6.09375 1.234375l-10.765625 0l0 -3.96875l8.40625 0q1.359375 0 1.71875 -0.25q0.359375 -0.265625 0.359375 -1.265625q0 -0.953125 -0.484375 -1.234375q-0.46875 -0.28125 -1.640625 -0.28125q-1.15625 -0.046875 -1.765625 0.234375q-0.59375 0.28125 -0.8125 1.21875q-0.21875 0.9375 -0.21875 2.9375q0 1.84375 0.25 2.890625q0.265625 1.03125 1.03125 1.484375q0.765625 0.4375 2.234375 0.4375q1.203125 0 3.375 -0.078125q2.1875 -0.09375 4.75 -0.375l0.765625 5.046875q-1.40625 0.71875 -3.015625 1.125q-1.59375 0.390625 -3.296875 0.546875q-1.6875 0.171875 -3.484375 0.171875q-4.171875 0 -6.6875 -1.15625q-2.515625 -1.171875 -3.625 -3.46875q-1.09375 -2.296875 -1.09375 -5.703125q0 -3.953125 1.109375 -6.296875q1.125 -2.34375 3.625 -3.375q2.5 -1.046875 6.625 -1.046875zm21.3656 -7.4375l0 20.71875q0 0.765625 0.5 1.109375q0.5 0.328125 1.5 0.328125l1.359375 0l0.921875 5.359375q-0.609375 0.359375 -1.71875 0.578125q-1.09375 0.21875 -2.234375 0.34375q-1.140625 0.125 -1.9375 0.125q-3.15625 0 -4.953125 -1.484375q-1.796875 -1.484375 -1.796875 -4.125l0 -22.953125l8.359375 0zm16.554382 7.4375q5.640625 0 8.0 1.8125q2.359375 1.796875 2.40625 5.3125q0.03125 2.796875 -1.671875 4.046875q-1.6875 1.234375 -6.09375 1.234375l-10.765625 0l0 -3.96875l8.40625 0q1.359375 0 1.71875 -0.25q0.359375 -0.265625 0.359375 -1.265625q0 -0.953125 -0.484375 -1.234375q-0.46875 -0.28125 -1.640625 -0.28125q-1.15625 -0.046875 -1.765625 0.234375q-0.59375 0.28125 -0.8125 1.21875q-0.21875 0.9375 -0.21875 2.9375q0 1.84375 0.25 2.890625q0.265625 1.03125 1.03125 1.484375q0.765625 0.4375 2.234375 0.4375q1.203125 0 3.375 -0.078125q2.1875 -0.09375 4.75 -0.375l0.765625 5.046875q-1.40625 0.71875 -3.015625 1.125q-1.59375 0.390625 -3.296875 0.546875q-1.6875 0.171875 -3.484375 0.171875q-4.171875 0 -6.6875 -1.15625q-2.515625 -1.171875 -3.625 -3.46875q-1.09375 -2.296875 -1.09375 -5.703125q0 -3.953125 1.109375 -6.296875q1.125 -2.34375 3.625 -3.375q2.5 -1.046875 6.625 -1.046875zm23.006226 0q1.234375 0 2.703125 0.125q1.484375 0.125 2.96875 0.4375q1.484375 0.3125 2.6875 0.921875l-0.84375 5.203125q-1.921875 0 -3.359375 0q-1.4375 0 -2.71875 0q-1.28125 0 -2.03125 0.328125q-0.734375 0.3125 -1.03125 1.140625q-0.296875 0.8125 -0.296875 2.359375q0 1.5625 0.296875 2.40625q0.296875 0.84375 1.03125 1.171875q0.75 0.3125 2.03125 0.3125q0.671875 0 1.6875 -0.015625q1.03125 -0.03125 2.265625 -0.078125q1.25 -0.0625 2.484375 -0.1875l0.765625 5.234375q-1.765625 0.921875 -4.09375 1.296875q-2.3125 0.390625 -4.625 0.390625q-3.921875 0 -6.265625 -1.015625q-2.34375 -1.03125 -3.359375 -3.34375q-1.015625 -2.328125 -1.015625 -6.171875q0 -3.875 1.03125 -6.171875q1.046875 -2.296875 3.40625 -3.3125q2.359375 -1.03125 6.28125 -1.03125zm21.557495 -4.671875l0 17.953125q0 0.765625 0.390625 1.109375q0.40625 0.328125 1.328125 0.328125l2.125 0l0.90625 5.359375q-0.828125 0.359375 -2.078125 0.578125q-1.234375 0.21875 -2.5 0.34375q-1.25 0.125 -2.21875 0.125q-2.921875 0 -4.640625 -1.484375q-1.71875 -1.484375 -1.71875 -4.125l-0.03125 -20.1875l8.4375 0zm4.84375 5.234375l0 5.046875l-16.640625 0l0 -4.84375l3.828125 -0.203125l12.8125 0zm25.546844 -7.59375q1.046875 0 1.84375 0.59375q0.796875 0.59375 1.078125 1.640625l7.171875 25.359375l-8.84375 0l-4.15625 -17.953125q-0.171875 -0.765625 -0.296875 -1.578125q-0.109375 -0.828125 -0.1875 -1.59375l-1.078125 0q-0.078125 0.765625 -0.203125 1.59375q-0.125 0.8125 -0.28125 1.578125l-4.15625 17.953125l-8.84375 0l7.15625 -25.359375q0.28125 -1.046875 1.078125 -1.640625q0.8125 -0.59375 1.84375 -0.59375l7.875 0zm3.40625 15.546875l0 6.09375l-14.6875 0l0 -6.09375l14.6875 0zm18.085602 -8.515625q1.234375 0 2.703125 0.125q1.484375 0.125 2.96875 0.4375q1.484375 0.3125 2.6875 0.921875l-0.84375 5.203125q-1.921875 0 -3.359375 0q-1.4375 0 -2.71875 0q-1.28125 0 -2.03125 0.328125q-0.734375 0.3125 -1.03125 1.140625q-0.296875 0.8125 -0.296875 2.359375q0 1.5625 0.296875 2.40625q0.296875 0.84375 1.03125 1.171875q0.75 0.3125 2.03125 0.3125q0.671875 0 1.6875 -0.015625q1.03125 -0.03125 2.265625 -0.078125q1.25 -0.0625 2.484375 -0.1875l0.765625 5.234375q-1.765625 0.921875 -4.09375 1.296875q-2.3125 0.390625 -4.625 0.390625q-3.921875 0 -6.265625 -1.015625q-2.34375 -1.03125 -3.359375 -3.34375q-1.015625 -2.328125 -1.015625 -6.171875q0 -3.875 1.03125 -6.171875q1.046875 -2.296875 3.40625 -3.3125q2.359375 -1.03125 6.28125 -1.03125zm21.557495 -4.671875l0 17.953125q0 0.765625 0.390625 1.109375q0.40625 0.328125 1.328125 0.328125l2.125 0l0.90625 5.359375q-0.828125 0.359375 -2.078125 0.578125q-1.234375 0.21875 -2.5 0.34375q-1.25 0.125 -2.21875 0.125q-2.921875 0 -4.640625 -1.484375q-1.71875 -1.484375 -1.71875 -4.125l-0.03125 -20.1875l8.4375 0zm4.84375 5.234375l0 5.046875l-16.640625 0l0 -4.84375l3.828125 -0.203125l12.8125 0zm10.7074585 0l0 20.0l-8.359375 0l0 -20.0l8.359375 0zm-2.390625 -9.15625q2.4375 0 2.4375 2.46875l0 2.046875q0 2.484375 -2.4375 2.484375l-3.5625 0q-2.4375 0 -2.4375 -2.484375l0 -2.046875q0 -2.46875 2.4375 -2.46875l3.5625 0zm28.432495 9.15625l-5.921875 18.046875q-0.28125 0.875 -0.984375 1.421875q-0.6875 0.53125 -1.65625 0.53125l-7.15625 0q-0.953125 0 -1.65625 -0.53125q-0.703125 -0.546875 -0.984375 -1.421875l-5.921875 -18.046875l8.890625 0l2.4375 11.046875q0.203125 0.90625 0.3125 1.875q0.125 0.953125 0.25 1.875l0.515625 0q0.125 -0.921875 0.28125 -1.875q0.15625 -0.96875 0.3125 -1.875l2.40625 -11.046875l8.875 0zm10.118103 0l0 20.0l-8.359375 0l0 -20.0l8.359375 0zm-2.390625 -9.15625q2.4375 0 2.4375 2.46875l0 2.046875q0 2.484375 -2.4375 2.484375l-3.5625 0q-2.4375 0 -2.4375 -2.484375l0 -2.046875q0 -2.46875 2.4375 -2.46875l3.5625 0zm16.47937 3.921875l0 17.953125q0 0.765625 0.390625 1.109375q0.40625 0.328125 1.328125 0.328125l2.125 0l0.90625 5.359375q-0.828125 0.359375 -2.078125 0.578125q-1.234375 0.21875 -2.5 0.34375q-1.25 0.125 -2.21875 0.125q-2.921875 0 -4.640625 -1.484375q-1.71875 -1.484375 -1.71875 -4.125l-0.03125 -20.1875l8.4375 0zm4.84375 5.234375l0 5.046875l-16.640625 0l0 -4.84375l3.828125 -0.203125l12.8125 0zm24.629395 0l-6.359375 19.4375q-0.515625 1.640625 -1.5 3.390625q-0.984375 1.765625 -2.5625 3.140625q-1.578125 1.390625 -3.859375 1.96875q-2.28125 0.578125 -5.390625 -0.0625l-0.5625 -4.515625q2.484375 -0.515625 3.9375 -1.375q1.453125 -0.859375 2.21875 -2.546875l1.484375 -3.203125q0.4375 -1.0 0.78125 -2.546875q0.34375 -1.5625 0.53125 -2.640625l2.359375 -11.046875l8.921875 0zm-15.359375 0l2.359375 11.046875q0.15625 0.90625 0.28125 1.875q0.125 0.953125 0.25 1.875l1.1875 0l-2.59375 5.203125l-1.84375 0q-0.953125 0 -1.65625 -0.53125q-0.703125 -0.546875 -0.984375 -1.421875l-5.921875 -18.046875l8.921875 0z" fill-rule="nonzero"/><path fill="#ff9900" d="m569.31354 21.940475l17.28125 6.28125l0 6.4375l-17.28125 6.328125l0 -6.53125l10.234375 -3.0l-10.234375 -3.0l0 -6.515625z" fill-rule="nonzero"/><path fill="#ff9900" d="m0 54.706036l1920.0 0l0 8.818897l-1920.0 0z" fill-rule="evenodd"/></g></svg>