<svg version="1.1" viewBox="0.0 0.0 3840.0 2160.0" fill="none" stroke="none" stroke-linecap="square" stroke-miterlimit="10" xmlns:xlink="http://www.w3.org/1999/xlink" xmlns="http://www.w3.org/2000/svg"><clipPath id="p.0"><path d="m0 0l3840.0 0l0 2160.0l-3840.0 0l0 -2160.0z" clip-rule="nonzero"/></clipPath><g clip-path="url(#p.0)"><path fill="#161616" d="m0 0l3840.0 0l0 2160.0l-3840.0 0z" fill-rule="evenodd"/><path fill="#000000" fill-opacity="0.0" d="m1315.3701 0l1209.2598 0l0 379.1496l-1209.2598 0z" fill-rule="evenodd"/><path fill="#ffffff" d="m1382.3289 43.567505l0 88.3125l-27.515625 0l0 -88.3125l27.515625 0zm96.52551 22.515625q9.078125 0 13.75 4.546875q4.671875 4.546875 4.671875 13.375l0 47.875l-26.75 0l0 -39.296875q0 -2.171875 -0.90625 -3.0q-0.890625 -0.84375 -3.3125 -0.84375q-1.15625 0 -2.375 0.140625q-1.21875 0.125 -2.953125 0.640625q-1.71875 0.5 -4.40625 1.65625l-1.40625 -13.1875q5.640625 -6.015625 11.078125 -8.953125q5.4375 -2.953125 12.609375 -2.953125zm-63.234375 1.796875l3.203125 13.0625l2.546875 1.53125l0 49.40625l-26.75 0l0 -64.0l21.0 0zm25.21875 -1.796875q8.828125 0 13.4375 4.546875q4.609375 4.546875 4.609375 13.375l0 47.875l-25.859375 0l0 -39.296875q0 -2.171875 -1.03125 -3.0q-1.015625 -0.84375 -3.328125 -0.84375q-1.140625 0 -2.421875 0.140625q-1.28125 0.125 -3.078125 0.640625q-1.796875 0.5 -4.609375 1.65625l-1.40625 -13.1875q5.625 -6.015625 11.0 -8.953125q5.390625 -2.953125 12.6875 -2.953125zm114.295654 0.265625q12.546875 0 17.796875 8.96875q5.25 8.953125 5.25 25.328125q0 13.1875 -2.765625 20.359375q-2.75 7.15625 -8.125 9.921875q-5.375 2.75 -13.3125 2.75q-7.296875 0 -13.640625 -2.171875q-6.328125 -2.1875 -10.15625 -7.5625l1.78125 -10.5q2.5625 0.90625 4.921875 1.796875q2.375 0.890625 6.34375 0.890625q2.6875 0 4.28125 -0.953125q1.609375 -0.953125 2.3125 -4.21875q0.703125 -3.265625 0.703125 -10.046875q0 -6.921875 -0.703125 -10.1875q-0.703125 -3.265625 -2.25 -4.15625q-1.53125 -0.890625 -3.953125 -0.890625q-3.328125 0 -5.25 0.703125q-1.921875 0.703125 -3.96875 1.71875l-3.71875 -10.109375q1.671875 -3.203125 5.3125 -5.828125q3.65625 -2.625 8.640625 -4.21875q5.0 -1.59375 10.5 -1.59375zm-25.71875 1.53125l2.546875 10.109375l2.828125 2.046875l0 42.375l-0.78125 1.53125q0.390625 4.09375 0.640625 8.953125q0.265625 4.875 0.140625 9.359375l0 12.671875l-26.890625 0l0 -87.046875l21.515625 0zm91.516235 -1.796875q13.046875 0 20.921875 3.265625q7.875 3.265625 11.328125 10.6875q3.453125 7.421875 3.453125 19.96875q0 12.296875 -3.453125 19.59375q-3.453125 7.296875 -11.328125 10.5625q-7.875 3.25 -20.921875 3.25q-13.0625 0 -20.9375 -3.25q-7.859375 -3.265625 -11.390625 -10.5625q-3.515625 -7.296875 -3.515625 -19.59375q0 -12.546875 3.515625 -19.96875q3.53125 -7.421875 11.390625 -10.6875q7.875 -3.265625 20.9375 -3.265625zm0 18.1875q-3.078125 0 -4.75 1.21875q-1.65625 1.203125 -2.296875 4.53125q-0.640625 3.328125 -0.640625 9.984375q0 6.40625 0.640625 9.671875q0.640625 3.265625 2.296875 4.421875q1.671875 1.140625 4.75 1.140625q3.0625 0 4.71875 -1.140625q1.671875 -1.15625 2.25 -4.421875q0.578125 -3.265625 0.578125 -9.671875q0 -6.65625 -0.578125 -9.984375q-0.578125 -3.328125 -2.25 -4.53125q-1.65625 -1.21875 -4.71875 -1.21875zm65.53613 -16.390625l3.328125 13.0625l2.5625 1.53125l0 49.40625l-26.890625 0l0 -64.0l21.0 0zm31.09375 -1.796875l-2.296875 24.578125l-6.78125 0q-3.453125 0 -7.75 0.328125q-4.28125 0.3125 -11.203125 1.46875l-1.53125 -14.46875q6.265625 -6.015625 12.921875 -8.953125q6.65625 -2.953125 12.9375 -2.953125l3.703125 0zm39.309082 -14.96875l0 57.46875q0 2.4375 1.265625 3.53125q1.28125 1.078125 4.234375 1.078125l6.78125 0l2.9375 17.15625q-2.6875 1.140625 -6.65625 1.84375q-3.96875 0.71875 -8.0 1.09375q-4.03125 0.390625 -7.09375 0.390625q-9.34375 0 -14.859375 -4.734375q-5.5 -4.75 -5.5 -13.1875l-0.125 -64.640625l27.015625 0zm15.484375 16.765625l0 16.125l-53.25 0l0 -15.484375l12.28125 -0.640625l40.96875 0zm73.60034 -26.109375q11.390625 0 19.25 2.109375q7.875 2.109375 12.734375 7.234375q4.875 5.125 7.046875 14.015625q2.1875 8.890625 2.1875 22.59375q0 13.5625 -2.1875 22.53125q-2.171875 8.953125 -7.046875 14.078125q-4.859375 5.109375 -12.734375 7.234375q-7.859375 2.109375 -19.25 2.109375q-11.265625 0 -19.140625 -2.109375q-7.875 -2.125 -12.734375 -7.234375q-4.859375 -5.125 -7.046875 -14.078125q-2.171875 -8.96875 -2.171875 -22.53125q0 -13.703125 2.171875 -22.59375q2.1875 -8.890625 7.046875 -14.015625q4.859375 -5.125 12.734375 -7.234375q7.875 -2.109375 19.140625 -2.109375zm-7.5625 93.4375q9.609375 3.578125 19.78125 5.625q10.171875 2.0625 22.34375 3.84375l-6.796875 22.40625q-13.046875 -3.71875 -23.359375 -8.515625q-10.296875 -4.796875 -17.84375 -10.171875l5.875 -13.1875zm7.5625 -72.828125q-4.734375 0 -7.296875 2.046875q-2.5625 2.046875 -3.59375 7.546875q-1.015625 5.5 -1.015625 15.75q0 10.234375 1.015625 15.75q1.03125 5.5 3.59375 7.546875q2.5625 2.046875 7.296875 2.046875q4.734375 0 7.296875 -2.046875q2.5625 -2.046875 3.578125 -7.546875q1.03125 -5.515625 1.03125 -15.75q0 -10.25 -1.03125 -15.75q-1.015625 -5.5 -3.578125 -7.546875q-2.5625 -2.046875 -7.296875 -2.046875zm77.30847 5.5l0 39.296875q0 2.046875 1.140625 3.015625q1.15625 0.953125 3.59375 0.953125q2.5625 0 5.25 -0.4375q2.6875 -0.453125 7.046875 -2.125l1.53125 13.1875q-6.53125 6.015625 -12.9375 8.96875q-6.390625 2.9375 -13.5625 2.9375q-18.9375 0 -18.9375 -17.921875l0 -47.875l26.875 0zm41.21875 0l0 64.0l-21.125 0l-3.328125 -13.0625l-2.5625 -1.53125l0 -49.40625l27.015625 0zm38.266968 0l0 64.0l-26.75 0l0 -64.0l26.75 0zm-7.671875 -29.3125q7.796875 0 7.796875 7.9375l0 6.53125q0 7.9375 -7.796875 7.9375l-11.390625 0q-7.8125 0 -7.8125 -7.9375l0 -6.53125q0 -7.9375 7.8125 -7.9375l11.390625 0zm47.221436 46.46875l31.234375 0.125l-29.828125 29.5625l-31.21875 -0.125l29.8125 -29.5625zm32.0 29.5625l0 17.28125l-61.8125 0l0 -17.28125l61.8125 0zm-0.765625 -46.71875l0 17.28125l-60.28125 0l0 -17.28125l60.28125 0zm36.873047 -25.59375l0 66.296875q0 2.4375 1.59375 3.53125q1.59375 1.078125 4.796875 1.078125l4.359375 0l2.9375 17.15625q-1.921875 1.140625 -5.4375 1.84375q-3.515625 0.71875 -7.171875 1.09375q-3.640625 0.390625 -6.203125 0.390625q-10.109375 0 -15.875 -4.734375q-5.765625 -4.75 -5.765625 -13.1875l0 -73.46875l26.765625 0zm52.980225 23.796875q18.046875 0 25.59375 5.765625q7.5625 5.765625 7.6875 17.015625q0.125 8.96875 -5.3125 12.9375q-5.4375 3.96875 -19.515625 3.96875l-34.4375 0l0 -12.671875l26.890625 0q4.34375 0 5.5 -0.828125q1.15625 -0.84375 1.15625 -4.03125q0 -3.078125 -1.546875 -3.96875q-1.53125 -0.90625 -5.25 -0.90625q-3.703125 -0.125 -5.625 0.78125q-1.921875 0.890625 -2.625 3.90625q-0.703125 3.0 -0.703125 9.390625q0 5.890625 0.828125 9.21875q0.84375 3.328125 3.265625 4.734375q2.4375 1.40625 7.171875 1.40625q3.84375 0 10.8125 -0.25q6.984375 -0.25 15.171875 -1.15625l2.4375 16.125q-4.484375 2.3125 -9.609375 3.59375q-5.125 1.28125 -10.5625 1.78125q-5.4375 0.515625 -11.1875 0.515625q-13.3125 0 -21.390625 -3.703125q-8.0625 -3.71875 -11.578125 -11.078125q-3.515625 -7.359375 -3.515625 -18.234375q0 -12.671875 3.578125 -20.15625q3.59375 -7.5 11.59375 -10.828125q8.0 -3.328125 21.171875 -3.328125zm75.02002 -14.96875l0 57.46875q0 2.4375 1.265625 3.53125q1.28125 1.078125 4.234375 1.078125l6.78125 0l2.9375 17.15625q-2.6875 1.140625 -6.65625 1.84375q-3.96875 0.71875 -8.0 1.09375q-4.03125 0.390625 -7.09375 0.390625q-9.34375 0 -14.859375 -4.734375q-5.5 -4.75 -5.5 -13.1875l-0.125 -64.640625l27.015625 0zm15.484375 16.765625l0 16.125l-53.25 0l0 -15.484375l12.28125 -0.640625l40.96875 0zm68.60034 -26.109375q6.921875 0 15.5625 0.828125q8.640625 0.828125 16.5625 3.65625l-1.65625 17.78125q-5.765625 -0.125 -14.28125 -0.1875q-8.5 -0.0625 -16.828125 -0.0625q-2.421875 0 -4.03125 0.125q-1.59375 0.125 -2.5 0.515625q-0.890625 0.375 -1.28125 1.015625q-0.375 0.640625 -0.375 1.671875q0 1.796875 1.59375 3.015625q1.609375 1.203125 6.09375 3.0l16.0 6.65625q11.0 4.734375 15.40625 10.953125q4.421875 6.203125 4.421875 15.921875q0 7.421875 -1.796875 12.609375q-1.78125 5.1875 -5.953125 8.328125q-4.15625 3.125 -11.0625 4.59375q-6.90625 1.484375 -17.28125 1.484375q-4.484375 0 -13.578125 -0.703125q-9.078125 -0.703125 -20.59375 -3.65625l1.65625 -19.453125q7.6875 0.125 14.078125 0.328125q6.40625 0.1875 11.078125 0.25q4.671875 0.0625 6.984375 0.0625q3.578125 0 5.4375 -0.25q1.859375 -0.265625 2.5625 -0.96875q0.703125 -0.703125 0.703125 -1.859375q0 -1.28125 -0.515625 -2.109375q-0.515625 -0.828125 -1.796875 -1.59375q-1.28125 -0.765625 -3.703125 -1.671875l-17.546875 -7.671875q-10.75 -4.875 -15.234375 -10.890625q-4.46875 -6.015625 -4.46875 -15.734375q0 -7.5625 1.984375 -12.546875q1.984375 -4.984375 6.203125 -7.921875q4.21875 -2.953125 11.1875 -4.234375q6.984375 -1.28125 16.96875 -1.28125zm77.43921 24.3125q18.046875 0 25.59375 5.765625q7.5625 5.765625 7.6875 17.015625q0.125 8.96875 -5.3125 12.9375q-5.4375 3.96875 -19.515625 3.96875l-34.4375 0l0 -12.671875l26.890625 0q4.34375 0 5.5 -0.828125q1.15625 -0.84375 1.15625 -4.03125q0 -3.078125 -1.546875 -3.96875q-1.53125 -0.90625 -5.25 -0.90625q-3.703125 -0.125 -5.625 0.78125q-1.921875 0.890625 -2.625 3.90625q-0.703125 3.0 -0.703125 9.390625q0 5.890625 0.828125 9.21875q0.84375 3.328125 3.265625 4.734375q2.4375 1.40625 7.171875 1.40625q3.84375 0 10.8125 -0.25q6.984375 -0.25 15.171875 -1.15625l2.4375 16.125q-4.484375 2.3125 -9.609375 3.59375q-5.125 1.28125 -10.5625 1.78125q-5.4375 0.515625 -11.1875 0.515625q-13.3125 0 -21.390625 -3.703125q-8.0625 -3.71875 -11.578125 -11.078125q-3.515625 -7.359375 -3.515625 -18.234375q0 -12.671875 3.578125 -20.15625q3.59375 -7.5 11.59375 -10.828125q8.0 -3.328125 21.171875 -3.328125zm75.02002 -14.96875l0 57.46875q0 2.4375 1.265625 3.53125q1.28125 1.078125 4.234375 1.078125l6.78125 0l2.9375 17.15625q-2.6875 1.140625 -6.65625 1.84375q-3.96875 0.71875 -8.0 1.09375q-4.03125 0.390625 -7.09375 0.390625q-9.34375 0 -14.859375 -4.734375q-5.5 -4.75 -5.5 -13.1875l-0.125 -64.640625l27.015625 0zm15.484375 16.765625l0 16.125l-53.25 0l0 -15.484375l12.28125 -0.640625l40.96875 0z" fill-rule="nonzero"/><path fill="#000000" fill-opacity="0.0" d="m1002.28345 40.212597l1835.4331 0l0 450.96063l-1835.4331 0z" fill-rule="evenodd"/><path fill="#ff9900" d="m1758.2988 205.97356q3.53125 0 7.171875 0.046875q3.65625 0.03125 7.171875 0.15625q3.515625 0.125 6.59375 0.4375l-0.453125 7.109375l-16.953125 0q-1.609375 0 -2.40625 0.796875q-0.796875 0.796875 -0.796875 2.46875l0 22.53125q0 1.59375 0.796875 2.4375q0.796875 0.828125 2.40625 0.828125l16.953125 0l0.453125 7.09375q-3.078125 0.265625 -6.59375 0.390625q-3.515625 0.125 -7.171875 0.15625q-3.640625 0.03125 -7.171875 0.03125q-4.21875 0 -6.8125 -2.421875q-2.59375 -2.4375 -2.65625 -6.40625l0 -26.75q0.0625 -4.03125 2.65625 -6.46875q2.59375 -2.4375 6.8125 -2.4375zm-8.3125 17.921875l26.4375 0l0 6.921875l-26.4375 0l0 -6.921875zm57.60132 -6.015625q8.953125 0 8.953125 8.765625l0 23.6875l-9.46875 0l0 -20.734375q0 -2.109375 -0.765625 -2.90625q-0.765625 -0.8125 -2.625 -0.8125q-2.046875 0 -4.234375 0.8125q-2.171875 0.796875 -5.359375 2.390625l-0.453125 -5.25q3.390625 -2.875 6.9375 -4.40625q3.5625 -1.546875 7.015625 -1.546875zm-14.40625 0.84375l1.09375 6.265625l0.765625 0.828125l0 24.515625l-9.40625 0l0 -31.609375l7.546875 0zm42.885864 -0.84375q2.296875 0 4.984375 0.171875q2.6875 0.15625 5.25 0.421875q2.5625 0.25 4.546875 0.625l-0.640625 5.890625q-3.078125 -0.0625 -6.1875 -0.125q-3.09375 -0.0625 -6.03125 -0.0625q-2.5 0 -3.84375 0.09375q-1.34375 0.09375 -1.890625 0.578125q-0.546875 0.46875 -0.546875 1.6875q0 1.46875 0.953125 1.953125q0.96875 0.484375 3.21875 1.0625l8.25 1.984375q3.96875 1.015625 5.890625 3.03125q1.921875 2.015625 1.921875 6.046875q0 3.96875 -1.484375 6.09375q-1.46875 2.109375 -4.671875 2.90625q-3.1875 0.796875 -8.25 0.796875q-1.984375 0 -5.890625 -0.203125q-3.90625 -0.1875 -8.515625 -0.953125l0.578125 -5.890625q1.21875 0.078125 2.96875 0.109375q1.765625 0.03125 3.875 0.03125q2.125 0 4.234375 0q3.328125 0 5.046875 -0.15625q1.734375 -0.171875 2.375 -0.75q0.640625 -0.578125 0.640625 -1.71875q0 -1.46875 -1.09375 -1.953125q-1.078125 -0.484375 -3.453125 -1.125l-8.0 -1.984375q-3.0625 -0.828125 -4.734375 -2.109375q-1.65625 -1.28125 -2.328125 -3.09375q-0.671875 -1.828125 -0.671875 -4.390625q0 -3.265625 1.34375 -5.25q1.34375 -1.984375 4.28125 -2.84375q2.9375 -0.875 7.875 -0.875zm31.233887 0.84375l0 20.796875q0 1.984375 0.859375 2.8125q0.859375 0.828125 2.78125 0.828125q1.984375 0 3.9375 -0.734375q1.953125 -0.734375 4.890625 -2.328125l0.703125 5.171875q-3.453125 2.953125 -6.75 4.421875q-3.296875 1.46875 -6.875 1.46875q-8.953125 0 -8.953125 -8.765625l0 -23.671875l9.40625 0zm20.921875 0l0 31.609375l-7.421875 0l-1.09375 -6.203125l-0.953125 -0.90625l0 -24.5l9.46875 0zm15.170654 0l1.15625 6.265625l0.890625 0.828125l0 24.515625l-9.40625 0l0 -31.609375l7.359375 0zm15.421875 -0.84375l-0.890625 8.703125l-2.625 0q-2.25 0 -4.6875 0.640625q-2.421875 0.640625 -6.125 1.984375l-0.640625 -5.3125q3.328125 -2.9375 6.71875 -4.46875q3.390625 -1.546875 6.59375 -1.546875l1.65625 0zm18.94104 0q8.0 0 11.484375 2.71875q3.5 2.71875 3.5 8.109375q0.0625 4.28125 -2.1875 6.46875q-2.234375 2.171875 -7.734375 2.171875l-17.671875 0l0 -5.3125l15.109375 0q2.109375 0 2.71875 -0.921875q0.609375 -0.9375 0.609375 -2.609375q0 -2.234375 -1.25 -3.09375q-1.25 -0.875 -4.25 -0.875q-2.625 -0.0625 -4.109375 0.671875q-1.46875 0.734375 -2.046875 2.71875q-0.5625 1.984375 -0.5625 5.765625q0 3.96875 0.703125 6.109375q0.703125 2.140625 2.390625 2.984375q1.703125 0.828125 4.703125 0.828125q2.1875 0 5.40625 -0.15625q3.234375 -0.171875 6.5 -0.546875l0.90625 5.828125q-1.859375 0.890625 -4.234375 1.40625q-2.359375 0.5 -4.859375 0.71875q-2.5 0.234375 -4.796875 0.234375q-6.015625 0 -9.671875 -1.75q-3.640625 -1.765625 -5.28125 -5.40625q-1.625 -3.65625 -1.625 -9.359375q0 -6.203125 1.625 -9.84375q1.640625 -3.65625 5.21875 -5.25q3.578125 -1.609375 9.40625 -1.609375zm46.270874 -7.9375l0 30.28125q0 1.71875 0.796875 2.46875q0.8125 0.734375 2.65625 0.734375l4.109375 0l1.015625 6.390625q-1.15625 0.390625 -2.828125 0.671875q-1.65625 0.296875 -3.328125 0.421875q-1.65625 0.125 -2.796875 0.125q-4.296875 0 -6.703125 -2.265625q-2.390625 -2.28125 -2.390625 -6.4375l0 -32.390625l9.46875 0zm8.84375 8.78125l0 6.203125l-23.8125 0l0 -5.890625l6.140625 -0.3125l17.671875 0zm27.068115 -0.84375q8.953003 0 8.953003 8.765625l0 23.6875l-9.468628 0l0 -20.734375q0 -2.109375 -0.765625 -2.90625q-0.765625 -0.8125 -2.625 -0.8125q-2.046875 0 -4.234375 0.78125q-2.171875 0.765625 -5.359375 2.421875l-0.84375 -4.859375q3.53125 -3.078125 7.171875 -4.703125q3.65625 -1.640625 7.171875 -1.640625zm-12.546875 -12.34375l0.0625 10.9375q0 2.5 -0.296875 4.75q-0.28125 2.234375 -0.65625 3.765625l0.890625 0.828125l0 24.515625l-9.40625 0l0 -44.796875l9.40625 0zm45.698364 12.34375q3.96875 0 6.71875 1.0625q2.75 1.046875 4.1875 3.578125q1.4375 2.53125 1.4375 6.890625l0 20.921875l-7.484375 0l-1.34375 -6.84375l-0.640625 -0.96875l0 -13.109375q-0.0625 -2.3125 -1.125 -3.296875q-1.046875 -1.0 -3.921875 -1.0q-2.5 0 -6.156372 0.171875q-3.640625 0.15625 -7.484375 0.40625l-0.828125 -6.265625q2.296875 -0.453125 5.265625 -0.765625q2.984375 -0.328125 5.984375 -0.546875q3.015747 -0.234375 5.390747 -0.234375zm8.4375 13.0l-0.0625 5.3125l-14.078247 0q-1.71875 0.0625 -2.46875 0.890625q-0.734375 0.828125 -0.734375 2.234375l0 1.546875q0 1.59375 0.890625 2.46875q0.90625 0.859375 2.890625 0.859375q1.6719971 0 3.609497 -0.703125q1.953125 -0.703125 3.875 -1.984375q1.921875 -1.28125 3.46875 -3.015625l0 4.09375q-0.578125 0.96875 -1.734375 2.40625q-1.15625 1.4375 -2.890625 2.8125q-1.71875 1.375 -4.03125 2.3125q-2.296997 0.921875 -5.234497 0.921875q-2.828125 0 -5.171875 -0.984375q-2.328125 -1.0 -3.671875 -2.984375q-1.34375 -1.984375 -1.34375 -4.921875l0 -3.265625q0 -3.78125 2.5625 -5.890625q2.5625 -2.109375 7.046875 -2.109375l17.078247 0zm23.682861 -20.9375l0 30.28125q0 1.71875 0.796875 2.46875q0.8125 0.734375 2.65625 0.734375l4.109375 0l1.015625 6.390625q-1.15625 0.390625 -2.828125 0.671875q-1.65625 0.296875 -3.328125 0.421875q-1.65625 0.125 -2.796875 0.125q-4.296875 0 -6.703125 -2.265625q-2.390625 -2.28125 -2.390625 -6.4375l0 -32.390625l9.46875 0zm8.84375 8.78125l0 6.203125l-23.8125 0l0 -5.890625l6.140625 -0.3125l17.671875 0z" fill-rule="nonzero"/><path fill="#ff9900" d="m1170.759 282.97665l0 44.15625l-9.734375 0l0 -31.359375q0 -1.21875 0.09375 -2.390625q0.09375 -1.1875 0.359375 -2.34375l-10.5 2.6875l-1.21875 -6.34375l11.265625 -4.40625l9.734375 0zm14.913574 34.421875q1.84375 0 2.578125 0.75q0.75 0.734375 0.75 2.578125l0 3.078125q0 1.859375 -0.75 2.59375q-0.734375 0.734375 -2.578125 0.734375l-2.4375 0q-1.859375 0 -2.59375 -0.734375q-0.734375 -0.734375 -0.734375 -2.59375l0 -3.078125q0 -1.84375 0.734375 -2.578125q0.734375 -0.75 2.59375 -0.75l2.4375 0z" fill-rule="nonzero"/><path fill="#ff9900" d="m1222.398 298.58603q-1.65625 0 -2.296875 -0.671875q-0.640625 -0.671875 -0.703125 -2.390625l0 -3.71875q0.0625 -2.375 0.40625 -4.21875q0.359375 -1.859375 1.0 -3.453125q0.640625 -1.609375 1.59375 -3.078125l3.453125 1.015625q-0.5 1.921875 -0.671875 3.71875q-0.15625 1.796875 -0.21875 3.90625q2.4375 0 2.5 2.6875l-0.0625 3.140625q-0.0625 1.71875 -0.734375 2.390625q-0.671875 0.671875 -2.34375 0.671875l-1.921875 0zm11.265625 0q-1.65625 0 -2.296875 -0.671875q-0.640625 -0.671875 -0.703125 -2.390625l0 -3.71875q0.0625 -2.375 0.40625 -4.21875q0.359375 -1.859375 1.0 -3.453125q0.640625 -1.609375 1.59375 -3.078125l3.453125 1.015625q-0.5 1.921875 -0.671875 3.71875q-0.15625 1.796875 -0.21875 3.90625q2.4375 0 2.5 2.6875l-0.0625 3.140625q-0.0625 1.71875 -0.75 2.390625q-0.671875 0.671875 -2.328125 0.671875l-1.921875 0zm29.06128 -16.125q5.75 0 9.171875 1.0q3.4375 0.984375 4.96875 3.484375q1.53125 2.484375 1.53125 7.03125q0 4.734375 -1.828125 7.203125q-1.8125 2.46875 -5.96875 2.84375l0 0.328125q5.109375 0.4375 7.15625 3.453125q2.046875 3.015625 2.046875 8.3125q0 4.546875 -1.5625 7.046875q-1.5625 2.5 -4.859375 3.5q-3.296875 0.984375 -8.609375 0.984375q-4.296875 0 -7.46875 -0.03125q-3.15625 -0.03125 -5.8125 -0.171875q-2.65625 -0.125 -5.46875 -0.3125l0.953125 -6.78125q1.53125 0.0625 5.890625 0.125q4.359375 0.0625 10.171875 0.0625q2.75 0 4.25 -0.5q1.515625 -0.515625 2.125 -1.890625q0.609375 -1.390625 0.609375 -3.9375q0 -2.765625 -0.640625 -4.234375q-0.640625 -1.46875 -2.1875 -2.046875q-1.53125 -0.578125 -4.34375 -0.578125l-15.9375 0l0 -6.203125l15.8125 0q2.421875 -0.0625 3.796875 -0.5q1.390625 -0.453125 1.953125 -1.734375q0.578125 -1.28125 0.578125 -3.65625q0 -2.359375 -0.609375 -3.578125q-0.609375 -1.21875 -2.109375 -1.65625q-1.5 -0.453125 -4.125 -0.453125q-3.578125 0 -6.34375 -0.03125q-2.75 -0.03125 -4.890625 0q-2.140625 0.03125 -4.0 0.21875l-0.953125 -6.78125q2.5625 -0.265625 4.921875 -0.359375q2.375 -0.09375 5.1875 -0.125q2.8125 -0.03125 6.59375 -0.03125zm-7.171875 0.515625l0 44.15625l-9.53125 0l0 -44.15625l9.53125 0zm45.756714 11.703125q8.0 0 11.484375 2.71875q3.5 2.71875 3.5 8.109375q0.0625 4.28125 -2.1875 6.46875q-2.234375 2.171875 -7.734375 2.171875l-17.671875 0l0 -5.3125l15.109375 0q2.109375 0 2.71875 -0.921875q0.609375 -0.9375 0.609375 -2.609375q0 -2.234375 -1.25 -3.09375q-1.25 -0.875 -4.25 -0.875q-2.625 -0.0625 -4.109375 0.671875q-1.46875 0.734375 -2.046875 2.71875q-0.5625 1.984375 -0.5625 5.765625q0 3.96875 0.703125 6.109375q0.703125 2.140625 2.390625 2.984375q1.703125 0.828125 4.703125 0.828125q2.1875 0 5.40625 -0.15625q3.234375 -0.171875 6.5 -0.546875l0.90625 5.828125q-1.859375 0.890625 -4.234375 1.40625q-2.359375 0.5 -4.859375 0.71875q-2.5 0.234375 -4.796875 0.234375q-6.015625 0 -9.671875 -1.75q-3.640625 -1.765625 -5.28125 -5.40625q-1.625 -3.65625 -1.625 -9.359375q0 -6.203125 1.625 -9.84375q1.640625 -3.65625 5.21875 -5.25q3.578125 -1.609375 9.40625 -1.609375zm33.470947 -7.9375l0 30.28125q0 1.71875 0.796875 2.46875q0.8125 0.734375 2.65625 0.734375l4.109375 0l1.015625 6.390625q-1.15625 0.390625 -2.828125 0.671875q-1.65625 0.296875 -3.328125 0.421875q-1.65625 0.125 -2.796875 0.125q-4.296875 0 -6.703125 -2.265625q-2.390625 -2.28125 -2.390625 -6.4375l0 -32.390625l9.46875 0zm8.84375 8.78125l0 6.203125l-23.8125 0l0 -5.890625l6.140625 -0.3125l17.671875 0zm54.58374 0l-7.8125 29.109375q-0.25 1.15625 -1.15625 1.828125q-0.890625 0.671875 -2.109375 0.671875l-7.15625 0q-1.28125 0 -2.25 -0.796875q-0.953125 -0.796875 -1.078125 -2.078125l-3.53125 -17.859375q-0.1875 -1.34375 -0.3125 -2.625q-0.125 -1.28125 -0.390625 -2.625l-0.765625 0q-0.1875 1.34375 -0.390625 2.625q-0.1875 1.28125 -0.375 2.625l-3.453125 17.859375q-0.1875 1.28125 -1.15625 2.078125q-0.953125 0.796875 -2.234375 0.796875l-7.109375 0q-1.15625 0 -2.046875 -0.671875q-0.890625 -0.671875 -1.15625 -1.828125l-7.796875 -29.109375l9.46875 0l4.34375 20.46875q0.265625 1.28125 0.453125 2.59375q0.1875 1.3125 0.328125 2.59375l0.828125 0q0.1875 -1.28125 0.40625 -2.59375q0.234375 -1.3125 0.421875 -2.59375l3.515625 -17.65625q0.125 -1.21875 1.046875 -2.015625q0.9375 -0.796875 2.21875 -0.796875l6.140625 0q1.28125 0 2.203125 0.796875q0.9375 0.796875 1.125 2.078125l3.390625 17.59375q0.203125 1.28125 0.453125 2.5625q0.265625 1.28125 0.453125 2.625l0.765625 0q0.25 -1.34375 0.40625 -2.59375q0.171875 -1.25 0.421875 -2.59375l4.359375 -20.46875l9.53125 0zm19.517334 -0.84375q8.0 0 11.484375 2.71875q3.5 2.71875 3.5 8.109375q0.0625 4.28125 -2.1875 6.46875q-2.234375 2.171875 -7.734375 2.171875l-17.671875 0l0 -5.3125l15.109375 0q2.109375 0 2.71875 -0.921875q0.609375 -0.9375 0.609375 -2.609375q0 -2.234375 -1.25 -3.09375q-1.25 -0.875 -4.25 -0.875q-2.625 -0.0625 -4.109375 0.671875q-1.46875 0.734375 -2.046875 2.71875q-0.5625 1.984375 -0.5625 5.765625q0 3.96875 0.703125 6.109375q0.703125 2.140625 2.390625 2.984375q1.703125 0.828125 4.703125 0.828125q2.1875 0 5.40625 -0.15625q3.234375 -0.171875 6.5 -0.546875l0.90625 5.828125q-1.859375 0.890625 -4.234375 1.40625q-2.359375 0.5 -4.859375 0.71875q-2.5 0.234375 -4.796875 0.234375q-6.015625 0 -9.671875 -1.75q-3.640625 -1.765625 -5.28125 -5.40625q-1.625 -3.65625 -1.625 -9.359375q0 -6.203125 1.625 -9.84375q1.640625 -3.65625 5.21875 -5.25q3.578125 -1.609375 9.40625 -1.609375zm36.095947 0q8.0 0 11.484375 2.71875q3.5 2.71875 3.5 8.109375q0.0625 4.28125 -2.1875 6.46875q-2.234375 2.171875 -7.734375 2.171875l-17.671875 0l0 -5.3125l15.109375 0q2.109375 0 2.71875 -0.921875q0.609375 -0.9375 0.609375 -2.609375q0 -2.234375 -1.25 -3.09375q-1.25 -0.875 -4.25 -0.875q-2.625 -0.0625 -4.109375 0.671875q-1.46875 0.734375 -2.046875 2.71875q-0.5625 1.984375 -0.5625 5.765625q0 3.96875 0.703125 6.109375q0.703125 2.140625 2.390625 2.984375q1.703125 0.828125 4.703125 0.828125q2.1875 0 5.40625 -0.15625q3.234375 -0.171875 6.5 -0.546875l0.90625 5.828125q-1.859375 0.890625 -4.234375 1.40625q-2.359375 0.5 -4.859375 0.71875q-2.5 0.234375 -4.796875 0.234375q-6.015625 0 -9.671875 -1.75q-3.640625 -1.765625 -5.28125 -5.40625q-1.625 -3.65625 -1.625 -9.359375q0 -6.203125 1.625 -9.84375q1.640625 -3.65625 5.21875 -5.25q3.578125 -1.609375 9.40625 -1.609375zm43.142822 0q8.953125 0 8.953125 8.765625l0 23.6875l-9.46875 0l0 -20.734375q0 -2.109375 -0.765625 -2.90625q-0.765625 -0.8125 -2.625 -0.8125q-2.046875 0 -4.234375 0.8125q-2.171875 0.796875 -5.359375 2.390625l-0.453125 -5.25q3.390625 -2.875 6.9375 -4.40625q3.5625 -1.546875 7.015625 -1.546875zm-14.40625 0.84375l1.09375 6.265625l0.765625 0.828125l0 24.515625l-9.40625 0l0 -31.609375l7.546875 0zm55.99829 -8.78125l0 30.28125q0 1.71875 0.796875 2.46875q0.8125 0.734375 2.65625 0.734375l4.109375 0l1.015625 6.390625q-1.15625 0.390625 -2.828125 0.671875q-1.65625 0.296875 -3.328125 0.421875q-1.65625 0.125 -2.796875 0.125q-4.296875 0 -6.703125 -2.265625q-2.390625 -2.28125 -2.390625 -6.4375l0 -32.390625l9.46875 0zm8.84375 8.78125l0 6.203125l-23.8125 0l0 -5.890625l6.140625 -0.3125l17.671875 0zm20.02124 -0.84375q8.0 0 11.484375 2.71875q3.5 2.71875 3.5 8.109375q0.0625 4.28125 -2.1875 6.46875q-2.234375 2.171875 -7.734375 2.171875l-17.671875 0l0 -5.3125l15.109375 0q2.109375 0 2.71875 -0.921875q0.609375 -0.9375 0.609375 -2.609375q0 -2.234375 -1.25 -3.09375q-1.25 -0.875 -4.25 -0.875q-2.625 -0.0625 -4.109375 0.671875q-1.46875 0.734375 -2.046875 2.71875q-0.5625 1.984375 -0.5625 5.765625q0 3.96875 0.703125 6.109375q0.703125 2.140625 2.390625 2.984375q1.703125 0.828125 4.703125 0.828125q2.1875 0 5.40625 -0.15625q3.234375 -0.171875 6.5 -0.546875l0.90625 5.828125q-1.859375 0.890625 -4.234375 1.40625q-2.359375 0.5 -4.859375 0.71875q-2.5 0.234375 -4.796875 0.234375q-6.015625 0 -9.671875 -1.75q-3.640625 -1.765625 -5.28125 -5.40625q-1.625 -3.65625 -1.625 -9.359375q0 -6.203125 1.625 -9.84375q1.640625 -3.65625 5.21875 -5.25q3.578125 -1.609375 9.40625 -1.609375zm28.549072 0.84375l1.15625 6.265625l0.890625 0.828125l0 24.515625l-9.40625 0l0 -31.609375l7.359375 0zm15.421875 -0.84375l-0.890625 8.703125l-2.625 0q-2.25 0 -4.6875 0.640625q-2.421875 0.640625 -6.125 1.984375l-0.640625 -5.3125q3.328125 -2.9375 6.71875 -4.46875q3.390625 -1.546875 6.59375 -1.546875l1.65625 0zm44.54663 0q4.28125 0 6.515625 2.25q2.25 2.234375 2.25 6.515625l0 23.6875l-9.34375 0l0 -20.734375q-0.0625 -1.984375 -0.828125 -2.84375q-0.765625 -0.875 -2.6875 -0.875q-1.09375 0 -2.15625 0.296875q-1.046875 0.28125 -2.390625 0.984375q-1.34375 0.703125 -3.265625 1.921875l-0.515625 -5.1875q3.078125 -3.0 6.046875 -4.5q2.984375 -1.515625 6.375 -1.515625zm-32.515625 0.84375l0.96875 6.265625l0.953125 0.828125l0 24.515625l-9.40625 0l0 -31.609375l7.484375 0zm12.796875 -0.84375q4.234375 0 6.4375 2.21875q2.203125 2.203125 2.203125 6.546875l0 23.6875l-9.078125 0l0 -20.734375q0 -2.046875 -0.875 -2.875q-0.859375 -0.84375 -2.65625 -0.84375q-1.078125 0 -2.140625 0.296875q-1.046875 0.28125 -2.4375 0.984375q-1.375 0.703125 -3.359375 1.921875l-0.5625 -5.1875q3.125 -3.0 6.0625 -4.5q2.953125 -1.515625 6.40625 -1.515625zm66.631226 0q3.96875 0 6.71875 1.0625q2.75 1.046875 4.1875 3.578125q1.4375 2.53125 1.4375 6.890625l0 20.921875l-7.484375 0l-1.34375 -6.84375l-0.640625 -0.96875l0 -13.109375q-0.0625 -2.3125 -1.125 -3.296875q-1.046875 -1.0 -3.921875 -1.0q-2.5 0 -6.15625 0.171875q-3.640625 0.15625 -7.484375 0.40625l-0.828125 -6.265625q2.296875 -0.453125 5.265625 -0.765625q2.984375 -0.328125 5.984375 -0.546875q3.015625 -0.234375 5.390625 -0.234375zm8.4375 13.0l-0.0625 5.3125l-14.078125 0q-1.71875 0.0625 -2.46875 0.890625q-0.734375 0.828125 -0.734375 2.234375l0 1.546875q0 1.59375 0.890625 2.46875q0.90625 0.859375 2.890625 0.859375q1.671875 0 3.609375 -0.703125q1.953125 -0.703125 3.875 -1.984375q1.921875 -1.28125 3.46875 -3.015625l0 4.09375q-0.578125 0.96875 -1.734375 2.40625q-1.15625 1.4375 -2.890625 2.8125q-1.71875 1.375 -4.03125 2.3125q-2.296875 0.921875 -5.234375 0.921875q-2.828125 0 -5.171875 -0.984375q-2.328125 -1.0 -3.671875 -2.984375q-1.34375 -1.984375 -1.34375 -4.921875l0 -3.265625q0 -3.78125 2.5625 -5.890625q2.5625 -2.109375 7.046875 -2.109375l17.078125 0zm33.35498 -13.0q8.953125 0 8.953125 8.765625l0 23.6875l-9.46875 0l0 -20.734375q0 -2.109375 -0.765625 -2.90625q-0.765625 -0.8125 -2.625 -0.8125q-2.046875 0 -4.234375 0.8125q-2.171875 0.796875 -5.359375 2.390625l-0.453125 -5.25q3.390625 -2.875 6.9375 -4.40625q3.5625 -1.546875 7.015625 -1.546875zm-14.40625 0.84375l1.09375 6.265625l0.765625 0.828125l0 24.515625l-9.40625 0l0 -31.609375l7.546875 0zm41.667114 -0.84375q3.390625 0 6.453125 0.96875q3.078125 0.953125 5.453125 3.125l-0.640625 4.296875q-2.109375 -0.640625 -3.875 -1.109375q-1.765625 -0.484375 -4.0625 -0.484375q-1.984375 0 -3.203125 0.703125q-1.21875 0.703125 -1.796875 2.75q-0.5625 2.046875 -0.5625 6.078125q0 3.765625 0.53125 5.71875q0.546875 1.953125 1.734375 2.703125q1.1875 0.734375 3.046875 0.734375q1.65625 0 2.875 -0.359375q1.21875 -0.359375 2.421875 -1.09375q1.21875 -0.734375 2.828125 -1.8125l0.640625 4.671875q-1.921875 2.6875 -5.0 4.515625q-3.0625 1.8125 -7.546875 1.8125q-6.078125 0 -8.671875 -4.34375q-2.59375 -4.359375 -2.59375 -12.484375q0 -6.34375 1.34375 -9.890625q1.34375 -3.546875 4.0 -5.015625q2.65625 -1.484375 6.625 -1.484375zm19.640625 -12.34375l0 44.796875l-7.484375 0l-0.953125 -5.828125l-1.03125 -0.703125l0 -20.734375l0.390625 -0.890625q-0.1875 -1.921875 -0.296875 -3.9375q-0.09375 -2.015625 -0.09375 -4.125l0 -8.578125l9.46875 0zm32.4552 12.34375q3.390625 0 6.453125 0.96875q3.078125 0.953125 5.453125 3.125l-0.640625 4.296875q-2.109375 -0.640625 -3.875 -1.109375q-1.765625 -0.484375 -4.0625 -0.484375q-1.984375 0 -3.203125 0.703125q-1.21875 0.703125 -1.796875 2.75q-0.5625 2.046875 -0.5625 6.078125q0 3.765625 0.53125 5.71875q0.546875 1.953125 1.734375 2.703125q1.1875 0.734375 3.046875 0.734375q1.65625 0 2.875 -0.359375q1.21875 -0.359375 2.421875 -1.09375q1.21875 -0.734375 2.828125 -1.8125l0.640625 4.671875q-1.921875 2.6875 -5.0 4.515625q-3.0625 1.8125 -7.546875 1.8125q-6.078125 0 -8.671875 -4.34375q-2.59375 -4.359375 -2.59375 -12.484375q0 -6.34375 1.34375 -9.890625q1.34375 -3.546875 4.0 -5.015625q2.65625 -1.484375 6.625 -1.484375zm19.640625 -12.34375l0 44.796875l-7.484375 0l-0.953125 -5.828125l-1.03125 -0.703125l0 -20.734375l0.390625 -0.890625q-0.1875 -1.921875 -0.296875 -3.9375q-0.09375 -2.015625 -0.09375 -4.125l0 -8.578125l9.46875 0zm22.723633 12.34375q8.0 0 11.484375 2.71875q3.5 2.71875 3.5 8.109375q0.0625 4.28125 -2.1875 6.46875q-2.234375 2.171875 -7.734375 2.171875l-17.671875 0l0 -5.3125l15.109375 0q2.109375 0 2.71875 -0.921875q0.609375 -0.9375 0.609375 -2.609375q0 -2.234375 -1.25 -3.09375q-1.25 -0.875 -4.25 -0.875q-2.625 -0.0625 -4.109375 0.671875q-1.46875 0.734375 -2.046875 2.71875q-0.5625 1.984375 -0.5625 5.765625q0 3.96875 0.703125 6.109375q0.703125 2.140625 2.390625 2.984375q1.703125 0.828125 4.703125 0.828125q2.1875 0 5.40625 -0.15625q3.234375 -0.171875 6.5 -0.546875l0.90625 5.828125q-1.859375 0.890625 -4.234375 1.40625q-2.359375 0.5 -4.859375 0.71875q-2.5 0.234375 -4.796875 0.234375q-6.015625 0 -9.671875 -1.75q-3.640625 -1.765625 -5.28125 -5.40625q-1.625 -3.65625 -1.625 -9.359375q0 -6.203125 1.625 -9.84375q1.640625 -3.65625 5.21875 -5.25q3.578125 -1.609375 9.40625 -1.609375zm34.314697 -13.6875q1.59375 0 4.078125 0.15625q2.5 0.15625 4.421875 0.546875l0 6.015625l-5.109375 0q-2.4375 0 -3.375 1.0625q-0.921875 1.046875 -0.921875 3.546875l0 34.8125l-9.46875 0l0 -36.03125q0 -3.078125 0.984375 -5.34375q1.0 -2.265625 3.265625 -3.515625q2.28125 -1.25 6.125 -1.25zm12.40625 14.53125l0 6.203125l-28.28125 0l0 -5.890625l5.6875 -0.3125l22.59375 0zm9.09375 0l0 31.609375l-9.40625 0l0 -31.609375l9.40625 0zm-2.6875 -14.28125q2.8125 0 2.8125 2.8125l0 3.46875q0 2.8125 -2.8125 2.8125l-4.03125 0q-2.828125 0 -2.828125 -2.8125l0 -3.46875q0 -2.8125 2.828125 -2.8125l4.03125 0zm32.70349 13.4375q8.953125 0 8.953125 8.765625l0 23.6875l-9.46875 0l0 -20.734375q0 -2.109375 -0.765625 -2.90625q-0.765625 -0.8125 -2.625 -0.8125q-2.046875 0 -4.234375 0.8125q-2.171875 0.796875 -5.359375 2.390625l-0.453125 -5.25q3.390625 -2.875 6.9375 -4.40625q3.5625 -1.546875 7.015625 -1.546875zm-14.40625 0.84375l1.09375 6.265625l0.765625 0.828125l0 24.515625l-9.40625 0l0 -31.609375l7.546875 0zm40.510864 0l0 31.609375l-9.34375 0l0 -31.609375l9.34375 0zm-2.625 -13.953125q2.828125 0 2.828125 2.8125l0 3.453125q0 2.8125 -2.828125 2.8125l-4.09375 0q-2.8125 0 -2.8125 -2.8125l0 -3.453125q0 -2.8125 2.8125 -2.8125l4.09375 0zm22.97644 5.171875l0 30.28125q0 1.71875 0.796875 2.46875q0.8125 0.734375 2.65625 0.734375l4.109375 0l1.015625 6.390625q-1.15625 0.390625 -2.828125 0.671875q-1.65625 0.296875 -3.328125 0.421875q-1.65625 0.125 -2.796875 0.125q-4.296875 0 -6.703125 -2.265625q-2.390625 -2.28125 -2.390625 -6.4375l0 -32.390625l9.46875 0zm8.84375 8.78125l0 6.203125l-23.8125 0l0 -5.890625l6.140625 -0.3125l17.671875 0zm14.70874 0l0 31.609375l-9.34375 0l0 -31.609375l9.34375 0zm-2.625 -13.953125q2.828125 0 2.828125 2.8125l0 3.453125q0 2.8125 -2.828125 2.8125l-4.09375 0q-2.8125 0 -2.8125 -2.8125l0 -3.453125q0 -2.8125 2.8125 -2.8125l4.09375 0zm25.66394 13.109375q5.953125 0 9.53125 1.640625q3.59375 1.625 5.15625 5.28125q1.578125 3.640625 1.578125 9.78125q0 6.015625 -1.578125 9.671875q-1.5625 3.640625 -5.15625 5.25q-3.578125 1.59375 -9.53125 1.59375q-5.890625 0 -9.46875 -1.59375q-3.578125 -1.609375 -5.1875 -5.25q-1.59375 -3.65625 -1.59375 -9.671875q0 -6.140625 1.59375 -9.78125q1.609375 -3.65625 5.1875 -5.28125q3.578125 -1.640625 9.46875 -1.640625zm0 6.859375q-2.421875 0 -3.84375 0.828125q-1.40625 0.828125 -1.984375 2.9375q-0.5625 2.109375 -0.5625 6.078125q0 3.84375 0.5625 5.953125q0.578125 2.109375 1.984375 2.921875q1.421875 0.796875 3.84375 0.796875q2.5 0 3.90625 -0.796875q1.40625 -0.8125 1.953125 -2.921875q0.546875 -2.109375 0.546875 -5.953125q0 -3.96875 -0.546875 -6.078125q-0.546875 -2.109375 -1.953125 -2.9375q-1.40625 -0.828125 -3.90625 -0.828125zm44.744385 -6.859375q8.953125 0 8.953125 8.765625l0 23.6875l-9.46875 0l0 -20.734375q0 -2.109375 -0.765625 -2.90625q-0.765625 -0.8125 -2.625 -0.8125q-2.046875 0 -4.234375 0.8125q-2.171875 0.796875 -5.359375 2.390625l-0.453125 -5.25q3.390625 -2.875 6.9375 -4.40625q3.5625 -1.546875 7.015625 -1.546875zm-14.40625 0.84375l1.09375 6.265625l0.765625 0.828125l0 24.515625l-9.40625 0l0 -31.609375l7.546875 0zm45.256836 -13.890625q1.71875 0 2.359375 0.640625q0.640625 0.640625 0.640625 2.359375l0 3.78125q0 2.296875 -0.359375 4.1875q-0.34375 1.890625 -1.015625 3.46875q-0.671875 1.5625 -1.5625 3.09375l-3.453125 -1.09375q0.4375 -1.90625 0.625 -3.703125q0.203125 -1.796875 0.203125 -3.84375q-2.4375 0 -2.4375 -2.6875l0.0625 -3.203125q0.0625 -1.71875 0.734375 -2.359375q0.671875 -0.640625 2.28125 -0.640625l1.921875 0zm-11.265625 0q1.71875 0 2.359375 0.640625q0.640625 0.640625 0.640625 2.359375l0 3.78125q0 2.296875 -0.359375 4.1875q-0.34375 1.890625 -1.015625 3.46875q-0.671875 1.5625 -1.5625 3.09375l-3.453125 -1.09375q0.4375 -1.90625 0.625 -3.703125q0.203125 -1.796875 0.203125 -3.84375q-2.4375 0 -2.4375 -2.6875l0.0625 -3.203125q0.0625 -1.71875 0.734375 -2.359375q0.671875 -0.640625 2.28125 -0.640625l1.921875 0zm43.895508 13.890625l0 31.609375l-9.34375 0l0 -31.609375l9.34375 0zm-2.625 -13.953125q2.828125 0 2.828125 2.8125l0 3.453125q0 2.8125 -2.828125 2.8125l-4.09375 0q-2.8125 0 -2.8125 -2.8125l0 -3.453125q0 -2.8125 2.8125 -2.8125l4.09375 0zm22.663818 13.109375q2.296875 0 4.984375 0.171875q2.6875 0.15625 5.25 0.421875q2.5625 0.25 4.546875 0.625l-0.640625 5.890625q-3.078125 -0.0625 -6.1875 -0.125q-3.09375 -0.0625 -6.03125 -0.0625q-2.5 0 -3.84375 0.09375q-1.34375 0.09375 -1.890625 0.578125q-0.546875 0.46875 -0.546875 1.6875q0 1.46875 0.953125 1.953125q0.96875 0.484375 3.21875 1.0625l8.25 1.984375q3.96875 1.015625 5.890625 3.03125q1.921875 2.015625 1.921875 6.046875q0 3.96875 -1.484375 6.09375q-1.46875 2.109375 -4.671875 2.90625q-3.1875 0.796875 -8.25 0.796875q-1.984375 0 -5.890625 -0.203125q-3.90625 -0.1875 -8.515625 -0.953125l0.578125 -5.890625q1.21875 0.078125 2.96875 0.109375q1.765625 0.03125 3.875 0.03125q2.125 0 4.234375 0q3.328125 0 5.046875 -0.15625q1.734375 -0.171875 2.375 -0.75q0.640625 -0.578125 0.640625 -1.71875q0 -1.46875 -1.09375 -1.953125q-1.078125 -0.484375 -3.453125 -1.125l-8.0 -1.984375q-3.0625 -0.828125 -4.734375 -2.109375q-1.65625 -1.28125 -2.328125 -3.09375q-0.671875 -1.828125 -0.671875 -4.390625q0 -3.265625 1.34375 -5.25q1.34375 -1.984375 4.28125 -2.84375q2.9375 -0.875 7.875 -0.875zm47.87207 0q2.296875 0 4.984375 0.171875q2.6875 0.15625 5.25 0.421875q2.5625 0.25 4.546875 0.625l-0.640625 5.890625q-3.078125 -0.0625 -6.1875 -0.125q-3.09375 -0.0625 -6.03125 -0.0625q-2.5 0 -3.84375 0.09375q-1.34375 0.09375 -1.890625 0.578125q-0.546875 0.46875 -0.546875 1.6875q0 1.46875 0.953125 1.953125q0.96875 0.484375 3.21875 1.0625l8.25 1.984375q3.96875 1.015625 5.890625 3.03125q1.921875 2.015625 1.921875 6.046875q0 3.96875 -1.484375 6.09375q-1.46875 2.109375 -4.671875 2.90625q-3.1875 0.796875 -8.25 0.796875q-1.984375 0 -5.890625 -0.203125q-3.90625 -0.1875 -8.515625 -0.953125l0.578125 -5.890625q1.21875 0.078125 2.96875 0.109375q1.765625 0.03125 3.875 0.03125q2.125 0 4.234375 0q3.328125 0 5.046875 -0.15625q1.734375 -0.171875 2.375 -0.75q0.640625 -0.578125 0.640625 -1.71875q0 -1.46875 -1.09375 -1.953125q-1.078125 -0.484375 -3.453125 -1.125l-8.0 -1.984375q-3.0625 -0.828125 -4.734375 -2.109375q-1.65625 -1.28125 -2.328125 -3.09375q-0.671875 -1.828125 -0.671875 -4.390625q0 -3.265625 1.34375 -5.25q1.34375 -1.984375 4.28125 -2.84375q2.9375 -0.875 7.875 -0.875zm36.921387 0q8.0 0 11.484375 2.71875q3.5 2.71875 3.5 8.109375q0.0625 4.28125 -2.1875 6.46875q-2.234375 2.171875 -7.734375 2.171875l-17.671875 0l0 -5.3125l15.109375 0q2.109375 0 2.71875 -0.921875q0.609375 -0.9375 0.609375 -2.609375q0 -2.234375 -1.25 -3.09375q-1.25 -0.875 -4.25 -0.875q-2.625 -0.0625 -4.109375 0.671875q-1.46875 0.734375 -2.046875 2.71875q-0.5625 1.984375 -0.5625 5.765625q0 3.96875 0.703125 6.109375q0.703125 2.140625 2.390625 2.984375q1.703125 0.828125 4.703125 0.828125q2.1875 0 5.40625 -0.15625q3.234375 -0.171875 6.5 -0.546875l0.90625 5.828125q-1.859375 0.890625 -4.234375 1.40625q-2.359375 0.5 -4.859375 0.71875q-2.5 0.234375 -4.796875 0.234375q-6.015625 0 -9.671875 -1.75q-3.640625 -1.765625 -5.28125 -5.40625q-1.625 -3.65625 -1.625 -9.359375q0 -6.203125 1.625 -9.84375q1.640625 -3.65625 5.21875 -5.25q3.578125 -1.609375 9.40625 -1.609375zm33.470947 -7.9375l0 30.28125q0 1.71875 0.796875 2.46875q0.8125 0.734375 2.65625 0.734375l4.109375 0l1.015625 6.390625q-1.15625 0.390625 -2.828125 0.671875q-1.65625 0.296875 -3.328125 0.421875q-1.65625 0.125 -2.796875 0.125q-4.296875 0 -6.703125 -2.265625q-2.390625 -2.28125 -2.390625 -6.4375l0 -32.390625l9.46875 0zm8.84375 8.78125l0 6.203125l-23.8125 0l0 -5.890625l6.140625 -0.3125l17.671875 0zm35.643555 -0.84375q3.96875 0 6.71875 1.0625q2.75 1.046875 4.1875 3.578125q1.4375 2.53125 1.4375 6.890625l0 20.921875l-7.484375 0l-1.34375 -6.84375l-0.640625 -0.96875l0 -13.109375q-0.0625 -2.3125 -1.125 -3.296875q-1.046875 -1.0 -3.921875 -1.0q-2.5 0 -6.15625 0.171875q-3.640625 0.15625 -7.484375 0.40625l-0.828125 -6.265625q2.296875 -0.453125 5.265625 -0.765625q2.984375 -0.328125 5.984375 -0.546875q3.015625 -0.234375 5.390625 -0.234375zm8.4375 13.0l-0.0625 5.3125l-14.078125 0q-1.71875 0.0625 -2.46875 0.890625q-0.734375 0.828125 -0.734375 2.234375l0 1.546875q0 1.59375 0.890625 2.46875q0.90625 0.859375 2.890625 0.859375q1.671875 0 3.609375 -0.703125q1.953125 -0.703125 3.875 -1.984375q1.921875 -1.28125 3.46875 -3.015625l0 4.09375q-0.578125 0.96875 -1.734375 2.40625q-1.15625 1.4375 -2.890625 2.8125q-1.71875 1.375 -4.03125 2.3125q-2.296875 0.921875 -5.234375 0.921875q-2.828125 0 -5.171875 -0.984375q-2.328125 -1.0 -3.671875 -2.984375q-1.34375 -1.984375 -1.34375 -4.921875l0 -3.265625q0 -3.78125 2.5625 -5.890625q2.5625 -2.109375 7.046875 -2.109375l17.078125 0zm23.370605 -13.0q2.296875 0 4.984375 0.171875q2.6875 0.15625 5.25 0.421875q2.5625 0.25 4.546875 0.625l-0.640625 5.890625q-3.078125 -0.0625 -6.1875 -0.125q-3.09375 -0.0625 -6.03125 -0.0625q-2.5 0 -3.84375 0.09375q-1.34375 0.09375 -1.890625 0.578125q-0.546875 0.46875 -0.546875 1.6875q0 1.46875 0.953125 1.953125q0.96875 0.484375 3.21875 1.0625l8.25 1.984375q3.96875 1.015625 5.890625 3.03125q1.921875 2.015625 1.921875 6.046875q0 3.96875 -1.484375 6.09375q-1.46875 2.109375 -4.671875 2.90625q-3.1875 0.796875 -8.25 0.796875q-1.984375 0 -5.890625 -0.203125q-3.90625 -0.1875 -8.515625 -0.953125l0.578125 -5.890625q1.21875 0.078125 2.96875 0.109375q1.765625 0.03125 3.875 0.03125q2.125 0 4.234375 0q3.328125 0 5.046875 -0.15625q1.734375 -0.171875 2.375 -0.75q0.640625 -0.578125 0.640625 -1.71875q0 -1.46875 -1.09375 -1.953125q-1.078125 -0.484375 -3.453125 -1.125l-8.0 -1.984375q-3.0625 -0.828125 -4.734375 -2.109375q-1.65625 -1.28125 -2.328125 -3.09375q-0.671875 -1.828125 -0.671875 -4.390625q0 -3.265625 1.34375 -5.25q1.34375 -1.984375 4.28125 -2.84375q2.9375 -0.875 7.875 -0.875zm50.559326 0q1.71875 0 3.765625 0.171875q2.0625 0.15625 4.140625 0.578125q2.078125 0.40625 3.796875 1.171875l-1.015625 5.953125q-2.5625 -0.125 -4.90625 -0.15625q-2.328125 -0.03125 -4.1875 -0.03125q-2.875 0 -4.546875 0.765625q-1.65625 0.765625 -2.390625 2.6875q-0.734375 1.921875 -0.734375 5.4375q0 3.515625 0.734375 5.5q0.734375 1.984375 2.390625 2.765625q1.671875 0.765625 4.546875 0.765625q1.03125 0 2.625 -0.0625q1.609375 -0.0625 3.453125 -0.15625q1.859375 -0.109375 3.65625 -0.359375l0.890625 6.015625q-2.5625 1.15625 -5.828125 1.65625q-3.25 0.515625 -6.453125 0.515625q-5.828125 0 -9.359375 -1.625q-3.515625 -1.640625 -5.046875 -5.28125q-1.53125 -3.65625 -1.53125 -9.734375q0 -6.078125 1.5625 -9.71875q1.578125 -3.65625 5.09375 -5.25q3.515625 -1.609375 9.34375 -1.609375zm27.138428 0.84375l0 20.796875q0 1.984375 0.859375 2.8125q0.859375 0.828125 2.78125 0.828125q1.984375 0 3.9375 -0.734375q1.953125 -0.734375 4.890625 -2.328125l0.703125 5.171875q-3.453125 2.953125 -6.75 4.421875q-3.296875 1.46875 -6.875 1.46875q-8.953125 0 -8.953125 -8.765625l0 -23.671875l9.40625 0zm20.921875 0l0 31.609375l-7.421875 0l-1.09375 -6.203125l-0.953125 -0.90625l0 -24.5l9.46875 0zm19.78003 -0.84375q2.296875 0 4.984375 0.171875q2.6875 0.15625 5.25 0.421875q2.5625 0.25 4.546875 0.625l-0.640625 5.890625q-3.078125 -0.0625 -6.1875 -0.125q-3.09375 -0.0625 -6.03125 -0.0625q-2.5 0 -3.84375 0.09375q-1.34375 0.09375 -1.890625 0.578125q-0.546875 0.46875 -0.546875 1.6875q0 1.46875 0.953125 1.953125q0.96875 0.484375 3.21875 1.0625l8.25 1.984375q3.96875 1.015625 5.890625 3.03125q1.921875 2.015625 1.921875 6.046875q0 3.96875 -1.484375 6.09375q-1.46875 2.109375 -4.671875 2.90625q-3.1875 0.796875 -8.25 0.796875q-1.984375 0 -5.890625 -0.203125q-3.90625 -0.1875 -8.515625 -0.953125l0.578125 -5.890625q1.21875 0.078125 2.96875 0.109375q1.765625 0.03125 3.875 0.03125q2.125 0 4.234375 0q3.328125 0 5.046875 -0.15625q1.734375 -0.171875 2.375 -0.75q0.640625 -0.578125 0.640625 -1.71875q0 -1.46875 -1.09375 -1.953125q-1.078125 -0.484375 -3.453125 -1.125l-8.0 -1.984375q-3.0625 -0.828125 -4.734375 -2.109375q-1.65625 -1.28125 -2.328125 -3.09375q-0.671875 -1.828125 -0.671875 -4.390625q0 -3.265625 1.34375 -5.25q1.34375 -1.984375 4.28125 -2.84375q2.9375 -0.875 7.875 -0.875zm34.296387 -7.9375l0 30.28125q0 1.71875 0.796875 2.46875q0.8125 0.734375 2.65625 0.734375l4.109375 0l1.015625 6.390625q-1.15625 0.390625 -2.828125 0.671875q-1.65625 0.296875 -3.328125 0.421875q-1.65625 0.125 -2.796875 0.125q-4.296875 0 -6.703125 -2.265625q-2.390625 -2.28125 -2.390625 -6.4375l0 -32.390625l9.46875 0zm8.84375 8.78125l0 6.203125l-23.8125 0l0 -5.890625l6.140625 -0.3125l17.671875 0zm20.08374 -0.84375q5.953125 0 9.53125 1.640625q3.59375 1.625 5.15625 5.28125q1.578125 3.640625 1.578125 9.78125q0 6.015625 -1.578125 9.671875q-1.5625 3.640625 -5.15625 5.25q-3.578125 1.59375 -9.53125 1.59375q-5.890625 0 -9.46875 -1.59375q-3.578125 -1.609375 -5.1875 -5.25q-1.59375 -3.65625 -1.59375 -9.671875q0 -6.140625 1.59375 -9.78125q1.609375 -3.65625 5.1875 -5.28125q3.578125 -1.640625 9.46875 -1.640625zm0 6.859375q-2.421875 0 -3.84375 0.828125q-1.40625 0.828125 -1.984375 2.9375q-0.5625 2.109375 -0.5625 6.078125q0 3.84375 0.5625 5.953125q0.578125 2.109375 1.984375 2.921875q1.421875 0.796875 3.84375 0.796875q2.5 0 3.90625 -0.796875q1.40625 -0.8125 1.953125 -2.921875q0.546875 -2.109375 0.546875 -5.953125q0 -3.96875 -0.546875 -6.078125q-0.546875 -2.109375 -1.953125 -2.9375q-1.40625 -0.828125 -3.90625 -0.828125zm62.79126 -6.859375q4.28125 0 6.515625 2.25q2.25 2.234375 2.25 6.515625l0 23.6875l-9.34375 0l0 -20.734375q-0.0625 -1.984375 -0.828125 -2.84375q-0.765625 -0.875 -2.6875 -0.875q-1.09375 0 -2.15625 0.296875q-1.046875 0.28125 -2.390625 0.984375q-1.34375 0.703125 -3.265625 1.921875l-0.515625 -5.1875q3.078125 -3.0 6.046875 -4.5q2.984375 -1.515625 6.375 -1.515625zm-32.515625 0.84375l0.96875 6.265625l0.953125 0.828125l0 24.515625l-9.40625 0l0 -31.609375l7.484375 0zm12.796875 -0.84375q4.234375 0 6.4375 2.21875q2.203125 2.203125 2.203125 6.546875l0 23.6875l-9.078125 0l0 -20.734375q0 -2.046875 -0.875 -2.875q-0.859375 -0.84375 -2.65625 -0.84375q-1.078125 0 -2.140625 0.296875q-1.046875 0.28125 -2.4375 0.984375q-1.375 0.703125 -3.359375 1.921875l-0.5625 -5.1875q3.125 -3.0 6.0625 -4.5q2.953125 -1.515625 6.40625 -1.515625zm55.631104 3.515625q1.84375 0 2.578125 0.75q0.75 0.734375 0.75 2.578125l0 3.078125q0 1.859375 -0.75 2.59375q-0.734375 0.734375 -2.578125 0.734375l-2.4375 0q-1.859375 0 -2.59375 -0.734375q-0.734375 -0.734375 -0.734375 -2.59375l0 -3.078125q0 -1.84375 0.734375 -2.578125q0.734375 -0.75 2.59375 -0.75l2.4375 0zm-0.265625 19.203125q1.859375 0 2.5625 0.75q0.703125 0.734375 0.765625 2.578125l0 4.109375q0 2.484375 -0.421875 4.53125q-0.40625 2.046875 -1.109375 3.78125q-0.703125 1.734375 -1.734375 3.390625l-3.765625 -1.21875q0.5 -2.046875 0.6875 -4.0q0.203125 -1.953125 0.203125 -4.1875q-2.625 0 -2.6875 -2.9375l0.0625 -3.46875q0.0625 -1.84375 0.796875 -2.578125q0.734375 -0.75 2.53125 -0.75l2.109375 0zm16.713623 -19.203125q1.84375 0 2.578125 0.75q0.75 0.734375 0.75 2.578125l0 3.078125q0 1.859375 -0.75 2.59375q-0.734375 0.734375 -2.578125 0.734375l-2.4375 0q-1.859375 0 -2.59375 -0.734375q-0.734375 -0.734375 -0.734375 -2.59375l0 -3.078125q0 -1.84375 0.734375 -2.578125q0.734375 -0.75 2.59375 -0.75l2.4375 0zm-0.265625 19.203125q1.859375 0 2.5625 0.75q0.703125 0.734375 0.765625 2.578125l0 4.109375q0 2.484375 -0.421875 4.53125q-0.40625 2.046875 -1.109375 3.78125q-0.703125 1.734375 -1.734375 3.390625l-3.765625 -1.21875q0.5 -2.046875 0.6875 -4.0q0.203125 -1.953125 0.203125 -4.1875q-2.625 0 -2.6875 -2.9375l0.0625 -3.46875q0.0625 -1.84375 0.796875 -2.578125q0.734375 -0.75 2.53125 -0.75l2.109375 0z" fill-rule="nonzero"/><path fill="#ff9900" d="m1370.4609 359.01102q4.609375 0 7.9375 0.796875q3.328125 0.796875 5.1875 3.015625q1.859375 2.203125 1.859375 6.421875q0 2.5625 -0.609375 4.703125q-0.609375 2.140625 -2.1875 4.453125q-1.5625 2.296875 -4.5 5.4375l-11.59375 11.96875q1.609375 -0.265625 3.234375 -0.359375q1.640625 -0.09375 3.296875 -0.09375l13.640625 0l0 8.578125l-31.625 0l0 -5.25q0 -1.15625 0.3125 -2.140625q0.328125 -1.0 1.09375 -1.828125l11.015625 -11.765625q3.90625 -4.046875 5.953125 -7.203125q2.046875 -3.171875 1.984375 -5.46875q0 -1.421875 -0.703125 -2.015625q-0.703125 -0.609375 -2.015625 -0.828125q-1.3125 -0.234375 -3.359375 -0.234375q-2.1875 0 -4.140625 0.03125q-1.9375 0.03125 -4.15625 0.15625q-2.203125 0.125 -5.15625 0.390625l-0.4375 -7.234375q3.203125 -0.703125 5.71875 -1.015625q2.53125 -0.328125 4.765625 -0.421875q2.25 -0.09375 4.484375 -0.09375zm28.043335 35.1875q1.84375 0 2.578125 0.75q0.75 0.734375 0.75 2.578125l0 3.078125q0 1.859375 -0.75 2.59375q-0.734375 0.734375 -2.578125 0.734375l-2.4375 0q-1.859375 0 -2.59375 -0.734375q-0.734375 -0.734375 -0.734375 -2.59375l0 -3.078125q0 -1.84375 0.734375 -2.578125q0.734375 -0.75 2.59375 -0.75l2.4375 0z" fill-rule="nonzero"/><path fill="#ff9900" d="m1435.2296 375.38602q-1.65625 0 -2.296875 -0.671875q-0.640625 -0.671875 -0.703125 -2.390625l0 -3.71875q0.0625 -2.375 0.40625 -4.21875q0.359375 -1.859375 1.0 -3.453125q0.640625 -1.609375 1.59375 -3.078125l3.453125 1.015625q-0.5 1.921875 -0.671875 3.71875q-0.15625 1.796875 -0.21875 3.90625q2.4375 0 2.5 2.6875l-0.0625 3.140625q-0.0625 1.71875 -0.734375 2.390625q-0.671875 0.671875 -2.34375 0.671875l-1.921875 0zm11.265625 0q-1.65625 0 -2.296875 -0.671875q-0.640625 -0.671875 -0.703125 -2.390625l0 -3.71875q0.0625 -2.375 0.40625 -4.21875q0.359375 -1.859375 1.0 -3.453125q0.640625 -1.609375 1.59375 -3.078125l3.453125 1.015625q-0.5 1.921875 -0.671875 3.71875q-0.15625 1.796875 -0.21875 3.90625q2.4375 0 2.5 2.6875l-0.0625 3.140625q-0.0625 1.71875 -0.75 2.390625q-0.671875 0.671875 -2.328125 0.671875l-1.921875 0zm29.061157 -16.125q5.75 0 9.171875 1.0q3.4375 0.984375 4.96875 3.484375q1.53125 2.484375 1.53125 7.03125q0 4.734375 -1.828125 7.203125q-1.8125 2.46875 -5.96875 2.84375l0 0.328125q5.109375 0.4375 7.15625 3.453125q2.046875 3.015625 2.046875 8.3125q0 4.546875 -1.5625 7.046875q-1.5625 2.5 -4.859375 3.5q-3.296875 0.984375 -8.609375 0.984375q-4.296875 0 -7.46875 -0.03125q-3.15625 -0.03125 -5.8125 -0.171875q-2.65625 -0.125 -5.46875 -0.3125l0.953125 -6.78125q1.53125 0.0625 5.890625 0.125q4.359375 0.0625 10.171875 0.0625q2.75 0 4.25 -0.5q1.515625 -0.515625 2.125 -1.890625q0.609375 -1.390625 0.609375 -3.9375q0 -2.765625 -0.640625 -4.234375q-0.640625 -1.46875 -2.1875 -2.046875q-1.53125 -0.578125 -4.34375 -0.578125l-15.9375 0l0 -6.203125l15.8125 0q2.421875 -0.0625 3.796875 -0.5q1.390625 -0.453125 1.953125 -1.734375q0.578125 -1.28125 0.578125 -3.65625q0 -2.359375 -0.609375 -3.578125q-0.609375 -1.21875 -2.109375 -1.65625q-1.5 -0.453125 -4.125 -0.453125q-3.578125 0 -6.34375 -0.03125q-2.75 -0.03125 -4.890625 0q-2.140625 0.03125 -4.0 0.21875l-0.953125 -6.78125q2.5625 -0.265625 4.921875 -0.359375q2.375 -0.09375 5.1875 -0.125q2.8125 -0.03125 6.59375 -0.03125zm-7.171875 0.515625l0 44.15625l-9.53125 0l0 -44.15625l9.53125 0zm45.756836 11.703125q8.0 0 11.484375 2.71875q3.5 2.71875 3.5 8.109375q0.0625 4.28125 -2.1875 6.46875q-2.234375 2.171875 -7.734375 2.171875l-17.671875 0l0 -5.3125l15.109375 0q2.109375 0 2.71875 -0.921875q0.609375 -0.9375 0.609375 -2.609375q0 -2.234375 -1.25 -3.09375q-1.25 -0.875 -4.25 -0.875q-2.625 -0.0625 -4.109375 0.671875q-1.46875 0.734375 -2.046875 2.71875q-0.5625 1.984375 -0.5625 5.765625q0 3.96875 0.703125 6.109375q0.703125 2.140625 2.390625 2.984375q1.703125 0.828125 4.703125 0.828125q2.1875 0 5.40625 -0.15625q3.234375 -0.171875 6.5 -0.546875l0.90625 5.828125q-1.859375 0.890625 -4.234375 1.40625q-2.359375 0.5 -4.859375 0.71875q-2.5 0.234375 -4.796875 0.234375q-6.015625 0 -9.671875 -1.75q-3.640625 -1.765625 -5.28125 -5.40625q-1.625 -3.65625 -1.625 -9.359375q0 -6.203125 1.625 -9.84375q1.640625 -3.65625 5.21875 -5.25q3.578125 -1.609375 9.40625 -1.609375zm33.470947 -7.9375l0 30.28125q0 1.71875 0.796875 2.46875q0.8125 0.734375 2.65625 0.734375l4.109375 0l1.015625 6.390625q-1.15625 0.390625 -2.828125 0.671875q-1.65625 0.296875 -3.328125 0.421875q-1.65625 0.125 -2.796875 0.125q-4.296875 0 -6.703125 -2.265625q-2.390625 -2.28125 -2.390625 -6.4375l0 -32.390625l9.46875 0zm8.84375 8.78125l0 6.203125l-23.8125 0l0 -5.890625l6.140625 -0.3125l17.671875 0zm54.58362 0l-7.8125 29.109375q-0.25 1.15625 -1.15625 1.828125q-0.890625 0.671875 -2.109375 0.671875l-7.15625 0q-1.28125 0 -2.25 -0.796875q-0.953125 -0.796875 -1.078125 -2.078125l-3.53125 -17.859375q-0.1875 -1.34375 -0.3125 -2.625q-0.125 -1.28125 -0.390625 -2.625l-0.765625 0q-0.1875 1.34375 -0.390625 2.625q-0.1875 1.28125 -0.375 2.625l-3.453125 17.859375q-0.1875 1.28125 -1.15625 2.078125q-0.953125 0.796875 -2.234375 0.796875l-7.109375 0q-1.15625 0 -2.046875 -0.671875q-0.890625 -0.671875 -1.15625 -1.828125l-7.796875 -29.109375l9.46875 0l4.34375 20.46875q0.265625 1.28125 0.453125 2.59375q0.1875 1.3125 0.328125 2.59375l0.828125 0q0.1875 -1.28125 0.40625 -2.59375q0.234375 -1.3125 0.421875 -2.59375l3.515625 -17.65625q0.125 -1.21875 1.046875 -2.015625q0.9375 -0.796875 2.21875 -0.796875l6.140625 0q1.28125 0 2.203125 0.796875q0.9375 0.796875 1.125 2.078125l3.390625 17.59375q0.203125 1.28125 0.453125 2.5625q0.265625 1.28125 0.453125 2.625l0.765625 0q0.25 -1.34375 0.40625 -2.59375q0.171875 -1.25 0.421875 -2.59375l4.359375 -20.46875l9.53125 0zm19.517456 -0.84375q8.0 0 11.484375 2.71875q3.5 2.71875 3.5 8.109375q0.0625 4.28125 -2.1875 6.46875q-2.234375 2.171875 -7.734375 2.171875l-17.671875 0l0 -5.3125l15.109375 0q2.109375 0 2.71875 -0.921875q0.609375 -0.9375 0.609375 -2.609375q0 -2.234375 -1.25 -3.09375q-1.25 -0.875 -4.25 -0.875q-2.625 -0.0625 -4.109375 0.671875q-1.46875 0.734375 -2.046875 2.71875q-0.5625 1.984375 -0.5625 5.765625q0 3.96875 0.703125 6.109375q0.703125 2.140625 2.390625 2.984375q1.703125 0.828125 4.703125 0.828125q2.1875 0 5.40625 -0.15625q3.234375 -0.171875 6.5 -0.546875l0.90625 5.828125q-1.859375 0.890625 -4.234375 1.40625q-2.359375 0.5 -4.859375 0.71875q-2.5 0.234375 -4.796875 0.234375q-6.015625 0 -9.671875 -1.75q-3.640625 -1.765625 -5.28125 -5.40625q-1.625 -3.65625 -1.625 -9.359375q0 -6.203125 1.625 -9.84375q1.640625 -3.65625 5.21875 -5.25q3.578125 -1.609375 9.40625 -1.609375zm36.095947 0q8.0 0 11.484375 2.71875q3.5 2.71875 3.5 8.109375q0.0625 4.28125 -2.1875 6.46875q-2.234375 2.171875 -7.734375 2.171875l-17.671875 0l0 -5.3125l15.109375 0q2.109375 0 2.71875 -0.921875q0.609375 -0.9375 0.609375 -2.609375q0 -2.234375 -1.25 -3.09375q-1.25 -0.875 -4.25 -0.875q-2.625 -0.0625 -4.109375 0.671875q-1.46875 0.734375 -2.046875 2.71875q-0.5625 1.984375 -0.5625 5.765625q0 3.96875 0.703125 6.109375q0.703125 2.140625 2.390625 2.984375q1.703125 0.828125 4.703125 0.828125q2.1875 0 5.40625 -0.15625q3.234375 -0.171875 6.5 -0.546875l0.90625 5.828125q-1.859375 0.890625 -4.234375 1.40625q-2.359375 0.5 -4.859375 0.71875q-2.5 0.234375 -4.796875 0.234375q-6.015625 0 -9.671875 -1.75q-3.640625 -1.765625 -5.28125 -5.40625q-1.625 -3.65625 -1.625 -9.359375q0 -6.203125 1.625 -9.84375q1.640625 -3.65625 5.21875 -5.25q3.578125 -1.609375 9.40625 -1.609375zm43.142822 0q8.953125 0 8.953125 8.765625l0 23.6875l-9.46875 0l0 -20.734375q0 -2.109375 -0.765625 -2.90625q-0.765625 -0.8125 -2.625 -0.8125q-2.046875 0 -4.234375 0.8125q-2.171875 0.796875 -5.359375 2.390625l-0.453125 -5.25q3.390625 -2.875 6.9375 -4.40625q3.5625 -1.546875 7.015625 -1.546875zm-14.40625 0.84375l1.09375 6.265625l0.765625 0.828125l0 24.515625l-9.40625 0l0 -31.609375l7.546875 0zm52.164307 0l1.15625 6.265625l0.890625 0.828125l0 24.515625l-9.40625 0l0 -31.609375l7.359375 0zm15.421875 -0.84375l-0.890625 8.703125l-2.625 0q-2.25 0 -4.6875 0.640625q-2.421875 0.640625 -6.125 1.984375l-0.640625 -5.3125q3.328125 -2.9375 6.71875 -4.46875q3.390625 -1.546875 6.59375 -1.546875l1.65625 0zm19.00354 0q5.953125 0 9.53125 1.640625q3.59375 1.625 5.15625 5.28125q1.578125 3.640625 1.578125 9.78125q0 6.015625 -1.578125 9.671875q-1.5625 3.640625 -5.15625 5.25q-3.578125 1.59375 -9.53125 1.59375q-5.890625 0 -9.46875 -1.59375q-3.578125 -1.609375 -5.1875 -5.25q-1.59375 -3.65625 -1.59375 -9.671875q0 -6.140625 1.59375 -9.78125q1.609375 -3.65625 5.1875 -5.28125q3.578125 -1.640625 9.46875 -1.640625zm0 6.859375q-2.421875 0 -3.84375 0.828125q-1.40625 0.828125 -1.984375 2.9375q-0.5625 2.109375 -0.5625 6.078125q0 3.84375 0.5625 5.953125q0.578125 2.109375 1.984375 2.921875q1.421875 0.796875 3.84375 0.796875q2.5 0 3.90625 -0.796875q1.40625 -0.8125 1.953125 -2.921875q0.546875 -2.109375 0.546875 -5.953125q0 -3.96875 -0.546875 -6.078125q-0.546875 -2.109375 -1.953125 -2.9375q-1.40625 -0.828125 -3.90625 -0.828125zm71.93994 -6.015625l-7.8125 29.109375q-0.25 1.15625 -1.15625 1.828125q-0.890625 0.671875 -2.109375 0.671875l-7.15625 0q-1.28125 0 -2.25 -0.796875q-0.953125 -0.796875 -1.078125 -2.078125l-3.53125 -17.859375q-0.1875 -1.34375 -0.3125 -2.625q-0.125 -1.28125 -0.390625 -2.625l-0.765625 0q-0.1875 1.34375 -0.390625 2.625q-0.1875 1.28125 -0.375 2.625l-3.453125 17.859375q-0.1875 1.28125 -1.15625 2.078125q-0.953125 0.796875 -2.234375 0.796875l-7.109375 0q-1.15625 0 -2.046875 -0.671875q-0.890625 -0.671875 -1.15625 -1.828125l-7.796875 -29.109375l9.46875 0l4.34375 20.46875q0.265625 1.28125 0.453125 2.59375q0.1875 1.3125 0.328125 2.59375l0.828125 0q0.1875 -1.28125 0.40625 -2.59375q0.234375 -1.3125 0.421875 -2.59375l3.515625 -17.65625q0.125 -1.21875 1.046875 -2.015625q0.9375 -0.796875 2.21875 -0.796875l6.140625 0q1.28125 0 2.203125 0.796875q0.9375 0.796875 1.125 2.078125l3.390625 17.59375q0.203125 1.28125 0.453125 2.5625q0.265625 1.28125 0.453125 2.625l0.765625 0q0.25 -1.34375 0.40625 -2.59375q0.171875 -1.25 0.421875 -2.59375l4.359375 -20.46875l9.53125 0zm16.899902 -0.84375q2.296875 0 4.984375 0.171875q2.6875 0.15625 5.25 0.421875q2.5625 0.25 4.546875 0.625l-0.640625 5.890625q-3.078125 -0.0625 -6.1875 -0.125q-3.09375 -0.0625 -6.03125 -0.0625q-2.5 0 -3.84375 0.09375q-1.34375 0.09375 -1.890625 0.578125q-0.546875 0.46875 -0.546875 1.6875q0 1.46875 0.953125 1.953125q0.96875 0.484375 3.21875 1.0625l8.25 1.984375q3.96875 1.015625 5.890625 3.03125q1.921875 2.015625 1.921875 6.046875q0 3.96875 -1.484375 6.09375q-1.46875 2.109375 -4.671875 2.90625q-3.1875 0.796875 -8.25 0.796875q-1.984375 0 -5.890625 -0.203125q-3.90625 -0.1875 -8.515625 -0.953125l0.578125 -5.890625q1.21875 0.078125 2.96875 0.109375q1.765625 0.03125 3.875 0.03125q2.125 0 4.234375 0q3.328125 0 5.046875 -0.15625q1.734375 -0.171875 2.375 -0.75q0.640625 -0.578125 0.640625 -1.71875q0 -1.46875 -1.09375 -1.953125q-1.078125 -0.484375 -3.453125 -1.125l-8.0 -1.984375q-3.0625 -0.828125 -4.734375 -2.109375q-1.65625 -1.28125 -2.328125 -3.09375q-0.671875 -1.828125 -0.671875 -4.390625q0 -3.265625 1.34375 -5.25q1.34375 -1.984375 4.28125 -2.84375q2.9375 -0.875 7.875 -0.875zm37.18701 -13.046875q1.71875 0 2.359375 0.640625q0.640625 0.640625 0.640625 2.359375l0 3.78125q0 2.296875 -0.359375 4.1875q-0.34375 1.890625 -1.015625 3.46875q-0.671875 1.5625 -1.5625 3.09375l-3.453125 -1.09375q0.4375 -1.90625 0.625 -3.703125q0.203125 -1.796875 0.203125 -3.84375q-2.4375 0 -2.4375 -2.6875l0.0625 -3.203125q0.0625 -1.71875 0.734375 -2.359375q0.671875 -0.640625 2.28125 -0.640625l1.921875 0zm-11.265625 0q1.71875 0 2.359375 0.640625q0.640625 0.640625 0.640625 2.359375l0 3.78125q0 2.296875 -0.359375 4.1875q-0.34375 1.890625 -1.015625 3.46875q-0.671875 1.5625 -1.5625 3.09375l-3.453125 -1.09375q0.4375 -1.90625 0.625 -3.703125q0.203125 -1.796875 0.203125 -3.84375q-2.4375 0 -2.4375 -2.6875l0.0625 -3.203125q0.0625 -1.71875 0.734375 -2.359375q0.671875 -0.640625 2.28125 -0.640625l1.921875 0zm43.895386 13.890625l0 31.609375l-9.34375 0l0 -31.609375l9.34375 0zm-2.625 -13.953125q2.828125 0 2.828125 2.8125l0 3.453125q0 2.8125 -2.828125 2.8125l-4.09375 0q-2.8125 0 -2.8125 -2.8125l0 -3.453125q0 -2.8125 2.8125 -2.8125l4.09375 0zm22.664062 13.109375q2.296875 0 4.984375 0.171875q2.6875 0.15625 5.25 0.421875q2.5625 0.25 4.546875 0.625l-0.640625 5.890625q-3.078125 -0.0625 -6.1875 -0.125q-3.09375 -0.0625 -6.03125 -0.0625q-2.5 0 -3.84375 0.09375q-1.34375 0.09375 -1.890625 0.578125q-0.546875 0.46875 -0.546875 1.6875q0 1.46875 0.953125 1.953125q0.96875 0.484375 3.21875 1.0625l8.25 1.984375q3.96875 1.015625 5.890625 3.03125q1.921875 2.015625 1.921875 6.046875q0 3.96875 -1.484375 6.09375q-1.46875 2.109375 -4.671875 2.90625q-3.1875 0.796875 -8.25 0.796875q-1.984375 0 -5.890625 -0.203125q-3.90625 -0.1875 -8.515625 -0.953125l0.578125 -5.890625q1.21875 0.078125 2.96875 0.109375q1.765625 0.03125 3.875 0.03125q2.125 0 4.234375 0q3.328125 0 5.046875 -0.15625q1.734375 -0.171875 2.375 -0.75q0.640625 -0.578125 0.640625 -1.71875q0 -1.46875 -1.09375 -1.953125q-1.078125 -0.484375 -3.453125 -1.125l-8.0 -1.984375q-3.0625 -0.828125 -4.734375 -2.109375q-1.65625 -1.28125 -2.328125 -3.09375q-0.671875 -1.828125 -0.671875 -4.390625q0 -3.265625 1.34375 -5.25q1.34375 -1.984375 4.28125 -2.84375q2.9375 -0.875 7.875 -0.875zm47.87195 0q2.296875 0 4.984375 0.171875q2.6875 0.15625 5.25 0.421875q2.5625 0.25 4.546875 0.625l-0.640625 5.890625q-3.078125 -0.0625 -6.1875 -0.125q-3.09375 -0.0625 -6.03125 -0.0625q-2.5 0 -3.84375 0.09375q-1.34375 0.09375 -1.890625 0.578125q-0.546875 0.46875 -0.546875 1.6875q0 1.46875 0.953125 1.953125q0.96875 0.484375 3.21875 1.0625l8.25 1.984375q3.96875 1.015625 5.890625 3.03125q1.921875 2.015625 1.921875 6.046875q0 3.96875 -1.484375 6.09375q-1.46875 2.109375 -4.671875 2.90625q-3.1875 0.796875 -8.25 0.796875q-1.984375 0 -5.890625 -0.203125q-3.90625 -0.1875 -8.515625 -0.953125l0.578125 -5.890625q1.21875 0.078125 2.96875 0.109375q1.765625 0.03125 3.875 0.03125q2.125 0 4.234375 0q3.328125 0 5.046875 -0.15625q1.734375 -0.171875 2.375 -0.75q0.640625 -0.578125 0.640625 -1.71875q0 -1.46875 -1.09375 -1.953125q-1.078125 -0.484375 -3.453125 -1.125l-8.0 -1.984375q-3.0625 -0.828125 -4.734375 -2.109375q-1.65625 -1.28125 -2.328125 -3.09375q-0.671875 -1.828125 -0.671875 -4.390625q0 -3.265625 1.34375 -5.25q1.34375 -1.984375 4.28125 -2.84375q2.9375 -0.875 7.875 -0.875zm36.921387 0q8.000122 0 11.484497 2.71875q3.5 2.71875 3.5 8.109375q0.0625 4.28125 -2.1875 6.46875q-2.234375 2.171875 -7.734375 2.171875l-17.671997 0l0 -5.3125l15.109375 0q2.109497 0 2.718872 -0.921875q0.609375 -0.9375 0.609375 -2.609375q0 -2.234375 -1.25 -3.09375q-1.25 -0.875 -4.250122 -0.875q-2.625 -0.0625 -4.109375 0.671875q-1.46875 0.734375 -2.046875 2.71875q-0.5625 1.984375 -0.5625 5.765625q0 3.96875 0.703125 6.109375q0.703125 2.140625 2.390625 2.984375q1.703125 0.828125 4.703125 0.828125q2.187622 0 5.406372 -0.15625q3.234375 -0.171875 6.5 -0.546875l0.90625 5.828125q-1.859375 0.890625 -4.234375 1.40625q-2.359375 0.5 -4.859375 0.71875q-2.5 0.234375 -4.796997 0.234375q-6.015625 0 -9.671875 -1.75q-3.640625 -1.765625 -5.28125 -5.40625q-1.625 -3.65625 -1.625 -9.359375q0 -6.203125 1.625 -9.84375q1.640625 -3.65625 5.21875 -5.25q3.578125 -1.609375 9.40625 -1.609375zm33.47107 -7.9375l0 30.28125q0 1.71875 0.796875 2.46875q0.8125 0.734375 2.65625 0.734375l4.109375 0l1.015625 6.390625q-1.15625 0.390625 -2.828125 0.671875q-1.65625 0.296875 -3.328125 0.421875q-1.65625 0.125 -2.796875 0.125q-4.296875 0 -6.703125 -2.265625q-2.390625 -2.28125 -2.390625 -6.4375l0 -32.390625l9.46875 0zm8.84375 8.78125l0 6.203125l-23.8125 0l0 -5.890625l6.140625 -0.3125l17.671875 0zm35.64331 -0.84375q3.96875 0 6.71875 1.0625q2.75 1.046875 4.1875 3.578125q1.4375 2.53125 1.4375 6.890625l0 20.921875l-7.484375 0l-1.34375 -6.84375l-0.640625 -0.96875l0 -13.109375q-0.0625 -2.3125 -1.125 -3.296875q-1.046875 -1.0 -3.921875 -1.0q-2.5 0 -6.15625 0.171875q-3.640625 0.15625 -7.484375 0.40625l-0.828125 -6.265625q2.296875 -0.453125 5.265625 -0.765625q2.984375 -0.328125 5.984375 -0.546875q3.015625 -0.234375 5.390625 -0.234375zm8.4375 13.0l-0.0625 5.3125l-14.078125 0q-1.71875 0.0625 -2.46875 0.890625q-0.734375 0.828125 -0.734375 2.234375l0 1.546875q0 1.59375 0.890625 2.46875q0.90625 0.859375 2.890625 0.859375q1.671875 0 3.609375 -0.703125q1.953125 -0.703125 3.875 -1.984375q1.921875 -1.28125 3.46875 -3.015625l0 4.09375q-0.578125 0.96875 -1.734375 2.40625q-1.15625 1.4375 -2.890625 2.8125q-1.71875 1.375 -4.03125 2.3125q-2.296875 0.921875 -5.234375 0.921875q-2.828125 0 -5.171875 -0.984375q-2.328125 -1.0 -3.671875 -2.984375q-1.34375 -1.984375 -1.34375 -4.921875l0 -3.265625q0 -3.78125 2.5625 -5.890625q2.5625 -2.109375 7.046875 -2.109375l17.078125 0zm23.370605 -13.0q2.296875 0 4.984375 0.171875q2.6875 0.15625 5.25 0.421875q2.5625 0.25 4.546875 0.625l-0.640625 5.890625q-3.078125 -0.0625 -6.1875 -0.125q-3.09375 -0.0625 -6.03125 -0.0625q-2.5 0 -3.84375 0.09375q-1.34375 0.09375 -1.890625 0.578125q-0.546875 0.46875 -0.546875 1.6875q0 1.46875 0.953125 1.953125q0.96875 0.484375 3.21875 1.0625l8.25 1.984375q3.96875 1.015625 5.890625 3.03125q1.921875 2.015625 1.921875 6.046875q0 3.96875 -1.484375 6.09375q-1.46875 2.109375 -4.671875 2.90625q-3.1875 0.796875 -8.25 0.796875q-1.984375 0 -5.890625 -0.203125q-3.90625 -0.1875 -8.515625 -0.953125l0.578125 -5.890625q1.21875 0.078125 2.96875 0.109375q1.765625 0.03125 3.875 0.03125q2.125 0 4.234375 0q3.328125 0 5.046875 -0.15625q1.734375 -0.171875 2.375 -0.75q0.640625 -0.578125 0.640625 -1.71875q0 -1.46875 -1.09375 -1.953125q-1.078125 -0.484375 -3.453125 -1.125l-8.0 -1.984375q-3.0625 -0.828125 -4.734375 -2.109375q-1.65625 -1.28125 -2.328125 -3.09375q-0.671875 -1.828125 -0.671875 -4.390625q0 -3.265625 1.34375 -5.25q1.34375 -1.984375 4.28125 -2.84375q2.9375 -0.875 7.875 -0.875zm50.559326 0q1.71875 0 3.765625 0.171875q2.0625 0.15625 4.140625 0.578125q2.078125 0.40625 3.796875 1.171875l-1.015625 5.953125q-2.5625 -0.125 -4.90625 -0.15625q-2.328125 -0.03125 -4.1875 -0.03125q-2.875 0 -4.546875 0.765625q-1.65625 0.765625 -2.390625 2.6875q-0.734375 1.921875 -0.734375 5.4375q0 3.515625 0.734375 5.5q0.734375 1.984375 2.390625 2.765625q1.671875 0.765625 4.546875 0.765625q1.03125 0 2.625 -0.0625q1.609375 -0.0625 3.453125 -0.15625q1.859375 -0.109375 3.65625 -0.359375l0.890625 6.015625q-2.5625 1.15625 -5.828125 1.65625q-3.25 0.515625 -6.453125 0.515625q-5.828125 0 -9.359375 -1.625q-3.515625 -1.640625 -5.046875 -5.28125q-1.53125 -3.65625 -1.53125 -9.734375q0 -6.078125 1.5625 -9.71875q1.578125 -3.65625 5.09375 -5.25q3.515625 -1.609375 9.34375 -1.609375zm27.138428 0.84375l0 20.796875q0 1.984375 0.859375 2.8125q0.859375 0.828125 2.78125 0.828125q1.984375 0 3.9375 -0.734375q1.953125 -0.734375 4.890625 -2.328125l0.703125 5.171875q-3.453125 2.953125 -6.75 4.421875q-3.296875 1.46875 -6.875 1.46875q-8.953125 0 -8.953125 -8.765625l0 -23.671875l9.40625 0zm20.921875 0l0 31.609375l-7.421875 0l-1.09375 -6.203125l-0.953125 -0.90625l0 -24.5l9.46875 0zm19.78003 -0.84375q2.296875 0 4.984375 0.171875q2.6875 0.15625 5.25 0.421875q2.5625 0.25 4.546875 0.625l-0.640625 5.890625q-3.078125 -0.0625 -6.1875 -0.125q-3.09375 -0.0625 -6.03125 -0.0625q-2.5 0 -3.84375 0.09375q-1.34375 0.09375 -1.890625 0.578125q-0.546875 0.46875 -0.546875 1.6875q0 1.46875 0.953125 1.953125q0.96875 0.484375 3.21875 1.0625l8.25 1.984375q3.96875 1.015625 5.890625 3.03125q1.921875 2.015625 1.921875 6.046875q0 3.96875 -1.484375 6.09375q-1.46875 2.109375 -4.671875 2.90625q-3.1875 0.796875 -8.25 0.796875q-1.984375 0 -5.890625 -0.203125q-3.90625 -0.1875 -8.515625 -0.953125l0.578125 -5.890625q1.21875 0.078125 2.96875 0.109375q1.765625 0.03125 3.875 0.03125q2.125 0 4.234375 0q3.328125 0 5.046875 -0.15625q1.734375 -0.171875 2.375 -0.75q0.640625 -0.578125 0.640625 -1.71875q0 -1.46875 -1.09375 -1.953125q-1.078125 -0.484375 -3.453125 -1.125l-8.0 -1.984375q-3.0625 -0.828125 -4.734375 -2.109375q-1.65625 -1.28125 -2.328125 -3.09375q-0.671875 -1.828125 -0.671875 -4.390625q0 -3.265625 1.34375 -5.25q1.34375 -1.984375 4.28125 -2.84375q2.9375 -0.875 7.875 -0.875zm34.29663 -7.9375l0 30.28125q0 1.71875 0.796875 2.46875q0.8125 0.734375 2.65625 0.734375l4.109375 0l1.015625 6.390625q-1.15625 0.390625 -2.828125 0.671875q-1.65625 0.296875 -3.328125 0.421875q-1.65625 0.125 -2.796875 0.125q-4.296875 0 -6.703125 -2.265625q-2.390625 -2.28125 -2.390625 -6.4375l0 -32.390625l9.46875 0zm8.84375 8.78125l0 6.203125l-23.8125 0l0 -5.890625l6.140625 -0.3125l17.671875 0zm20.083496 -0.84375q5.953125 0 9.53125 1.640625q3.59375 1.625 5.15625 5.28125q1.578125 3.640625 1.578125 9.78125q0 6.015625 -1.578125 9.671875q-1.5625 3.640625 -5.15625 5.25q-3.578125 1.59375 -9.53125 1.59375q-5.890625 0 -9.46875 -1.59375q-3.578125 -1.609375 -5.1875 -5.25q-1.59375 -3.65625 -1.59375 -9.671875q0 -6.140625 1.59375 -9.78125q1.609375 -3.65625 5.1875 -5.28125q3.578125 -1.640625 9.46875 -1.640625zm0 6.859375q-2.421875 0 -3.84375 0.828125q-1.40625 0.828125 -1.984375 2.9375q-0.5625 2.109375 -0.5625 6.078125q0 3.84375 0.5625 5.953125q0.578125 2.109375 1.984375 2.921875q1.421875 0.796875 3.84375 0.796875q2.5 0 3.90625 -0.796875q1.40625 -0.8125 1.953125 -2.921875q0.546875 -2.109375 0.546875 -5.953125q0 -3.96875 -0.546875 -6.078125q-0.546875 -2.109375 -1.953125 -2.9375q-1.40625 -0.828125 -3.90625 -0.828125zm62.79126 -6.859375q4.28125 0 6.515625 2.25q2.25 2.234375 2.25 6.515625l0 23.6875l-9.34375 0l0 -20.734375q-0.0625 -1.984375 -0.828125 -2.84375q-0.765625 -0.875 -2.6875 -0.875q-1.09375 0 -2.15625 0.296875q-1.046875 0.28125 -2.390625 0.984375q-1.34375 0.703125 -3.265625 1.921875l-0.515625 -5.1875q3.078125 -3.0 6.046875 -4.5q2.984375 -1.515625 6.375 -1.515625zm-32.515625 0.84375l0.96875 6.265625l0.953125 0.828125l0 24.515625l-9.40625 0l0 -31.609375l7.484375 0zm12.796875 -0.84375q4.234375 0 6.4375 2.21875q2.203125 2.203125 2.203125 6.546875l0 23.6875l-9.078125 0l0 -20.734375q0 -2.046875 -0.875 -2.875q-0.859375 -0.84375 -2.65625 -0.84375q-1.078125 0 -2.140625 0.296875q-1.046875 0.28125 -2.4375 0.984375q-1.375 0.703125 -3.359375 1.921875l-0.5625 -5.1875q3.125 -3.0 6.0625 -4.5q2.953125 -1.515625 6.40625 -1.515625zm55.178223 3.515625q1.84375 0 2.578125 0.75q0.75 0.734375 0.75 2.578125l0 3.078125q0 1.859375 -0.75 2.59375q-0.734375 0.734375 -2.578125 0.734375l-2.4375 0q-1.859375 0 -2.59375 -0.734375q-0.734375 -0.734375 -0.734375 -2.59375l0 -3.078125q0 -1.84375 0.734375 -2.578125q0.734375 -0.75 2.59375 -0.75l2.4375 0zm0 19.140625q1.84375 0 2.578125 0.75q0.75 0.734375 0.75 2.578125l0 3.078125q0 1.859375 -0.75 2.59375q-0.734375 0.734375 -2.578125 0.734375l-2.4375 0q-1.859375 0 -2.59375 -0.734375q-0.734375 -0.734375 -0.734375 -2.59375l0 -3.078125q0 -1.84375 0.734375 -2.578125q0.734375 -0.75 2.59375 -0.75l2.4375 0zm16.447998 -19.140625q1.84375 0 2.578125 0.75q0.75 0.734375 0.75 2.578125l0 3.078125q0 1.859375 -0.75 2.59375q-0.734375 0.734375 -2.578125 0.734375l-2.4375 0q-1.859375 0 -2.59375 -0.734375q-0.734375 -0.734375 -0.734375 -2.59375l0 -3.078125q0 -1.84375 0.734375 -2.578125q0.734375 -0.75 2.59375 -0.75l2.4375 0zm0 19.140625q1.84375 0 2.578125 0.75q0.75 0.734375 0.75 2.578125l0 3.078125q0 1.859375 -0.75 2.59375q-0.734375 0.734375 -2.578125 0.734375l-2.4375 0q-1.859375 0 -2.59375 -0.734375q-0.734375 -0.734375 -0.734375 -2.59375l0 -3.078125q0 -1.84375 0.734375 -2.578125q0.734375 -0.75 2.59375 -0.75l2.4375 0z" fill-rule="nonzero"/><path fill="#000000" fill-opacity="0.0" d="m1217.7166 462.45145l1404.5669 0l0 396.37796l-1404.5669 0z" fill-rule="evenodd"/><path fill="#ffffff" d="m1340.103 616.611q7.03125 0 12.34375 0.390625q5.3125 0.375 9.859375 1.140625q4.546875 0.765625 9.15625 2.171875l-2.046875 19.96875q-4.875 -0.125 -9.296875 -0.125q-4.40625 0 -9.140625 -0.0625q-4.734375 -0.0625 -10.75 -0.0625q-3.71875 0 -6.15625 0.96875q-2.421875 0.953125 -3.828125 3.453125q-1.40625 2.484375 -1.984375 6.90625q-0.578125 4.421875 -0.578125 11.203125q0 8.953125 1.015625 13.765625q1.03125 4.796875 3.453125 6.65625q2.4375 1.84375 6.796875 1.84375q2.8125 0 5.171875 -0.1875q2.375 -0.1875 4.296875 -0.578125q1.921875 -0.390625 3.078125 -0.640625l2.6875 11.65625q-1.546875 2.546875 -5.0625 5.75q-3.515625 3.203125 -8.890625 5.453125q-5.375 2.234375 -12.421875 2.234375q-10.109375 0 -16.640625 -4.546875q-6.53125 -4.546875 -9.609375 -14.65625q-3.0625 -10.109375 -3.0625 -26.75q0 -17.03125 4.03125 -27.078125q4.03125 -10.046875 13.1875 -14.453125q9.15625 -4.421875 24.390625 -4.421875zm35.0625 39.296875l0 50.8125l-20.484375 0l-3.578125 -13.703125l-2.5625 -4.734375l0 -32.375l26.625 0zm37.50403 -13.1875l0 64.0l-26.75 0l0 -64.0l26.75 0zm-7.671875 -29.3125q7.796875 0 7.796875 7.9375l0 6.53125q0 7.9375 -7.796875 7.9375l-11.390625 0q-7.8125 0 -7.8125 -7.9375l0 -6.53125q0 -7.9375 7.8125 -7.9375l11.390625 0zm91.002686 29.3125l-18.9375 57.734375q-0.90625 2.8125 -3.15625 4.546875q-2.234375 1.71875 -5.296875 1.71875l-22.90625 0q-3.078125 0 -5.328125 -1.71875q-2.234375 -1.734375 -3.125 -4.546875l-18.953125 -57.734375l28.421875 0l7.8125 35.328125q0.640625 2.9375 1.015625 6.015625q0.390625 3.078125 0.765625 6.015625l1.671875 0q0.390625 -2.9375 0.890625 -6.015625q0.515625 -3.078125 1.03125 -6.015625l7.671875 -35.328125l28.421875 0zm37.626465 -1.796875q18.046875 0 25.59375 5.765625q7.5625 5.765625 7.6875 17.015625q0.125 8.96875 -5.3125 12.9375q-5.4375 3.96875 -19.515625 3.96875l-34.4375 0l0 -12.671875l26.890625 0q4.34375 0 5.5 -0.828125q1.15625 -0.84375 1.15625 -4.03125q0 -3.078125 -1.546875 -3.96875q-1.53125 -0.90625 -5.25 -0.90625q-3.703125 -0.125 -5.625 0.78125q-1.921875 0.890625 -2.625 3.90625q-0.703125 3.0 -0.703125 9.390625q0 5.890625 0.828125 9.21875q0.84375 3.328125 3.265625 4.734375q2.4375 1.40625 7.171875 1.40625q3.84375 0 10.8125 -0.25q6.984375 -0.25 15.171875 -1.15625l2.4375 16.125q-4.484375 2.3125 -9.609375 3.59375q-5.125 1.28125 -10.5625 1.78125q-5.4375 0.515625 -11.1875 0.515625q-13.3125 0 -21.390625 -3.703125q-8.0625 -3.71875 -11.578125 -11.078125q-3.515625 -7.359375 -3.515625 -18.234375q0 -12.671875 3.578125 -20.15625q3.59375 -7.5 11.59375 -10.828125q8.0 -3.328125 21.171875 -3.328125zm137.22168 1.796875l-20.359375 62.203125q-1.65625 5.25 -4.796875 10.875q-3.125 5.640625 -8.1875 10.046875q-5.0625 4.421875 -12.359375 6.28125q-7.296875 1.859375 -17.265625 -0.1875l-1.796875 -14.46875q7.9375 -1.65625 12.609375 -4.421875q4.671875 -2.75 7.09375 -8.125l4.734375 -10.234375q1.421875 -3.203125 2.5 -8.1875q1.09375 -5.0 1.734375 -8.453125l7.546875 -35.328125l28.546875 0zm-49.15625 0l7.5625 35.328125q0.5 2.9375 0.875 6.015625q0.390625 3.078125 0.78125 6.015625l3.84375 0l-8.328125 16.640625l-5.875 0q-3.078125 0 -5.328125 -1.71875q-2.234375 -1.734375 -3.125 -4.546875l-18.953125 -57.734375l28.546875 0zm86.535645 -1.796875q13.046875 0 20.921875 3.265625q7.875 3.265625 11.328125 10.6875q3.453125 7.421875 3.453125 19.96875q0 12.296875 -3.453125 19.59375q-3.453125 7.296875 -11.328125 10.5625q-7.875 3.25 -20.921875 3.25q-13.0625 0 -20.9375 -3.25q-7.859375 -3.265625 -11.390625 -10.5625q-3.515625 -7.296875 -3.515625 -19.59375q0 -12.546875 3.515625 -19.96875q3.53125 -7.421875 11.390625 -10.6875q7.875 -3.265625 20.9375 -3.265625zm0 18.1875q-3.078125 0 -4.75 1.21875q-1.65625 1.203125 -2.296875 4.53125q-0.640625 3.328125 -0.640625 9.984375q0 6.40625 0.640625 9.671875q0.640625 3.265625 2.296875 4.421875q1.671875 1.140625 4.75 1.140625q3.0625 0 4.71875 -1.140625q1.671875 -1.15625 2.25 -4.421875q0.578125 -3.265625 0.578125 -9.671875q0 -6.65625 -0.578125 -9.984375q-0.578125 -3.328125 -2.25 -4.53125q-1.65625 -1.21875 -4.71875 -1.21875zm71.03613 -16.390625l0 39.296875q0 2.046875 1.140625 3.015625q1.15625 0.953125 3.59375 0.953125q2.5625 0 5.25 -0.4375q2.6875 -0.453125 7.046875 -2.125l1.53125 13.1875q-6.53125 6.015625 -12.9375 8.96875q-6.390625 2.9375 -13.5625 2.9375q-18.9375 0 -18.9375 -17.921875l0 -47.875l26.875 0zm41.21875 0l0 64.0l-21.125 0l-3.328125 -13.0625l-2.5625 -1.53125l0 -49.40625l27.015625 0zm32.00122 0l3.328125 13.0625l2.5625 1.53125l0 49.40625l-26.890625 0l0 -64.0l21.0 0zm31.09375 -1.796875l-2.296875 24.578125l-6.78125 0q-3.453125 0 -7.75 0.328125q-4.28125 0.3125 -11.203125 1.46875l-1.53125 -14.46875q6.265625 -6.015625 12.921875 -8.953125q6.65625 -2.953125 12.9375 -2.953125l3.703125 0zm57.60388 0q5.125 0 11.203125 0.390625q6.078125 0.375 11.828125 0.953125q5.765625 0.578125 9.734375 1.484375l-1.65625 15.609375q-6.40625 0 -12.875 0q-6.453125 0 -12.34375 0q-4.21875 0 -6.265625 0.0625q-2.046875 0.0625 -2.6875 0.328125q-0.640625 0.25 -0.640625 1.140625q0 1.03125 1.46875 1.421875q1.46875 0.375 6.078125 1.65625l14.71875 3.703125q8.578125 2.4375 12.734375 6.734375q4.15625 4.28125 4.15625 12.59375q0 8.078125 -3.078125 12.6875q-3.0625 4.59375 -9.90625 6.515625q-6.84375 1.921875 -17.984375 1.921875q-4.609375 0 -13.640625 -0.453125q-9.015625 -0.4375 -19.640625 -2.234375l1.65625 -15.609375q1.671875 0 5.3125 0q3.65625 0 8.328125 0q4.671875 0 9.15625 0q6.140625 0 9.078125 -0.0625q2.953125 -0.078125 3.84375 -0.515625q0.890625 -0.453125 0.890625 -1.34375q0 -1.15625 -1.671875 -1.59375q-1.65625 -0.453125 -6.640625 -1.859375l-14.078125 -3.84375q-7.046875 -2.046875 -10.640625 -5.046875q-3.578125 -3.015625 -4.859375 -6.984375q-1.265625 -3.96875 -1.265625 -8.96875q0 -5.875 2.75 -10.03125q2.75 -4.171875 9.203125 -6.40625q6.46875 -2.25 17.734375 -2.25zm77.565186 0q18.046875 0 25.59375 5.765625q7.5625 5.765625 7.6875 17.015625q0.125 8.96875 -5.3125 12.9375q-5.4375 3.96875 -19.515625 3.96875l-34.4375 0l0 -12.671875l26.890625 0q4.34375 0 5.5 -0.828125q1.15625 -0.84375 1.15625 -4.03125q0 -3.078125 -1.546875 -3.96875q-1.53125 -0.90625 -5.25 -0.90625q-3.703125 -0.125 -5.625 0.78125q-1.921875 0.890625 -2.625 3.90625q-0.703125 3.0 -0.703125 9.390625q0 5.890625 0.828125 9.21875q0.84375 3.328125 3.265625 4.734375q2.4375 1.40625 7.171875 1.40625q3.84375 0 10.8125 -0.25q6.984375 -0.25 15.171875 -1.15625l2.4375 16.125q-4.484375 2.3125 -9.609375 3.59375q-5.125 1.28125 -10.5625 1.78125q-5.4375 0.515625 -11.1875 0.515625q-13.3125 0 -21.390625 -3.703125q-8.0625 -3.71875 -11.578125 -11.078125q-3.515625 -7.359375 -3.515625 -18.234375q0 -12.671875 3.578125 -20.15625q3.59375 -7.5 11.59375 -10.828125q8.0 -3.328125 21.171875 -3.328125zm75.02002 -14.96875l0 57.46875q0 2.4375 1.265625 3.53125q1.28125 1.078125 4.234375 1.078125l6.78125 0l2.9375 17.15625q-2.6875 1.140625 -6.65625 1.84375q-3.96875 0.71875 -8.0 1.09375q-4.03125 0.390625 -7.09375 0.390625q-9.34375 0 -14.859375 -4.734375q-5.5 -4.75 -5.5 -13.1875l-0.125 -64.640625l27.015625 0zm15.484375 16.765625l0 16.125l-53.25 0l0 -15.484375l12.28125 -0.640625l40.96875 0zm71.03784 -1.796875q9.09375 0 15.296875 2.375q6.203125 2.359375 9.46875 8.0625q3.265625 5.703125 3.265625 15.671875l0 39.6875l-21.375 0l-3.71875 -13.703125l-1.78125 -2.546875l0 -23.5625q-0.140625 -3.328125 -1.734375 -4.859375q-1.59375 -1.53125 -5.828125 -1.53125q-4.984375 0 -12.21875 0.125q-7.234375 0.125 -15.421875 0.515625l-2.4375 -17.03125q4.875 -0.890625 11.59375 -1.59375q6.71875 -0.703125 13.375 -1.15625q6.65625 -0.453125 11.515625 -0.453125zm17.65625 26.5l-0.125 12.921875l-26.5 0q-2.421875 0 -3.640625 1.09375q-1.21875 1.09375 -1.21875 2.875l0 2.046875q0 1.671875 1.34375 2.828125q1.34375 1.140625 4.03125 1.140625q3.078125 0 6.40625 -1.46875q3.328125 -1.46875 6.390625 -3.765625q3.078125 -2.3125 5.25 -4.75l0 8.203125q-0.890625 2.171875 -2.8125 5.5q-1.921875 3.328125 -5.1875 6.65625q-3.265625 3.328125 -8.0625 5.578125q-4.796875 2.234375 -11.453125 2.234375q-5.890625 0 -10.953125 -2.046875q-5.046875 -2.046875 -8.0625 -6.078125q-3.0 -4.046875 -3.0 -10.0625l0 -6.390625q0 -7.6875 5.6875 -12.09375q5.703125 -4.421875 15.4375 -4.421875l36.46875 0zm78.9895 -41.46875l0 57.46875q0 2.4375 1.265625 3.53125q1.28125 1.078125 4.234375 1.078125l6.78125 0l2.9375 17.15625q-2.6875 1.140625 -6.65625 1.84375q-3.96875 0.71875 -8.0 1.09375q-4.03125 0.390625 -7.09375 0.390625q-9.34375 0 -14.859375 -4.734375q-5.5 -4.75 -5.5 -13.1875l-0.125 -64.640625l27.015625 0zm15.484375 16.765625l0 16.125l-53.25 0l0 -15.484375l12.28125 -0.640625l40.96875 0zm34.298584 0l0 64.0l-26.75 0l0 -64.0l26.75 0zm-7.671875 -29.3125q7.796875 0 7.796875 7.9375l0 6.53125q0 7.9375 -7.796875 7.9375l-11.390625 0q-7.8125 0 -7.8125 -7.9375l0 -6.53125q0 -7.9375 7.8125 -7.9375l11.390625 0zm52.73706 12.546875l0 57.46875q0 2.4375 1.265625 3.53125q1.28125 1.078125 4.234375 1.078125l6.78125 0l2.9375 17.15625q-2.6875 1.140625 -6.65625 1.84375q-3.96875 0.71875 -8.0 1.09375q-4.03125 0.390625 -7.09375 0.390625q-9.34375 0 -14.859375 -4.734375q-5.5 -4.75 -5.5 -13.1875l-0.125 -64.640625l27.015625 0zm15.484375 16.765625l0 16.125l-53.25 0l0 -15.484375l12.28125 -0.640625l40.96875 0zm33.92334 -25.59375l0 66.296875q0 2.4375 1.59375 3.53125q1.59375 1.078125 4.796875 1.078125l4.359375 0l2.9375 17.15625q-1.921875 1.140625 -5.4375 1.84375q-3.515625 0.71875 -7.171875 1.09375q-3.640625 0.390625 -6.203125 0.390625q-10.109375 0 -15.875 -4.734375q-5.765625 -4.75 -5.765625 -13.1875l0 -73.46875l26.765625 0zm52.980225 23.796875q18.046875 0 25.59375 5.765625q7.5625 5.765625 7.6875 17.015625q0.125 8.96875 -5.3125 12.9375q-5.4375 3.96875 -19.515625 3.96875l-34.4375 0l0 -12.671875l26.890625 0q4.34375 0 5.5 -0.828125q1.15625 -0.84375 1.15625 -4.03125q0 -3.078125 -1.546875 -3.96875q-1.53125 -0.90625 -5.25 -0.90625q-3.703125 -0.125 -5.625 0.78125q-1.921875 0.890625 -2.625 3.90625q-0.703125 3.0 -0.703125 9.390625q0 5.890625 0.828125 9.21875q0.84375 3.328125 3.265625 4.734375q2.4375 1.40625 7.171875 1.40625q3.84375 0 10.8125 -0.25q6.984375 -0.25 15.171875 -1.15625l2.4375 16.125q-4.484375 2.3125 -9.609375 3.59375q-5.125 1.28125 -10.5625 1.78125q-5.4375 0.515625 -11.1875 0.515625q-13.3125 0 -21.390625 -3.703125q-8.0625 -3.71875 -11.578125 -11.078125q-3.515625 -7.359375 -3.515625 -18.234375q0 -12.671875 3.578125 -20.15625q3.59375 -7.5 11.59375 -10.828125q8.0 -3.328125 21.171875 -3.328125zm55.67627 6.65625q5.25 0 7.234375 1.984375q1.984375 1.984375 1.984375 7.234375l0 5.25q0 5.125 -1.984375 7.171875q-1.984375 2.046875 -7.234375 2.046875l-6.015625 0q-5.25 0 -7.234375 -2.046875q-1.96875 -2.046875 -1.96875 -7.171875l0 -5.25q0 -5.25 1.96875 -7.234375q1.984375 -1.984375 7.234375 -1.984375l6.015625 0zm0 35.328125q5.25 0 7.234375 1.984375q1.984375 1.984375 1.984375 7.234375l0 5.25q0 5.125 -1.984375 7.171875q-1.984375 2.046875 -7.234375 2.046875l-6.015625 0q-5.25 0 -7.234375 -2.046875q-1.96875 -2.046875 -1.96875 -7.171875l0 -5.25q0 -5.25 1.96875 -7.234375q1.984375 -1.984375 7.234375 -1.984375l6.015625 0z" fill-rule="nonzero"/><path fill="#000000" fill-opacity="0.0" d="m860.0945 1335.6351l2119.811 0l0 350.4253l-2119.811 0z" fill-rule="evenodd"/><path fill="#ffffff" d="m1017.91907 1456.134q14.078125 0 22.015625 2.625q7.9375 2.609375 11.265625 9.140625q3.328125 6.53125 3.328125 18.3125q0 11.640625 -3.140625 18.109375q-3.125 6.46875 -10.296875 9.09375q-7.171875 2.609375 -19.328125 2.609375q-6.40625 0 -12.8125 -0.703125q-6.390625 -0.703125 -11.96875 -1.78125q-5.5625 -1.09375 -9.53125 -2.3125q-3.96875 -1.21875 -5.5 -2.234375l0.390625 -12.546875q8.3125 0 17.265625 0q8.96875 0 17.671875 0q3.84375 0 5.890625 -0.828125q2.046875 -0.828125 2.8125 -3.0625q0.765625 -2.25 0.765625 -6.34375q0 -4.234375 -0.765625 -6.53125q-0.765625 -2.3125 -2.8125 -3.140625q-2.046875 -0.828125 -5.890625 -0.828125q-13.046875 0 -22.265625 0.125q-9.21875 0.125 -12.546875 0.515625l-1.921875 -18.9375q5.890625 -0.640625 11.0625 -0.890625q5.1875 -0.265625 11.328125 -0.328125q6.15625 -0.0625 14.984375 -0.0625zm-9.59375 1.28125l0 88.3125l-27.78125 0l0 -88.3125l27.78125 0zm90.23547 22.515625q9.09375 0 15.296875 2.375q6.203247 2.359375 9.468872 8.0625q3.265625 5.703125 3.265625 15.671875l0 39.6875l-21.375122 0l-3.71875 -13.703125l-1.78125 -2.546875l0 -23.5625q-0.140625 -3.328125 -1.734375 -4.859375q-1.59375 -1.53125 -5.828125 -1.53125q-4.984375 0 -12.21875 0.125q-7.234375 0.125 -15.421875 0.515625l-2.4375 -17.03125q4.875 -0.890625 11.59375 -1.59375q6.71875 -0.703125 13.375 -1.15625q6.65625 -0.453125 11.515625 -0.453125zm17.656372 26.5l-0.12512207 12.921875l-26.5 0q-2.421875 0 -3.640625 1.09375q-1.21875 1.09375 -1.21875 2.875l0 2.046875q0 1.671875 1.34375 2.828125q1.34375 1.140625 4.03125 1.140625q3.078125 0 6.40625 -1.46875q3.328125 -1.46875 6.390625 -3.765625q3.078125 -2.3125 5.25 -4.75l0 8.203125q-0.890625 2.171875 -2.8125 5.5q-1.921875 3.328125 -5.1875 6.65625q-3.265625 3.328125 -8.0625 5.578125q-4.796875 2.234375 -11.453125 2.234375q-5.890625 0 -10.953125 -2.046875q-5.046875 -2.046875 -8.0625 -6.078125q-3.0 -4.046875 -3.0 -10.0625l0 -6.390625q0 -7.6875 5.6875 -12.09375q5.703125 -4.421875 15.4375 -4.421875l36.468872 0zm48.004395 -26.5q5.125 0 11.203125 0.390625q6.078125 0.375 11.828125 0.953125q5.765625 0.578125 9.734375 1.484375l-1.65625 15.609375q-6.40625 0 -12.875 0q-6.453125 0 -12.34375 0q-4.21875 0 -6.265625 0.0625q-2.046875 0.0625 -2.6875 0.328125q-0.640625 0.25 -0.640625 1.140625q0 1.03125 1.46875 1.421875q1.46875 0.375 6.078125 1.65625l14.71875 3.703125q8.578125 2.4375 12.734375 6.734375q4.15625 4.28125 4.15625 12.59375q0 8.078125 -3.078125 12.6875q-3.0625 4.59375 -9.90625 6.515625q-6.84375 1.921875 -17.984375 1.921875q-4.609375 0 -13.640625 -0.453125q-9.015625 -0.4375 -19.640625 -2.234375l1.65625 -15.609375q1.671875 0 5.3125 0q3.65625 0 8.328125 0q4.671875 0 9.15625 0q6.140625 0 9.078125 -0.0625q2.953125 -0.078125 3.84375 -0.515625q0.890625 -0.453125 0.890625 -1.34375q0 -1.15625 -1.671875 -1.59375q-1.65625 -0.453125 -6.640625 -1.859375l-14.078125 -3.84375q-7.046875 -2.046875 -10.640625 -5.046875q-3.578125 -3.015625 -4.859375 -6.984375q-1.265625 -3.96875 -1.265625 -8.96875q0 -5.875 2.75 -10.03125q2.75 -4.171875 9.203125 -6.40625q6.46875 -2.25 17.734375 -2.25zm77.065186 -14.96875l0 57.46875q0 2.4375 1.265625 3.53125q1.28125 1.078125 4.234375 1.078125l6.78125 0l2.9375 17.15625q-2.6875 1.140625 -6.65625 1.84375q-3.96875 0.71875 -8.0 1.09375q-4.03125 0.390625 -7.09375 0.390625q-9.34375 0 -14.859375 -4.734375q-5.5 -4.75 -5.5 -13.1875l-0.125 -64.640625l27.015625 0zm15.484375 16.765625l0 16.125l-53.25 0l0 -15.484375l12.28125 -0.640625l40.96875 0zm41.079712 -1.796875q18.046875 0 25.59375 5.765625q7.5625 5.765625 7.6875 17.015625q0.125 8.96875 -5.3125 12.9375q-5.4375 3.96875 -19.515625 3.96875l-34.4375 0l0 -12.671875l26.890625 0q4.34375 0 5.5 -0.828125q1.15625 -0.84375 1.15625 -4.03125q0 -3.078125 -1.546875 -3.96875q-1.53125 -0.90625 -5.25 -0.90625q-3.703125 -0.125 -5.625 0.78125q-1.921875 0.890625 -2.625 3.90625q-0.703125 3.0 -0.703125 9.390625q0 5.890625 0.828125 9.21875q0.84375 3.328125 3.265625 4.734375q2.4375 1.40625 7.171875 1.40625q3.84375 0 10.8125 -0.25q6.984375 -0.25 15.171875 -1.15625l2.4375 16.125q-4.484375 2.3125 -9.609375 3.59375q-5.125 1.28125 -10.5625 1.78125q-5.4375 0.515625 -11.1875 0.515625q-13.3125 0 -21.390625 -3.703125q-8.0625 -3.71875 -11.578125 -11.078125q-3.515625 -7.359375 -3.515625 -18.234375q0 -12.671875 3.578125 -20.15625q3.59375 -7.5 11.59375 -10.828125q8.0 -3.328125 21.171875 -3.328125zm99.724 -14.96875l0 57.46875q0 2.4375 1.265625 3.53125q1.28125 1.078125 4.234375 1.078125l6.78125 0l2.9375 17.15625q-2.6875 1.140625 -6.65625 1.84375q-3.96875 0.71875 -8.0 1.09375q-4.03125 0.390625 -7.09375 0.390625q-9.34375 0 -14.859375 -4.734375q-5.5 -4.75 -5.5 -13.1875l-0.125 -64.640625l27.015625 0zm15.484375 16.765625l0 16.125l-53.25 0l0 -15.484375l12.28125 -0.640625l40.96875 0zm56.95459 -1.796875q18.953125 0 18.953125 17.921875l0 47.875l-26.890625 0l0 -39.296875q0 -2.171875 -1.03125 -3.0q-1.015625 -0.84375 -3.578125 -0.84375q-2.421875 0 -5.4375 0.390625q-3.0 0.375 -7.875 2.046875l-2.8125 -11.65625q6.78125 -6.78125 14.265625 -10.109375q7.5 -3.328125 14.40625 -3.328125zm-23.03125 -23.796875l0.125 19.0625q0 5.765625 -0.84375 11.078125q-0.828125 5.3125 -1.84375 8.515625l2.5625 1.53125l0 49.40625l-26.890625 0l0 -89.59375l26.890625 0zm86.64429 23.796875q18.046875 0 25.59375 5.765625q7.5625 5.765625 7.6875 17.015625q0.125 8.96875 -5.3125 12.9375q-5.4375 3.96875 -19.515625 3.96875l-34.4375 0l0 -12.671875l26.890625 0q4.34375 0 5.5 -0.828125q1.15625 -0.84375 1.15625 -4.03125q0 -3.078125 -1.546875 -3.96875q-1.53125 -0.90625 -5.25 -0.90625q-3.703125 -0.125 -5.625 0.78125q-1.921875 0.890625 -2.625 3.90625q-0.703125 3.0 -0.703125 9.390625q0 5.890625 0.828125 9.21875q0.84375 3.328125 3.265625 4.734375q2.4375 1.40625 7.171875 1.40625q3.84375 0 10.8125 -0.25q6.984375 -0.25 15.171875 -1.15625l2.4375 16.125q-4.484375 2.3125 -9.609375 3.59375q-5.125 1.28125 -10.5625 1.78125q-5.4375 0.515625 -11.1875 0.515625q-13.3125 0 -21.390625 -3.703125q-8.0625 -3.71875 -11.578125 -11.078125q-3.515625 -7.359375 -3.515625 -18.234375q0 -12.671875 3.578125 -20.15625q3.59375 -7.5 11.59375 -10.828125q8.0 -3.328125 21.171875 -3.328125zm102.400024 0q18.046875 0 25.59375 5.765625q7.5625 5.765625 7.6875 17.015625q0.125 8.96875 -5.3125 12.9375q-5.4375 3.96875 -19.515625 3.96875l-34.4375 0l0 -12.671875l26.890625 0q4.34375 0 5.5 -0.828125q1.15625 -0.84375 1.15625 -4.03125q0 -3.078125 -1.546875 -3.96875q-1.53125 -0.90625 -5.25 -0.90625q-3.703125 -0.125 -5.625 0.78125q-1.921875 0.890625 -2.625 3.90625q-0.703125 3.0 -0.703125 9.390625q0 5.890625 0.828125 9.21875q0.84375 3.328125 3.265625 4.734375q2.4375 1.40625 7.171875 1.40625q3.84375 0 10.8125 -0.25q6.984375 -0.25 15.171875 -1.15625l2.4375 16.125q-4.484375 2.3125 -9.609375 3.59375q-5.125 1.28125 -10.5625 1.78125q-5.4375 0.515625 -11.1875 0.515625q-13.3125 0 -21.390625 -3.703125q-8.0625 -3.71875 -11.578125 -11.078125q-3.515625 -7.359375 -3.515625 -18.234375q0 -12.671875 3.578125 -20.15625q3.59375 -7.5 11.59375 -10.828125q8.0 -3.328125 21.171875 -3.328125zm112.00806 1.796875l-17.15625 31.359375l18.5625 32.640625l-26.625 0l-17.03125 -32.640625l15.75 -31.359375l26.5 0zm-49.03125 0l15.75 31.359375l-17.03125 32.640625l-26.625 0l18.5625 -32.640625l-17.140625 -31.359375l26.484375 0zm24.578125 23.546875l0 15.109375l-26.359375 0l0 -15.109375l26.359375 0zm78.20862 -25.078125q12.546875 0 17.796875 8.96875q5.25 8.953125 5.25 25.328125q0 13.1875 -2.765625 20.359375q-2.75 7.15625 -8.125 9.921875q-5.375 2.75 -13.3125 2.75q-7.296875 0 -13.640625 -2.171875q-6.328125 -2.1875 -10.15625 -7.5625l1.78125 -10.5q2.5625 0.90625 4.921875 1.796875q2.375 0.890625 6.34375 0.890625q2.6875 0 4.28125 -0.953125q1.609375 -0.953125 2.3125 -4.21875q0.703125 -3.265625 0.703125 -10.046875q0 -6.921875 -0.703125 -10.1875q-0.703125 -3.265625 -2.25 -4.15625q-1.53125 -0.890625 -3.953125 -0.890625q-3.328125 0 -5.25 0.703125q-1.921875 0.703125 -3.96875 1.71875l-3.71875 -10.109375q1.671875 -3.203125 5.3125 -5.828125q3.65625 -2.625 8.640625 -4.21875q5.0 -1.59375 10.5 -1.59375zm-25.71875 1.53125l2.546875 10.109375l2.828125 2.046875l0 42.375l-0.78125 1.53125q0.390625 4.09375 0.640625 8.953125q0.265625 4.875 0.140625 9.359375l0 12.671875l-26.890625 0l0 -87.046875l21.515625 0zm91.516235 -1.796875q13.046875 0 20.921875 3.265625q7.875 3.265625 11.328125 10.6875q3.453125 7.421875 3.453125 19.96875q0 12.296875 -3.453125 19.59375q-3.453125 7.296875 -11.328125 10.5625q-7.875 3.25 -20.921875 3.25q-13.0625 0 -20.9375 -3.25q-7.859375 -3.265625 -11.390625 -10.5625q-3.515625 -7.296875 -3.515625 -19.59375q0 -12.546875 3.515625 -19.96875q3.53125 -7.421875 11.390625 -10.6875q7.875 -3.265625 20.9375 -3.265625zm0 18.1875q-3.078125 0 -4.75 1.21875q-1.65625 1.203125 -2.296875 4.53125q-0.640625 3.328125 -0.640625 9.984375q0 6.40625 0.640625 9.671875q0.640625 3.265625 2.296875 4.421875q1.671875 1.140625 4.75 1.140625q3.0625 0 4.71875 -1.140625q1.671875 -1.15625 2.25 -4.421875q0.578125 -3.265625 0.578125 -9.671875q0 -6.65625 -0.578125 -9.984375q-0.578125 -3.328125 -2.25 -4.53125q-1.65625 -1.21875 -4.71875 -1.21875zm65.53613 -16.390625l3.328125 13.0625l2.5625 1.53125l0 49.40625l-26.890625 0l0 -64.0l21.0 0zm31.09375 -1.796875l-2.296875 24.578125l-6.78125 0q-3.453125 0 -7.75 0.328125q-4.28125 0.3125 -11.203125 1.46875l-1.53125 -14.46875q6.265625 -6.015625 12.921875 -8.953125q6.65625 -2.953125 12.9375 -2.953125l3.703125 0zm39.309082 -14.96875l0 57.46875q0 2.4375 1.265625 3.53125q1.28125 1.078125 4.234375 1.078125l6.78125 0l2.9375 17.15625q-2.6875 1.140625 -6.65625 1.84375q-3.96875 0.71875 -8.0 1.09375q-4.03125 0.390625 -7.09375 0.390625q-9.34375 0 -14.859375 -4.734375q-5.5 -4.75 -5.5 -13.1875l-0.125 -64.640625l27.015625 0zm15.484375 16.765625l0 16.125l-53.25 0l0 -15.484375l12.28125 -0.640625l40.96875 0zm61.948975 -28.671875q2.5625 0 6.84375 0.203125q4.296875 0.1875 8.828125 0.578125q4.546875 0.375 7.75 1.015625l-2.5625 16.125l-11.265625 0q-3.578125 0 -4.859375 1.46875q-1.28125 1.46875 -1.28125 5.1875l0 68.09375l-27.0 0l0 -71.8125q0 -6.015625 2.234375 -10.75q2.234375 -4.734375 7.421875 -7.421875q5.1875 -2.6875 13.890625 -2.6875zm18.6875 28.671875l0 16.125l-52.984375 0l0 -15.484375l10.875 -0.640625l42.109375 0zm27.14038 0l3.328125 13.0625l2.5625 1.53125l0 49.40625l-26.890625 0l0 -64.0l21.0 0zm31.09375 -1.796875l-2.296875 24.578125l-6.78125 0q-3.453125 0 -7.75 0.328125q-4.28125 0.3125 -11.203125 1.46875l-1.53125 -14.46875q6.265625 -6.015625 12.921875 -8.953125q6.65625 -2.953125 12.9375 -2.953125l3.703125 0zm38.92212 0q13.046875 0 20.921875 3.265625q7.875 3.265625 11.328125 10.6875q3.453125 7.421875 3.453125 19.96875q0 12.296875 -3.453125 19.59375q-3.453125 7.296875 -11.328125 10.5625q-7.875 3.25 -20.921875 3.25q-13.0625 0 -20.9375 -3.25q-7.859375 -3.265625 -11.390625 -10.5625q-3.515625 -7.296875 -3.515625 -19.59375q0 -12.546875 3.515625 -19.96875q3.53125 -7.421875 11.390625 -10.6875q7.875 -3.265625 20.9375 -3.265625zm0 18.1875q-3.078125 0 -4.75 1.21875q-1.65625 1.203125 -2.296875 4.53125q-0.640625 3.328125 -0.640625 9.984375q0 6.40625 0.640625 9.671875q0.640625 3.265625 2.296875 4.421875q1.671875 1.140625 4.75 1.140625q3.0625 0 4.71875 -1.140625q1.671875 -1.15625 2.25 -4.421875q0.578125 -3.265625 0.578125 -9.671875q0 -6.65625 -0.578125 -9.984375q-0.578125 -3.328125 -2.25 -4.53125q-1.65625 -1.21875 -4.71875 -1.21875zm128.77051 -18.1875q9.078125 0 13.75 4.546875q4.671875 4.546875 4.671875 13.375l0 47.875l-26.75 0l0 -39.296875q0 -2.171875 -0.90625 -3.0q-0.890625 -0.84375 -3.3125 -0.84375q-1.15625 0 -2.375 0.140625q-1.21875 0.125 -2.953125 0.640625q-1.71875 0.5 -4.40625 1.65625l-1.40625 -13.1875q5.640625 -6.015625 11.078125 -8.953125q5.4375 -2.953125 12.609375 -2.953125zm-63.234375 1.796875l3.203125 13.0625l2.546875 1.53125l0 49.40625l-26.75 0l0 -64.0l21.0 0zm25.21875 -1.796875q8.828125 0 13.4375 4.546875q4.609375 4.546875 4.609375 13.375l0 47.875l-25.859375 0l0 -39.296875q0 -2.171875 -1.03125 -3.0q-1.015625 -0.84375 -3.328125 -0.84375q-1.140625 0 -2.421875 0.140625q-1.28125 0.125 -3.078125 0.640625q-1.796875 0.5 -4.609375 1.65625l-1.40625 -13.1875q5.625 -6.015625 11.0 -8.953125q5.390625 -2.953125 12.6875 -2.953125zm133.6289 -24.3125q11.390625 0 19.25 2.109375q7.875 2.109375 12.734375 7.234375q4.875 5.125 7.046875 14.015625q2.1875 8.890625 2.1875 22.59375q0 13.5625 -2.1875 22.53125q-2.171875 8.953125 -7.046875 14.078125q-4.859375 5.109375 -12.734375 7.234375q-7.859375 2.109375 -19.25 2.109375q-11.265625 0 -19.140625 -2.109375q-7.875 -2.125 -12.734375 -7.234375q-4.859375 -5.125 -7.046875 -14.078125q-2.171875 -8.96875 -2.171875 -22.53125q0 -13.703125 2.171875 -22.59375q2.1875 -8.890625 7.046875 -14.015625q4.859375 -5.125 12.734375 -7.234375q7.875 -2.109375 19.140625 -2.109375zm-7.5625 93.4375q9.609375 3.578125 19.78125 5.625q10.171875 2.0625 22.34375 3.84375l-6.796875 22.40625q-13.046875 -3.71875 -23.359375 -8.515625q-10.296875 -4.796875 -17.84375 -10.171875l5.875 -13.1875zm7.5625 -72.828125q-4.734375 0 -7.296875 2.046875q-2.5625 2.046875 -3.59375 7.546875q-1.015625 5.5 -1.015625 15.75q0 10.234375 1.015625 15.75q1.03125 5.5 3.59375 7.546875q2.5625 2.046875 7.296875 2.046875q4.734375 0 7.296875 -2.046875q2.5625 -2.046875 3.578125 -7.546875q1.03125 -5.515625 1.03125 -15.75q0 -10.25 -1.03125 -15.75q-1.015625 -5.5 -3.578125 -7.546875q-2.5625 -2.046875 -7.296875 -2.046875zm77.30835 5.5l0 39.296875q0 2.046875 1.140625 3.015625q1.15625 0.953125 3.59375 0.953125q2.5625 0 5.25 -0.4375q2.6875 -0.453125 7.046875 -2.125l1.53125 13.1875q-6.53125 6.015625 -12.9375 8.96875q-6.390625 2.9375 -13.5625 2.9375q-18.9375 0 -18.9375 -17.921875l0 -47.875l26.875 0zm41.21875 0l0 64.0l-21.125 0l-3.328125 -13.0625l-2.5625 -1.53125l0 -49.40625l27.015625 0zm38.266846 0l0 64.0l-26.75 0l0 -64.0l26.75 0zm-7.671875 -29.3125q7.796875 0 7.796875 7.9375l0 6.53125q0 7.9375 -7.796875 7.9375l-11.390625 0q-7.8125 0 -7.8125 -7.9375l0 -6.53125q0 -7.9375 7.8125 -7.9375l11.390625 0zm47.22168 46.46875l31.234375 0.125l-29.828125 29.5625l-31.21875 -0.125l29.8125 -29.5625zm32.0 29.5625l0 17.28125l-61.8125 0l0 -17.28125l61.8125 0zm-0.765625 -46.71875l0 17.28125l-60.28125 0l0 -17.28125l60.28125 0zm36.873047 -25.59375l0 66.296875q0 2.4375 1.59375 3.53125q1.59375 1.078125 4.796875 1.078125l4.359375 0l2.9375 17.15625q-1.921875 1.140625 -5.4375 1.84375q-3.515625 0.71875 -7.171875 1.09375q-3.640625 0.390625 -6.203125 0.390625q-10.109375 0 -15.875 -4.734375q-5.765625 -4.75 -5.765625 -13.1875l0 -73.46875l26.765625 0zm52.980225 23.796875q18.046875 0 25.59375 5.765625q7.5625 5.765625 7.6875 17.015625q0.125 8.96875 -5.3125 12.9375q-5.4375 3.96875 -19.515625 3.96875l-34.4375 0l0 -12.671875l26.890625 0q4.34375 0 5.5 -0.828125q1.15625 -0.84375 1.15625 -4.03125q0 -3.078125 -1.546875 -3.96875q-1.53125 -0.90625 -5.25 -0.90625q-3.703125 -0.125 -5.625 0.78125q-1.921875 0.890625 -2.625 3.90625q-0.703125 3.0 -0.703125 9.390625q0 5.890625 0.828125 9.21875q0.84375 3.328125 3.265625 4.734375q2.4375 1.40625 7.171875 1.40625q3.84375 0 10.8125 -0.25q6.984375 -0.25 15.171875 -1.15625l2.4375 16.125q-4.484375 2.3125 -9.609375 3.59375q-5.125 1.28125 -10.5625 1.78125q-5.4375 0.515625 -11.1875 0.515625q-13.3125 0 -21.390625 -3.703125q-8.0625 -3.71875 -11.578125 -11.078125q-3.515625 -7.359375 -3.515625 -18.234375q0 -12.671875 3.578125 -20.15625q3.59375 -7.5 11.59375 -10.828125q8.0 -3.328125 21.171875 -3.328125zm75.02002 -14.96875l0 57.46875q0 2.4375 1.265625 3.53125q1.28125 1.078125 4.234375 1.078125l6.78125 0l2.9375 17.15625q-2.6875 1.140625 -6.65625 1.84375q-3.96875 0.71875 -8.0 1.09375q-4.03125 0.390625 -7.09375 0.390625q-9.34375 0 -14.859375 -4.734375q-5.5 -4.75 -5.5 -13.1875l-0.125 -64.640625l27.015625 0zm15.484375 16.765625l0 16.125l-53.25 0l0 -15.484375l12.28125 -0.640625l40.96875 0zm21.23584 4.859375q5.25 0 7.234375 1.984375q1.984375 1.984375 1.984375 7.234375l0 5.25q0 5.125 -1.984375 7.171875q-1.984375 2.046875 -7.234375 2.046875l-6.015625 0q-5.25 0 -7.234375 -2.046875q-1.96875 -2.046875 -1.96875 -7.171875l0 -5.25q0 -5.25 1.96875 -7.234375q1.984375 -1.984375 7.234375 -1.984375l6.015625 0zm0 35.328125q5.25 0 7.234375 1.984375q1.984375 1.984375 1.984375 7.234375l0 5.25q0 5.125 -1.984375 7.171875q-1.984375 2.046875 -7.234375 2.046875l-6.015625 0q-5.25 0 -7.234375 -2.046875q-1.96875 -2.046875 -1.96875 -7.171875l0 -5.25q0 -5.25 1.96875 -7.234375q1.984375 -1.984375 7.234375 -1.984375l6.015625 0z" fill-rule="nonzero"/></g></svg>