<svg version="1.1" viewBox="0.0 0.0 3840.0 2160.0" fill="none" stroke="none" stroke-linecap="square" stroke-miterlimit="10" xmlns:xlink="http://www.w3.org/1999/xlink" xmlns="http://www.w3.org/2000/svg"><clipPath id="p.0"><path d="m0 0l3840.0 0l0 2160.0l-3840.0 0l0 -2160.0z" clip-rule="nonzero"/></clipPath><g clip-path="url(#p.0)"><path fill="#386e6e" d="m0 0l3840.0 0l0 2160.0l-3840.0 0z" fill-rule="evenodd"/><g filter="url(#shadowFilter-p.1)"><use xlink:href="#p.1" transform="matrix(1.0 0.0 0.0 1.0 -11.31370839895016 -11.313708398950084)"/></g><defs><filter id="shadowFilter-p.1" filterUnits="userSpaceOnUse"><feGaussianBlur in="SourceAlpha" stdDeviation="12.0" result="blur"/><feComponentTransfer in="blur" color-interpolation-filters="sRGB"><feFuncR type="linear" slope="0" intercept="1.0"/><feFuncG type="linear" slope="0" intercept="1.0"/><feFuncB type="linear" slope="0" intercept="1.0"/><feFuncA type="linear" slope="1.0" intercept="0"/></feComponentTransfer></filter></defs><g id="p.1"><path fill="#c3c7cb" d="m3351.2441 2002.2992l-2862.4883 0l0 -1844.5984l2862.4883 0z" fill-rule="evenodd"/></g><g filter="url(#shadowFilter-p.2)"><use xlink:href="#p.2" transform="matrix(1.0 0.0 0.0 1.0 12.727922047244103 12.72792204724395)"/></g><defs><filter id="shadowFilter-p.2" filterUnits="userSpaceOnUse"><feGaussianBlur in="SourceAlpha" stdDeviation="12.0" result="blur"/><feComponentTransfer in="blur" color-interpolation-filters="sRGB"><feFuncR type="linear" slope="0" intercept="0.0"/><feFuncG type="linear" slope="0" intercept="0.0"/><feFuncB type="linear" slope="0" intercept="0.0"/><feFuncA type="linear" slope="1.0" intercept="0"/></feComponentTransfer></filter></defs><g id="p.2"><path fill="#c3c7cb" d="m488.75592 157.70079l2862.4883 0l0 1844.5984l-2862.4883 0z" fill-rule="evenodd"/></g><path fill="#0000aa" d="m505.85828 178.15486l2828.2837 0l0 126.80315l-2828.2837 0z" fill-rule="evenodd"/><path stroke="#ffffff" stroke-width="1.0" stroke-linejoin="round" stroke-linecap="butt" d="m505.85828 178.15486l2828.2837 0l0 126.80315l-2828.2837 0z" fill-rule="evenodd"/><path fill="#ffffff" d="m548.7645 245.60768l0.625 -15.328125l-0.703125 0l-10.234375 28.23436l-10.21875 -28.23436l-0.71875 0l0.640625 15.328125l0 24.468735l-10.234375 0l0 -54.906235l13.921875 0l6.765625 18.484375l0.640625 0l6.75 -18.484375l12.984375 0l0 54.906235l-10.21875 0l0 -24.468735zm51.599976 24.468735q-3.625 0 -5.828125 -1.84375q-2.203125 -1.859375 -2.59375 -5.3125l-0.390625 0q-1.109375 4.015625 -4.375 6.0625q-3.265625 2.03125 -7.984375 2.03125q-5.890625 0 -9.46875 -3.171875q-3.578125 -3.1875 -3.578125 -8.9375q0 -6.3749847 4.640625 -9.437485q4.640625 -3.0625 13.609375 -3.0625l6.515625 0l0 -2.046875q0 -3.625 -1.6875 -5.46875q-1.6875 -1.84375 -5.703125 -1.84375q-3.6875 0 -5.96875 1.421875q-2.28125 1.40625 -3.9375 3.6875l-6.375 -5.671875q2.046875 -3.453125 6.40625 -5.6875q4.375 -2.25 11.21875 -2.25q8.328125 0 13.015625 3.8125q4.6875 3.8125 4.6875 11.53125l0 17.76561l4.46875 0l0 8.421875l-6.671875 0zm-16.765625 -6.6875q3.078125 0 5.1875 -1.484375q2.125 -1.5 2.125 -4.328125l0 -4.8906097l-6.203125 0q-7.15625 0 -7.15625 4.8124847l0 1.5625q0 2.125 1.640625 3.234375q1.65625 1.09375 4.40625 1.09375zm71.506226 10.78125q0 6.453125 -5.4375 9.515625q-5.421875 3.0625 -17.0625 3.0625q-5.8125 0 -9.59375 -0.671875q-3.78125 -0.65625 -6.03125 -1.921875q-2.234375 -1.25 -3.140625 -2.984375q-0.890625 -1.734375 -0.890625 -3.78125q0 -3.453125 2.03125 -5.234375q2.046875 -1.765625 5.75 -2.703125l0 -0.46875q-2.59375 -0.796875 -4.125 -2.25q-1.53125 -1.453125 -1.53125 -4.125q0 -3.0 2.0 -4.40625q2.0 -1.421875 5.3125 -2.2031097l0 -0.46875q-3.625 -1.734375 -5.640625 -4.875q-2.0 -3.15625 -2.0 -7.640625q0 -3.53125 1.25 -6.25q1.265625 -2.71875 3.578125 -4.515625q2.328125 -1.8125 5.546875 -2.75q3.234375 -0.953125 7.25 -0.953125q3.859375 0 7.15625 0.859375l0 -2.203125q0 -2.359375 1.65625 -3.921875q1.65625 -1.578125 4.5625 -1.578125l7.15625 0l0 8.5l-9.75 0l0 0.703125q3.296875 1.734375 5.140625 4.765625q1.859375 3.015625 1.859375 7.34375q0 3.546875 -1.265625 6.21875q-1.25 2.671875 -3.609375 4.53125q-2.359375 1.84375 -5.625 2.7968597q-3.265625 0.9375 -7.28125 0.9375q-1.8125 0 -3.46875 -0.203125q-1.640625 -0.203125 -3.140625 -0.59375q-0.859375 0.46875 -1.453125 1.1875q-0.59375 0.703125 -0.59375 1.8125q0 0.9375 0.46875 1.484375q0.484375 0.546875 1.296875 0.828125q0.828125 0.28125 1.921875 0.359375q1.109375 0.078125 2.296875 0.078125l9.28125 0q4.328125 0 7.390625 0.859375q3.0625 0.859375 5.03125 2.4375q1.96875 1.578125 2.828125 3.703125q0.875 2.125 0.875 4.71875zm-11.015625 0.859375q0 -1.578125 -1.265625 -2.484375q-1.25 -0.890625 -4.796875 -0.890625l-13.921875 0q-1.5625 1.328125 -1.5625 3.296875q0 1.890625 1.609375 3.109375q1.609375 1.21875 5.46875 1.21875l6.84375 0q4.0 0 5.8125 -1.109375q1.8125 -1.09375 1.8125 -3.140625zm-11.71875 -24.937485q3.546875 0 5.15625 -1.71875q1.609375 -1.734375 1.609375 -4.40625l0 -1.890625q0 -2.671875 -1.609375 -4.40625q-1.609375 -1.734375 -5.15625 -1.734375q-3.46875 0 -5.046875 1.734375q-1.5625 1.734375 -1.5625 4.40625l0 1.890625q0 2.671875 1.5625 4.40625q1.578125 1.71875 5.046875 1.71875zm48.77185 20.92186q-10.234375 0 -15.5 -5.65625q-5.265625 -5.65625 -5.265625 -15.42186q0 -4.953125 1.375 -8.921875q1.375 -3.96875 3.921875 -6.765625q2.5625 -2.796875 6.21875 -4.25q3.65625 -1.453125 8.21875 -1.453125q4.5625 0 8.171875 1.453125q3.625 1.453125 6.140625 4.140625q2.53125 2.671875 3.90625 6.484375q1.375 3.8125 1.375 8.53125l0 3.453125l-27.765625 0l0 0.71875q0 3.9218597 2.4375 6.3281097q2.4375 2.40625 7.15625 2.40625q3.609375 0 6.203125 -1.375q2.609375 -1.390625 4.484375 -3.671875l6.296875 6.84375q-2.359375 2.921875 -6.609375 5.046875q-4.25 2.109375 -10.765625 2.109375zm-0.953125 -34.124985q-3.765625 0 -6.015625 2.328125q-2.234375 2.3125 -2.234375 6.234375l0 0.640625l16.359375 0l0 -0.640625q0 -4.0 -2.171875 -6.28125q-2.15625 -2.28125 -5.9375 -2.28125zm28.787476 24.14061l12.4375 0l0 -40.10936l-12.4375 0l0 -9.046875l24.078125 0l0 49.156235l12.421875 0l0 9.046875l-36.5 0l0 -9.046875zm47.193726 0l12.4375 0l0 -40.10936l-12.4375 0l0 -9.046875l24.078125 0l0 49.156235l12.421875 0l0 9.046875l-36.5 0l0 -9.046875zm80.162476 9.046875q-3.625 0 -5.828125 -1.84375q-2.203125 -1.859375 -2.59375 -5.3125l-0.390625 0q-1.109375 4.015625 -4.375 6.0625q-3.265625 2.03125 -7.984375 2.03125q-5.890625 0 -9.46875 -3.171875q-3.578125 -3.1875 -3.578125 -8.9375q0 -6.3749847 4.640625 -9.437485q4.640625 -3.0625 13.609375 -3.0625l6.515625 0l0 -2.046875q0 -3.625 -1.6875 -5.46875q-1.6875 -1.84375 -5.703125 -1.84375q-3.6875 0 -5.96875 1.421875q-2.28125 1.40625 -3.9375 3.6875l-6.375 -5.671875q2.046875 -3.453125 6.40625 -5.6875q4.375 -2.25 11.21875 -2.25q8.328125 0 13.015625 3.8125q4.6875 3.8125 4.6875 11.53125l0 17.76561l4.46875 0l0 8.421875l-6.671875 0zm-16.765625 -6.6875q3.078125 0 5.1875 -1.484375q2.125 -1.5 2.125 -4.328125l0 -4.8906097l-6.203125 0q-7.15625 0 -7.15625 4.8124847l0 1.5625q0 2.125 1.640625 3.234375q1.65625 1.09375 4.40625 1.09375zm30.756226 6.6875l0 -40.593735l11.640625 0l0 7.40625l0.46875 0q0.71875 -1.734375 1.734375 -3.21875q1.03125 -1.5 2.484375 -2.640625q1.453125 -1.140625 3.375 -1.8125q1.9375 -0.671875 4.375 -0.671875q2.90625 0 5.34375 0.984375q2.4375 0.984375 4.15625 2.953125q1.734375 1.96875 2.71875 4.796875q0.984375 2.828125 0.984375 6.53125l0 26.26561l-11.640625 0l0 -24.70311q0 -7.859375 -6.84375 -7.859375q-1.328125 0 -2.625 0.359375q-1.296875 0.34375 -2.328125 1.09375q-1.015625 0.75 -1.609375 1.859375q-0.59375 1.09375 -0.59375 2.578125l0 26.67186l-11.640625 0zm112.871826 0.9375q-11.015625 0 -16.25 -7.46875q-5.21875 -7.46875 -5.21875 -20.92186q0 -13.453125 5.21875 -20.921875q5.234375 -7.46875 16.25 -7.46875q11.015625 0 16.234375 7.46875q5.234375 7.46875 5.234375 20.921875q0 13.45311 -5.234375 20.92186q-5.21875 7.46875 -16.234375 7.46875zm0 -9.515625q5.03125 0 6.953125 -3.734375q1.9375 -3.7343597 1.9375 -10.42186l0 -9.515625q0 -6.609375 -1.9375 -10.34375q-1.921875 -3.734375 -6.953125 -3.734375q-5.03125 0 -6.96875 3.734375q-1.921875 3.734375 -1.921875 10.34375l0 9.59375q0 6.609375 1.921875 10.343735q1.9375 3.734375 6.96875 3.734375zm29.1781 -0.46875l11.96875 0l0 -22.499985l-12.75 0l0 -9.046875l12.75 0l0 -5.890625q0 -5.1875 3.015625 -8.453125q3.03125 -3.265625 9.40625 -3.265625l13.765625 0l0 9.046875l-14.546875 0l0 8.5625l14.546875 0l0 9.046875l-14.546875 0l0 22.499985l12.734375 0l0 9.046875l-36.34375 0l0 -9.046875zm47.193726 0l11.96875 0l0 -22.499985l-12.75 0l0 -9.046875l12.75 0l0 -5.890625q0 -5.1875 3.015625 -8.453125q3.03125 -3.265625 9.40625 -3.265625l13.765625 0l0 9.046875l-14.546875 0l0 8.5625l14.546875 0l0 9.046875l-14.546875 0l0 22.499985l12.734375 0l0 9.046875l-36.34375 0l0 -9.046875zm46.95935 0l12.4375 0l0 -40.10936l-12.4375 0l0 -9.046875l24.078125 0l0 49.156235l12.421875 0l0 9.046875l-36.5 0l0 -9.046875zm67.95935 -36.73436q-3.921875 0 -5.46875 -1.609375q-1.53125 -1.609375 -1.53125 -3.890625l0 -2.28125q0 -2.359375 1.53125 -3.9375q1.546875 -1.578125 5.46875 -1.578125q3.9375 0 5.46875 1.578125q1.53125 1.578125 1.53125 3.9375l0 2.28125q0 2.28125 -1.53125 3.890625q-1.53125 1.609375 -5.46875 1.609375zm-18.71875 36.73436l12.90625 0l0 -22.499985l-12.90625 0l0 -9.046875l24.546875 0l0 31.54686l11.953125 0l0 9.046875l-36.5 0l0 -9.046875zm44.912476 9.046875l0 -40.593735l11.640625 0l0 7.40625l0.46875 0q0.71875 -1.734375 1.734375 -3.21875q1.03125 -1.5 2.484375 -2.640625q1.453125 -1.140625 3.375 -1.8125q1.9375 -0.671875 4.375 -0.671875q2.90625 0 5.34375 0.984375q2.4375 0.984375 4.15625 2.953125q1.734375 1.96875 2.71875 4.796875q0.984375 2.828125 0.984375 6.53125l0 26.26561l-11.640625 0l0 -24.70311q0 -7.859375 -6.84375 -7.859375q-1.328125 0 -2.625 0.359375q-1.296875 0.34375 -2.328125 1.09375q-1.015625 0.75 -1.609375 1.859375q-0.59375 1.09375 -0.59375 2.578125l0 26.67186l-11.640625 0zm66.787476 0.9375q-10.234375 0 -15.5 -5.65625q-5.265625 -5.65625 -5.265625 -15.42186q0 -4.953125 1.375 -8.921875q1.375 -3.96875 3.921875 -6.765625q2.5625 -2.796875 6.21875 -4.25q3.65625 -1.453125 8.21875 -1.453125q4.5625 0 8.171875 1.453125q3.625 1.453125 6.140625 4.140625q2.53125 2.671875 3.90625 6.484375q1.375 3.8125 1.375 8.53125l0 3.453125l-27.765625 0l0 0.71875q0 3.9218597 2.4375 6.3281097q2.4375 2.40625 7.15625 2.40625q3.609375 0 6.203125 -1.375q2.609375 -1.390625 4.484375 -3.671875l6.296875 6.84375q-2.359375 2.921875 -6.609375 5.046875q-4.25 2.109375 -10.765625 2.109375zm-0.953125 -34.124985q-3.765625 0 -6.015625 2.328125q-2.234375 2.3125 -2.234375 6.234375l0 0.640625l16.359375 0l0 -0.640625q0 -4.0 -2.171875 -6.28125q-2.15625 -2.28125 -5.9375 -2.28125zm93.371826 34.124985q-6.921875 0 -12.046875 -2.28125q-5.109375 -2.28125 -8.25 -6.203125l6.84375 -7.5624847q2.984375 3.3124847 6.5625 4.8906097q3.578125 1.5625 7.28125 1.5625q4.25 0 6.453125 -1.875q2.203125 -1.890625 2.203125 -5.4374847q0 -2.90625 -1.703125 -4.390625q-1.6875 -1.5 -5.6875 -2.140625l-5.75 -0.9375q-7.390625 -1.265625 -10.703125 -5.46875q-3.296875 -4.203125 -3.296875 -10.265625q0 -7.9375 5.1875 -12.296875q5.1875 -4.375 14.5625 -4.375q6.359375 0 11.078125 1.96875q4.71875 1.96875 7.640625 5.34375l-6.6875 7.46875q-2.203125 -2.4375 -5.203125 -3.8125q-2.984375 -1.375 -6.75 -1.375q-7.953125 0 -7.953125 6.53125q0 2.828125 1.765625 4.25q1.78125 1.40625 5.78125 2.125l5.75 1.015625q6.6875 1.1875 10.296875 5.046875q3.625 3.84375 3.625 10.375q0 3.8437347 -1.34375 7.1093597q-1.328125 3.265625 -4.015625 5.671875q-2.671875 2.390625 -6.5625 3.734375q-3.890625 1.328125 -9.078125 1.328125zm51.20935 -0.9375q-6.296875 0 -9.375 -3.296875q-3.0625 -3.3125 -3.0625 -8.421875l0 -19.82811l-11.015625 0l0 -9.046875l7.171875 0q2.59375 0 3.6875 -1.015625q1.109375 -1.015625 1.109375 -3.78125l0 -9.515625l10.6875 0l0 14.3125l15.8125 0l0 9.046875l-15.8125 0l0 22.499985l15.8125 0l0 9.046875l-15.015625 0zm50.881226 -7.390625l-0.46875 0q-1.34375 3.453125 -4.21875 5.890625q-2.859375 2.4375 -7.734375 2.4375q-2.90625 0 -5.359375 -0.96875q-2.4375 -0.984375 -4.171875 -2.953125q-1.71875 -1.96875 -2.703125 -4.796875q-0.984375 -2.84375 -0.984375 -6.5312347l0 -26.28125l11.640625 0l0 24.703125q0 7.8749847 6.84375 7.8749847q1.34375 0 2.640625 -0.359375q1.296875 -0.359375 2.28125 -1.09375q0.984375 -0.75 1.609375 -1.84375q0.625 -1.109375 0.625 -2.609375l0 -26.67186l11.640625 0l0 40.593735l-11.640625 0l0 -7.390625zm47.662476 0l-0.546875 0q-1.578125 3.6875 -4.375 6.015625q-2.78125 2.3125 -7.65625 2.3125q-3.390625 0 -6.1875 -1.25q-2.78125 -1.265625 -4.796875 -3.859375q-2.0 -2.59375 -3.140625 -6.59375q-1.140625 -4.0156097 -1.140625 -9.531235q0 -5.5 1.140625 -9.515625q1.140625 -4.015625 3.140625 -6.609375q2.015625 -2.59375 4.796875 -3.84375q2.796875 -1.265625 6.1875 -1.265625q2.4375 0 4.328125 0.640625q1.890625 0.625 3.34375 1.734375q1.453125 1.09375 2.515625 2.625q1.0625 1.53125 1.84375 3.34375l0.546875 0l0 -25.015625l11.640625 0l0 58.20311l-11.640625 0l0 -7.390625zm-7.546875 -0.71875q3.0625 0 5.296875 -1.484375q2.25 -1.5 2.25 -4.7187347l0 -11.953125q0 -3.234375 -2.25 -4.71875q-2.234375 -1.5 -5.296875 -1.5q-3.9375 0 -6.0625 2.40625q-2.109375 2.390625 -2.109375 6.640625l0 6.296875q0 4.2343597 2.109375 6.6406097q2.125 2.390625 6.0625 2.390625zm57.662476 -32.48436l11.875 0l-19.125 47.124985q-1.796875 4.484375 -4.796875 6.84375q-2.984375 2.359375 -8.171875 2.359375l-8.03125 0l0 -9.046875l9.765625 0l2.515625 -6.921875l-16.359375 -40.35936l12.5 0l5.90625 17.078125l3.6875 11.79686l0.625 0l3.546875 -11.79686l6.0625 -17.078125zm83.2937 41.531235q-6.921875 0 -12.046875 -2.28125q-5.109375 -2.28125 -8.25 -6.203125l6.84375 -7.5624847q2.984375 3.3124847 6.5625 4.8906097q3.578125 1.5625 7.28125 1.5625q4.25 0 6.453125 -1.875q2.203125 -1.890625 2.203125 -5.4374847q0 -2.90625 -1.703125 -4.390625q-1.6875 -1.5 -5.6875 -2.140625l-5.75 -0.9375q-7.390625 -1.265625 -10.703125 -5.46875q-3.296875 -4.203125 -3.296875 -10.265625q0 -7.9375 5.1875 -12.296875q5.1875 -4.375 14.5625 -4.375q6.359375 0 11.078125 1.96875q4.71875 1.96875 7.640625 5.34375l-6.6875 7.46875q-2.203125 -2.4375 -5.203125 -3.8125q-2.984375 -1.375 -6.75 -1.375q-7.953125 0 -7.953125 6.53125q0 2.828125 1.765625 4.25q1.78125 1.40625 5.78125 2.125l5.75 1.015625q6.6875 1.1875 10.296875 5.046875q3.625 3.84375 3.625 10.375q0 3.8437347 -1.34375 7.1093597q-1.328125 3.265625 -4.015625 5.671875q-2.671875 2.390625 -6.5625 3.734375q-3.890625 1.328125 -9.078125 1.328125zm58.287476 -41.531235l11.875 0l-19.125 47.124985q-1.796875 4.484375 -4.796875 6.84375q-2.984375 2.359375 -8.171875 2.359375l-8.03125 0l0 -9.046875l9.765625 0l2.515625 -6.921875l-16.359375 -40.35936l12.5 0l5.90625 17.078125l3.6875 11.79686l0.625 0l3.546875 -11.79686l6.0625 -17.078125zm36.4906 41.531235q-6.765625 0 -11.765625 -2.03125q-4.984375 -2.046875 -7.5 -5.59375l6.515625 -6.0625q2.375 2.609375 5.546875 4.0625q3.1875 1.453125 7.28125 1.453125q3.46875 0 5.421875 -1.0625q1.96875 -1.0625 1.96875 -3.265625q0 -1.734375 -1.34375 -2.390625q-1.328125 -0.67185974 -3.6875 -1.0624847l-6.53125 -1.03125q-2.75 -0.390625 -5.109375 -1.21875q-2.359375 -0.828125 -4.09375 -2.234375q-1.71875 -1.421875 -2.75 -3.46875q-1.015625 -2.046875 -1.015625 -4.953125q0 -6.375 4.875 -9.984375q4.875 -3.625 13.6875 -3.625q5.96875 0 10.171875 1.609375q4.21875 1.609375 6.734375 4.609375l-5.828125 6.609375q-1.796875 -1.96875 -4.640625 -3.296875q-2.828125 -1.34375 -6.84375 -1.34375q-6.75 0 -6.75 4.078125q0 1.8125 1.328125 2.484375q1.34375 0.671875 3.703125 1.0625l6.453125 1.015625q2.75 0.390625 5.109375 1.21875q2.359375 0.828125 4.125 2.25q1.765625 1.40625 2.78125 3.453125q1.03125 2.046875 1.03125 4.9531097q0 6.375 -4.921875 10.078125q-4.90625 3.6875 -13.953125 3.6875zm50.818726 -0.9375q-6.296875 0 -9.375 -3.296875q-3.0625 -3.3125 -3.0625 -8.421875l0 -19.82811l-11.015625 0l0 -9.046875l7.171875 0q2.59375 0 3.6875 -1.015625q1.109375 -1.015625 1.109375 -3.78125l0 -9.515625l10.6875 0l0 14.3125l15.8125 0l0 9.046875l-15.8125 0l0 22.499985l15.8125 0l0 9.046875l-15.015625 0zm45.14685 0.9375q-10.234375 0 -15.5 -5.65625q-5.265625 -5.65625 -5.265625 -15.42186q0 -4.953125 1.375 -8.921875q1.375 -3.96875 3.921875 -6.765625q2.5625 -2.796875 6.21875 -4.25q3.65625 -1.453125 8.21875 -1.453125q4.5625 0 8.171875 1.453125q3.625 1.453125 6.140625 4.140625q2.53125 2.671875 3.90625 6.484375q1.375 3.8125 1.375 8.53125l0 3.453125l-27.765625 0l0 0.71875q0 3.9218597 2.4375 6.3281097q2.4375 2.40625 7.15625 2.40625q3.609375 0 6.203125 -1.375q2.609375 -1.390625 4.484375 -3.671875l6.296875 6.84375q-2.359375 2.921875 -6.609375 5.046875q-4.25 2.109375 -10.765625 2.109375zm-0.953125 -34.124985q-3.765625 0 -6.015625 2.328125q-2.234375 2.3125 -2.234375 6.234375l0 0.640625l16.359375 0l0 -0.640625q0 -4.0 -2.171875 -6.28125q-2.15625 -2.28125 -5.9375 -2.28125zm25.8031 33.187485l0 -40.593735l9.359375 0l0 5.984375l0.546875 0q0.953125 -2.828125 2.71875 -4.875q1.765625 -2.046875 5.0 -2.046875q5.890625 0 7.234375 6.921875l0.46875 0q0.46875 -1.421875 1.171875 -2.671875q0.71875 -1.265625 1.734375 -2.203125q1.03125 -0.9375 2.4375 -1.484375q1.421875 -0.5625 3.3125 -0.5625q8.484375 0 8.484375 12.5l0 29.031235l-9.359375 0l0 -27.843735q0 -2.828125 -0.984375 -3.96875q-0.984375 -1.140625 -2.546875 -1.140625q-1.5 0 -2.5625 0.984375q-1.0625 0.984375 -1.0625 3.015625l0 28.95311l-9.4375 0l0 -27.843735q0 -2.828125 -0.90625 -3.96875q-0.90625 -1.140625 -2.46875 -1.140625q-1.578125 0 -2.6875 0.984375q-1.09375 0.984375 -1.09375 3.015625l0 28.95311l-9.359375 0z" fill-rule="nonzero"/><path fill="#c3c7cb" d="m3208.8582 186.39108l110.33081 0l0 110.33069l-110.33081 0z" fill-rule="evenodd"/><path stroke="#000000" stroke-width="3.0" stroke-linejoin="round" stroke-linecap="butt" d="m3208.8582 186.39108l110.33081 0l0 110.33069l-110.33081 0z" fill-rule="evenodd"/><path fill="#000000" d="m3282.7925 266.80582q0.46875 1.875 0.46875 4.703125q0 2.6875 -0.46875 4.6875l-9.375 0q-0.484375 -2.0 -0.484375 -4.6875q0 -2.828125 0.484375 -4.703125l-3.53125 0q-0.46875 -1.984375 -0.46875 -4.6875q0 -2.8125 0.46875 -4.6875l-2.34375 0q-0.46875 -2.0000153 -0.46875 -4.7031403q0 -2.8125 0.46875 -4.6875l-7.03125 0q0.46875 1.875 0.46875 4.6875q0 2.703125 -0.46875 4.7031403l-2.359375 0q0.46875 1.875 0.46875 4.6875q0 2.703125 -0.46875 4.6875l-3.515625 0q0.46875 1.875 0.46875 4.703125q0 2.6875 -0.46875 4.6875l-9.390625 0q-0.46875 -2.0 -0.46875 -4.6875q0 -2.828125 0.46875 -4.703125l3.53125 0q-0.46875 -1.984375 -0.46875 -4.6875q0 -2.8125 0.46875 -4.6875l4.6875 0q-0.46875 -2.0000153 -0.46875 -4.7031403q0 -2.8125 0.46875 -4.6875l3.515625 0q-0.46875 -2.0 -0.46875 -4.703125q0 -2.8125 0.46875 -4.6875l-3.515625 0q-0.46875 -2.0 -0.46875 -4.6875q0 -2.8125 0.46875 -4.703125l-4.6875 0q-0.46875 -1.984375 -0.46875 -4.6875q0 -2.8125 0.46875 -4.6875l-3.53125 0q-0.46875 -2.0 -0.46875 -4.703125q0 -2.8125 0.46875 -4.6875l9.390625 0q0.46875 1.875 0.46875 4.6875q0 2.703125 -0.46875 4.703125l3.515625 0q0.46875 1.875 0.46875 4.6875q0 2.703125 -0.46875 4.6875l2.359375 0q0.46875 1.890625 0.46875 4.703125q0 2.6875 -0.46875 4.6875l7.03125 0q-0.46875 -2.0 -0.46875 -4.6875q0 -2.8125 0.46875 -4.703125l2.34375 0q-0.46875 -1.984375 -0.46875 -4.6875q0 -2.8125 0.46875 -4.6875l3.53125 0q-0.484375 -2.0 -0.484375 -4.703125q0 -2.8125 0.484375 -4.6875l9.375 0q0.46875 1.875 0.46875 4.6875q0 2.703125 -0.46875 4.703125l-3.515625 0q0.46875 1.875 0.46875 4.6875q0 2.703125 -0.46875 4.6875l-4.6875 0q0.46875 1.890625 0.46875 4.703125q0 2.6875 -0.46875 4.6875l-3.53125 0q0.46875 1.875 0.46875 4.6875q0 2.703125 -0.46875 4.703125l3.53125 0q0.46875 1.875 0.46875 4.6875q0 2.703125 -0.46875 4.7031403l4.6875 0q0.46875 1.875 0.46875 4.6875q0 2.703125 -0.46875 4.6875l3.515625 0z" fill-rule="nonzero"/><path fill="#c3c7cb" d="m3208.8582 186.39108l110.33081 0l0 0l-109.871826 0l0 109.871735l-0.45898438 0.45895386z" fill-rule="evenodd"/><path stroke="#ffffff" stroke-width="3.0" stroke-linejoin="round" stroke-linecap="butt" d="m3208.8582 186.39108l110.33081 0l0 0l-109.871826 0l0 109.871735l-0.45898438 0.45895386z" fill-rule="evenodd"/><path fill="#c3c7cb" d="m3085.8662 186.39108l110.33057 0l0 110.33069l-110.33057 0z" fill-rule="evenodd"/><path stroke="#000000" stroke-width="3.0" stroke-linejoin="round" stroke-linecap="butt" d="m3085.8662 186.39108l110.33057 0l0 110.33069l-110.33057 0z" fill-rule="evenodd"/><path fill="#000000" d="m3160.269 224.57143q0 2.703125 -0.46875 4.6875q0.46875 1.890625 0.46875 4.703125q0 2.6875 -0.46875 4.6875l-3.515625 0q0.46875 1.875 0.46875 4.6875q0 2.703125 -0.46875 4.703125l-3.515625 0q0.46875 1.875 0.46875 4.6875q0 2.703125 -0.46875 4.7031403l-11.734375 0q-0.46875 -2.0000153 -0.46875 -4.7031403q0 -2.8125 0.46875 -4.6875l-3.515625 0q-0.484375 -2.0 -0.484375 -4.703125q0 -2.8125 0.484375 -4.6875l-5.875 0q0.46875 1.875 0.46875 4.6875q0 2.703125 -0.46875 4.703125l-2.34375 0q0.46875 1.875 0.46875 4.6875q0 2.703125 -0.46875 4.7031403l-7.046875 0q-0.46875 -2.0000153 -0.46875 -4.7031403q0 -2.8125 0.46875 -4.6875q-0.46875 -2.0 -0.46875 -4.703125q0 -2.8125 0.46875 -4.6875l3.53125 0q-0.46875 -2.0 -0.46875 -4.6875q0 -2.8125 0.46875 -4.703125l3.515625 0q-0.46875 -1.984375 -0.46875 -4.6875q0 -2.8125 0.46875 -4.6875l11.734375 0q0.46875 1.875 0.46875 4.6875q0 2.703125 -0.46875 4.6875l3.515625 0q0.46875 1.890625 0.46875 4.703125q0 2.6875 -0.46875 4.6875l5.875 0q-0.484375 -2.0 -0.484375 -4.6875q0 -2.8125 0.484375 -4.703125l2.34375 0q-0.46875 -1.984375 -0.46875 -4.6875q0 -2.8125 0.46875 -4.6875l7.03125 0q0.46875 1.875 0.46875 4.6875z" fill-rule="nonzero"/><path fill="#c3c7cb" d="m3085.8662 186.39108l110.33057 0l0 0l-109.87158 0l0 109.871735l-0.45898438 0.45895386z" fill-rule="evenodd"/><path stroke="#ffffff" stroke-width="3.0" stroke-linejoin="round" stroke-linecap="butt" d="m3085.8662 186.39108l110.33057 0l0 0l-109.87158 0l0 109.871735l-0.45898438 0.45895386z" fill-rule="evenodd"/></g></svg>