<svg version="1.1" viewBox="0.0 0.0 3840.0 2160.0" fill="none" stroke="none" stroke-linecap="square" stroke-miterlimit="10" xmlns:xlink="http://www.w3.org/1999/xlink" xmlns="http://www.w3.org/2000/svg"><clipPath id="p.0"><path d="m0 0l3840.0 0l0 2160.0l-3840.0 0l0 -2160.0z" clip-rule="nonzero"/></clipPath><g clip-path="url(#p.0)"><path fill="#161616" d="m0 0l3840.0 0l0 2160.0l-3840.0 0z" fill-rule="evenodd"/><path fill="#474946" d="m630.90186 163.40158l2578.1963 0l124.49243 124.4924l0 1591.105l-117.59961 117.59949l-2591.982 0l-117.59958 -117.59949l0 -1591.105z" fill-rule="evenodd"/><path fill="#000000" fill-opacity="0.0" d="m624.24146 166.43689l2606.0474 0l0 117.76376l-2606.0474 0z" fill-rule="evenodd"/><path fill="#ff9900" d="m636.7571 210.83752l34.5625 12.5625l0 12.875l-34.5625 12.640625l0 -13.03125l20.484375 -6.0l-20.484375 -6.0l0 -13.046875z" fill-rule="nonzero"/><path fill="#ffffff" d="m715.3264 197.80627q4.3125 0 9.703125 0.515625q5.40625 0.515625 10.375 2.28125l-1.046875 11.109375q-3.59375 -0.078125 -8.921875 -0.109375q-5.3125 -0.046875 -10.515625 -0.046875q-1.515625 0 -2.515625 0.078125q-1.0 0.078125 -1.5625 0.328125q-0.5625 0.234375 -0.8125 0.640625q-0.234375 0.390625 -0.234375 1.03125q0 1.125 1.0 1.890625q1.0 0.75 3.8125 1.875l10.0 4.15625q6.875 2.96875 9.625 6.84375q2.765625 3.875 2.765625 9.953125q0 4.640625 -1.125 7.890625q-1.109375 3.234375 -3.71875 5.203125q-2.59375 1.953125 -6.921875 2.875q-4.3125 0.921875 -10.796875 0.921875q-2.796875 0 -8.484375 -0.453125q-5.671875 -0.4375 -12.875 -2.265625l1.046875 -12.171875q4.796875 0.078125 8.796875 0.203125q4.0 0.125 6.921875 0.171875q2.921875 0.03125 4.359375 0.03125q2.234375 0 3.390625 -0.15625q1.171875 -0.171875 1.609375 -0.609375q0.4375 -0.4375 0.4375 -1.15625q0 -0.796875 -0.328125 -1.3125q-0.3125 -0.53125 -1.109375 -1.0q-0.796875 -0.484375 -2.3125 -1.046875l-10.96875 -4.796875q-6.71875 -3.046875 -9.515625 -6.796875q-2.796875 -3.765625 -2.796875 -9.84375q0 -4.71875 1.234375 -7.84375q1.234375 -3.125 3.875 -4.953125q2.640625 -1.84375 7.0 -2.640625q4.359375 -0.796875 10.609375 -0.796875zm48.393677 15.1875q11.28125 0 16.0 3.609375q4.71875 3.59375 4.796875 10.640625q0.078125 5.59375 -3.328125 8.078125q-3.390625 2.484375 -12.1875 2.484375l-21.515625 0l0 -7.921875l16.796875 0q2.71875 0 3.4375 -0.515625q0.71875 -0.53125 0.71875 -2.53125q0 -1.921875 -0.96875 -2.46875q-0.953125 -0.5625 -3.265625 -0.5625q-2.328125 -0.09375 -3.53125 0.46875q-1.1875 0.5625 -1.640625 2.453125q-0.4375 1.875 -0.4375 5.875q0 3.671875 0.515625 5.75q0.53125 2.078125 2.046875 2.96875q1.53125 0.875 4.484375 0.875q2.40625 0 6.765625 -0.15625q4.359375 -0.15625 9.46875 -0.71875l1.53125 10.078125q-2.8125 1.4375 -6.015625 2.234375q-3.1875 0.796875 -6.59375 1.109375q-3.390625 0.328125 -7.0 0.328125q-8.3125 0 -13.359375 -2.3125q-5.03125 -2.328125 -7.234375 -6.921875q-2.203125 -4.59375 -2.203125 -11.40625q0 -7.90625 2.234375 -12.578125q2.25 -4.6875 7.25 -6.765625q5.0 -2.09375 13.234375 -2.09375zm42.715576 -14.875l0 41.4375q0 1.515625 1.0 2.203125q1.0 0.671875 3.0 0.671875l2.71875 0l1.84375 10.734375q-1.203125 0.71875 -3.40625 1.15625q-2.1875 0.4375 -4.46875 0.671875q-2.28125 0.25 -3.875 0.25q-6.328125 0 -9.9375 -2.953125q-3.59375 -2.96875 -3.59375 -8.25l0 -45.921875l16.71875 0zm33.12439 14.875q11.28125 0 16.0 3.609375q4.71875 3.59375 4.796875 10.640625q0.078125 5.59375 -3.328125 8.078125q-3.390625 2.484375 -12.1875 2.484375l-21.515625 0l0 -7.921875l16.796875 0q2.71875 0 3.4375 -0.515625q0.71875 -0.53125 0.71875 -2.53125q0 -1.921875 -0.96875 -2.46875q-0.953125 -0.5625 -3.265625 -0.5625q-2.328125 -0.09375 -3.53125 0.46875q-1.1875 0.5625 -1.640625 2.453125q-0.4375 1.875 -0.4375 5.875q0 3.671875 0.515625 5.75q0.53125 2.078125 2.046875 2.96875q1.53125 0.875 4.484375 0.875q2.40625 0 6.765625 -0.15625q4.359375 -0.15625 9.46875 -0.71875l1.53125 10.078125q-2.8125 1.4375 -6.015625 2.234375q-3.1875 0.796875 -6.59375 1.109375q-3.390625 0.328125 -7.0 0.328125q-8.3125 0 -13.359375 -2.3125q-5.03125 -2.328125 -7.234375 -6.921875q-2.203125 -4.59375 -2.203125 -11.40625q0 -7.90625 2.234375 -12.578125q2.25 -4.6875 7.25 -6.765625q5.0 -2.09375 13.234375 -2.09375zm45.996826 0q2.484375 0 5.4375 0.25q2.96875 0.234375 5.921875 0.875q2.96875 0.640625 5.359375 1.84375l-1.671875 10.390625q-3.84375 0 -6.734375 0q-2.875 0 -5.421875 0q-2.5625 0 -4.046875 0.640625q-1.484375 0.640625 -2.078125 2.28125q-0.59375 1.640625 -0.59375 4.765625q0 3.125 0.59375 4.8125q0.59375 1.671875 2.078125 2.3125q1.484375 0.640625 4.046875 0.640625q1.359375 0 3.390625 -0.046875q2.046875 -0.046875 4.515625 -0.15625q2.484375 -0.125 4.96875 -0.359375l1.515625 10.46875q-3.515625 1.84375 -8.15625 2.59375q-4.640625 0.765625 -9.28125 0.765625q-7.84375 0 -12.53125 -2.03125q-4.671875 -2.046875 -6.71875 -6.6875q-2.03125 -4.640625 -2.03125 -12.3125q0 -7.765625 2.078125 -12.359375q2.078125 -4.609375 6.796875 -6.640625q4.734375 -2.046875 12.5625 -2.046875zm43.130554 -9.359375l0 35.921875q0 1.515625 0.796875 2.203125q0.796875 0.671875 2.640625 0.671875l4.234375 0l1.84375 10.734375q-1.6875 0.71875 -4.171875 1.15625q-2.46875 0.4375 -5.0 0.671875q-2.515625 0.25 -4.4375 0.25q-5.828125 0 -9.28125 -2.953125q-3.4375 -2.96875 -3.4375 -8.25l-0.078125 -40.40625l16.890625 0zm9.671875 10.484375l0 10.078125l-33.28125 0l0 -9.671875l7.6875 -0.40625l25.59375 0zm42.88684 -16.3125q4.3125 0 9.703125 0.515625q5.40625 0.515625 10.375 2.28125l-1.046875 11.109375q-3.59375 -0.078125 -8.921875 -0.109375q-5.3125 -0.046875 -10.515625 -0.046875q-1.515625 0 -2.515625 0.078125q-1.0 0.078125 -1.5625 0.328125q-0.5625 0.234375 -0.8125 0.640625q-0.234375 0.390625 -0.234375 1.03125q0 1.125 1.0 1.890625q1.0 0.75 3.8125 1.875l10.0 4.15625q6.875 2.96875 9.625 6.84375q2.765625 3.875 2.765625 9.953125q0 4.640625 -1.125 7.890625q-1.109375 3.234375 -3.71875 5.203125q-2.59375 1.953125 -6.921875 2.875q-4.3125 0.921875 -10.796875 0.921875q-2.796875 0 -8.484375 -0.453125q-5.671875 -0.4375 -12.875 -2.265625l1.046875 -12.171875q4.796875 0.078125 8.796875 0.203125q4.0 0.125 6.921875 0.171875q2.921875 0.03125 4.359375 0.03125q2.234375 0 3.390625 -0.15625q1.171875 -0.171875 1.609375 -0.609375q0.4375 -0.4375 0.4375 -1.15625q0 -0.796875 -0.328125 -1.3125q-0.3125 -0.53125 -1.109375 -1.0q-0.796875 -0.484375 -2.3125 -1.046875l-10.96875 -4.796875q-6.71875 -3.046875 -9.515625 -6.796875q-2.796875 -3.765625 -2.796875 -9.84375q0 -4.71875 1.234375 -7.84375q1.234375 -3.125 3.875 -4.953125q2.640625 -1.84375 7.0 -2.640625q4.359375 -0.796875 10.609375 -0.796875zm48.393738 15.1875q11.28125 0 16.0 3.609375q4.71875 3.59375 4.796875 10.640625q0.078125 5.59375 -3.328125 8.078125q-3.390625 2.484375 -12.1875 2.484375l-21.515686 0l0 -7.921875l16.796936 0q2.71875 0 3.4375 -0.515625q0.71875 -0.53125 0.71875 -2.53125q0 -1.921875 -0.96875 -2.46875q-0.953125 -0.5625 -3.265625 -0.5625q-2.328125 -0.09375 -3.53125 0.46875q-1.1875 0.5625 -1.640625 2.453125q-0.4375 1.875 -0.4375 5.875q0 3.671875 0.515625 5.75q0.53125 2.078125 2.046875 2.96875q1.53125 0.875 4.484375 0.875q2.40625 0 6.765625 -0.15625q4.359375 -0.15625 9.46875 -0.71875l1.53125 10.078125q-2.8125 1.4375 -6.015625 2.234375q-3.1875 0.796875 -6.59375 1.109375q-3.390625 0.328125 -7.0 0.328125q-8.312561 0 -13.359436 -2.3125q-5.03125 -2.328125 -7.234375 -6.921875q-2.203125 -4.59375 -2.203125 -11.40625q0 -7.90625 2.234375 -12.578125q2.25 -4.6875 7.25 -6.765625q5.0 -2.09375 13.234436 -2.09375zm46.88745 -9.359375l0 35.921875q0 1.515625 0.796875 2.203125q0.796875 0.671875 2.640625 0.671875l4.234375 0l1.84375 10.734375q-1.6875 0.71875 -4.171875 1.15625q-2.46875 0.4375 -5.0 0.671875q-2.515625 0.25 -4.4375 0.25q-5.828125 0 -9.28125 -2.953125q-3.4375 -2.96875 -3.4375 -8.25l-0.078125 -40.40625l16.890625 0zm9.671875 10.484375l0 10.078125l-33.28125 0l0 -9.671875l7.6875 -0.40625l25.59375 0z" fill-rule="nonzero"/><path fill="#000000" fill-opacity="0.0" d="m1917.3118 251.52559l1416.1262 39.406265" fill-rule="evenodd"/><path stroke="#161616" stroke-width="12.0" stroke-linejoin="round" stroke-linecap="butt" d="m1917.3118 251.52559l1416.1262 39.406265" fill-rule="evenodd"/><path fill="#000000" fill-opacity="0.0" d="m1917.3118 251.52559l-1410.9303 39.358627" fill-rule="evenodd"/><path stroke="#161616" stroke-width="12.0" stroke-linejoin="round" stroke-linecap="butt" d="m1917.3118 251.52559l-1410.9303 39.358627" fill-rule="evenodd"/><path fill="#000000" fill-opacity="0.0" d="m1917.5879 245.61679l2.7717285 1750.1732" fill-rule="evenodd"/><path stroke="#161616" stroke-width="12.0" stroke-linejoin="round" stroke-linecap="butt" d="m1917.5879 245.61679l2.7717285 1750.1732" fill-rule="evenodd"/><path fill="#161616" d="m1869.8923 273.04068l34.456787 0l0 1355.748l-34.456787 0z" fill-rule="evenodd"/><path fill="#000000" fill-opacity="0.0" d="m451.85336 1640.1077l1472.6299 0" fill-rule="evenodd"/><path stroke="#161616" stroke-width="12.0" stroke-linejoin="round" stroke-linecap="butt" d="m451.85336 1640.1077l1472.6299 0" fill-rule="evenodd"/><path fill="#000000" fill-opacity="0.0" d="m505.5328 284.2861l0 1594.7086" fill-rule="evenodd"/><path stroke="#ff9900" stroke-width="12.0" stroke-linejoin="round" stroke-linecap="butt" d="m505.5328 284.2861l0 1594.7086" fill-rule="evenodd"/><path fill="#000000" fill-opacity="0.0" d="m3333.5906 290.93176l0 1594.7086" fill-rule="evenodd"/><path stroke="#ff9900" stroke-width="12.0" stroke-linejoin="round" stroke-linecap="butt" d="m3333.5906 290.93176l0 1594.7086" fill-rule="evenodd"/></g></svg>