<svg version="1.1" viewBox="0.0 0.0 3840.0 2160.0" fill="none" stroke="none" stroke-linecap="square" stroke-miterlimit="10" xmlns:xlink="http://www.w3.org/1999/xlink" xmlns="http://www.w3.org/2000/svg"><clipPath id="p.0"><path d="m0 0l3840.0 0l0 2160.0l-3840.0 0l0 -2160.0z" clip-rule="nonzero"/></clipPath><g clip-path="url(#p.0)"><path fill="#161616" d="m0 0l3840.0 0l0 2160.0l-3840.0 0z" fill-rule="evenodd"/><path fill="#474946" d="m630.90186 163.40158l2578.1963 0l124.49243 124.4924l0 1591.105l-117.59961 117.59949l-2591.982 0l-117.59958 -117.59949l0 -1591.105z" fill-rule="evenodd"/><path stroke="#ff9900" stroke-width="12.0" stroke-linejoin="round" stroke-linecap="butt" d="m630.90186 163.40158l2578.1963 0l124.49243 124.4924l0 1591.105l-117.59961 117.59949l-2591.982 0l-117.59958 -117.59949l0 -1591.105z" fill-rule="evenodd"/><path fill="#000000" fill-opacity="0.0" d="m624.24146 166.43689l2606.0474 0l0 117.76376l-2606.0474 0z" fill-rule="evenodd"/><path fill="#ff9900" d="m636.7571 210.83752l34.5625 12.5625l0 12.875l-34.5625 12.640625l0 -13.03125l20.484375 -6.0l-20.484375 -6.0l0 -13.046875z" fill-rule="nonzero"/><path fill="#ffffff" d="m715.3264 197.80627q4.3125 0 9.703125 0.515625q5.40625 0.515625 10.375 2.28125l-1.046875 11.109375q-3.59375 -0.078125 -8.921875 -0.109375q-5.3125 -0.046875 -10.515625 -0.046875q-1.515625 0 -2.515625 0.078125q-1.0 0.078125 -1.5625 0.328125q-0.5625 0.234375 -0.8125 0.640625q-0.234375 0.390625 -0.234375 1.03125q0 1.125 1.0 1.890625q1.0 0.75 3.8125 1.875l10.0 4.15625q6.875 2.96875 9.625 6.84375q2.765625 3.875 2.765625 9.953125q0 4.640625 -1.125 7.890625q-1.109375 3.234375 -3.71875 5.203125q-2.59375 1.953125 -6.921875 2.875q-4.3125 0.921875 -10.796875 0.921875q-2.796875 0 -8.484375 -0.453125q-5.671875 -0.4375 -12.875 -2.265625l1.046875 -12.171875q4.796875 0.078125 8.796875 0.203125q4.0 0.125 6.921875 0.171875q2.921875 0.03125 4.359375 0.03125q2.234375 0 3.390625 -0.15625q1.171875 -0.171875 1.609375 -0.609375q0.4375 -0.4375 0.4375 -1.15625q0 -0.796875 -0.328125 -1.3125q-0.3125 -0.53125 -1.109375 -1.0q-0.796875 -0.484375 -2.3125 -1.046875l-10.96875 -4.796875q-6.71875 -3.046875 -9.515625 -6.796875q-2.796875 -3.765625 -2.796875 -9.84375q0 -4.71875 1.234375 -7.84375q1.234375 -3.125 3.875 -4.953125q2.640625 -1.84375 7.0 -2.640625q4.359375 -0.796875 10.609375 -0.796875zm48.393677 15.1875q11.28125 0 16.0 3.609375q4.71875 3.59375 4.796875 10.640625q0.078125 5.59375 -3.328125 8.078125q-3.390625 2.484375 -12.1875 2.484375l-21.515625 0l0 -7.921875l16.796875 0q2.71875 0 3.4375 -0.515625q0.71875 -0.53125 0.71875 -2.53125q0 -1.921875 -0.96875 -2.46875q-0.953125 -0.5625 -3.265625 -0.5625q-2.328125 -0.09375 -3.53125 0.46875q-1.1875 0.5625 -1.640625 2.453125q-0.4375 1.875 -0.4375 5.875q0 3.671875 0.515625 5.75q0.53125 2.078125 2.046875 2.96875q1.53125 0.875 4.484375 0.875q2.40625 0 6.765625 -0.15625q4.359375 -0.15625 9.46875 -0.71875l1.53125 10.078125q-2.8125 1.4375 -6.015625 2.234375q-3.1875 0.796875 -6.59375 1.109375q-3.390625 0.328125 -7.0 0.328125q-8.3125 0 -13.359375 -2.3125q-5.03125 -2.328125 -7.234375 -6.921875q-2.203125 -4.59375 -2.203125 -11.40625q0 -7.90625 2.234375 -12.578125q2.25 -4.6875 7.25 -6.765625q5.0 -2.09375 13.234375 -2.09375zm46.88745 -9.359375l0 35.921875q0 1.515625 0.796875 2.203125q0.796875 0.671875 2.640625 0.671875l4.234375 0l1.84375 10.734375q-1.6875 0.71875 -4.171875 1.15625q-2.46875 0.4375 -5.0 0.671875q-2.515625 0.25 -4.4375 0.25q-5.828125 0 -9.28125 -2.953125q-3.4375 -2.96875 -3.4375 -8.25l-0.078125 -40.40625l16.890625 0zm9.671875 10.484375l0 10.078125l-33.28125 0l0 -9.671875l7.6875 -0.40625l25.59375 0zm25.368103 -10.484375l0 35.921875q0 1.515625 0.796875 2.203125q0.796875 0.671875 2.640625 0.671875l4.234375 0l1.84375 10.734375q-1.6875 0.71875 -4.171875 1.15625q-2.46875 0.4375 -5.0 0.671875q-2.515625 0.25 -4.4375 0.25q-5.828125 0 -9.28125 -2.953125q-3.4375 -2.96875 -3.4375 -8.25l-0.078125 -40.40625l16.890625 0zm9.671875 10.484375l0 10.078125l-33.28125 0l0 -9.671875l7.6875 -0.40625l25.59375 0zm21.446228 0l0 40.0l-16.71875 0l0 -40.0l16.71875 0zm-4.796875 -18.3125q4.875 0 4.875 4.953125l0 4.078125q0 4.96875 -4.875 4.96875l-7.125 0q-4.875 0 -4.875 -4.96875l0 -4.078125q0 -4.953125 4.875 -4.953125l7.125 0zm43.193115 17.1875q11.84375 0 11.84375 11.203125l0 29.921875l-16.796875 0l0 -24.5625q0 -1.359375 -0.640625 -1.875q-0.640625 -0.515625 -2.25 -0.515625q-1.515625 0 -3.40625 0.234375q-1.875 0.234375 -4.90625 1.28125l-0.796875 -8.25q4.0 -3.75 8.390625 -5.59375q4.40625 -1.84375 8.5625 -1.84375zm-18.0 1.125l2.078125 8.15625l1.515625 0.96875l0 30.875l-16.796875 0l0 -40.0l13.203125 0zm56.08618 -1.125q7.515625 0 11.984375 1.25q4.484375 1.234375 6.484375 4.0q2.0 2.75 2.0 7.390625q0 4.640625 -1.96875 7.40625q-1.953125 2.765625 -6.46875 4.0q-4.515625 1.234375 -12.125 1.234375q-7.515625 0 -12.078125 -1.234375q-4.5625 -1.234375 -6.5625 -4.0q-2.0 -2.765625 -2.0 -7.40625q0 -4.640625 2.046875 -7.390625q2.046875 -2.765625 6.59375 -4.0q4.5625 -1.25 12.09375 -1.25zm-0.09375 9.203125q-2.953125 0 -4.0 0.6875q-1.03125 0.671875 -1.03125 2.75q0 2.078125 1.03125 2.8125q1.046875 0.71875 4.0 0.71875q2.96875 0 3.96875 -0.71875q1.0 -0.734375 1.0 -2.8125q0 -2.078125 -1.0 -2.75q-1.0 -0.6875 -3.96875 -0.6875zm25.125 -8.078125l-0.796875 6.15625l-11.203125 1.921875l-2.953125 -8.078125l14.953125 0zm-37.84375 21.921875l7.765625 1.359375q-0.875 0.15625 -1.28125 1.15625q-0.40625 1.0 0.15625 1.96875q0.5625 0.953125 2.40625 1.109375l14.5625 0.96875q6.875 0.46875 9.828125 3.5625q2.96875 3.078125 2.96875 9.0q0 5.671875 -2.40625 8.546875q-2.390625 2.890625 -7.46875 3.890625q-5.078125 1.0 -13.25 1.0q-7.203125 0 -11.6875 -0.640625q-4.46875 -0.640625 -6.953125 -1.96875q-2.46875 -1.3125 -3.390625 -3.484375q-0.921875 -2.15625 -0.921875 -5.265625q0 -2.484375 1.0 -4.359375q1.0 -1.890625 3.640625 -3.359375q2.640625 -1.484375 7.515625 -2.609375l6.875 -1.515625l5.453125 2.078125l-2.5625 1.359375q-2.40625 1.6875 -3.765625 2.53125q-1.359375 0.828125 -1.921875 1.4375q-0.5625 0.59375 -0.5625 1.875q0 1.03125 0.59375 1.59375q0.609375 0.5625 2.171875 0.765625q1.5625 0.203125 4.28125 0.203125q3.03125 0 4.71875 -0.171875q1.6875 -0.15625 2.3125 -0.640625q0.640625 -0.46875 0.640625 -1.359375q0 -1.03125 -0.640625 -1.46875q-0.625 -0.4375 -2.03125 -0.640625q-1.40625 -0.203125 -3.5625 -0.359375l-10.875 -0.796875q-3.609375 -0.328125 -5.6875 -1.796875q-2.078125 -1.484375 -2.84375 -3.609375q-0.75 -2.125 -0.390625 -4.28125q0.359375 -2.15625 1.75 -3.828125q1.40625 -1.6875 3.5625 -2.25zm58.569946 -23.046875q3.203125 0 7.0 0.25q3.796875 0.234375 7.390625 0.59375q3.609375 0.359375 6.078125 0.921875l-1.03125 9.765625q-4.0 0 -8.046875 0q-4.03125 0 -7.71875 0q-2.640625 0 -3.921875 0.046875q-1.28125 0.03125 -1.6875 0.1875q-0.390625 0.15625 -0.390625 0.71875q0 0.640625 0.921875 0.890625q0.921875 0.234375 3.796875 1.03125l9.203125 2.3125q5.359375 1.53125 7.953125 4.21875q2.609375 2.671875 2.609375 7.875q0 5.03125 -1.921875 7.921875q-1.921875 2.875 -6.203125 4.078125q-4.28125 1.1875 -11.234375 1.1875q-2.875 0 -8.515625 -0.28125q-5.640625 -0.28125 -12.28125 -1.390625l1.03125 -9.765625q1.046875 0 3.328125 0q2.28125 0 5.1875 0q2.921875 0 5.734375 0q3.828125 0 5.671875 -0.03125q1.84375 -0.046875 2.40625 -0.328125q0.5625 -0.28125 0.5625 -0.84375q0 -0.71875 -1.046875 -1.0q-1.046875 -0.28125 -4.15625 -1.15625l-8.796875 -2.390625q-4.40625 -1.28125 -6.65625 -3.15625q-2.234375 -1.890625 -3.03125 -4.359375q-0.796875 -2.484375 -0.796875 -5.609375q0 -3.6875 1.71875 -6.28125q1.71875 -2.59375 5.75 -4.0q4.046875 -1.40625 11.09375 -1.40625z" fill-rule="nonzero"/><path fill="#000000" fill-opacity="0.0" d="m1917.3107 273.0492l1416.1261 17.898682" fill-rule="evenodd"/><path stroke="#161616" stroke-width="24.0" stroke-linejoin="round" stroke-linecap="butt" d="m1917.3107 273.0492l1416.1261 17.898682" fill-rule="evenodd"/><path fill="#000000" fill-opacity="0.0" d="m1917.3107 273.0492l-1410.9303 17.877045" fill-rule="evenodd"/><path stroke="#161616" stroke-width="24.0" stroke-linejoin="round" stroke-linecap="butt" d="m1917.3107 273.0492l-1410.9303 17.877045" fill-rule="evenodd"/><path fill="#000000" fill-opacity="0.0" d="m505.5328 284.2861l0 1594.7086" fill-rule="evenodd"/><path stroke="#ff9900" stroke-width="12.0" stroke-linejoin="round" stroke-linecap="butt" d="m505.5328 284.2861l0 1594.7086" fill-rule="evenodd"/><path fill="#000000" fill-opacity="0.0" d="m3333.5906 290.93176l0 1594.7086" fill-rule="evenodd"/><path stroke="#ff9900" stroke-width="12.0" stroke-linejoin="round" stroke-linecap="butt" d="m3333.5906 290.93176l0 1594.7086" fill-rule="evenodd"/><path fill="#000000" fill-opacity="0.0" d="m577.3438 290.9475l2699.8425 0l0 1445.2284l-2699.8425 0z" fill-rule="evenodd"/><path stroke="#161616" stroke-width="12.0" stroke-linejoin="round" stroke-linecap="butt" d="m577.3438 290.9475l2699.8425 0l0 1445.2284l-2699.8425 0z" fill-rule="evenodd"/><path fill="#000000" fill-opacity="0.0" d="m3319.1812 270.5507l16.094482 16.094482" fill-rule="evenodd"/><path stroke="#ff9900" stroke-width="8.0" stroke-linejoin="round" stroke-linecap="butt" d="m3319.1812 270.5507l16.094482 16.094482" fill-rule="evenodd"/><path fill="#000000" fill-opacity="0.0" d="m3331.5933 284.2856l0 20.409454" fill-rule="evenodd"/><path stroke="#ff9900" stroke-width="8.0" stroke-linejoin="round" stroke-linecap="butt" d="m3331.5933 284.2856l0 20.409454" fill-rule="evenodd"/><path fill="#000000" fill-opacity="0.0" d="m3319.6812 275.63992l11.023682 19.055145" fill-rule="evenodd"/><path stroke="#ff9900" stroke-width="8.0" stroke-linejoin="round" stroke-linecap="butt" d="m3319.6812 275.63992l11.023682 19.055145" fill-rule="evenodd"/><path fill="#000000" fill-opacity="0.0" d="m518.4016 273.0507l-16.094482 16.094482" fill-rule="evenodd"/><path stroke="#ff9900" stroke-width="8.0" stroke-linejoin="round" stroke-linecap="butt" d="m518.4016 273.0507l-16.094482 16.094482" fill-rule="evenodd"/><path fill="#000000" fill-opacity="0.0" d="m504.36224 284.2856l0 20.409454" fill-rule="evenodd"/><path stroke="#ff9900" stroke-width="8.0" stroke-linejoin="round" stroke-linecap="butt" d="m504.36224 284.2856l0 20.409454" fill-rule="evenodd"/><path fill="#000000" fill-opacity="0.0" d="m520.93835 274.7633l-15.24408 26.425201" fill-rule="evenodd"/><path stroke="#ff9900" stroke-width="8.0" stroke-linejoin="round" stroke-linecap="butt" d="m520.93835 274.7633l-15.24408 26.425201" fill-rule="evenodd"/><path fill="#000000" fill-opacity="0.0" d="m508.35898 282.531l0 20.409454" fill-rule="evenodd"/><path stroke="#ff9900" stroke-width="8.0" stroke-linejoin="round" stroke-linecap="butt" d="m508.35898 282.531l0 20.409454" fill-rule="evenodd"/></g></svg>