<svg version="1.1" viewBox="0.0 0.0 3840.0 2160.0" fill="none" stroke="none" stroke-linecap="square" stroke-miterlimit="10" xmlns:xlink="http://www.w3.org/1999/xlink" xmlns="http://www.w3.org/2000/svg"><clipPath id="p.0"><path d="m0 0l3840.0 0l0 2160.0l-3840.0 0l0 -2160.0z" clip-rule="nonzero"/></clipPath><g clip-path="url(#p.0)"><path fill="#c3c7cb" d="m0 0l3840.0 0l0 2160.0l-3840.0 0z" fill-rule="evenodd"/><path fill="#0000aa" d="m0 0l3840.0 0l0 172.12599l-3840.0 0z" fill-rule="evenodd"/><path fill="#ffffff" d="m135.67188 30.682358q11.390625 0 11.859375 11.703125l3.734375 95.9375l-30.40625 0l-3.28125 -82.375l-2.34375 0l-10.609375 54.921875q-1.5625 10.296875 -12.78125 10.296875l-17.484375 0q-11.078125 0 -12.9375 -10.296875l-10.765625 -54.921875l-2.34375 0l-2.65625 82.375l-30.421875 0l3.75 -95.9375q0.46875 -11.703125 11.859375 -11.703125l29.171875 0q10.921875 0 12.78125 10.453125l7.8125 42.75q0.625 3.890625 1.015625 7.953125q0.390625 4.046875 0.6875 8.109375l1.40625 0q0.46875 -4.0625 0.859375 -8.109375q0.390625 -4.0625 1.015625 -7.953125l7.328125 -42.75q1.875 -10.453125 12.953125 -10.453125l29.796875 0zm73.79315 27.453125q11.078125 0 18.640625 2.890625q7.5625 2.890625 11.53125 9.828125q3.984375 6.9375 3.984375 19.109375l0 48.359375l-26.046875 0l-4.53125 -16.6875l-2.171875 -3.125l0 -28.703125q-0.15625 -4.0625 -2.109375 -5.921875q-1.953125 -1.875 -7.109375 -1.875q-6.078125 0 -14.890625 0.15625q-8.8125 0.15625 -18.796875 0.625l-2.96875 -20.75q5.9375 -1.09375 14.125 -1.953125q8.1875 -0.859375 16.296875 -1.40625q8.109375 -0.546875 14.046875 -0.546875zm21.515625 32.296875l-0.15625 15.75l-32.28125 0q-2.96875 0 -4.453125 1.328125q-1.484375 1.328125 -1.484375 3.515625l0 2.5q0 2.015625 1.640625 3.421875q1.640625 1.40625 4.921875 1.40625q3.734375 0 7.796875 -1.796875q4.0625 -1.796875 7.796875 -4.59375q3.75 -2.8125 6.390625 -5.78125l0 9.984375q-1.078125 2.65625 -3.421875 6.71875q-2.34375 4.046875 -6.328125 8.109375q-3.96875 4.046875 -9.828125 6.78125q-5.84375 2.734375 -13.953125 2.734375q-7.171875 0 -13.34375 -2.5q-6.15625 -2.5 -9.828125 -7.40625q-3.65625 -4.921875 -3.65625 -12.25l0 -7.796875q0 -9.359375 6.9375 -14.734375q6.9375 -5.390625 18.796875 -5.390625l44.453125 0zm58.508698 -30.109375l0 78.0l-32.609375 0l0 -78.0l32.609375 0zm-9.359375 -35.71875q9.515625 0 9.515625 9.671875l0 7.953125q0 9.671875 -9.515625 9.671875l-13.890625 0q-9.515625 0 -9.515625 -9.671875l0 -7.953125q0 -9.671875 9.515625 -9.671875l13.890625 0zm84.236725 33.53125q23.09375 0 23.09375 21.84375l0 58.34375l-32.765625 0l0 -47.890625q0 -2.65625 -1.25 -3.671875q-1.25 -1.015625 -4.359375 -1.015625q-2.96875 0 -6.640625 0.46875q-3.65625 0.46875 -9.59375 2.5l-1.5625 -16.0625q7.8125 -7.34375 16.390625 -10.921875q8.578125 -3.59375 16.6875 -3.59375zm-35.09375 2.1875l4.046875 15.90625l2.96875 1.875l0 60.21875l-32.765625 0l0 -78.0l25.75 0zm223.85461 -29.640625q11.390625 0 11.859375 11.703125l3.734375 95.9375l-30.40625 0l-3.28125 -82.375l-2.34375 0l-10.609375 54.921875q-1.5625 10.296875 -12.7812195 10.296875l-17.484375 0q-11.078125 0 -12.9375 -10.296875l-10.765625 -54.921875l-2.34375 0l-2.65625 82.375l-30.421875 0l3.75 -95.9375q0.46875 -11.703125 11.859375 -11.703125l29.171875 0q10.921875 0 12.78125 10.453125l7.8125 42.75q0.625 3.890625 1.015625 7.953125q0.390625 4.046875 0.6875 8.109375l1.40625 0q0.46875 -4.0625 0.859375 -8.109375q0.390625 -4.0625 1.015625 -7.953125l7.328125 -42.75q1.8749695 -10.453125 12.9530945 -10.453125l29.796875 0zm70.04321 27.453125q22.0 0 31.203125 7.03125q9.203125 7.015625 9.359375 20.734375q0.15625 10.921875 -6.484375 15.765625q-6.625 4.828125 -23.78125 4.828125l-41.96875 0l0 -15.4375l32.765625 0q5.296875 0 6.703125 -1.015625q1.40625 -1.015625 1.40625 -4.921875q0 -3.734375 -1.875 -4.828125q-1.875 -1.09375 -6.390625 -1.09375q-4.53125 -0.15625 -6.875 0.9375q-2.328125 1.09375 -3.1875 4.765625q-0.859375 3.65625 -0.859375 11.453125q0 7.1875 1.015625 11.25q1.015625 4.046875 3.96875 5.765625q2.96875 1.703125 8.75 1.703125q4.671875 0 13.171875 -0.3125q8.5 -0.3125 18.484375 -1.390625l2.96875 19.65625q-5.453125 2.796875 -11.703125 4.359375q-6.234375 1.5625 -12.875 2.1875q-6.625 0.625 -13.640625 0.625q-16.21875 0 -26.046875 -4.515625q-9.828125 -4.53125 -14.125 -13.5q-4.28125 -8.96875 -4.28125 -22.234375q0 -15.4375 4.359375 -24.5625q4.375 -9.140625 14.125 -13.1875q9.75 -4.0625 25.8125 -4.0625zm111.38367 0q23.09375 0 23.09375 21.84375l0 58.34375l-32.765625 0l0 -47.890625q0 -2.65625 -1.25 -3.671875q-1.25 -1.015625 -4.359375 -1.015625q-2.96875 0 -6.640625 0.46875q-3.65625 0.46875 -9.59375 2.5l-1.5625 -16.0625q7.8125 -7.34375 16.390625 -10.921875q8.578125 -3.59375 16.6875 -3.59375zm-35.09375 2.1875l4.046875 15.90625l2.96875 1.875l0 60.21875l-32.765625 0l0 -78.0l25.75 0zm103.42279 0l0 47.890625q0 2.5 1.40625 3.671875q1.40625 1.171875 4.359375 1.171875q3.125 0 6.390625 -0.546875q3.28125 -0.546875 8.59375 -2.578125l1.875 16.0625q-7.96875 7.34375 -15.765625 10.9375q-7.796875 3.578125 -16.53125 3.578125q-23.09375 0 -23.09375 -21.84375l0 -58.34375l32.765625 0zm50.234375 0l0 78.0l-25.75 0l-4.046875 -15.90625l-3.125 -1.875l0 -60.21875l32.921875 0z" fill-rule="nonzero"/><path fill="#f2bb05" d="m899.44275 53.932358l67.390625 24.484375l0 25.125l-67.390625 24.640625l0 -25.421875l39.9375 -11.703125l-39.9375 -11.703125l0 -25.421875z" fill-rule="nonzero"/><path fill="#ffffff" d="m1052.6396 28.494858q8.421875 0 18.953125 1.015625q10.53125 1.015625 20.203125 4.453125l-2.03125 21.671875q-7.015625 -0.15625 -17.390625 -0.21875q-10.375 -0.078125 -20.515625 -0.078125q-2.96875 0 -4.921875 0.15625q-1.9375 0.140625 -3.03125 0.609375q-1.09375 0.46875 -1.5625 1.25q-0.46875 0.78125 -0.46875 2.03125q0 2.1875 1.953125 3.671875q1.953125 1.484375 7.40625 3.65625l19.5 8.125q13.421875 5.765625 18.796875 13.328125q5.390625 7.5625 5.390625 19.421875q0 9.046875 -2.1875 15.375q-2.1875 6.3125 -7.265625 10.140625q-5.0625 3.8125 -13.484375 5.609375q-8.421875 1.796875 -21.0625 1.796875q-5.453125 0 -16.53125 -0.859375q-11.078125 -0.859375 -25.125 -4.453125l2.03125 -23.703125q9.359375 0.15625 17.15625 0.390625q7.8125 0.234375 13.5 0.3125q5.6875 0.078125 8.5 0.078125q4.375 0 6.625 -0.3125q2.265625 -0.3125 3.125 -1.171875q0.859375 -0.859375 0.859375 -2.265625q0 -1.5625 -0.625 -2.578125q-0.625 -1.015625 -2.1875 -1.9375q-1.546875 -0.9375 -4.515625 -2.03125l-21.375 -9.359375q-13.109375 -5.9375 -18.5625 -13.265625q-5.453125 -7.328125 -5.453125 -19.1875q0 -9.203125 2.40625 -15.28125q2.421875 -6.09375 7.5625 -9.671875q5.15625 -3.59375 13.65625 -5.15625q8.5 -1.5625 20.671875 -1.5625zm94.37866 29.640625q22.0 0 31.203125 7.03125q9.203125 7.015625 9.359375 20.734375q0.15625 10.921875 -6.484375 15.765625q-6.625 4.828125 -23.78125 4.828125l-41.96875 0l0 -15.4375l32.765625 0q5.296875 0 6.703125 -1.015625q1.40625 -1.015625 1.40625 -4.921875q0 -3.734375 -1.875 -4.828125q-1.875 -1.09375 -6.390625 -1.09375q-4.53125 -0.15625 -6.875 0.9375q-2.328125 1.09375 -3.1875 4.765625q-0.859375 3.65625 -0.859375 11.453125q0 7.1875 1.015625 11.25q1.015625 4.046875 3.96875 5.765625q2.96875 1.703125 8.75 1.703125q4.671875 0 13.171875 -0.3125q8.5 -0.3125 18.484375 -1.390625l2.96875 19.65625q-5.453125 2.796875 -11.703125 4.359375q-6.234375 1.5625 -12.875 2.1875q-6.625 0.625 -13.640625 0.625q-16.21875 0 -26.046875 -4.515625q-9.828125 -4.53125 -14.125 -13.5q-4.28125 -8.96875 -4.28125 -22.234375q0 -15.4375 4.359375 -24.5625q4.375 -9.140625 14.125 -13.1875q9.75 -4.0625 25.8125 -4.0625zm83.305664 -29.015625l0 80.8125q0 2.96875 1.953125 4.296875q1.953125 1.3125 5.84375 1.3125l5.3125 0l3.578125 20.90625q-2.34375 1.40625 -6.640625 2.265625q-4.28125 0.859375 -8.734375 1.328125q-4.4375 0.46875 -7.546875 0.46875q-12.328125 0 -19.359375 -5.765625q-7.015625 -5.78125 -7.015625 -16.078125l0 -89.546875l32.609375 0zm64.582275 29.015625q22.0 0 31.203125 7.03125q9.203125 7.015625 9.359375 20.734375q0.15625 10.921875 -6.484375 15.765625q-6.625 4.828125 -23.78125 4.828125l-41.96875 0l0 -15.4375l32.765625 0q5.296875 0 6.703125 -1.015625q1.40625 -1.015625 1.40625 -4.921875q0 -3.734375 -1.875 -4.828125q-1.875 -1.09375 -6.390625 -1.09375q-4.53125 -0.15625 -6.875 0.9375q-2.328125 1.09375 -3.1875 4.765625q-0.859375 3.65625 -0.859375 11.453125q0 7.1875 1.015625 11.25q1.015625 4.046875 3.96875 5.765625q2.96875 1.703125 8.75 1.703125q4.671875 0 13.171875 -0.3125q8.5 -0.3125 18.484375 -1.390625l2.96875 19.65625q-5.453125 2.796875 -11.703125 4.359375q-6.234375 1.5625 -12.875 2.1875q-6.625 0.625 -13.640625 0.625q-16.21875 0 -26.046875 -4.515625q-9.828125 -4.53125 -14.125 -13.5q-4.28125 -8.96875 -4.28125 -22.234375q0 -15.4375 4.359375 -24.5625q4.375 -9.140625 14.125 -13.1875q9.75 -4.0625 25.8125 -4.0625zm89.69629 0q4.84375 0 10.609375 0.46875q5.78125 0.46875 11.546875 1.71875q5.765625 1.25 10.453125 3.59375l-3.28125 20.28125q-7.484375 0 -13.109375 0q-5.609375 0 -10.59375 0q-5.0 0 -7.890625 1.25q-2.875 1.234375 -4.046875 4.4375q-1.171875 3.203125 -1.171875 9.28125q0 6.078125 1.171875 9.359375q1.171875 3.28125 4.046875 4.53125q2.890625 1.234375 7.890625 1.234375q2.640625 0 6.625 -0.078125q3.984375 -0.078125 8.8125 -0.296875q4.84375 -0.234375 9.671875 -0.703125l2.96875 20.421875q-6.859375 3.59375 -15.921875 5.078125q-9.046875 1.484375 -18.09375 1.484375q-15.28125 0 -24.40625 -3.96875q-9.125 -3.984375 -13.109375 -13.03125q-3.96875 -9.0625 -3.96875 -24.03125q0 -15.125 4.046875 -24.09375q4.0625 -8.984375 13.265625 -12.953125q9.203125 -3.984375 24.484375 -3.984375zm84.08667 -18.25l0 70.046875q0 2.96875 1.5625 4.296875q1.5625 1.3125 5.140625 1.3125l8.28125 0l3.578125 20.90625q-3.265625 1.40625 -8.109375 2.265625q-4.828125 0.859375 -9.75 1.328125q-4.90625 0.46875 -8.65625 0.46875q-11.390625 0 -18.109375 -5.765625q-6.703125 -5.78125 -6.703125 -16.078125l0 -78.78125l32.765625 0zm18.875 20.4375l0 19.65625l-64.890625 0l0 -18.875l14.96875 -0.78125l49.921875 0zm99.6875 -29.640625q4.0625 0 7.171875 2.34375q3.125 2.34375 4.21875 6.390625l27.921875 98.90625l-34.484375 0l-16.21875 -70.046875q-0.625 -2.96875 -1.09375 -6.15625q-0.46875 -3.203125 -0.78125 -6.171875l-4.203125 0q-0.3125 2.96875 -0.78125 6.171875q-0.46875 3.1875 -1.09375 6.15625l-16.21875 70.046875l-34.484375 0l27.921875 -98.90625q1.09375 -4.046875 4.21875 -6.390625q3.125 -2.34375 7.171875 -2.34375l30.734375 0zm13.265625 60.6875l0 23.703125l-57.265625 0l0 -23.703125l57.265625 0zm70.50098 -33.234375q4.84375 0 10.609375 0.46875q5.78125 0.46875 11.546875 1.71875q5.765625 1.25 10.453125 3.59375l-3.28125 20.28125q-7.484375 0 -13.109375 0q-5.609375 0 -10.59375 0q-5.0 0 -7.890625 1.25q-2.875 1.234375 -4.046875 4.4375q-1.171875 3.203125 -1.171875 9.28125q0 6.078125 1.171875 9.359375q1.171875 3.28125 4.046875 4.53125q2.890625 1.234375 7.890625 1.234375q2.640625 0 6.625 -0.078125q3.984375 -0.078125 8.8125 -0.296875q4.84375 -0.234375 9.671875 -0.703125l2.96875 20.421875q-6.859375 3.59375 -15.921875 5.078125q-9.046875 1.484375 -18.09375 1.484375q-15.28125 0 -24.40625 -3.96875q-9.125 -3.984375 -13.109375 -13.03125q-3.96875 -9.0625 -3.96875 -24.03125q0 -15.125 4.046875 -24.09375q4.0625 -8.984375 13.265625 -12.953125q9.203125 -3.984375 24.484375 -3.984375zm84.08667 -18.25l0 70.046875q0 2.96875 1.5625 4.296875q1.5625 1.3125 5.140625 1.3125l8.28125 0l3.578125 20.90625q-3.265625 1.40625 -8.109375 2.265625q-4.828125 0.859375 -9.75 1.328125q-4.90625 0.46875 -8.65625 0.46875q-11.390625 0 -18.109375 -5.765625q-6.703125 -5.78125 -6.703125 -16.078125l0 -78.78125l32.765625 0zm18.875 20.4375l0 19.65625l-64.890625 0l0 -18.875l14.96875 -0.78125l49.921875 0zm41.812378 0l0 78.0l-32.609375 0l0 -78.0l32.609375 0zm-9.359375 -35.71875q9.515625 0 9.515625 9.671875l0 7.953125q0 9.671875 -9.515625 9.671875l-13.890625 0q-9.515625 0 -9.515625 -9.671875l0 -7.953125q0 -9.671875 9.515625 -9.671875l13.890625 0zm110.90857 35.71875l-23.078125 70.359375q-1.09375 3.421875 -3.828125 5.53125q-2.734375 2.109375 -6.46875 2.109375l-27.921875 0q-3.75 0 -6.484375 -2.109375q-2.71875 -2.109375 -3.8125 -5.53125l-23.09375 -70.359375l34.625 0l9.53125 43.0625q0.765625 3.578125 1.234375 7.328125q0.46875 3.734375 0.9375 7.328125l2.03125 0q0.46875 -3.59375 1.09375 -7.328125q0.625 -3.75 1.25 -7.328125l9.359375 -43.0625l34.625 0zm39.47473 0l0 78.0l-32.609375 0l0 -78.0l32.609375 0zm-9.359375 -35.71875q9.515625 0 9.515625 9.671875l0 7.953125q0 9.671875 -9.515625 9.671875l-13.890625 0q-9.515625 0 -9.515625 -9.671875l0 -7.953125q0 -9.671875 9.515625 -9.671875l13.890625 0zm64.267944 15.28125l0 70.046875q0 2.96875 1.5625 4.296875q1.5625 1.3125 5.140625 1.3125l8.28125 0l3.578125 20.90625q-3.265625 1.40625 -8.109375 2.265625q-4.828125 0.859375 -9.75 1.328125q-4.90625 0.46875 -8.65625 0.46875q-11.390625 0 -18.109375 -5.765625q-6.703125 -5.78125 -6.703125 -16.078125l0 -78.78125l32.765625 0zm18.875 20.4375l0 19.65625l-64.890625 0l0 -18.875l14.96875 -0.78125l49.921875 0zm96.09375 0l-24.796875 75.8125q-2.03125 6.40625 -5.859375 13.265625q-3.8125 6.859375 -9.984375 12.234375q-6.15625 5.390625 -15.046875 7.65625q-8.890625 2.265625 -21.0625 -0.234375l-2.1875 -17.625q9.671875 -2.03125 15.359375 -5.390625q5.703125 -3.34375 8.671875 -9.90625l5.765625 -12.46875q1.71875 -3.90625 3.046875 -9.984375q1.328125 -6.09375 2.109375 -10.296875l9.203125 -43.0625l34.78125 0zm-59.90625 0l9.21875 43.0625q0.609375 3.578125 1.078125 7.328125q0.46875 3.734375 0.9375 7.328125l4.6875 0l-10.140625 20.28125l-7.171875 0q-3.75 0 -6.484375 -2.109375q-2.71875 -2.109375 -3.8125 -5.53125l-23.09375 -70.359375l34.78125 0z" fill-rule="nonzero"/><path fill="#f2bb05" d="m2162.5742 53.932358l67.390625 24.484375l0 25.125l-67.390625 24.640625l0 -25.421875l39.9375 -11.703125l-39.9375 -11.703125l0 -25.421875z" fill-rule="nonzero"/><path fill="#c3c7cb" d="m3670.1746 11.197684l149.80688 0l0 149.80704l-149.80688 0z" fill-rule="evenodd"/><path stroke="#000000" stroke-width="3.0" stroke-linejoin="round" stroke-linecap="butt" d="m3670.1746 11.197684l149.80688 0l0 149.80704l-149.80688 0z" fill-rule="evenodd"/><path fill="#000000" d="m3793.4036 30.213707l-23.03125 49.5625l25.078125 51.624992l-31.53125 0l-22.875 -51.624992l20.96875 -49.5625l31.390625 0zm-65.265625 0l20.96875 49.5625l-22.875 51.624992l-31.53125 0l25.078125 -51.624992l-23.03125 -49.5625l31.390625 0zm30.953125 40.46875l0 17.609375l-30.515625 0l0 -17.609375l30.515625 0z" fill-rule="nonzero"/><path fill="#c3c7cb" d="m3670.1746 11.197684l149.80688 0l0 0l-149.18384 0l0 149.18385l-0.6230469 0.6231842z" fill-rule="evenodd"/><path stroke="#ffffff" stroke-width="3.0" stroke-linejoin="round" stroke-linecap="butt" d="m3670.1746 11.197684l149.80688 0l0 0l-149.18384 0l0 149.18385l-0.6230469 0.6231842z" fill-rule="evenodd"/><path fill="#c3c7cb" d="m3503.1758 11.197684l149.80713 0l0 149.80704l-149.80713 0z" fill-rule="evenodd"/><path stroke="#000000" stroke-width="3.0" stroke-linejoin="round" stroke-linecap="butt" d="m3503.1758 11.197684l149.80713 0l0 149.80704l-149.80713 0z" fill-rule="evenodd"/><path fill="#000000" d="m3580.8667 52.057457l0 23.90625l-37.984375 11.0l37.984375 11.0l0 23.90625l-63.796875 -23.171875l0 -23.609375l63.796875 -23.03125zm55.576904 32.703125l0 17.890625l-42.671875 0l0 -17.890625l42.671875 0z" fill-rule="nonzero"/><path fill="#c3c7cb" d="m3503.1758 11.197684l149.80713 0l0 0l-149.18384 0l0 149.18385l-0.623291 0.6231842z" fill-rule="evenodd"/><path stroke="#ffffff" stroke-width="3.0" stroke-linejoin="round" stroke-linecap="butt" d="m3503.1758 11.197684l149.80713 0l0 0l-149.18384 0l0 149.18385l-0.623291 0.6231842z" fill-rule="evenodd"/></g></svg>