<svg version="1.1" viewBox="0.0 0.0 3840.0 2160.0" fill="none" stroke="none" stroke-linecap="square" stroke-miterlimit="10" xmlns:xlink="http://www.w3.org/1999/xlink" xmlns="http://www.w3.org/2000/svg"><clipPath id="p.0"><path d="m0 0l3840.0 0l0 2160.0l-3840.0 0l0 -2160.0z" clip-rule="nonzero"/></clipPath><g clip-path="url(#p.0)"><path fill="#386e6e" d="m0 0l3840.0 0l0 2160.0l-3840.0 0z" fill-rule="evenodd"/><path fill="#ffffff" d="m91.91076 457.67715l715.2126 0l0 595.874l-715.2126 0z" fill-rule="evenodd"/><path stroke="#000000" stroke-width="1.0" stroke-linejoin="round" stroke-linecap="butt" d="m91.91076 457.67715l715.2126 0l0 595.874l-715.2126 0z" fill-rule="evenodd"/><path fill="#000000" d="m409.79172 511.60278l0 43.234375l-9.515625 0l0 -30.703125q0 -1.1875 0.09375 -2.34375q0.09375 -1.15625 0.34375 -2.296875l-10.28125 2.640625l-1.1875 -6.203125l11.03125 -4.328125l9.515625 0zm14.598724 33.703125q1.828125 0 2.546875 0.734375q0.71875 0.71875 0.71875 2.53125l0 3.0q0 1.828125 -0.71875 2.546875q-0.71875 0.71875 -2.546875 0.71875l-2.375 0q-1.8125 0 -2.53125 -0.71875q-0.71875 -0.71875 -0.71875 -2.546875l0 -3.0q0 -1.8125 0.71875 -2.53125q0.71875 -0.734375 2.53125 -0.734375l2.375 0z" fill-rule="nonzero"/><path fill="#000000" d="m204.44037 586.1028q5.640625 0 8.984375 0.96875q3.359375 0.96875 4.859375 3.421875q1.515625 2.4375 1.515625 6.890625q0 4.640625 -1.796875 7.046875q-1.78125 2.40625 -5.84375 2.78125l0 0.3125q5.0 0.453125 7.0 3.390625q2.015625 2.9375 2.015625 8.140625q0 4.453125 -1.546875 6.90625q-1.53125 2.4375 -4.765625 3.40625q-3.21875 0.96875 -8.40625 0.96875q-4.203125 0 -7.3125 -0.03125q-3.09375 -0.03125 -5.703125 -0.15625q-2.59375 -0.125 -5.34375 -0.3125l0.9375 -6.640625q1.5 0.0625 5.75 0.125q4.265625 0.0625 9.96875 0.0625q2.703125 0 4.171875 -0.5q1.46875 -0.5 2.0625 -1.84375q0.59375 -1.359375 0.59375 -3.859375q0 -2.6875 -0.625 -4.125q-0.625 -1.453125 -2.125 -2.015625q-1.5 -0.5625 -4.265625 -0.5625l-15.59375 0l0 -6.078125l15.46875 0q2.390625 -0.0625 3.734375 -0.5q1.34375 -0.4375 1.90625 -1.6875q0.5625 -1.265625 0.5625 -3.578125q0 -2.3125 -0.59375 -3.5q-0.59375 -1.203125 -2.0625 -1.640625q-1.46875 -0.4375 -4.046875 -0.4375q-3.5 0 -6.203125 -0.03125q-2.6875 -0.03125 -4.796875 0q-2.09375 0.03125 -3.90625 0.21875l-0.9375 -6.640625q2.5 -0.25 4.8125 -0.34375q2.328125 -0.09375 5.078125 -0.125q2.765625 -0.03125 6.453125 -0.03125zm-7.015625 0.5l0 43.234375l-9.328125 0l0 -43.234375l9.328125 0zm44.80307 11.46875q7.828125 0 11.234375 2.671875q3.421875 2.65625 3.421875 7.921875q0.0625 4.1875 -2.125 6.328125q-2.1875 2.125 -7.578125 2.125l-17.296875 0l0 -5.203125l14.78125 0q2.078125 0 2.671875 -0.90625q0.59375 -0.90625 0.59375 -2.53125q0 -2.203125 -1.234375 -3.046875q-1.21875 -0.84375 -4.15625 -0.84375q-2.5625 -0.0625 -4.015625 0.65625q-1.4375 0.71875 -2.0 2.671875q-0.5625 1.9375 -0.5625 5.625q0 3.890625 0.6875 6.0q0.6875 2.09375 2.34375 2.90625q1.671875 0.8125 4.609375 0.8125q2.125 0 5.296875 -0.15625q3.171875 -0.15625 6.359375 -0.53125l0.875 5.703125q-1.8125 0.875 -4.140625 1.375q-2.3125 0.5 -4.765625 0.71875q-2.4375 0.21875 -4.6875 0.21875q-5.890625 0 -9.46875 -1.71875q-3.5625 -1.71875 -5.171875 -5.296875q-1.59375 -3.578125 -1.59375 -9.140625q0 -6.078125 1.59375 -9.65625q1.609375 -3.578125 5.109375 -5.140625q3.515625 -1.5625 9.21875 -1.5625zm32.775574 -7.765625l0 29.625q0 1.703125 0.78125 2.421875q0.78125 0.71875 2.59375 0.71875l4.015625 0l1.0 6.265625q-1.125 0.375 -2.765625 0.65625q-1.625 0.28125 -3.25 0.40625q-1.625 0.125 -2.765625 0.125q-4.1875 0 -6.546875 -2.21875q-2.34375 -2.234375 -2.34375 -6.296875l0 -31.703125l9.28125 0zm8.640625 8.578125l0 6.078125l-23.3125 0l0 -5.765625l6.015625 -0.3125l17.296875 0zm53.439026 0l-7.640625 28.515625q-0.25 1.125 -1.125 1.78125q-0.875 0.65625 -2.0625 0.65625l-7.03125 0q-1.25 0 -2.1875 -0.78125q-0.9375 -0.78125 -1.0625 -2.03125l-3.453125 -17.484375q-0.1875 -1.3125 -0.3125 -2.5625q-0.125 -1.265625 -0.375 -2.578125l-0.75 0q-0.1875 1.3125 -0.375 2.578125q-0.1875 1.25 -0.375 2.5625l-3.375 17.484375q-0.203125 1.25 -1.140625 2.03125q-0.9375 0.78125 -2.1875 0.78125l-6.953125 0q-1.125 0 -2.015625 -0.65625q-0.875 -0.65625 -1.125 -1.78125l-7.640625 -28.515625l9.28125 0l4.25 20.046875q0.25 1.25 0.4375 2.546875q0.1875 1.28125 0.3125 2.53125l0.828125 0q0.1875 -1.25 0.40625 -2.53125q0.21875 -1.296875 0.40625 -2.546875l3.4375 -17.28125q0.125 -1.203125 1.03125 -1.984375q0.921875 -0.78125 2.171875 -0.78125l6.015625 0q1.25 0 2.15625 0.78125q0.90625 0.78125 1.09375 2.046875l3.328125 17.21875q0.1875 1.25 0.4375 2.515625q0.25 1.25 0.4375 2.5625l0.75 0q0.25 -1.3125 0.40625 -2.53125q0.15625 -1.234375 0.40625 -2.546875l4.265625 -20.046875l9.328125 0zm19.116272 -0.8125q7.828125 0 11.234375 2.671875q3.421875 2.65625 3.421875 7.921875q0.0625 4.1875 -2.125 6.328125q-2.1875 2.125 -7.578125 2.125l-17.296875 0l0 -5.203125l14.78125 0q2.078125 0 2.671875 -0.90625q0.59375 -0.90625 0.59375 -2.53125q0 -2.203125 -1.234375 -3.046875q-1.21875 -0.84375 -4.15625 -0.84375q-2.5625 -0.0625 -4.015625 0.65625q-1.4375 0.71875 -2.0 2.671875q-0.5625 1.9375 -0.5625 5.625q0 3.890625 0.6875 6.0q0.6875 2.09375 2.34375 2.90625q1.671875 0.8125 4.609375 0.8125q2.125 0 5.296875 -0.15625q3.171875 -0.15625 6.359375 -0.53125l0.875 5.703125q-1.8125 0.875 -4.140625 1.375q-2.3125 0.5 -4.765625 0.71875q-2.4375 0.21875 -4.6875 0.21875q-5.890625 0 -9.46875 -1.71875q-3.5625 -1.71875 -5.171875 -5.296875q-1.59375 -3.578125 -1.59375 -9.140625q0 -6.078125 1.59375 -9.65625q1.609375 -3.578125 5.109375 -5.140625q3.515625 -1.5625 9.21875 -1.5625zm35.338074 0q7.828125 0 11.234375 2.671875q3.421875 2.65625 3.421875 7.921875q0.0625 4.1875 -2.125 6.328125q-2.1875 2.125 -7.578125 2.125l-17.296875 0l0 -5.203125l14.78125 0q2.078125 0 2.671875 -0.90625q0.59375 -0.90625 0.59375 -2.53125q0 -2.203125 -1.234375 -3.046875q-1.21875 -0.84375 -4.15625 -0.84375q-2.5625 -0.0625 -4.015625 0.65625q-1.4375 0.71875 -2.0 2.671875q-0.5625 1.9375 -0.5625 5.625q0 3.890625 0.6875 6.0q0.6875 2.09375 2.34375 2.90625q1.671875 0.8125 4.609375 0.8125q2.125 0 5.296875 -0.15625q3.171875 -0.15625 6.359375 -0.53125l0.875 5.703125q-1.8125 0.875 -4.140625 1.375q-2.3125 0.5 -4.765625 0.71875q-2.4375 0.21875 -4.6875 0.21875q-5.890625 0 -9.46875 -1.71875q-3.5625 -1.71875 -5.171875 -5.296875q-1.59375 -3.578125 -1.59375 -9.140625q0 -6.078125 1.59375 -9.65625q1.609375 -3.578125 5.109375 -5.140625q3.515625 -1.5625 9.21875 -1.5625zm42.2287 0q8.765625 0 8.765625 8.578125l0 23.1875l-9.265625 0l0 -20.296875q0 -2.078125 -0.75 -2.859375q-0.75 -0.78125 -2.578125 -0.78125q-2.0 0 -4.140625 0.78125q-2.125 0.78125 -5.25 2.359375l-0.4375 -5.140625q3.3125 -2.828125 6.78125 -4.328125q3.484375 -1.5 6.875 -1.5zm-14.09375 0.8125l1.0625 6.140625l0.75 0.8125l0 24.0l-9.203125 0l0 -30.953125l7.390625 0zm54.828033 -8.578125l0 29.625q0 1.703125 0.78125 2.421875q0.78125 0.71875 2.59375 0.71875l4.015625 0l1.0 6.265625q-1.125 0.375 -2.765625 0.65625q-1.625 0.28125 -3.25 0.40625q-1.625 0.125 -2.765625 0.125q-4.1875 0 -6.546875 -2.21875q-2.34375 -2.234375 -2.34375 -6.296875l0 -31.703125l9.28125 0zm8.640625 8.578125l0 6.078125l-23.3125 0l0 -5.765625l6.015625 -0.3125l17.296875 0zm19.6109 -0.8125q7.828125 0 11.234375 2.671875q3.421875 2.65625 3.421875 7.921875q0.0625 4.1875 -2.125 6.328125q-2.1875 2.125 -7.578125 2.125l-17.296875 0l0 -5.203125l14.78125 0q2.078125 0 2.671875 -0.90625q0.59375 -0.90625 0.59375 -2.53125q0 -2.203125 -1.234375 -3.046875q-1.21875 -0.84375 -4.15625 -0.84375q-2.5625 -0.0625 -4.015625 0.65625q-1.4375 0.71875 -2.0 2.671875q-0.5625 1.9375 -0.5625 5.625q0 3.890625 0.6875 6.0q0.6875 2.09375 2.34375 2.90625q1.671875 0.8125 4.609375 0.8125q2.125 0 5.296875 -0.15625q3.171875 -0.15625 6.359375 -0.53125l0.875 5.703125q-1.8125 0.875 -4.140625 1.375q-2.3125 0.5 -4.765625 0.71875q-2.4375 0.21875 -4.6875 0.21875q-5.890625 0 -9.46875 -1.71875q-3.5625 -1.71875 -5.171875 -5.296875q-1.59375 -3.578125 -1.59375 -9.140625q0 -6.078125 1.59375 -9.65625q1.609375 -3.578125 5.109375 -5.140625q3.515625 -1.5625 9.21875 -1.5625zm27.947449 0.8125l1.125 6.140625l0.875 0.8125l0 24.0l-9.203125 0l0 -30.953125l7.203125 0zm15.09375 -0.8125l-0.875 8.515625l-2.5625 0q-2.203125 0 -4.578125 0.625q-2.375 0.625 -6.015625 1.953125l-0.625 -5.203125q3.25 -2.890625 6.5625 -4.390625q3.328125 -1.5 6.46875 -1.5l1.625 0zm43.613525 0q4.203125 0 6.390625 2.203125q2.1875 2.1875 2.1875 6.375l0 23.1875l-9.140625 0l0 -20.296875q-0.0625 -1.953125 -0.8125 -2.796875q-0.75 -0.84375 -2.640625 -0.84375q-1.0625 0 -2.09375 0.28125q-1.03125 0.28125 -2.359375 0.96875q-1.3125 0.6875 -3.1875 1.890625l-0.5 -5.078125q3.0 -2.953125 5.90625 -4.421875q2.921875 -1.46875 6.25 -1.46875zm-31.828125 0.8125l0.9375 6.140625l0.9375 0.8125l0 24.0l-9.203125 0l0 -30.953125l7.328125 0zm12.53125 -0.8125q4.125 0 6.28125 2.171875q2.171875 2.15625 2.171875 6.40625l0 23.1875l-8.890625 0l0 -20.296875q0 -2.015625 -0.859375 -2.828125q-0.84375 -0.8125 -2.59375 -0.8125q-1.0625 0 -2.09375 0.28125q-1.03125 0.28125 -2.390625 0.96875q-1.34375 0.6875 -3.28125 1.890625l-0.5625 -5.078125q3.0625 -2.953125 5.9375 -4.421875q2.890625 -1.46875 6.28125 -1.46875zm65.21838 0q3.890625 0 6.578125 1.03125q2.703125 1.03125 4.109375 3.515625q1.40625 2.46875 1.40625 6.734375l0 20.484375l-7.328125 0l-1.3125 -6.703125l-0.625 -0.9375l0 -12.84375q-0.0625 -2.265625 -1.109375 -3.234375q-1.03125 -0.96875 -3.84375 -0.96875q-2.453125 0 -6.03125 0.15625q-3.5625 0.15625 -7.3125 0.40625l-0.8125 -6.140625q2.25 -0.4375 5.15625 -0.75q2.921875 -0.3125 5.859375 -0.53125q2.953125 -0.21875 5.265625 -0.21875zm8.28125 12.71875l-0.0625 5.203125l-13.796875 0q-1.6875 0.0625 -2.40625 0.875q-0.71875 0.8125 -0.71875 2.1875l0 1.515625q0 1.5625 0.875 2.40625q0.875 0.84375 2.8125 0.84375q1.640625 0 3.546875 -0.6875q1.90625 -0.6875 3.78125 -1.9375q1.890625 -1.265625 3.390625 -2.953125l0 4.015625q-0.5625 0.9375 -1.6875 2.34375q-1.125 1.40625 -2.828125 2.765625q-1.6875 1.34375 -3.953125 2.25q-2.25 0.90625 -5.125 0.90625q-2.75 0 -5.046875 -0.96875q-2.28125 -0.96875 -3.609375 -2.90625q-1.3125 -1.953125 -1.3125 -4.828125l0 -3.203125q0 -3.6875 2.5 -5.75q2.515625 -2.078125 6.90625 -2.078125l16.734375 0zm32.635864 -12.71875q8.765625 0 8.765625 8.578125l0 23.1875l-9.265625 0l0 -20.296875q0 -2.078125 -0.75 -2.859375q-0.75 -0.78125 -2.578125 -0.78125q-2.0 0 -4.140625 0.78125q-2.125 0.78125 -5.25 2.359375l-0.4375 -5.140625q3.3125 -2.828125 6.78125 -4.328125q3.484375 -1.5 6.875 -1.5zm-14.09375 0.8125l1.0625 6.140625l0.75 0.8125l0 24.0l-9.203125 0l0 -30.953125l7.390625 0zm40.781372 -0.8125q3.328125 0 6.328125 0.9375q3.015625 0.9375 5.328125 3.078125l-0.625 4.1875q-2.0625 -0.625 -3.796875 -1.09375q-1.71875 -0.46875 -3.96875 -0.46875q-1.953125 0 -3.140625 0.6875q-1.1875 0.6875 -1.75 2.703125q-0.5625 2.0 -0.5625 5.9375q0 3.703125 0.53125 5.625q0.53125 1.90625 1.6875 2.625q1.15625 0.71875 2.984375 0.71875q1.625 0 2.8125 -0.34375q1.1875 -0.34375 2.375 -1.0625q1.203125 -0.71875 2.765625 -1.796875l0.625 4.578125q-1.875 2.640625 -4.890625 4.421875q-3.0 1.78125 -7.390625 1.78125q-5.953125 0 -8.5 -4.25q-2.53125 -4.265625 -2.53125 -12.234375q0 -6.1875 1.3125 -9.671875q1.328125 -3.484375 3.921875 -4.921875q2.609375 -1.4375 6.484375 -1.4375zm19.234375 -12.09375l0 43.859375l-7.328125 0l-0.9375 -5.703125l-1.0 -0.6875l0 -20.296875l0.375 -0.875q-0.1875 -1.890625 -0.28125 -3.859375q-0.09375 -1.96875 -0.09375 -4.046875l0 -8.390625l9.265625 0z" fill-rule="nonzero"/><path fill="#000000" d="m198.33154 673.07153q3.328125 0 6.328125 0.9375q3.015625 0.9375 5.328125 3.078125l-0.625 4.1875q-2.0625 -0.625 -3.796875 -1.09375q-1.71875 -0.46875 -3.96875 -0.46875q-1.953125 0 -3.140625 0.6875q-1.1875 0.6875 -1.75 2.703125q-0.5625 2.0 -0.5625 5.9375q0 3.703125 0.53125 5.625q0.53125 1.90625 1.6875 2.625q1.15625 0.71875 2.984375 0.71875q1.625 0 2.8125 -0.34375q1.1875 -0.34375 2.375 -1.0625q1.203125 -0.71875 2.765625 -1.796875l0.625 4.578125q-1.875 2.640625 -4.890625 4.421875q-3.0 1.78125 -7.390625 1.78125q-5.953125 0 -8.5 -4.25q-2.53125 -4.265625 -2.53125 -12.234375q0 -6.1875 1.3125 -9.671875q1.328125 -3.484375 3.921875 -4.921875q2.609375 -1.4375 6.484375 -1.4375zm19.234375 -12.09375l0 43.859375l-7.328125 0l-0.9375 -5.703125l-1.0 -0.6875l0 -20.296875l0.375 -0.875q-0.1875 -1.890625 -0.28125 -3.859375q-0.09375 -1.96875 -0.09375 -4.046875l0 -8.390625l9.265625 0zm22.249481 12.09375q7.828125 0 11.234375 2.671875q3.421875 2.65625 3.421875 7.921875q0.0625 4.1875 -2.125 6.328125q-2.1875 2.125 -7.578125 2.125l-17.296875 0l0 -5.203125l14.78125 0q2.078125 0 2.671875 -0.90625q0.59375 -0.90625 0.59375 -2.53125q0 -2.203125 -1.234375 -3.046875q-1.21875 -0.84375 -4.15625 -0.84375q-2.5625 -0.0625 -4.015625 0.65625q-1.4375 0.71875 -2.0 2.671875q-0.5625 1.9375 -0.5625 5.625q0 3.890625 0.6875 6.0q0.6875 2.09375 2.34375 2.90625q1.671875 0.8125 4.609375 0.8125q2.125 0 5.296875 -0.15625q3.171875 -0.15625 6.359375 -0.53125l0.875 5.703125q-1.8125 0.875 -4.140625 1.375q-2.3125 0.5 -4.765625 0.71875q-2.4375 0.21875 -4.6875 0.21875q-5.890625 0 -9.46875 -1.71875q-3.5625 -1.71875 -5.171875 -5.296875q-1.59375 -3.578125 -1.59375 -9.140625q0 -6.078125 1.59375 -9.65625q1.609375 -3.578125 5.109375 -5.140625q3.515625 -1.5625 9.21875 -1.5625zm33.588074 -13.40625q1.5625 0 4.0 0.15625q2.453125 0.15625 4.328125 0.53125l0 5.890625l-5.015625 0q-2.375 0 -3.28125 1.03125q-0.90625 1.03125 -0.90625 3.484375l0 34.078125l-9.28125 0l0 -35.28125q0 -3.0 0.96875 -5.21875q0.96875 -2.234375 3.1875 -3.453125q2.234375 -1.21875 6.0 -1.21875zm12.15625 14.21875l0 6.078125l-27.703125 0l0 -5.765625l5.578125 -0.3125l22.125 0zm8.890625 0l0 30.953125l-9.203125 0l0 -30.953125l9.203125 0zm-2.625 -13.96875q2.75 0 2.75 2.75l0 3.390625q0 2.75 -2.75 2.75l-3.953125 0q-2.75 0 -2.75 -2.75l0 -3.390625q0 -2.75 2.75 -2.75l3.953125 0zm32.010406 13.15625q8.765625 0 8.765625 8.578125l0 23.1875l-9.265625 0l0 -20.296875q0 -2.078125 -0.75 -2.859375q-0.75 -0.78125 -2.578125 -0.78125q-2.0 0 -4.140625 0.78125q-2.125 0.78125 -5.25 2.359375l-0.4375 -5.140625q3.3125 -2.828125 6.78125 -4.328125q3.484375 -1.5 6.875 -1.5zm-14.09375 0.8125l1.0625 6.140625l0.75 0.8125l0 24.0l-9.203125 0l0 -30.953125l7.390625 0zm39.656372 0l0 30.953125l-9.1406555 0l0 -30.953125l9.1406555 0zm-2.5625305 -13.65625q2.7500305 0 2.7500305 2.75l0 3.390625q0 2.75 -2.7500305 2.75l-4.015625 0q-2.75 0 -2.75 -2.75l0 -3.390625q0 -2.75 2.75 -2.75l4.015625 0zm22.496246 5.078125l0 29.625q0 1.703125 0.78125 2.421875q0.78125 0.71875 2.59375 0.71875l4.015625 0l1.0 6.265625q-1.125 0.375 -2.765625 0.65625q-1.625 0.28125 -3.25 0.40625q-1.625 0.125 -2.765625 0.125q-4.1875 0 -6.546875 -2.21875q-2.34375 -2.234375 -2.34375 -6.296875l0 -31.703125l9.28125 0zm8.640625 8.578125l0 6.078125l-23.3125 0l0 -5.765625l6.015625 -0.3125l17.296875 0zm14.407776 0l0 30.953125l-9.140625 0l0 -30.953125l9.140625 0zm-2.5625 -13.65625q2.75 0 2.75 2.75l0 3.390625q0 2.75 -2.75 2.75l-4.015625 0q-2.75 0 -2.75 -2.75l0 -3.390625q0 -2.75 2.75 -2.75l4.015625 0zm25.121216 12.84375q5.828125 0 9.328125 1.59375q3.515625 1.59375 5.046875 5.171875q1.53125 3.578125 1.53125 9.59375q0 5.875 -1.53125 9.453125q-1.53125 3.578125 -5.046875 5.140625q-3.5 1.5625 -9.328125 1.5625q-5.765625 0 -9.28125 -1.5625q-3.5 -1.5625 -5.078125 -5.140625q-1.5625 -3.578125 -1.5625 -9.453125q0 -6.015625 1.5625 -9.59375q1.578125 -3.578125 5.078125 -5.171875q3.515625 -1.59375 9.28125 -1.59375zm0 6.703125q-2.375 0 -3.765625 0.8125q-1.375 0.8125 -1.9375 2.890625q-0.5625 2.0625 -0.5625 5.953125q0 3.75 0.5625 5.828125q0.5625 2.0625 1.9375 2.84375q1.390625 0.78125 3.765625 0.78125q2.4375 0 3.8125 -0.78125q1.390625 -0.78125 1.921875 -2.84375q0.53125 -2.078125 0.53125 -5.828125q0 -3.890625 -0.53125 -5.953125q-0.53125 -2.078125 -1.921875 -2.890625q-1.375 -0.8125 -3.8125 -0.8125zm43.795288 -6.703125q8.765625 0 8.765625 8.578125l0 23.1875l-9.265625 0l0 -20.296875q0 -2.078125 -0.75 -2.859375q-0.75 -0.78125 -2.578125 -0.78125q-2.0 0 -4.140625 0.78125q-2.125 0.78125 -5.25 2.359375l-0.4375 -5.140625q3.3125 -2.828125 6.78125 -4.328125q3.484375 -1.5 6.875 -1.5zm-14.09375 0.8125l1.0625 6.140625l0.75 0.8125l0 24.0l-9.203125 0l0 -30.953125l7.390625 0zm53.252747 0l0 30.953125l-9.140625 0l0 -30.953125l9.140625 0zm-2.5625 -13.65625q2.75 0 2.75 2.75l0 3.390625q0 2.75 -2.75 2.75l-4.015625 0q-2.75 0 -2.75 -2.75l0 -3.390625q0 -2.75 2.75 -2.75l4.015625 0zm22.16809 12.84375q2.265625 0 4.890625 0.15625q2.640625 0.15625 5.140625 0.40625q2.5 0.25 4.453125 0.625l-0.625 5.765625q-3.015625 -0.0625 -6.0625 -0.125q-3.03125 -0.0625 -5.90625 -0.0625q-2.453125 0 -3.765625 0.09375q-1.3125 0.09375 -1.84375 0.5625q-0.53125 0.46875 -0.53125 1.65625q0 1.453125 0.9375 1.921875q0.9375 0.46875 3.125 1.03125l8.09375 1.9375q3.875 1.0 5.75 2.984375q1.890625 1.96875 1.890625 5.921875q0 3.875 -1.453125 5.953125q-1.4375 2.0625 -4.578125 2.84375q-3.125 0.78125 -8.0625 0.78125q-1.953125 0 -5.78125 -0.1875q-3.8125 -0.1875 -8.328125 -0.9375l0.578125 -5.765625q1.1875 0.0625 2.90625 0.09375q1.71875 0.03125 3.78125 0.03125q2.078125 0 4.140625 0q3.265625 0 4.953125 -0.15625q1.6875 -0.15625 2.3125 -0.71875q0.640625 -0.5625 0.640625 -1.6875q0 -1.453125 -1.078125 -1.921875q-1.0625 -0.46875 -3.375 -1.09375l-7.828125 -1.9375q-3.015625 -0.8125 -4.640625 -2.0625q-1.625 -1.265625 -2.296875 -3.046875q-0.65625 -1.78125 -0.65625 -4.296875q0 -3.1875 1.3125 -5.125q1.328125 -1.953125 4.203125 -2.796875q2.890625 -0.84375 7.703125 -0.84375zm46.86682 0q2.265625 0 4.890625 0.15625q2.640625 0.15625 5.140625 0.40625q2.5 0.25 4.453125 0.625l-0.625 5.765625q-3.015625 -0.0625 -6.0625 -0.125q-3.03125 -0.0625 -5.90625 -0.0625q-2.453125 0 -3.765625 0.09375q-1.3125 0.09375 -1.84375 0.5625q-0.53125 0.46875 -0.53125 1.65625q0 1.453125 0.9375 1.921875q0.9375 0.46875 3.125 1.03125l8.09375 1.9375q3.875 1.0 5.75 2.984375q1.890625 1.96875 1.890625 5.921875q0 3.875 -1.453125 5.953125q-1.4375 2.0625 -4.578125 2.84375q-3.125 0.78125 -8.0625 0.78125q-1.953125 0 -5.78125 -0.1875q-3.8125 -0.1875 -8.328125 -0.9375l0.578125 -5.765625q1.1875 0.0625 2.90625 0.09375q1.71875 0.03125 3.78125 0.03125q2.078125 0 4.140625 0q3.265625 0 4.953125 -0.15625q1.6875 -0.15625 2.3125 -0.71875q0.640625 -0.5625 0.640625 -1.6875q0 -1.453125 -1.078125 -1.921875q-1.0625 -0.46875 -3.375 -1.09375l-7.828125 -1.9375q-3.015625 -0.8125 -4.640625 -2.0625q-1.625 -1.265625 -2.296875 -3.046875q-0.65625 -1.78125 -0.65625 -4.296875q0 -3.1875 1.3125 -5.125q1.328125 -1.953125 4.203125 -2.796875q2.890625 -0.84375 7.703125 -0.84375zm36.16101 0q7.828186 0 11.234436 2.671875q3.421875 2.65625 3.421875 7.921875q0.0625 4.1875 -2.125 6.328125q-2.1875 2.125 -7.578125 2.125l-17.296936 0l0 -5.203125l14.78125 0q2.078186 0 2.671936 -0.90625q0.59375 -0.90625 0.59375 -2.53125q0 -2.203125 -1.234375 -3.046875q-1.218811 -0.84375 -4.156311 -0.84375q-2.5625 -0.0625 -4.015625 0.65625q-1.4375 0.71875 -2.0 2.671875q-0.5625 1.9375 -0.5625 5.625q0 3.890625 0.6875 6.0q0.6875 2.09375 2.34375 2.90625q1.671875 0.8125 4.609375 0.8125q2.125061 0 5.296936 -0.15625q3.171875 -0.15625 6.359375 -0.53125l0.875 5.703125q-1.8125 0.875 -4.140625 1.375q-2.3125 0.5 -4.765625 0.71875q-2.437561 0.21875 -4.687561 0.21875q-5.890625 0 -9.46875 -1.71875q-3.5625 -1.71875 -5.171875 -5.296875q-1.59375 -3.578125 -1.59375 -9.140625q0 -6.078125 1.59375 -9.65625q1.609375 -3.578125 5.109375 -5.140625q3.515625 -1.5625 9.21875 -1.5625zm32.775574 -7.765625l0 29.625q0 1.703125 0.78125 2.421875q0.78125 0.71875 2.59375 0.71875l4.015625 0l1.0 6.265625q-1.125 0.375 -2.765625 0.65625q-1.625 0.28125 -3.25 0.40625q-1.625 0.125 -2.765625 0.125q-4.1875 0 -6.546875 -2.21875q-2.34375 -2.234375 -2.34375 -6.296875l0 -31.703125l9.28125 0zm8.640625 8.578125l0 6.078125l-23.3125 0l0 -5.765625l6.015625 -0.3125l17.296875 0zm34.894836 -0.8125q3.890625 0 6.578125 1.03125q2.703125 1.03125 4.109375 3.515625q1.40625 2.46875 1.40625 6.734375l0 20.484375l-7.328125 0l-1.3125 -6.703125l-0.625 -0.9375l0 -12.84375q-0.0625 -2.265625 -1.109375 -3.234375q-1.03125 -0.96875 -3.84375 -0.96875q-2.453125 0 -6.03125 0.15625q-3.5625 0.15625 -7.3125 0.40625l-0.8125 -6.140625q2.25 -0.4375 5.15625 -0.75q2.921875 -0.3125 5.859375 -0.53125q2.953125 -0.21875 5.265625 -0.21875zm8.28125 12.71875l-0.0625 5.203125l-13.796875 0q-1.6875 0.0625 -2.40625 0.875q-0.71875 0.8125 -0.71875 2.1875l0 1.515625q0 1.5625 0.875 2.40625q0.875 0.84375 2.8125 0.84375q1.640625 0 3.546875 -0.6875q1.90625 -0.6875 3.78125 -1.9375q1.890625 -1.265625 3.390625 -2.953125l0 4.015625q-0.5625 0.9375 -1.6875 2.34375q-1.125 1.40625 -2.828125 2.765625q-1.6875 1.34375 -3.953125 2.25q-2.25 0.90625 -5.125 0.90625q-2.75 0 -5.046875 -0.96875q-2.28125 -0.96875 -3.609375 -2.90625q-1.3125 -1.953125 -1.3125 -4.828125l0 -3.203125q0 -3.6875 2.5 -5.75q2.515625 -2.078125 6.90625 -2.078125l16.734375 0zm22.854675 -12.71875q2.265625 0 4.890625 0.15625q2.640625 0.15625 5.140625 0.40625q2.5 0.25 4.453125 0.625l-0.625 5.765625q-3.015625 -0.0625 -6.0625 -0.125q-3.03125 -0.0625 -5.90625 -0.0625q-2.453125 0 -3.765625 0.09375q-1.3125 0.09375 -1.84375 0.5625q-0.53125 0.46875 -0.53125 1.65625q0 1.453125 0.9375 1.921875q0.9375 0.46875 3.125 1.03125l8.09375 1.9375q3.875 1.0 5.75 2.984375q1.890625 1.96875 1.890625 5.921875q0 3.875 -1.453125 5.953125q-1.4375 2.0625 -4.578125 2.84375q-3.125 0.78125 -8.0625 0.78125q-1.953125 0 -5.78125 -0.1875q-3.8125 -0.1875 -8.328125 -0.9375l0.578125 -5.765625q1.1875 0.0625 2.90625 0.09375q1.71875 0.03125 3.78125 0.03125q2.078125 0 4.140625 0q3.265625 0 4.953125 -0.15625q1.6875 -0.15625 2.3125 -0.71875q0.640625 -0.5625 0.640625 -1.6875q0 -1.453125 -1.078125 -1.921875q-1.0625 -0.46875 -3.375 -1.09375l-7.828125 -1.9375q-3.015625 -0.8125 -4.640625 -2.0625q-1.625 -1.265625 -2.296875 -3.046875q-0.65625 -1.78125 -0.65625 -4.296875q0 -3.1875 1.3125 -5.125q1.328125 -1.953125 4.203125 -2.796875q2.890625 -0.84375 7.703125 -0.84375z" fill-rule="nonzero"/><path fill="#000000" d="m340.03458 748.07153q1.6875 0 3.6875 0.15625q2.015625 0.15625 4.046875 0.5625q2.03125 0.40625 3.734375 1.15625l-1.0 5.828125q-2.515625 -0.125 -4.8125 -0.15625q-2.28125 -0.03125 -4.09375 -0.03125q-2.8125 0 -4.453125 0.75q-1.625 0.75 -2.34375 2.640625q-0.71875 1.875 -0.71875 5.328125q0 3.4375 0.71875 5.390625q0.71875 1.9375 2.34375 2.6875q1.640625 0.75 4.453125 0.75q1.0 0 2.5625 -0.0625q1.578125 -0.0625 3.390625 -0.15625q1.8125 -0.09375 3.578125 -0.34375l0.875 5.890625q-2.515625 1.125 -5.71875 1.625q-3.1875 0.5 -6.3125 0.5q-5.703125 0 -9.15625 -1.59375q-3.4375 -1.59375 -4.953125 -5.171875q-1.5 -3.578125 -1.5 -9.515625q0 -5.953125 1.53125 -9.53125q1.546875 -3.578125 4.984375 -5.140625q3.453125 -1.5625 9.15625 -1.5625zm26.563873 0.8125l0 20.359375q0 1.953125 0.84375 2.765625q0.84375 0.8125 2.734375 0.8125q1.9375 0 3.84375 -0.71875q1.921875 -0.71875 4.796875 -2.296875l0.6875 5.078125q-3.375 2.890625 -6.609375 4.328125q-3.21875 1.4375 -6.734375 1.4375q-8.765625 0 -8.765625 -8.578125l0 -23.1875l9.203125 0zm20.484375 0l0 30.953125l-7.265625 0l-1.0625 -6.078125l-0.9375 -0.875l0 -24.0l9.265625 0zm19.358215 -0.8125q2.265625 0 4.890625 0.15625q2.640625 0.15625 5.140625 0.40625q2.5 0.25 4.453125 0.625l-0.625 5.765625q-3.015625 -0.0625 -6.0625 -0.125q-3.03125 -0.0625 -5.90625 -0.0625q-2.453125 0 -3.765625 0.09375q-1.3125 0.09375 -1.84375 0.5625q-0.53125 0.46875 -0.53125 1.65625q0 1.453125 0.9375 1.921875q0.9375 0.46875 3.125 1.03125l8.09375 1.9375q3.875 1.0 5.75 2.984375q1.890625 1.96875 1.890625 5.921875q0 3.875 -1.453125 5.953125q-1.4375 2.0625 -4.578125 2.84375q-3.125 0.78125 -8.0625 0.78125q-1.953125 0 -5.78125 -0.1875q-3.8125 -0.1875 -8.328125 -0.9375l0.578125 -5.765625q1.1875 0.0625 2.90625 0.09375q1.71875 0.03125 3.78125 0.03125q2.078125 0 4.140625 0q3.265625 0 4.953125 -0.15625q1.6875 -0.15625 2.3125 -0.71875q0.640625 -0.5625 0.640625 -1.6875q0 -1.453125 -1.078125 -1.921875q-1.0625 -0.46875 -3.375 -1.09375l-7.828125 -1.9375q-3.015625 -0.8125 -4.640625 -2.0625q-1.625 -1.265625 -2.296875 -3.046875q-0.65625 -1.78125 -0.65625 -4.296875q0 -3.1875 1.3125 -5.125q1.328125 -1.953125 4.203125 -2.796875q2.890625 -0.84375 7.703125 -0.84375zm33.59854 -7.765625l0 29.625q0 1.703125 0.78125 2.421875q0.78125 0.71875 2.59375 0.71875l4.015625 0l1.0 6.265625q-1.125 0.375 -2.765625 0.65625q-1.625 0.28125 -3.25 0.40625q-1.625 0.125 -2.765625 0.125q-4.1875 0 -6.546875 -2.21875q-2.34375 -2.234375 -2.34375 -6.296875l0 -31.703125l9.28125 0zm8.640625 8.578125l0 6.078125l-23.3125 0l0 -5.765625l6.015625 -0.3125l17.296875 0zm19.6734 -0.8125q5.828125 0 9.328125 1.59375q3.515625 1.59375 5.046875 5.171875q1.53125 3.578125 1.53125 9.59375q0 5.875 -1.53125 9.453125q-1.53125 3.578125 -5.046875 5.140625q-3.5 1.5625 -9.328125 1.5625q-5.765625 0 -9.28125 -1.5625q-3.5 -1.5625 -5.078125 -5.140625q-1.5625 -3.578125 -1.5625 -9.453125q0 -6.015625 1.5625 -9.59375q1.578125 -3.578125 5.078125 -5.171875q3.515625 -1.59375 9.28125 -1.59375zm0 6.703125q-2.375 0 -3.765625 0.8125q-1.375 0.8125 -1.9375 2.890625q-0.5625 2.0625 -0.5625 5.953125q0 3.75 0.5625 5.828125q0.5625 2.0625 1.9375 2.84375q1.390625 0.78125 3.765625 0.78125q2.4375 0 3.8125 -0.78125q1.390625 -0.78125 1.921875 -2.84375q0.53125 -2.078125 0.53125 -5.828125q0 -3.890625 -0.53125 -5.953125q-0.53125 -2.078125 -1.921875 -2.890625q-1.375 -0.8125 -3.8125 -0.8125zm61.467133 -6.703125q4.203125 0 6.390625 2.203125q2.1875 2.1875 2.1875 6.375l0 23.1875l-9.140625 0l0 -20.296875q-0.0625 -1.953125 -0.8125 -2.796875q-0.75 -0.84375 -2.640625 -0.84375q-1.0625 0 -2.09375 0.28125q-1.03125 0.28125 -2.359375 0.96875q-1.3125 0.6875 -3.1875 1.890625l-0.5 -5.078125q3.0 -2.953125 5.90625 -4.421875q2.921875 -1.46875 6.25 -1.46875zm-31.828125 0.8125l0.9375 6.140625l0.9375 0.8125l0 24.0l-9.203125 0l0 -30.953125l7.328125 0zm12.53125 -0.8125q4.125 0 6.28125 2.171875q2.171875 2.15625 2.171875 6.40625l0 23.1875l-8.890625 0l0 -20.296875q0 -2.015625 -0.859375 -2.828125q-0.84375 -0.8125 -2.59375 -0.8125q-1.0625 0 -2.09375 0.28125q-1.03125 0.28125 -2.390625 0.96875q-1.34375 0.6875 -3.28125 1.890625l-0.5625 -5.078125q3.0625 -2.953125 5.9375 -4.421875q2.890625 -1.46875 6.28125 -1.46875zm54.437073 3.4375q1.828125 0 2.546875 0.734375q0.71875 0.71875 0.71875 2.53125l0 3.0q0 1.828125 -0.71875 2.546875q-0.71875 0.71875 -2.546875 0.71875l-2.375 0q-1.8125 0 -2.53125 -0.71875q-0.71875 -0.71875 -0.71875 -2.546875l0 -3.0q0 -1.8125 0.71875 -2.53125q0.71875 -0.734375 2.53125 -0.734375l2.375 0zm-0.25 18.796875q1.828125 0 2.515625 0.734375q0.6875 0.71875 0.75 2.53125l0 4.015625q0 2.4375 -0.40625 4.4375q-0.40625 2.015625 -1.09375 3.703125q-0.6875 1.6875 -1.703125 3.3125l-3.6875 -1.1875q0.5 -2.0 0.6875 -3.921875q0.1875 -1.90625 0.1875 -4.09375q-2.5625 0 -2.625 -2.875l0.0625 -3.390625q0.0625 -1.8125 0.78125 -2.53125q0.71875 -0.734375 2.46875 -0.734375l2.0625 0zm16.352661 -18.796875q1.828125 0 2.546875 0.734375q0.71875 0.71875 0.71875 2.53125l0 3.0q0 1.828125 -0.71875 2.546875q-0.71875 0.71875 -2.546875 0.71875l-2.375 0q-1.8125 0 -2.53125 -0.71875q-0.71875 -0.71875 -0.71875 -2.546875l0 -3.0q0 -1.8125 0.71875 -2.53125q0.71875 -0.734375 2.53125 -0.734375l2.375 0zm-0.25 18.796875q1.828125 0 2.515625 0.734375q0.6875 0.71875 0.75 2.53125l0 4.015625q0 2.4375 -0.40625 4.4375q-0.40625 2.015625 -1.09375 3.703125q-0.6875 1.6875 -1.703125 3.3125l-3.6875 -1.1875q0.5 -2.0 0.6875 -3.921875q0.1875 -1.90625 0.1875 -4.09375q-2.5625 0 -2.625 -2.875l0.0625 -3.390625q0.0625 -1.8125 0.78125 -2.53125q0.71875 -0.734375 2.46875 -0.734375l2.0625 0z" fill-rule="nonzero"/><path fill="#000000" d="m396.95593 810.8528q4.515625 0 7.765625 0.78125q3.265625 0.78125 5.078125 2.953125q1.8125 2.15625 1.8125 6.296875q0 2.5 -0.59375 4.609375q-0.59375 2.09375 -2.140625 4.34375q-1.53125 2.25 -4.40625 5.328125l-11.34375 11.71875q1.5625 -0.25 3.15625 -0.34375q1.609375 -0.09375 3.234375 -0.09375l13.34375 0l0 8.390625l-30.953125 0l0 -5.140625q0 -1.125 0.3125 -2.09375q0.328125 -0.96875 1.078125 -1.78125l10.765625 -11.53125q3.828125 -3.953125 5.828125 -7.046875q2.015625 -3.109375 1.953125 -5.359375q0 -1.375 -0.703125 -1.96875q-0.6875 -0.609375 -1.96875 -0.828125q-1.28125 -0.21875 -3.28125 -0.21875q-2.140625 0 -4.046875 0.03125q-1.90625 0.03125 -4.078125 0.15625q-2.15625 0.125 -5.03125 0.375l-0.453125 -7.078125q3.140625 -0.6875 5.609375 -1.0q2.484375 -0.3125 4.671875 -0.40625q2.1875 -0.09375 4.390625 -0.09375zm27.434479 34.453125q1.828125 0 2.546875 0.734375q0.71875 0.71875 0.71875 2.53125l0 3.0q0 1.828125 -0.71875 2.546875q-0.71875 0.71875 -2.546875 0.71875l-2.375 0q-1.8125 0 -2.53125 -0.71875q-0.71875 -0.71875 -0.71875 -2.546875l0 -3.0q0 -1.8125 0.71875 -2.53125q0.71875 -0.734375 2.53125 -0.734375l2.375 0z" fill-rule="nonzero"/><path fill="#000000" d="m176.84027 886.1028q5.640625 0 8.984375 0.96875q3.359375 0.96875 4.859375 3.421875q1.515625 2.4375 1.515625 6.890625q0 4.640625 -1.796875 7.046875q-1.78125 2.40625 -5.84375 2.78125l0 0.3125q5.0 0.453125 7.0 3.390625q2.015625 2.9375 2.015625 8.140625q0 4.453125 -1.546875 6.90625q-1.53125 2.4375 -4.765625 3.40625q-3.21875 0.96875 -8.40625 0.96875q-4.203125 0 -7.3125 -0.03125q-3.09375 -0.03125 -5.703125 -0.15625q-2.59375 -0.125 -5.34375 -0.3125l0.9375 -6.640625q1.5 0.0625 5.75 0.125q4.265625 0.0625 9.96875 0.0625q2.703125 0 4.171875 -0.5q1.46875 -0.5 2.0625 -1.84375q0.59375 -1.359375 0.59375 -3.859375q0 -2.6875 -0.625 -4.125q-0.625 -1.453125 -2.125 -2.015625q-1.5 -0.5625 -4.265625 -0.5625l-15.59375 0l0 -6.078125l15.46875 0q2.390625 -0.0625 3.734375 -0.5q1.34375 -0.4375 1.90625 -1.6875q0.5625 -1.265625 0.5625 -3.578125q0 -2.3125 -0.59375 -3.5q-0.59375 -1.203125 -2.0625 -1.640625q-1.46875 -0.4375 -4.046875 -0.4375q-3.5 0 -6.203125 -0.03125q-2.6875 -0.03125 -4.796875 0q-2.09375 0.03125 -3.90625 0.21875l-0.9375 -6.640625q2.5 -0.25 4.8125 -0.34375q2.328125 -0.09375 5.078125 -0.125q2.765625 -0.03125 6.453125 -0.03125zm-7.015625 0.5l0 43.234375l-9.328125 0l0 -43.234375l9.328125 0zm44.80307 11.46875q7.828125 0 11.234375 2.671875q3.421875 2.65625 3.421875 7.921875q0.0625 4.1875 -2.125 6.328125q-2.1875 2.125 -7.578125 2.125l-17.296875 0l0 -5.203125l14.78125 0q2.078125 0 2.671875 -0.90625q0.59375 -0.90625 0.59375 -2.53125q0 -2.203125 -1.234375 -3.046875q-1.21875 -0.84375 -4.15625 -0.84375q-2.5625 -0.0625 -4.015625 0.65625q-1.4375 0.71875 -2.0 2.671875q-0.5625 1.9375 -0.5625 5.625q0 3.890625 0.6875 6.0q0.6875 2.09375 2.34375 2.90625q1.671875 0.8125 4.609375 0.8125q2.125 0 5.296875 -0.15625q3.171875 -0.15625 6.359375 -0.53125l0.875 5.703125q-1.8125 0.875 -4.140625 1.375q-2.3125 0.5 -4.765625 0.71875q-2.4375 0.21875 -4.6875 0.21875q-5.890625 0 -9.46875 -1.71875q-3.5625 -1.71875 -5.171875 -5.296875q-1.59375 -3.578125 -1.59375 -9.140625q0 -6.078125 1.59375 -9.65625q1.609375 -3.578125 5.109375 -5.140625q3.515625 -1.5625 9.21875 -1.5625zm32.775574 -7.765625l0 29.625q0 1.703125 0.78125 2.421875q0.78125 0.71875 2.59375 0.71875l4.015625 0l1.0 6.265625q-1.125 0.375 -2.765625 0.65625q-1.625 0.28125 -3.25 0.40625q-1.625 0.125 -2.765625 0.125q-4.1875 0 -6.546875 -2.21875q-2.34375 -2.234375 -2.34375 -6.296875l0 -31.703125l9.28125 0zm8.640625 8.578125l0 6.078125l-23.3125 0l0 -5.765625l6.015625 -0.3125l17.296875 0zm53.439026 0l-7.640625 28.515625q-0.25 1.125 -1.125 1.78125q-0.875 0.65625 -2.0625 0.65625l-7.03125 0q-1.25 0 -2.1875 -0.78125q-0.9375 -0.78125 -1.0625 -2.03125l-3.453125 -17.484375q-0.1875 -1.3125 -0.3125 -2.5625q-0.125 -1.265625 -0.375 -2.578125l-0.75 0q-0.1875 1.3125 -0.375 2.578125q-0.1875 1.25 -0.375 2.5625l-3.375 17.484375q-0.203125 1.25 -1.140625 2.03125q-0.9375 0.78125 -2.1875 0.78125l-6.953125 0q-1.125 0 -2.015625 -0.65625q-0.875 -0.65625 -1.125 -1.78125l-7.640625 -28.515625l9.28125 0l4.25 20.046875q0.25 1.25 0.4375 2.546875q0.1875 1.28125 0.3125 2.53125l0.828125 0q0.1875 -1.25 0.40625 -2.53125q0.21875 -1.296875 0.40625 -2.546875l3.4375 -17.28125q0.125 -1.203125 1.03125 -1.984375q0.921875 -0.78125 2.171875 -0.78125l6.015625 0q1.25 0 2.15625 0.78125q0.90625 0.78125 1.09375 2.046875l3.328125 17.21875q0.1875 1.25 0.4375 2.515625q0.25 1.25 0.4375 2.5625l0.75 0q0.25 -1.3125 0.40625 -2.53125q0.15625 -1.234375 0.40625 -2.546875l4.265625 -20.046875l9.328125 0zm19.116272 -0.8125q7.828125 0 11.234375 2.671875q3.421875 2.65625 3.421875 7.921875q0.0625 4.1875 -2.125 6.328125q-2.1875 2.125 -7.578125 2.125l-17.296875 0l0 -5.203125l14.78125 0q2.078125 0 2.671875 -0.90625q0.59375 -0.90625 0.59375 -2.53125q0 -2.203125 -1.234375 -3.046875q-1.21875 -0.84375 -4.15625 -0.84375q-2.5625 -0.0625 -4.015625 0.65625q-1.4375 0.71875 -2.0 2.671875q-0.5625 1.9375 -0.5625 5.625q0 3.890625 0.6875 6.0q0.6875 2.09375 2.34375 2.90625q1.671875 0.8125 4.609375 0.8125q2.125 0 5.296875 -0.15625q3.171875 -0.15625 6.359375 -0.53125l0.875 5.703125q-1.8125 0.875 -4.140625 1.375q-2.3125 0.5 -4.765625 0.71875q-2.4375 0.21875 -4.6875 0.21875q-5.890625 0 -9.46875 -1.71875q-3.5625 -1.71875 -5.171875 -5.296875q-1.59375 -3.578125 -1.59375 -9.140625q0 -6.078125 1.59375 -9.65625q1.609375 -3.578125 5.109375 -5.140625q3.515625 -1.5625 9.21875 -1.5625zm35.338074 0q7.828125 0 11.234375 2.671875q3.421875 2.65625 3.421875 7.921875q0.0625 4.1875 -2.125 6.328125q-2.1875 2.125 -7.578125 2.125l-17.296875 0l0 -5.203125l14.78125 0q2.078125 0 2.671875 -0.90625q0.59375 -0.90625 0.59375 -2.53125q0 -2.203125 -1.234375 -3.046875q-1.21875 -0.84375 -4.15625 -0.84375q-2.5625 -0.0625 -4.015625 0.65625q-1.4375 0.71875 -2.0 2.671875q-0.5625 1.9375 -0.5625 5.625q0 3.890625 0.6875 6.0q0.6875 2.09375 2.34375 2.90625q1.671875 0.8125 4.609375 0.8125q2.125 0 5.296875 -0.15625q3.171875 -0.15625 6.359375 -0.53125l0.875 5.703125q-1.8125 0.875 -4.140625 1.375q-2.3125 0.5 -4.765625 0.71875q-2.4375 0.21875 -4.6875 0.21875q-5.890625 0 -9.46875 -1.71875q-3.5625 -1.71875 -5.171875 -5.296875q-1.59375 -3.578125 -1.59375 -9.140625q0 -6.078125 1.59375 -9.65625q1.609375 -3.578125 5.109375 -5.140625q3.515625 -1.5625 9.21875 -1.5625zm42.2287 0q8.765625 0 8.765625 8.578125l0 23.1875l-9.265625 0l0 -20.296875q0 -2.078125 -0.75 -2.859375q-0.75 -0.78125 -2.578125 -0.78125q-2.0 0 -4.140625 0.78125q-2.125 0.78125 -5.25 2.359375l-0.4375 -5.140625q3.3125 -2.828125 6.78125 -4.328125q3.484375 -1.5 6.875 -1.5zm-14.09375 0.8125l1.0625 6.140625l0.75 0.8125l0 24.0l-9.203125 0l0 -30.953125l7.390625 0zm51.065216 0l1.125 6.140625l0.875 0.8125l0 24.0l-9.203125 0l0 -30.953125l7.203125 0zm15.09375 -0.8125l-0.875 8.515625l-2.5625 0q-2.203125 0 -4.578125 0.625q-2.375 0.625 -6.015625 1.953125l-0.625 -5.203125q3.25 -2.890625 6.5625 -4.390625q3.328125 -1.5 6.46875 -1.5l1.625 0zm18.612244 0q5.828125 0 9.328125 1.59375q3.515625 1.59375 5.046875 5.171875q1.53125 3.578125 1.53125 9.59375q0 5.875 -1.53125 9.453125q-1.53125 3.578125 -5.046875 5.140625q-3.5 1.5625 -9.328125 1.5625q-5.765625 0 -9.28125 -1.5625q-3.5 -1.5625 -5.078125 -5.140625q-1.5625 -3.578125 -1.5625 -9.453125q0 -6.015625 1.5625 -9.59375q1.578125 -3.578125 5.078125 -5.171875q3.515625 -1.59375 9.28125 -1.59375zm0 6.703125q-2.375 0 -3.765625 0.8125q-1.375 0.8125 -1.9375 2.890625q-0.5625 2.0625 -0.5625 5.953125q0 3.75 0.5625 5.828125q0.5625 2.0625 1.9375 2.84375q1.390625 0.78125 3.765625 0.78125q2.4375 0 3.8125 -0.78125q1.390625 -0.78125 1.921875 -2.84375q0.53125 -2.078125 0.53125 -5.828125q0 -3.890625 -0.53125 -5.953125q-0.53125 -2.078125 -1.921875 -2.890625q-1.375 -0.8125 -3.8125 -0.8125zm70.41943 -5.890625l-7.640625 28.515625q-0.25 1.125 -1.125 1.78125q-0.875 0.65625 -2.0625 0.65625l-7.03125 0q-1.25 0 -2.1875 -0.78125q-0.9375 -0.78125 -1.0625 -2.03125l-3.453125 -17.484375q-0.1875 -1.3125 -0.3125 -2.5625q-0.125 -1.265625 -0.375 -2.578125l-0.75 0q-0.1875 1.3125 -0.375 2.578125q-0.1875 1.25 -0.375 2.5625l-3.375 17.484375q-0.203125 1.25 -1.140625 2.03125q-0.9375 0.78125 -2.1875 0.78125l-6.953125 0q-1.125 0 -2.015625 -0.65625q-0.875 -0.65625 -1.125 -1.78125l-7.640625 -28.515625l9.28125 0l4.25 20.046875q0.25 1.25 0.4375 2.546875q0.1875 1.28125 0.3125 2.53125l0.828125 0q0.1875 -1.25 0.40625 -2.53125q0.21875 -1.296875 0.40625 -2.546875l3.4375 -17.28125q0.125 -1.203125 1.03125 -1.984375q0.921875 -0.78125 2.171875 -0.78125l6.015625 0q1.25 0 2.15625 0.78125q0.90625 0.78125 1.09375 2.046875l3.328125 17.21875q0.1875 1.25 0.4375 2.515625q0.25 1.25 0.4375 2.5625l0.75 0q0.25 -1.3125 0.40625 -2.53125q0.15625 -1.234375 0.40625 -2.546875l4.265625 -20.046875l9.328125 0zm16.539001 -0.8125q2.265625 0 4.890625 0.15625q2.640625 0.15625 5.140625 0.40625q2.5 0.25 4.453125 0.625l-0.625 5.765625q-3.015625 -0.0625 -6.0625 -0.125q-3.03125 -0.0625 -5.90625 -0.0625q-2.453125 0 -3.765625 0.09375q-1.3125 0.09375 -1.84375 0.5625q-0.53125 0.46875 -0.53125 1.65625q0 1.453125 0.9375 1.921875q0.9375 0.46875 3.125 1.03125l8.09375 1.9375q3.875 1.0 5.75 2.984375q1.890625 1.96875 1.890625 5.921875q0 3.875 -1.453125 5.953125q-1.4375 2.0625 -4.578125 2.84375q-3.125 0.78125 -8.0625 0.78125q-1.953125 0 -5.78125 -0.1875q-3.8125 -0.1875 -8.328125 -0.9375l0.578125 -5.765625q1.1875 0.0625 2.90625 0.09375q1.71875 0.03125 3.78125 0.03125q2.078125 0 4.140625 0q3.265625 0 4.953125 -0.15625q1.6875 -0.15625 2.3125 -0.71875q0.640625 -0.5625 0.640625 -1.6875q0 -1.453125 -1.078125 -1.921875q-1.0625 -0.46875 -3.375 -1.09375l-7.828125 -1.9375q-3.015625 -0.8125 -4.640625 -2.0625q-1.625 -1.265625 -2.296875 -3.046875q-0.65625 -1.78125 -0.65625 -4.296875q0 -3.1875 1.3125 -5.125q1.328125 -1.953125 4.203125 -2.796875q2.890625 -0.84375 7.703125 -0.84375zm44.55432 0.8125l0 30.953125l-9.140625 0l0 -30.953125l9.140625 0zm-2.5625 -13.65625q2.75 0 2.75 2.75l0 3.390625q0 2.75 -2.75 2.75l-4.015625 0q-2.75 0 -2.75 -2.75l0 -3.390625q0 -2.75 2.75 -2.75l4.015625 0zm22.16809 12.84375q2.265625 0 4.890625 0.15625q2.640625 0.15625 5.140625 0.40625q2.5 0.25 4.453125 0.625l-0.625 5.765625q-3.015625 -0.0625 -6.0625 -0.125q-3.03125 -0.0625 -5.90625 -0.0625q-2.453125 0 -3.765625 0.09375q-1.3125 0.09375 -1.84375 0.5625q-0.53125 0.46875 -0.53125 1.65625q0 1.453125 0.9375 1.921875q0.9375 0.46875 3.125 1.03125l8.09375 1.9375q3.875 1.0 5.75 2.984375q1.890625 1.96875 1.890625 5.921875q0 3.875 -1.453125 5.953125q-1.4375 2.0625 -4.578125 2.84375q-3.125 0.78125 -8.0625 0.78125q-1.953125 0 -5.78125 -0.1875q-3.8125 -0.1875 -8.328125 -0.9375l0.578125 -5.765625q1.1875 0.0625 2.90625 0.09375q1.71875 0.03125 3.78125 0.03125q2.078125 0 4.140625 0q3.265625 0 4.953125 -0.15625q1.6875 -0.15625 2.3125 -0.71875q0.640625 -0.5625 0.640625 -1.6875q0 -1.453125 -1.078125 -1.921875q-1.0625 -0.46875 -3.375 -1.09375l-7.828125 -1.9375q-3.015625 -0.8125 -4.640625 -2.0625q-1.625 -1.265625 -2.296875 -3.046875q-0.65625 -1.78125 -0.65625 -4.296875q0 -3.1875 1.3125 -5.125q1.328125 -1.953125 4.203125 -2.796875q2.890625 -0.84375 7.703125 -0.84375zm46.86682 0q2.265625 0 4.890625 0.15625q2.640625 0.15625 5.140625 0.40625q2.5 0.25 4.453125 0.625l-0.625 5.765625q-3.015625 -0.0625 -6.0625 -0.125q-3.03125 -0.0625 -5.90625 -0.0625q-2.453125 0 -3.765625 0.09375q-1.3125 0.09375 -1.84375 0.5625q-0.53125 0.46875 -0.53125 1.65625q0 1.453125 0.9375 1.921875q0.9375 0.46875 3.125 1.03125l8.09375 1.9375q3.875 1.0 5.75 2.984375q1.890625 1.96875 1.890625 5.921875q0 3.875 -1.453125 5.953125q-1.4375 2.0625 -4.578125 2.84375q-3.125 0.78125 -8.0625 0.78125q-1.953125 0 -5.78125 -0.1875q-3.8125 -0.1875 -8.328125 -0.9375l0.578125 -5.765625q1.1875 0.0625 2.90625 0.09375q1.71875 0.03125 3.78125 0.03125q2.078125 0 4.140625 0q3.265625 0 4.953125 -0.15625q1.6875 -0.15625 2.3125 -0.71875q0.640625 -0.5625 0.640625 -1.6875q0 -1.453125 -1.078125 -1.921875q-1.0625 -0.46875 -3.375 -1.09375l-7.828125 -1.9375q-3.015625 -0.8125 -4.640625 -2.0625q-1.625 -1.265625 -2.296875 -3.046875q-0.65625 -1.78125 -0.65625 -4.296875q0 -3.1875 1.3125 -5.125q1.328125 -1.953125 4.203125 -2.796875q2.890625 -0.84375 7.703125 -0.84375zm36.16107 0q7.828125 0 11.234375 2.671875q3.421875 2.65625 3.421875 7.921875q0.0625 4.1875 -2.125 6.328125q-2.1875 2.125 -7.578125 2.125l-17.296875 0l0 -5.203125l14.78125 0q2.078125 0 2.671875 -0.90625q0.59375 -0.90625 0.59375 -2.53125q0 -2.203125 -1.234375 -3.046875q-1.21875 -0.84375 -4.15625 -0.84375q-2.5625 -0.0625 -4.015625 0.65625q-1.4375 0.71875 -2.0 2.671875q-0.5625 1.9375 -0.5625 5.625q0 3.890625 0.6875 6.0q0.6875 2.09375 2.34375 2.90625q1.671875 0.8125 4.609375 0.8125q2.125 0 5.296875 -0.15625q3.171875 -0.15625 6.359375 -0.53125l0.875 5.703125q-1.8125 0.875 -4.140625 1.375q-2.3125 0.5 -4.765625 0.71875q-2.4375 0.21875 -4.6875 0.21875q-5.890625 0 -9.46875 -1.71875q-3.5625 -1.71875 -5.171875 -5.296875q-1.59375 -3.578125 -1.59375 -9.140625q0 -6.078125 1.59375 -9.65625q1.609375 -3.578125 5.109375 -5.140625q3.515625 -1.5625 9.21875 -1.5625zm32.775574 -7.765625l0 29.625q0 1.703125 0.78125 2.421875q0.78125 0.71875 2.59375 0.71875l4.015625 0l1.0 6.265625q-1.125 0.375 -2.765625 0.65625q-1.625 0.28125 -3.25 0.40625q-1.625 0.125 -2.765625 0.125q-4.1875 0 -6.546875 -2.21875q-2.34375 -2.234375 -2.34375 -6.296875l0 -31.703125l9.28125 0zm8.640625 8.578125l0 6.078125l-23.3125 0l0 -5.765625l6.015625 -0.3125l17.296875 0z" fill-rule="nonzero"/><path fill="#000000" d="m300.68167 973.07153q3.890625 0 6.578125 1.03125q2.703125 1.03125 4.109375 3.515625q1.40625 2.46875 1.40625 6.734375l0 20.484375l-7.328125 0l-1.3125 -6.703125l-0.625 -0.9375l0 -12.84375q-0.0625 -2.265625 -1.109375 -3.234375q-1.03125 -0.96875 -3.84375 -0.96875q-2.453125 0 -6.03125 0.15625q-3.5625 0.15625 -7.3125 0.40625l-0.8125 -6.140625q2.25 -0.4375 5.15625 -0.75q2.921875 -0.3125 5.859375 -0.53125q2.953125 -0.21875 5.265625 -0.21875zm8.28125 12.71875l-0.0625 5.203125l-13.796875 0q-1.6875 0.0625 -2.40625 0.875q-0.71875 0.8125 -0.71875 2.1875l0 1.515625q0 1.5625 0.875 2.40625q0.875 0.84375 2.8125 0.84375q1.640625 0 3.546875 -0.6875q1.90625 -0.6875 3.78125 -1.9375q1.890625 -1.265625 3.390625 -2.953125l0 4.015625q-0.5625 0.9375 -1.6875 2.34375q-1.125 1.40625 -2.828125 2.765625q-1.6875 1.34375 -3.953125 2.25q-2.25 0.90625 -5.125 0.90625q-2.75 0 -5.046875 -0.96875q-2.28125 -0.96875 -3.609375 -2.90625q-1.3125 -1.953125 -1.3125 -4.828125l0 -3.203125q0 -3.6875 2.5 -5.75q2.515625 -2.078125 6.90625 -2.078125l16.734375 0zm22.854645 -12.71875q2.265625 0 4.890625 0.15625q2.640625 0.15625 5.140625 0.40625q2.5 0.25 4.453125 0.625l-0.625 5.765625q-3.015625 -0.0625 -6.0625 -0.125q-3.03125 -0.0625 -5.90625 -0.0625q-2.453125 0 -3.765625 0.09375q-1.3125 0.09375 -1.84375 0.5625q-0.53125 0.46875 -0.53125 1.65625q0 1.453125 0.9375 1.921875q0.9375 0.46875 3.125 1.03125l8.09375 1.9375q3.875 1.0 5.75 2.984375q1.890625 1.96875 1.890625 5.921875q0 3.875 -1.453125 5.953125q-1.4375 2.0625 -4.578125 2.84375q-3.125 0.78125 -8.0625 0.78125q-1.953125 0 -5.78125 -0.1875q-3.8125 -0.1875 -8.328125 -0.9375l0.578125 -5.765625q1.1875 0.0625 2.90625 0.09375q1.71875 0.03125 3.78125 0.03125q2.078125 0 4.140625 0q3.265625 0 4.953125 -0.15625q1.6875 -0.15625 2.3125 -0.71875q0.640625 -0.5625 0.640625 -1.6875q0 -1.453125 -1.078125 -1.921875q-1.0625 -0.46875 -3.375 -1.09375l-7.828125 -1.9375q-3.015625 -0.8125 -4.640625 -2.0625q-1.625 -1.265625 -2.296875 -3.046875q-0.65625 -1.78125 -0.65625 -4.296875q0 -3.1875 1.3125 -5.125q1.328125 -1.953125 4.203125 -2.796875q2.890625 -0.84375 7.703125 -0.84375zm49.507446 0q1.6875 0 3.6875 0.15625q2.015625 0.15625 4.046875 0.5625q2.03125 0.40625 3.734375 1.15625l-1.0 5.828125q-2.515625 -0.125 -4.8125 -0.15625q-2.28125 -0.03125 -4.09375 -0.03125q-2.8125 0 -4.453125 0.75q-1.625 0.75 -2.34375 2.640625q-0.71875 1.875 -0.71875 5.328125q0 3.4375 0.71875 5.390625q0.71875 1.9375 2.34375 2.6875q1.640625 0.75 4.453125 0.75q1.0 0 2.5625 -0.0625q1.578125 -0.0625 3.390625 -0.15625q1.8125 -0.09375 3.578125 -0.34375l0.875 5.890625q-2.515625 1.125 -5.71875 1.625q-3.1875 0.5 -6.3125 0.5q-5.703125 0 -9.15625 -1.59375q-3.4375 -1.59375 -4.953125 -5.171875q-1.5 -3.578125 -1.5 -9.515625q0 -5.953125 1.53125 -9.53125q1.546875 -3.578125 4.984375 -5.140625q3.453125 -1.5625 9.15625 -1.5625zm26.563843 0.8125l0 20.359375q0 1.953125 0.84375 2.765625q0.84375 0.8125 2.734375 0.8125q1.9375 0 3.84375 -0.71875q1.921875 -0.71875 4.796875 -2.296875l0.6875 5.078125q-3.375 2.890625 -6.609375 4.328125q-3.21875 1.4375 -6.734375 1.4375q-8.765625 0 -8.765625 -8.578125l0 -23.1875l9.203125 0zm20.484375 0l0 30.953125l-7.265625 0l-1.0625 -6.078125l-0.9375 -0.875l0 -24.0l9.265625 0zm19.358215 -0.8125q2.265625 0 4.890625 0.15625q2.640625 0.15625 5.140625 0.40625q2.5 0.25 4.453125 0.625l-0.625 5.765625q-3.015625 -0.0625 -6.0625 -0.125q-3.03125 -0.0625 -5.90625 -0.0625q-2.453125 0 -3.765625 0.09375q-1.3125 0.09375 -1.84375 0.5625q-0.53125 0.46875 -0.53125 1.65625q0 1.453125 0.9375 1.921875q0.9375 0.46875 3.125 1.03125l8.09375 1.9375q3.875 1.0 5.75 2.984375q1.890625 1.96875 1.890625 5.921875q0 3.875 -1.453125 5.953125q-1.4375 2.0625 -4.578125 2.84375q-3.125 0.78125 -8.0625 0.78125q-1.953125 0 -5.78125 -0.1875q-3.8125 -0.1875 -8.328125 -0.9375l0.578125 -5.765625q1.1875 0.0625 2.90625 0.09375q1.71875 0.03125 3.78125 0.03125q2.078125 0 4.140625 0q3.265625 0 4.953125 -0.15625q1.6875 -0.15625 2.3125 -0.71875q0.640625 -0.5625 0.640625 -1.6875q0 -1.453125 -1.078125 -1.921875q-1.0625 -0.46875 -3.375 -1.09375l-7.828125 -1.9375q-3.015625 -0.8125 -4.640625 -2.0625q-1.625 -1.265625 -2.296875 -3.046875q-0.65625 -1.78125 -0.65625 -4.296875q0 -3.1875 1.3125 -5.125q1.328125 -1.953125 4.203125 -2.796875q2.890625 -0.84375 7.703125 -0.84375zm33.59857 -7.765625l0 29.625q0 1.703125 0.78125 2.421875q0.78125 0.71875 2.59375 0.71875l4.015625 0l1.0 6.265625q-1.125 0.375 -2.765625 0.65625q-1.625 0.28125 -3.25 0.40625q-1.625 0.125 -2.765625 0.125q-4.1875 0 -6.546875 -2.21875q-2.34375 -2.234375 -2.34375 -6.296875l0 -31.703125l9.28125 0zm8.640625 8.578125l0 6.078125l-23.3125 0l0 -5.765625l6.015625 -0.3125l17.296875 0zm19.6734 -0.8125q5.828125 0 9.328125 1.59375q3.515625 1.59375 5.046875 5.171875q1.53125 3.578125 1.53125 9.59375q0 5.875 -1.53125 9.453125q-1.53125 3.578125 -5.046875 5.140625q-3.5 1.5625 -9.328125 1.5625q-5.765625 0 -9.28125 -1.5625q-3.5 -1.5625 -5.078125 -5.140625q-1.5625 -3.578125 -1.5625 -9.453125q0 -6.015625 1.5625 -9.59375q1.578125 -3.578125 5.078125 -5.171875q3.515625 -1.59375 9.28125 -1.59375zm0 6.703125q-2.375 0 -3.765625 0.8125q-1.375 0.8125 -1.9375 2.890625q-0.5625 2.0625 -0.5625 5.953125q0 3.75 0.5625 5.828125q0.5625 2.0625 1.9375 2.84375q1.390625 0.78125 3.765625 0.78125q2.4375 0 3.8125 -0.78125q1.390625 -0.78125 1.921875 -2.84375q0.53125 -2.078125 0.53125 -5.828125q0 -3.890625 -0.53125 -5.953125q-0.53125 -2.078125 -1.921875 -2.890625q-1.375 -0.8125 -3.8125 -0.8125zm61.467102 -6.703125q4.203125 0 6.390625 2.203125q2.1875 2.1875 2.1875 6.375l0 23.1875l-9.140625 0l0 -20.296875q-0.0625 -1.953125 -0.8125 -2.796875q-0.75 -0.84375 -2.640625 -0.84375q-1.0625 0 -2.09375 0.28125q-1.03125 0.28125 -2.359375 0.96875q-1.3125 0.6875 -3.1875 1.890625l-0.5 -5.078125q3.0 -2.953125 5.90625 -4.421875q2.921875 -1.46875 6.25 -1.46875zm-31.828125 0.8125l0.9375 6.140625l0.9375 0.8125l0 24.0l-9.203125 0l0 -30.953125l7.328125 0zm12.53125 -0.8125q4.125 0 6.28125 2.171875q2.171875 2.15625 2.171875 6.40625l0 23.1875l-8.890625 0l0 -20.296875q0 -2.015625 -0.859375 -2.828125q-0.84375 -0.8125 -2.59375 -0.8125q-1.0625 0 -2.09375 0.28125q-1.03125 0.28125 -2.390625 0.96875q-1.34375 0.6875 -3.28125 1.890625l-0.5625 -5.078125q3.0625 -2.953125 5.9375 -4.421875q2.890625 -1.46875 6.28125 -1.46875zm53.999573 3.4375q1.828125 0 2.546875 0.734375q0.71875 0.71875 0.71875 2.53125l0 3.0q0 1.828125 -0.71875 2.546875q-0.71875 0.71875 -2.546875 0.71875l-2.375 0q-1.8125 0 -2.53125 -0.71875q-0.71875 -0.71875 -0.71875 -2.546875l0 -3.0q0 -1.8125 0.71875 -2.53125q0.71875 -0.734375 2.53125 -0.734375l2.375 0zm0 18.734375q1.828125 0 2.546875 0.734375q0.71875 0.71875 0.71875 2.53125l0 3.0q0 1.828125 -0.71875 2.546875q-0.71875 0.71875 -2.546875 0.71875l-2.375 0q-1.8125 0 -2.53125 -0.71875q-0.71875 -0.71875 -0.71875 -2.546875l0 -3.0q0 -1.8125 0.71875 -2.53125q0.71875 -0.734375 2.53125 -0.734375l2.375 0zm16.102661 -18.734375q1.828125 0 2.546875 0.734375q0.71875 0.71875 0.71875 2.53125l0 3.0q0 1.828125 -0.71875 2.546875q-0.71875 0.71875 -2.546875 0.71875l-2.375 0q-1.8125 0 -2.53125 -0.71875q-0.71875 -0.71875 -0.71875 -2.546875l0 -3.0q0 -1.8125 0.71875 -2.53125q0.71875 -0.734375 2.53125 -0.734375l2.375 0zm0 18.734375q1.828125 0 2.546875 0.734375q0.71875 0.71875 0.71875 2.53125l0 3.0q0 1.828125 -0.71875 2.546875q-0.71875 0.71875 -2.546875 0.71875l-2.375 0q-1.8125 0 -2.53125 -0.71875q-0.71875 -0.71875 -0.71875 -2.546875l0 -3.0q0 -1.8125 0.71875 -2.53125q0.71875 -0.734375 2.53125 -0.734375l2.375 0z" fill-rule="nonzero"/><path fill="#474946" d="m91.36483 457.72702l715.21265 0l-50.422485 40.90555l-628.42773 0l0 509.81573l-36.36242 29.499207z" fill-rule="evenodd"/><path stroke="#000000" stroke-width="1.0" stroke-linejoin="round" stroke-linecap="butt" d="m91.36483 457.72702l715.21265 0l-50.422485 40.90555l-628.42773 0l0 509.81573l-36.36242 29.499207z" fill-rule="evenodd"/><path fill="#c3c7cb" d="m91.91076 457.66403l715.2126 0l0 595.874l-715.2126 0zm31.634956 31.634949l0 532.6041l651.9427 0l0 -532.6041z" fill-rule="evenodd"/><g filter="url(#shadowFilter-p.1)"><use xlink:href="#p.1" transform="matrix(1.0 0.0 0.0 1.0 -11.313708398950084 -11.313708398950084)"/></g><defs><filter id="shadowFilter-p.1" filterUnits="userSpaceOnUse"><feGaussianBlur in="SourceAlpha" stdDeviation="12.0" result="blur"/><feComponentTransfer in="blur" color-interpolation-filters="sRGB"><feFuncR type="linear" slope="0" intercept="1.0"/><feFuncG type="linear" slope="0" intercept="1.0"/><feFuncB type="linear" slope="0" intercept="1.0"/><feFuncA type="linear" slope="1.0" intercept="0"/></feComponentTransfer></filter></defs><g id="p.1"><path fill="#c3c7cb" d="m3763.335 2002.2992l-2862.4883 0l0 -1844.5984l2862.4883 0z" fill-rule="evenodd"/></g><g filter="url(#shadowFilter-p.2)"><use xlink:href="#p.2" transform="matrix(1.0 0.0 0.0 1.0 12.727922047244103 12.72792204724395)"/></g><defs><filter id="shadowFilter-p.2" filterUnits="userSpaceOnUse"><feGaussianBlur in="SourceAlpha" stdDeviation="12.0" result="blur"/><feComponentTransfer in="blur" color-interpolation-filters="sRGB"><feFuncR type="linear" slope="0" intercept="0.0"/><feFuncG type="linear" slope="0" intercept="0.0"/><feFuncB type="linear" slope="0" intercept="0.0"/><feFuncA type="linear" slope="1.0" intercept="0"/></feComponentTransfer></filter></defs><g id="p.2"><path fill="#c3c7cb" d="m900.8468 157.70079l2862.4883 0l0 1844.5984l-2862.4883 0z" fill-rule="evenodd"/></g><path fill="#ffffff" d="m3329.8706 584.5722l-1991.1495 0l34.54651 -3.80719l1953.7593 0l0 -215.3125l2.84375 -0.31341553z" fill-rule="evenodd"/><path fill="#ffffff" d="m1340.3754 366.7533l1983.433 0l-68.34912 7.317444l-1906.5221 0l0 204.11237l-8.561768 0.916626z" fill-rule="evenodd"/><path fill="#000000" fill-opacity="0.0" d="m1340.3763 366.75305l1983.433 0l0 212.34644l-1983.433 0z" fill-rule="evenodd"/><path stroke="#868a8e" stroke-width="8.0" stroke-linejoin="round" stroke-linecap="butt" d="m1340.3763 366.75305l1983.433 0l0 212.34644l-1983.433 0z" fill-rule="evenodd"/><path fill="#0000aa" d="m917.94916 178.15486l2828.2834 0l0 126.80315l-2828.2834 0z" fill-rule="evenodd"/><path stroke="#ffffff" stroke-width="1.0" stroke-linejoin="round" stroke-linecap="butt" d="m917.94916 178.15486l2828.2834 0l0 126.80315l-2828.2834 0z" fill-rule="evenodd"/><path fill="#ffffff" d="m990.82416 215.8108q5.734375 0 5.96875 5.890625l1.890625 48.374985l-15.34375 0l-1.640625 -41.531235l-1.1875 0l-5.34375 27.687485q-0.796875 5.1875 -6.453125 5.1875l-8.8125 0q-5.578125 0 -6.53125 -5.1875l-5.421875 -27.687485l-1.171875 0l-1.34375 41.531235l-15.34375 0l1.890625 -48.374985q0.234375 -5.890625 5.984375 -5.890625l14.703125 0q5.5 0 6.453125 5.265625l3.9375 21.546875q0.3125 1.96875 0.5 4.015625q0.203125 2.046875 0.359375 4.09375l0.703125 0q0.234375 -2.046875 0.4375 -4.09375q0.203125 -2.046875 0.515625 -4.015625l3.6875 -21.546875q0.953125 -5.265625 6.53125 -5.265625l15.03125 0zm37.193176 13.84375q5.59375 0 9.40625 1.453125q3.8125 1.453125 5.8125 4.953125q2.015625 3.5 2.015625 9.625l0 24.39061l-13.140625 0l-2.28125 -8.421875l-1.09375 -1.5625l0 -14.48436q-0.078125 -2.03125 -1.0625 -2.96875q-0.984375 -0.953125 -3.578125 -0.953125q-3.078064 0 -7.531189 0.078125q-4.4375 0.078125 -9.46875 0.3125l-1.484375 -10.46875q2.984375 -0.546875 7.109375 -0.96875q4.125 -0.4375 8.21875 -0.703125q4.093689 -0.28125 7.078064 -0.28125zm10.859375 16.28125l-0.078125 7.9375l-16.281189 0q-1.5 0 -2.25 0.671875q-0.734375 0.671875 -0.734375 1.7656097l0 1.265625q0 1.015625 0.8125 1.734375q0.828125 0.703125 2.484375 0.703125q1.890564 0 3.937439 -0.90625q2.046875 -0.90625 3.921875 -2.3125q1.890625 -1.4218597 3.234375 -2.9218597l0 5.0312347q-0.546875 1.34375 -1.734375 3.390625q-1.171875 2.046875 -3.1875 4.09375q-2.0 2.03125 -4.953125 3.40625q-2.953064 1.375 -7.031189 1.375q-3.625 0 -6.734375 -1.25q-3.109375 -1.265625 -4.953125 -3.734375q-1.84375 -2.484375 -1.84375 -6.171875l0 -3.9375q0 -4.7187347 3.5 -7.4218597q3.5 -2.71875 9.46875 -2.71875l22.421814 0zm29.500977 -15.1875l0 39.32811l-16.4375 0l0 -39.32811l16.4375 0zm-4.71875 -18.015625q4.796875 0 4.796875 4.875l0 4.015625q0 4.875 -4.796875 4.875l-7.0 0q-4.796875 0 -4.796875 -4.875l0 -4.015625q0 -4.875 4.796875 -4.875l7.0 0zm42.47339 16.921875q11.640625 0 11.640625 11.0l0 29.42186l-16.515625 0l0 -24.14061q0 -1.34375 -0.640625 -1.84375q-0.625 -0.515625 -2.203125 -0.515625q-1.484375 0 -3.34375 0.234375q-1.84375 0.234375 -4.828125 1.25l-0.78125 -8.09375q3.921875 -3.703125 8.25 -5.5q4.328125 -1.8125 8.421875 -1.8125zm-17.703125 1.09375l2.046875 8.015625l1.5 0.953125l0 30.35936l-16.53125 0l0 -39.32811l12.984375 0zm112.87903 -14.9375q5.734375 0 5.96875 5.890625l1.890625 48.374985l-15.34375 0l-1.640625 -41.531235l-1.1875 0l-5.34375 27.687485q-0.796875 5.1875 -6.453125 5.1875l-8.8125 0q-5.578125 0 -6.53125 -5.1875l-5.421875 -27.687485l-1.171875 0l-1.34375 41.531235l-15.34375 0l1.890625 -48.374985q0.234375 -5.890625 5.984375 -5.890625l14.703125 0q5.5 0 6.453125 5.265625l3.9375 21.546875q0.3125 1.96875 0.5 4.015625q0.203125 2.046875 0.359375 4.09375l0.703125 0q0.234375 -2.046875 0.4375 -4.09375q0.203125 -2.046875 0.515625 -4.015625l3.6875 -21.546875q0.953125 -5.265625 6.53125 -5.265625l15.03125 0zm35.318115 13.84375q11.078125 0 15.71875 3.546875q4.640625 3.53125 4.71875 10.453125q0.078125 5.5 -3.265625 7.9375q-3.34375 2.4375 -11.984375 2.4375l-21.15625 0l0 -7.78125l16.515625 0q2.671875 0 3.375 -0.515625q0.71875 -0.515625 0.71875 -2.484375q0 -1.875 -0.953125 -2.421875q-0.9375 -0.5625 -3.21875 -0.5625q-2.28125 -0.078125 -3.46875 0.484375q-1.171875 0.546875 -1.609375 2.390625q-0.4375 1.84375 -0.4375 5.78125q0 3.609375 0.515625 5.65625q0.515625 2.0468597 2.0 2.9218597q1.5 0.859375 4.40625 0.859375q2.359375 0 6.640625 -0.15625q4.296875 -0.15625 9.328125 -0.703125l1.5 9.90625q-2.75 1.40625 -5.90625 2.203125q-3.140625 0.78125 -6.484375 1.09375q-3.34375 0.3125 -6.875 0.3125q-8.1875 0 -13.140625 -2.28125q-4.953125 -2.28125 -7.125 -6.796875q-2.15625 -4.515625 -2.15625 -11.20311q0 -7.796875 2.203125 -12.390625q2.203125 -4.609375 7.109375 -6.640625q4.921875 -2.046875 13.03125 -2.046875zm56.157227 0q11.640625 0 11.640625 11.0l0 29.42186l-16.515625 0l0 -24.14061q0 -1.34375 -0.640625 -1.84375q-0.625 -0.515625 -2.203125 -0.515625q-1.484375 0 -3.34375 0.234375q-1.84375 0.234375 -4.828125 1.25l-0.78125 -8.09375q3.921875 -3.703125 8.25 -5.5q4.328125 -1.8125 8.421875 -1.8125zm-17.703125 1.09375l2.046875 8.015625l1.5 0.953125l0 30.35936l-16.53125 0l0 -39.32811l12.984375 0zm52.142334 0l0 24.140625q0 1.2656097 0.703125 1.8593597q0.71875 0.578125 2.21875 0.578125q1.5625 0 3.21875 -0.265625q1.65625 -0.28125 4.328125 -1.2968597l0.9375 8.093735q-4.0 3.703125 -7.9375 5.515625q-3.9375 1.796875 -8.34375 1.796875q-11.640625 0 -11.640625 -11.0l0 -29.42186l16.515625 0zm25.328125 0l0 39.32811l-12.96875 0l-2.046875 -8.015625l-1.578125 -0.953125l0 -30.35936l16.59375 0z" fill-rule="nonzero"/><path fill="#f2bb05" d="m1375.911 227.52956l33.984375 12.34375l0 12.65625l-33.984375 12.437485l0 -12.82811l20.140625 -5.890625l-20.140625 -5.90625l0 -12.8125z" fill-rule="nonzero"/><path fill="#ffffff" d="m1449.5393 215.8108l0 54.26561l-16.90625 0l0 -54.26561l16.90625 0zm59.311157 13.84375q5.578125 0 8.453125 2.796875q2.875 2.78125 2.875 8.203125l0 29.42186l-16.4375 0l0 -24.14061q0 -1.34375 -0.5625 -1.84375q-0.546875 -0.515625 -2.046875 -0.515625q-0.703125 0 -1.453125 0.078125q-0.734375 0.078125 -1.796875 0.390625q-1.0625 0.3125 -2.71875 1.015625l-0.859375 -8.09375q3.453125 -3.703125 6.796875 -5.5q3.34375 -1.8125 7.75 -1.8125zm-38.859375 1.09375l1.96875 8.015625l1.578125 0.953125l0 30.35936l-16.453125 0l0 -39.32811l12.90625 0zm15.5 -1.09375q5.421875 0 8.25 2.796875q2.84375 2.78125 2.84375 8.203125l0 29.42186l-15.890625 0l0 -24.14061q0 -1.34375 -0.640625 -1.84375q-0.625 -0.515625 -2.03125 -0.515625q-0.71875 0 -1.5 0.078125q-0.78125 0.078125 -1.890625 0.390625q-1.09375 0.3125 -2.828125 1.015625l-0.875 -8.09375q3.46875 -3.703125 6.765625 -5.5q3.3125 -1.8125 7.796875 -1.8125zm70.23572 0.15625q7.703125 0 10.921875 5.5q3.234375 5.5 3.234375 15.578125q0 8.093735 -1.6875 12.499985q-1.6875 4.40625 -5.0 6.09375q-3.296875 1.6875 -8.171875 1.6875q-4.484375 0 -8.390625 -1.328125q-3.890625 -1.34375 -6.25 -4.640625l1.109375 -6.453125q1.578125 0.546875 3.03125 1.109375q1.453125 0.546875 3.890625 0.546875q1.65625 0 2.625 -0.59375q0.984375 -0.59375 1.421875 -2.59375q0.4375 -1.9999847 0.4375 -6.1718597q0 -4.25 -0.4375 -6.25q-0.4375 -2.015625 -1.375 -2.5625q-0.9375 -0.546875 -2.4375 -0.546875q-2.046875 0 -3.234375 0.4375q-1.171875 0.421875 -2.4375 1.046875l-2.265625 -6.203125q1.015625 -1.96875 3.25 -3.578125q2.25 -1.625 5.3125 -2.59375q3.078125 -0.984375 6.453125 -0.984375zm-15.8125 0.9375l1.578125 6.21875l1.734375 1.25l0 26.031235l-0.484375 0.953125q0.234375 2.515625 0.390625 5.5q0.171875 3.0 0.09375 5.75l0 7.78125l-16.53125 0l0 -53.48436l13.21875 0zm56.235596 -1.09375q8.03125 0 12.859375 2.0q4.84375 2.0 6.96875 6.5625q2.125 4.5625 2.125 12.28125q0 7.5468597 -2.125 12.031235q-2.125 4.484375 -6.96875 6.484375q-4.828125 2.0 -12.859375 2.0q-8.015625 0 -12.859375 -2.0q-4.828125 -2.0 -7.0 -6.484375q-2.15625 -4.484375 -2.15625 -12.031235q0 -7.71875 2.15625 -12.28125q2.171875 -4.5625 7.0 -6.5625q4.84375 -2.0 12.859375 -2.0zm0 11.15625q-1.875 0 -2.90625 0.75q-1.015625 0.75 -1.421875 2.796875q-0.390625 2.046875 -0.390625 6.140625q0 3.921875 0.390625 5.9374847q0.40625 2.0 1.421875 2.71875q1.03125 0.703125 2.90625 0.703125q1.890625 0 2.90625 -0.703125q1.03125 -0.71875 1.375 -2.71875q0.359375 -2.0156097 0.359375 -5.9374847q0 -4.09375 -0.359375 -6.140625q-0.34375 -2.046875 -1.375 -2.796875q-1.015625 -0.75 -2.90625 -0.75zm40.27771 -10.0625l2.046875 8.015625l1.578125 0.953125l0 30.35936l-16.53125 0l0 -39.32811l12.90625 0zm19.109375 -1.09375l-1.40625 15.09375l-4.171875 0q-2.125 0 -4.765625 0.203125q-2.625 0.1875 -6.875 0.90625l-0.953125 -8.890625q3.859375 -3.703125 7.953125 -5.5q4.09375 -1.8125 7.9375 -1.8125l2.28125 0zm24.14624 -9.203125l0 35.3125q0 1.4843597 0.78125 2.1562347q0.796875 0.671875 2.609375 0.671875l4.171875 0l1.796875 10.546875q-1.640625 0.703125 -4.078125 1.125q-2.4375 0.4375 -4.921875 0.671875q-2.484375 0.234375 -4.359375 0.234375q-5.75 0 -9.140625 -2.90625q-3.375 -2.90625 -3.375 -8.09375l0 -39.718735l16.515625 0zm9.515625 10.296875l0 9.90625l-32.71875 0l0 -9.515625l7.5625 -0.390625l25.15625 0zm45.234863 -16.046875q7.0 0 11.828125 1.296875q4.84375 1.296875 7.828125 4.453125q3.0 3.140625 4.328125 8.609375q1.34375 5.46875 1.34375 13.875q0 8.34375 -1.34375 13.85936q-1.328125 5.5 -4.328125 8.640625q-2.984375 3.140625 -7.828125 4.4375q-4.828125 1.296875 -11.828125 1.296875q-6.921875 0 -11.765625 -1.296875q-4.828125 -1.296875 -7.828125 -4.4375q-2.984375 -3.140625 -4.328125 -8.640625q-1.328125 -5.5156097 -1.328125 -13.85936q0 -8.40625 1.328125 -13.875q1.34375 -5.46875 4.328125 -8.609375q3.0 -3.15625 7.828125 -4.453125q4.84375 -1.296875 11.765625 -1.296875zm-4.640625 57.42186q5.90625 2.203125 12.15625 3.453125q6.25 1.265625 13.71875 2.359375l-4.171875 13.765625q-8.015625 -2.28125 -14.359375 -5.234375q-6.328125 -2.9375 -10.96875 -6.25l3.625 -8.09375zm4.640625 -44.749985q-2.90625 0 -4.484375 1.265625q-1.578125 1.25 -2.203125 4.640625q-0.625 3.375 -0.625 9.65625q0 6.296875 0.625 9.6875q0.625 3.375 2.203125 4.6406097q1.578125 1.25 4.484375 1.25q2.90625 0 4.484375 -1.25q1.578125 -1.2656097 2.203125 -4.6406097q0.625 -3.390625 0.625 -9.6875q0 -6.28125 -0.625 -9.65625q-0.625 -3.390625 -2.203125 -4.640625q-1.578125 -1.265625 -4.484375 -1.265625zm47.50061 3.375l0 24.140625q0 1.2656097 0.703125 1.8593597q0.71875 0.578125 2.21875 0.578125q1.5625 0 3.21875 -0.265625q1.65625 -0.28125 4.328125 -1.2968597l0.9375 8.093735q-4.0 3.703125 -7.9375 5.515625q-3.9375 1.796875 -8.34375 1.796875q-11.640625 0 -11.640625 -11.0l0 -29.42186l16.515625 0zm25.328125 0l0 39.32811l-12.96875 0l-2.046875 -8.015625l-1.578125 -0.953125l0 -30.35936l16.59375 0zm23.529785 0l0 39.32811l-16.4375 0l0 -39.32811l16.4375 0zm-4.71875 -18.015625q4.796875 0 4.796875 4.875l0 4.015625q0 4.875 -4.796875 4.875l-7.0 0q-4.796875 0 -4.796875 -4.875l0 -4.015625q0 -4.875 4.796875 -4.875l7.0 0zm29.020386 28.5625l19.1875 0.078125l-18.328125 18.156235l-19.1875 -0.078125l18.328125 -18.156235zm19.65625 18.156235l0 10.625l-37.984375 0l0 -10.625l37.984375 0zm-0.46875 -28.70311l0 10.625l-37.046875 0l0 -10.625l37.046875 0zm22.662354 -15.734375l0 40.75q0 1.4843597 0.96875 2.1562347q0.984375 0.671875 2.953125 0.671875l2.671875 0l1.8125 10.546875q-1.171875 0.703125 -3.34375 1.125q-2.15625 0.4375 -4.40625 0.671875q-2.234375 0.234375 -3.8125 0.234375q-6.203125 0 -9.75 -2.90625q-3.546875 -2.90625 -3.546875 -8.09375l0 -45.156235l16.453125 0zm32.565186 14.640625q11.078125 0 15.71875 3.546875q4.640625 3.53125 4.71875 10.453125q0.078125 5.5 -3.265625 7.9375q-3.34375 2.4375 -11.984375 2.4375l-21.15625 0l0 -7.78125l16.515625 0q2.671875 0 3.375 -0.515625q0.71875 -0.515625 0.71875 -2.484375q0 -1.875 -0.953125 -2.421875q-0.9375 -0.5625 -3.21875 -0.5625q-2.28125 -0.078125 -3.46875 0.484375q-1.171875 0.546875 -1.609375 2.390625q-0.4375 1.84375 -0.4375 5.78125q0 3.609375 0.515625 5.65625q0.515625 2.0468597 2.0 2.9218597q1.5 0.859375 4.40625 0.859375q2.359375 0 6.640625 -0.15625q4.296875 -0.15625 9.328125 -0.703125l1.5 9.90625q-2.75 1.40625 -5.90625 2.203125q-3.140625 0.78125 -6.484375 1.09375q-3.34375 0.3125 -6.875 0.3125q-8.1875 0 -13.140625 -2.28125q-4.953125 -2.28125 -7.125 -6.796875q-2.15625 -4.515625 -2.15625 -11.20311q0 -7.796875 2.203125 -12.390625q2.203125 -4.609375 7.109375 -6.640625q4.921875 -2.046875 13.03125 -2.046875zm46.07898 -9.203125l0 35.3125q0 1.4843597 0.78125 2.1562347q0.796875 0.671875 2.609375 0.671875l4.171875 0l1.796875 10.546875q-1.640625 0.703125 -4.078125 1.125q-2.4375 0.4375 -4.921875 0.671875q-2.484375 0.234375 -4.359375 0.234375q-5.75 0 -9.140625 -2.90625q-3.375 -2.90625 -3.375 -8.09375l0 -39.718735l16.515625 0zm9.515625 10.296875l0 9.90625l-32.71875 0l0 -9.515625l7.5625 -0.390625l25.15625 0zm42.172363 -16.046875q4.25 0 9.546875 0.515625q5.3125 0.515625 10.1875 2.234375l-1.015625 10.9375q-3.546875 -0.078125 -8.78125 -0.109375q-5.21875 -0.046875 -10.328125 -0.046875q-1.5 0 -2.484375 0.078125q-0.984375 0.078125 -1.53125 0.3125q-0.546875 0.234375 -0.796875 0.640625q-0.234375 0.390625 -0.234375 1.015625q0 1.09375 0.984375 1.84375q0.984375 0.75 3.734375 1.84375l9.84375 4.09375q6.765625 2.90625 9.46875 6.734375q2.71875 3.8125 2.71875 9.78125q0 4.5624847 -1.109375 7.7499847q-1.09375 3.1875 -3.65625 5.125q-2.546875 1.921875 -6.796875 2.8125q-4.25 0.90625 -10.625 0.90625q-2.75 0 -8.34375 -0.4375q-5.578125 -0.421875 -12.65625 -2.234375l1.03125 -11.953125q4.71875 0.078125 8.640625 0.203125q3.9375 0.109375 6.8125 0.15625q2.875 0.03125 4.28125 0.03125q2.203125 0 3.34375 -0.15625q1.140625 -0.15625 1.578125 -0.578125q0.4375 -0.43748474 0.4375 -1.1406097q0 -0.796875 -0.328125 -1.296875q-0.3125 -0.515625 -1.09375 -0.984375q-0.78125 -0.484375 -2.28125 -1.03125l-10.78125 -4.71875q-6.609375 -2.984375 -9.359375 -6.671875q-2.75 -3.703125 -2.75 -9.6875q0 -4.640625 1.21875 -7.703125q1.21875 -3.078125 3.8125 -4.875q2.59375 -1.8125 6.875 -2.59375q4.296875 -0.796875 10.4375 -0.796875zm47.5896 14.953125q11.078125 0 15.71875 3.546875q4.640625 3.53125 4.71875 10.453125q0.078125 5.5 -3.265625 7.9375q-3.34375 2.4375 -11.984375 2.4375l-21.15625 0l0 -7.78125l16.515625 0q2.671875 0 3.375 -0.515625q0.71875 -0.515625 0.71875 -2.484375q0 -1.875 -0.953125 -2.421875q-0.9375 -0.5625 -3.21875 -0.5625q-2.28125 -0.078125 -3.46875 0.484375q-1.171875 0.546875 -1.609375 2.390625q-0.4375 1.84375 -0.4375 5.78125q0 3.609375 0.515625 5.65625q0.515625 2.0468597 2.0 2.9218597q1.5 0.859375 4.40625 0.859375q2.359375 0 6.640625 -0.15625q4.296875 -0.15625 9.328125 -0.703125l1.5 9.90625q-2.75 1.40625 -5.90625 2.203125q-3.140625 0.78125 -6.484375 1.09375q-3.34375 0.3125 -6.875 0.3125q-8.1875 0 -13.140625 -2.28125q-4.953125 -2.28125 -7.125 -6.796875q-2.15625 -4.515625 -2.15625 -11.20311q0 -7.796875 2.203125 -12.390625q2.203125 -4.609375 7.109375 -6.640625q4.921875 -2.046875 13.03125 -2.046875zm46.0791 -9.203125l0 35.3125q0 1.4843597 0.78125 2.1562347q0.796875 0.671875 2.609375 0.671875l4.171875 0l1.796875 10.546875q-1.640625 0.703125 -4.078125 1.125q-2.4375 0.4375 -4.921875 0.671875q-2.484375 0.234375 -4.359375 0.234375q-5.75 0 -9.140625 -2.90625q-3.375 -2.90625 -3.375 -8.09375l0 -39.718735l16.515625 0zm9.515625 10.296875l0 9.90625l-32.71875 0l0 -9.515625l7.5625 -0.390625l25.15625 0z" fill-rule="nonzero"/><path fill="#c3c7cb" d="m3620.9492 186.39108l110.33057 0l0 110.33069l-110.33057 0z" fill-rule="evenodd"/><path stroke="#000000" stroke-width="3.0" stroke-linejoin="round" stroke-linecap="butt" d="m3620.9492 186.39108l110.33057 0l0 110.33069l-110.33057 0z" fill-rule="evenodd"/><path fill="#000000" d="m3714.774 195.2433l-18.421875 39.65625l20.0625 41.29689l-25.21875 0l-18.3125 -41.29689l16.78125 -39.65625l25.109375 0zm-52.203125 0l16.765625 39.65625l-18.296875 41.29689l-25.234375 0l20.0625 -41.29689l-18.40625 -39.65625l25.109375 0zm24.75 32.375l0 14.078125l-24.40625 0l0 -14.078125l24.40625 0z" fill-rule="nonzero"/><path fill="#c3c7cb" d="m3620.9492 186.39108l110.33057 0l0 0l-109.87158 0l0 109.871735l-0.45898438 0.45895386z" fill-rule="evenodd"/><path stroke="#ffffff" stroke-width="3.0" stroke-linejoin="round" stroke-linecap="butt" d="m3620.9492 186.39108l110.33057 0l0 0l-109.87158 0l0 109.871735l-0.45898438 0.45895386z" fill-rule="evenodd"/><path fill="#c3c7cb" d="m3497.957 186.39108l110.33081 0l0 110.33069l-110.33081 0z" fill-rule="evenodd"/><path stroke="#000000" stroke-width="3.0" stroke-linejoin="round" stroke-linecap="butt" d="m3497.957 186.39108l110.33081 0l0 110.33069l-110.33081 0z" fill-rule="evenodd"/><path fill="#000000" d="m3555.3572 212.72768l0 19.125l-30.390625 8.796875l30.390625 8.796875l0 19.125015l-51.046875 -18.54689l0 -18.875l51.046875 -18.421875zm44.469482 26.15625l0 14.3125l-34.15625 0l0 -14.3125l34.15625 0z" fill-rule="nonzero"/><path fill="#c3c7cb" d="m3497.957 186.39108l110.33081 0l0 0l-109.871826 0l0 109.871735l-0.45898438 0.45895386z" fill-rule="evenodd"/><path stroke="#ffffff" stroke-width="3.0" stroke-linejoin="round" stroke-linecap="butt" d="m3497.957 186.39108l110.33081 0l0 0l-109.871826 0l0 109.871735l-0.45898438 0.45895386z" fill-rule="evenodd"/><path fill="#0000aa" d="m91.91076 338.34122l715.2126 0l0 117.79526l-715.2126 0z" fill-rule="evenodd"/><path fill="#ffffff" d="m163.52145 371.1651q4.71875 0 9.703125 0.046875q5.0 0.03125 9.796875 0.234375q4.8125 0.203125 8.734375 0.75l-0.78125 12.03125l-19.90625 0q-1.484375 0 -2.359375 0.796875q-0.859375 0.78125 -0.859375 2.03125l0 23.125q0 1.265625 0.859375 2.046875q0.875 0.78125 2.359375 0.78125l19.90625 0l0.78125 12.046875q-3.921875 0.46875 -8.734375 0.703125q-4.796875 0.234375 -9.796875 0.265625q-4.984375 0.046875 -9.703125 0.046875q-5.578125 0 -9.15625 -3.421875q-3.578125 -3.421875 -3.578125 -8.921875l0 -30.203125q0 -5.515625 3.578125 -8.9375q3.578125 -3.421875 9.15625 -3.421875zm-11.328125 21.171875l35.953125 0l0 11.3125l-35.953125 0l0 -11.3125zm88.800964 -5.90625l-10.53125 19.265625l11.40625 20.0625l-16.359375 0l-10.46875 -20.0625l9.671875 -19.265625l16.28125 0zm-30.125 0l9.671875 19.265625l-10.453125 20.0625l-16.359375 0l11.40625 -20.0625l-10.546875 -19.265625l16.28125 0zm15.109375 14.46875l0 9.28125l-16.203125 0l0 -9.28125l16.203125 0zm48.056274 -15.40625q7.703125 0 10.921875 5.5q3.234375 5.5 3.234375 15.578125q0 8.09375 -1.6875 12.5q-1.6875 4.40625 -5.0 6.09375q-3.296875 1.6875 -8.171875 1.6875q-4.484375 0 -8.390625 -1.328125q-3.890625 -1.34375 -6.25 -4.640625l1.109375 -6.453125q1.578125 0.546875 3.03125 1.109375q1.453125 0.546875 3.890625 0.546875q1.65625 0 2.625 -0.59375q0.984375 -0.59375 1.421875 -2.59375q0.4375 -2.0 0.4375 -6.171875q0 -4.25 -0.4375 -6.25q-0.4375 -2.015625 -1.375 -2.5625q-0.9375 -0.546875 -2.4375 -0.546875q-2.046875 0 -3.234375 0.4375q-1.171875 0.421875 -2.4375 1.046875l-2.265625 -6.203125q1.015625 -1.96875 3.25 -3.578125q2.25 -1.625 5.3125 -2.59375q3.078125 -0.984375 6.453125 -0.984375zm-15.8125 0.9375l1.578125 6.21875l1.734375 1.25l0 26.03125l-0.484375 0.953125q0.234375 2.515625 0.390625 5.5q0.171875 3.0 0.09375 5.75l0 7.78125l-16.53125 0l0 -53.484375l13.21875 0zm56.235596 -1.09375q8.03125 0 12.859375 2.0q4.84375 2.0 6.96875 6.5625q2.125 4.5625 2.125 12.28125q0 7.546875 -2.125 12.03125q-2.125 4.484375 -6.96875 6.484375q-4.828125 2.0 -12.859375 2.0q-8.015625 0 -12.859375 -2.0q-4.828125 -2.0 -7.0 -6.484375q-2.15625 -4.484375 -2.15625 -12.03125q0 -7.71875 2.15625 -12.28125q2.171875 -4.5625 7.0 -6.5625q4.84375 -2.0 12.859375 -2.0zm0 11.15625q-1.875 0 -2.90625 0.75q-1.015625 0.75 -1.421875 2.796875q-0.390625 2.046875 -0.390625 6.140625q0 3.921875 0.390625 5.9375q0.40625 2.0 1.421875 2.71875q1.03125 0.703125 2.90625 0.703125q1.890625 0 2.90625 -0.703125q1.03125 -0.71875 1.375 -2.71875q0.359375 -2.015625 0.359375 -5.9375q0 -4.09375 -0.359375 -6.140625q-0.34375 -2.046875 -1.375 -2.796875q-1.015625 -0.75 -2.90625 -0.75zm40.27768 -10.0625l2.046875 8.015625l1.578125 0.953125l0 30.359375l-16.53125 0l0 -39.328125l12.90625 0zm19.109375 -1.09375l-1.40625 15.09375l-4.171875 0q-2.125 0 -4.765625 0.203125q-2.625 0.1875 -6.875 0.90625l-0.953125 -8.890625q3.859375 -3.703125 7.953125 -5.5q4.09375 -1.8125 7.9375 -1.8125l2.28125 0zm24.146362 -9.203125l0 35.3125q0 1.484375 0.78125 2.15625q0.796875 0.671875 2.609375 0.671875l4.171875 0l1.796875 10.546875q-1.640625 0.703125 -4.078125 1.125q-2.4375 0.4375 -4.921875 0.671875q-2.484375 0.234375 -4.359375 0.234375q-5.75 0 -9.140625 -2.90625q-3.375 -2.90625 -3.375 -8.09375l0 -39.71875l16.515625 0zm9.515625 10.296875l0 9.90625l-32.71875 0l0 -9.515625l7.5625 -0.390625l25.15625 0zm42.172333 -16.046875q4.25 0 9.546875 0.515625q5.3125 0.515625 10.1875 2.234375l-1.015625 10.9375q-3.546875 -0.078125 -8.78125 -0.109375q-5.21875 -0.046875 -10.328125 -0.046875q-1.5 0 -2.484375 0.078125q-0.984375 0.078125 -1.53125 0.3125q-0.546875 0.234375 -0.796875 0.640625q-0.234375 0.390625 -0.234375 1.015625q0 1.09375 0.984375 1.84375q0.984375 0.75 3.734375 1.84375l9.84375 4.09375q6.765625 2.90625 9.46875 6.734375q2.71875 3.8125 2.71875 9.78125q0 4.5625 -1.109375 7.75q-1.09375 3.1875 -3.65625 5.125q-2.546875 1.921875 -6.796875 2.8125q-4.25 0.90625 -10.625 0.90625q-2.75 0 -8.34375 -0.4375q-5.578125 -0.421875 -12.65625 -2.234375l1.03125 -11.953125q4.71875 0.078125 8.640625 0.203125q3.9375 0.109375 6.8125 0.15625q2.875 0.03125 4.28125 0.03125q2.203125 0 3.34375 -0.15625q1.140625 -0.15625 1.578125 -0.578125q0.4375 -0.4375 0.4375 -1.140625q0 -0.796875 -0.328125 -1.296875q-0.3125 -0.515625 -1.09375 -0.984375q-0.78125 -0.484375 -2.28125 -1.03125l-10.78125 -4.71875q-6.609375 -2.984375 -9.359375 -6.671875q-2.75 -3.703125 -2.75 -9.6875q0 -4.640625 1.21875 -7.703125q1.21875 -3.078125 3.8125 -4.875q2.59375 -1.8125 6.875 -2.59375q4.296875 -0.796875 10.4375 -0.796875zm47.58966 14.953125q11.078125 0 15.7187195 3.546875q4.640625 3.53125 4.71875 10.453125q0.078125 5.5 -3.265625 7.9375q-3.3437195 2.4375 -11.9843445 2.4375l-21.15625 0l0 -7.78125l16.515625 0q2.671875 0 3.375 -0.515625q0.71875 -0.515625 0.71875 -2.484375q0 -1.875 -0.953125 -2.421875q-0.9375 -0.5625 -3.21875 -0.5625q-2.28125 -0.078125 -3.46875 0.484375q-1.171875 0.546875 -1.609375 2.390625q-0.4375 1.84375 -0.4375 5.78125q0 3.609375 0.515625 5.65625q0.515625 2.046875 2.0 2.921875q1.5 0.859375 4.40625 0.859375q2.359375 0 6.640625 -0.15625q4.296875 -0.15625 9.3280945 -0.703125l1.5 9.90625q-2.75 1.40625 -5.9062195 2.203125q-3.140625 0.78125 -6.484375 1.09375q-3.34375 0.3125 -6.875 0.3125q-8.1875 0 -13.140625 -2.28125q-4.953125 -2.28125 -7.125 -6.796875q-2.15625 -4.515625 -2.15625 -11.203125q0 -7.796875 2.203125 -12.390625q2.203125 -4.609375 7.109375 -6.640625q4.921875 -2.046875 13.03125 -2.046875zm46.07901 -9.203125l0 35.3125q0 1.484375 0.78125 2.15625q0.796875 0.671875 2.609375 0.671875l4.171875 0l1.796875 10.546875q-1.640625 0.703125 -4.078125 1.125q-2.4375 0.4375 -4.921875 0.671875q-2.484375 0.234375 -4.359375 0.234375q-5.75 0 -9.140625 -2.90625q-3.375 -2.90625 -3.375 -8.09375l0 -39.71875l16.515625 0zm9.515625 10.296875l0 9.90625l-32.71875 0l0 -9.515625l7.5625 -0.390625l25.15625 0zm24.935791 -10.296875l0 35.3125q0 1.484375 0.78125 2.15625q0.796875 0.671875 2.609375 0.671875l4.171875 0l1.796875 10.546875q-1.640625 0.703125 -4.078125 1.125q-2.4375 0.4375 -4.921875 0.671875q-2.484375 0.234375 -4.359375 0.234375q-5.75 0 -9.140625 -2.90625q-3.375 -2.90625 -3.375 -8.09375l0 -39.71875l16.515625 0zm9.515625 10.296875l0 9.90625l-32.71875 0l0 -9.515625l7.5625 -0.390625l25.15625 0zm21.092102 0l0 39.328125l-16.437561 0l0 -39.328125l16.437561 0zm-4.718811 -18.015625q4.796936 0 4.796936 4.875l0 4.015625q0 4.875 -4.796936 4.875l-7.0 0q-4.796875 0 -4.796875 -4.875l0 -4.015625q0 -4.875 4.796875 -4.875l7.0 0zm42.47345 16.921875q11.640625 0 11.640625 11.0l0 29.421875l-16.515625 0l0 -24.140625q0 -1.34375 -0.640625 -1.84375q-0.625 -0.515625 -2.203125 -0.515625q-1.484375 0 -3.34375 0.234375q-1.84375 0.234375 -4.828125 1.25l-0.78125 -8.09375q3.921875 -3.703125 8.25 -5.5q4.328125 -1.8125 8.421875 -1.8125zm-17.703125 1.09375l2.046875 8.015625l1.5 0.953125l0 30.359375l-16.53125 0l0 -39.328125l12.984375 0zm55.142456 -1.09375q7.390625 0 11.796875 1.21875q4.40625 1.21875 6.359375 3.9375q1.96875 2.703125 1.96875 7.265625q0 4.5625 -1.921875 7.28125q-1.921875 2.703125 -6.375 3.921875q-4.4375 1.21875 -11.90625 1.21875q-7.390625 0 -11.875 -1.21875q-4.484375 -1.21875 -6.453125 -3.921875q-1.96875 -2.71875 -1.96875 -7.28125q0 -4.5625 2.0 -7.265625q2.015625 -2.71875 6.5 -3.9375q4.484375 -1.21875 11.875 -1.21875zm-0.078125 9.03125q-2.921875 0 -3.9375 0.671875q-1.015625 0.671875 -1.015625 2.71875q0 2.046875 1.015625 2.75q1.015625 0.703125 3.9375 0.703125q2.90625 0 3.890625 -0.703125q0.984375 -0.703125 0.984375 -2.75q0 -2.046875 -0.984375 -2.71875q-0.984375 -0.671875 -3.890625 -0.671875zm24.6875 -7.9375l-0.78125 6.0625l-11.015625 1.875l-2.90625 -7.9375l14.703125 0zm-37.203125 21.546875l7.640625 1.34375q-0.875 0.15625 -1.265625 1.140625q-0.390625 0.984375 0.15625 1.9375q0.546875 0.9375 2.359375 1.09375l14.3125 0.9375q6.765625 0.46875 9.671875 3.5q2.921875 3.03125 2.921875 8.84375q0 5.59375 -2.359375 8.421875q-2.359375 2.828125 -7.359375 3.8125q-5.0 0.984375 -13.015625 0.984375q-7.078125 0 -11.484375 -0.625q-4.40625 -0.625 -6.84375 -1.9375q-2.4375 -1.296875 -3.34375 -3.421875q-0.90625 -2.109375 -0.90625 -5.1875q0 -2.4375 0.984375 -4.28125q0.984375 -1.84375 3.578125 -3.296875q2.59375 -1.46875 7.390625 -2.5625l6.765625 -1.5l5.359375 2.046875l-2.515625 1.34375q-2.359375 1.640625 -3.703125 2.46875q-1.34375 0.828125 -1.890625 1.421875q-0.546875 0.59375 -0.546875 1.84375q0 1.03125 0.578125 1.578125q0.59375 0.546875 2.125 0.734375q1.546875 0.203125 4.21875 0.203125q2.984375 0 4.640625 -0.15625q1.65625 -0.15625 2.28125 -0.625q0.625 -0.46875 0.625 -1.34375q0 -1.015625 -0.625 -1.4375q-0.625 -0.4375 -2.015625 -0.640625q-1.375 -0.203125 -3.484375 -0.359375l-10.703125 -0.78125q-3.546875 -0.3125 -5.59375 -1.765625q-2.03125 -1.453125 -2.78125 -3.53125q-0.75 -2.09375 -0.40625 -4.21875q0.359375 -2.125 1.734375 -3.765625q1.375 -1.65625 3.5 -2.21875zm57.586426 -22.640625q3.140625 0 6.875 0.234375q3.734375 0.234375 7.265625 0.59375q3.546875 0.34375 5.984375 0.890625l-1.015625 9.59375q-3.9375 0 -7.90625 0q-3.96875 0 -7.59375 0q-2.59375 0 -3.859375 0.046875q-1.25 0.03125 -1.640625 0.203125q-0.390625 0.15625 -0.390625 0.703125q0 0.625 0.890625 0.859375q0.90625 0.234375 3.75 1.03125l9.046875 2.28125q5.265625 1.484375 7.8125 4.125q2.5625 2.640625 2.5625 7.75q0 4.953125 -1.890625 7.78125q-1.890625 2.828125 -6.09375 4.015625q-4.203125 1.171875 -11.046875 1.171875q-2.828125 0 -8.375 -0.28125q-5.546875 -0.265625 -12.078125 -1.359375l1.015625 -9.59375q1.03125 0 3.265625 0q2.25 0 5.109375 0q2.875 0 5.640625 0q3.765625 0 5.578125 -0.046875q1.8125 -0.046875 2.359375 -0.3125q0.546875 -0.28125 0.546875 -0.828125q0 -0.703125 -1.03125 -0.984375q-1.015625 -0.28125 -4.078125 -1.140625l-8.65625 -2.359375q-4.328125 -1.25 -6.53125 -3.09375q-2.203125 -1.859375 -2.984375 -4.296875q-0.78125 -2.4375 -0.78125 -5.515625q0 -3.609375 1.6875 -6.15625q1.6875 -2.5625 5.65625 -3.9375q3.984375 -1.375 10.90625 -1.375z" fill-rule="nonzero"/><path fill="#cfe2f3" d="m2040.4934 723.6011l580.22046 0l0 105.07086l-580.22046 0z" fill-rule="evenodd"/><path stroke="#000000" stroke-width="1.0" stroke-linejoin="round" stroke-linecap="butt" d="m2040.4934 723.6011l580.22046 0l0 105.07086l-580.22046 0z" fill-rule="evenodd"/><path fill="#c3c7cb" d="m2078.8242 323.48688l503.55908 0l0 81.66928l-503.55908 0z" fill-rule="evenodd"/><path fill="#000000" d="m2164.4314 331.7609q5.109375 0 11.5 0.625q6.390625 0.609375 12.265625 2.6875l-1.234375 13.15625q-4.265625 -0.09375 -10.5625 -0.140625q-6.28125 -0.046875 -12.4375 -0.046875q-1.796875 0 -2.984375 0.09375q-1.1875 0.09375 -1.84375 0.390625q-0.65625 0.28125 -0.953125 0.75q-0.28125 0.46875 -0.28125 1.234375q0 1.3125 1.1875 2.21875q1.1875 0.90625 4.5 2.21875l11.828125 4.921875q8.140625 3.515625 11.40625 8.109375q3.265625 4.578125 3.265625 11.78125q0 5.484375 -1.328125 9.328125q-1.328125 3.828125 -4.40625 6.140625q-3.0625 2.3125 -8.1875 3.40625q-5.109375 1.09375 -12.765625 1.09375q-3.3125 0 -10.046875 -0.53125q-6.71875 -0.515625 -15.234375 -2.6875l1.234375 -14.390625q5.671875 0.09375 10.40625 0.234375q4.734375 0.140625 8.1875 0.1875q3.453125 0.046875 5.15625 0.046875q2.65625 0 4.03125 -0.1875q1.375 -0.1875 1.890625 -0.703125q0.515625 -0.53125 0.515625 -1.375q0 -0.953125 -0.375 -1.5625q-0.375 -0.609375 -1.328125 -1.171875q-0.9375 -0.578125 -2.734375 -1.25l-12.96875 -5.671875q-7.953125 -3.59375 -11.265625 -8.046875q-3.3125 -4.453125 -3.3125 -11.640625q0 -5.578125 1.46875 -9.265625q1.46875 -3.703125 4.578125 -5.875q3.125 -2.1875 8.28125 -3.125q5.171875 -0.953125 12.546875 -0.953125zm57.27173 17.984375q13.34375 0 18.921875 4.265625q5.59375 4.25 5.6875 12.59375q0.09375 6.625 -3.9375 9.5625q-4.015625 2.921875 -14.421875 2.921875l-25.46875 0l0 -9.375l19.875 0q3.21875 0 4.0625 -0.609375q0.859375 -0.609375 0.859375 -2.984375q0 -2.265625 -1.140625 -2.921875q-1.125 -0.671875 -3.875 -0.671875q-2.734375 -0.09375 -4.15625 0.578125q-1.421875 0.65625 -1.953125 2.875q-0.515625 2.21875 -0.515625 6.953125q0 4.359375 0.609375 6.828125q0.625 2.453125 2.421875 3.5q1.796875 1.03125 5.296875 1.03125q2.84375 0 8.0 -0.1875q5.15625 -0.1875 11.21875 -0.84375l1.796875 11.921875q-3.3125 1.703125 -7.09375 2.65625q-3.78125 0.9375 -7.8125 1.3125q-4.015625 0.390625 -8.28125 0.390625q-9.84375 0 -15.8125 -2.75q-5.953125 -2.75 -8.5625 -8.1875q-2.609375 -5.4375 -2.609375 -13.484375q0 -9.375 2.65625 -14.90625q2.65625 -5.546875 8.5625 -8.0q5.921875 -2.46875 15.671875 -2.46875zm55.472168 -11.078125l0 42.5q0 1.8125 0.9375 2.625q0.953125 0.796875 3.125 0.796875l5.015625 0l2.1875 12.671875q-2.0 0.859375 -4.9375 1.375q-2.921875 0.515625 -5.90625 0.796875q-2.984375 0.296875 -5.25 0.296875q-6.921875 0 -10.984375 -3.5q-4.0625 -3.5 -4.0625 -9.75l0 -47.8125l19.875 0zm11.453125 12.40625l0 11.921875l-39.375 0l0 -11.453125l9.078125 -0.46875l30.296875 0zm58.770996 -17.984375l0 65.3125l-20.53125 0l0 -65.3125l20.53125 0zm18.28125 0l0 15.328125l-57.078125 0l0 -15.328125l57.078125 0zm25.173828 17.984375l0 47.328125l-19.78125 0l0 -47.328125l19.78125 0zm-5.6875 -21.671875q5.78125 0 5.78125 5.859375l0 4.828125q0 5.875 -5.78125 5.875l-8.421875 0q-5.765625 0 -5.765625 -5.875l0 -4.828125q0 -5.859375 5.765625 -5.859375l8.421875 0zm39.009033 9.265625l0 42.5q0 1.8125 0.9375 2.625q0.953125 0.796875 3.125 0.796875l5.015625 0l2.1875 12.671875q-2.0 0.859375 -4.9375 1.375q-2.921875 0.515625 -5.90625 0.796875q-2.984375 0.296875 -5.25 0.296875q-6.921875 0 -10.984375 -3.5q-4.0625 -3.5 -4.0625 -9.75l0 -47.8125l19.875 0zm11.453125 12.40625l0 11.921875l-39.375 0l0 -11.453125l9.078125 -0.46875l30.296875 0zm25.084473 -18.9375l0 49.03125q0 1.8125 1.171875 2.625q1.1875 0.796875 3.5625 0.796875l3.21875 0l2.171875 12.671875q-1.421875 0.859375 -4.03125 1.375q-2.59375 0.515625 -5.296875 0.796875q-2.6875 0.296875 -4.59375 0.296875q-7.46875 0 -11.734375 -3.5q-4.25 -3.5 -4.25 -9.75l0 -54.34375l19.78125 0zm39.183838 17.609375q13.34375 0 18.921875 4.265625q5.59375 4.25 5.6875 12.59375q0.09375 6.625 -3.9375 9.5625q-4.015625 2.921875 -14.421875 2.921875l-25.46875 0l0 -9.375l19.875 0q3.21875 0 4.0625 -0.609375q0.859375 -0.609375 0.859375 -2.984375q0 -2.265625 -1.140625 -2.921875q-1.125 -0.671875 -3.875 -0.671875q-2.734375 -0.09375 -4.15625 0.578125q-1.421875 0.65625 -1.953125 2.875q-0.515625 2.21875 -0.515625 6.953125q0 4.359375 0.609375 6.828125q0.625 2.453125 2.421875 3.5q1.796875 1.03125 5.296875 1.03125q2.84375 0 8.0 -0.1875q5.15625 -0.1875 11.21875 -0.84375l1.796875 11.921875q-3.3125 1.703125 -7.09375 2.65625q-3.78125 0.9375 -7.8125 1.3125q-4.015625 0.390625 -8.28125 0.390625q-9.84375 0 -15.8125 -2.75q-5.953125 -2.75 -8.5625 -8.1875q-2.609375 -5.4375 -2.609375 -13.484375q0 -9.375 2.65625 -14.90625q2.65625 -5.546875 8.5625 -8.0q5.921875 -2.46875 15.671875 -2.46875z" fill-rule="nonzero"/><path fill="#ffffff" d="m1359.147 423.68765l1942.4253 0l0 134.99216l-1942.4253 0z" fill-rule="evenodd"/><path stroke="#000000" stroke-width="4.0" stroke-linejoin="round" stroke-linecap="butt" d="m1359.147 423.68765l1942.4253 0l0 134.99216l-1942.4253 0z" fill-rule="evenodd"/><path fill="#ffffff" d="m3305.0369 561.0105l-1942.2048 0l64.034546 -4.527527l1872.3698 0l0 -132.3852l5.800537 -0.41012573z" fill-rule="evenodd"/><path fill="#ffffff" d="m3330.6982 1365.7585l-1991.5276 0l34.55298 -12.398071l1947.7136 0l0 -698.8617l9.260986 -3.322937z" fill-rule="evenodd"/><path fill="#000000" fill-opacity="0.0" d="m1340.8214 651.9074l1983.433 0l0 705.4173l-1983.433 0z" fill-rule="evenodd"/><path stroke="#868a8e" stroke-width="8.0" stroke-linejoin="round" stroke-linecap="butt" d="m1340.8214 651.9074l1983.433 0l0 705.4173l-1983.433 0z" fill-rule="evenodd"/><path fill="#ffffff" d="m1340.8204 651.90826l1983.433 0l-9.5998535 3.4141846l-1969.2338 0l0 700.3674l-4.599365 1.6357422z" fill-rule="evenodd"/><path fill="#c3c7cb" d="m1589.5442 604.895l1490.3936 0l0 81.66931l-1490.3936 0z" fill-rule="evenodd"/><path fill="#000000" d="m1755.722 614.54156q4.890625 0 11.0 0.59375q6.125 0.59375 11.75 2.578125l-1.171875 12.609375q-4.078125 -0.09375 -10.109375 -0.140625q-6.03125 -0.046875 -11.921875 -0.046875q-1.71875 0 -2.859375 0.09375q-1.125 0.09375 -1.765625 0.375q-0.640625 0.265625 -0.921875 0.71875q-0.265625 0.453125 -0.265625 1.171875q0 1.265625 1.140625 2.140625q1.140625 0.859375 4.3125 2.125l11.328125 4.71875q7.796875 3.34375 10.921875 7.75q3.125 4.390625 3.125 11.28125q0 5.265625 -1.265625 8.9375q-1.265625 3.65625 -4.21875 5.890625q-2.9375 2.21875 -7.84375 3.25q-4.890625 1.046875 -12.234375 1.046875q-3.171875 0 -9.609375 -0.5q-6.4375 -0.5 -14.59375 -2.578125l1.171875 -13.78125q5.4375 0.09375 9.96875 0.234375q4.546875 0.125 7.84375 0.171875q3.3125 0.046875 4.953125 0.046875q2.53125 0 3.84375 -0.171875q1.3125 -0.1875 1.8125 -0.6875q0.5 -0.5 0.5 -1.3125q0 -0.90625 -0.359375 -1.5q-0.359375 -0.59375 -1.265625 -1.125q-0.90625 -0.546875 -2.640625 -1.1875l-12.40625 -5.4375q-7.625 -3.4375 -10.796875 -7.703125q-3.171875 -4.265625 -3.171875 -11.15625q0 -5.34375 1.40625 -8.875q1.40625 -3.546875 4.390625 -5.625q3.0 -2.09375 7.9375 -3.0q4.9375 -0.90625 12.015625 -0.90625zm54.84729 17.234375q12.78125 0 18.125 4.078125q5.359375 4.078125 5.4375 12.0625q0.09375 6.34375 -3.765625 9.15625q-3.84375 2.796875 -13.8125 2.796875l-24.390625 0l0 -8.96875l19.03125 0q3.09375 0 3.90625 -0.578125q0.8125 -0.59375 0.8125 -2.859375q0 -2.1875 -1.09375 -2.8125q-1.078125 -0.640625 -3.703125 -0.640625q-2.640625 -0.09375 -4.0 0.546875q-1.359375 0.625 -1.859375 2.765625q-0.5 2.125 -0.5 6.65625q0 4.171875 0.59375 6.53125q0.59375 2.359375 2.3125 3.359375q1.71875 1.0 5.078125 1.0q2.71875 0 7.65625 -0.1875q4.953125 -0.1875 10.75 -0.8125l1.71875 11.421875q-3.171875 1.625 -6.796875 2.53125q-3.625 0.90625 -7.484375 1.265625q-3.84375 0.375 -7.921875 0.375q-9.4375 0 -15.15625 -2.625q-5.703125 -2.640625 -8.203125 -7.84375q-2.484375 -5.21875 -2.484375 -12.921875q0 -8.984375 2.53125 -14.28125q2.546875 -5.3125 8.203125 -7.65625q5.671875 -2.359375 15.015625 -2.359375zm53.127808 -10.609375l0 40.703125q0 1.71875 0.90625 2.5q0.90625 0.765625 2.984375 0.765625l4.8125 0l2.078125 12.140625q-1.90625 0.828125 -4.71875 1.3125q-2.8125 0.5 -5.671875 0.765625q-2.84375 0.28125 -5.015625 0.28125q-6.625 0 -10.53125 -3.34375q-3.890625 -3.359375 -3.890625 -9.34375l0 -45.78125l19.046875 0zm10.96875 11.875l0 11.421875l-37.71875 0l0 -10.96875l8.703125 -0.453125l29.015625 0zm51.30774 -18.125q9.96875 0 15.59375 1.859375q5.625 1.84375 7.96875 6.46875q2.359375 4.625 2.359375 12.96875q0 8.25 -2.21875 12.828125q-2.21875 4.578125 -7.296875 6.4375q-5.078125 1.859375 -13.6875 1.859375q-4.53125 0 -9.0625 -0.5q-4.53125 -0.5 -8.484375 -1.265625q-3.9375 -0.78125 -6.75 -1.640625q-2.8125 -0.859375 -3.890625 -1.578125l0.265625 -8.890625q5.890625 0 12.234375 0q6.34375 0 12.515625 0q2.71875 0 4.171875 -0.578125q1.453125 -0.59375 1.984375 -2.171875q0.546875 -1.59375 0.546875 -4.5q0 -2.984375 -0.546875 -4.609375q-0.53125 -1.640625 -1.984375 -2.234375q-1.453125 -0.59375 -4.171875 -0.59375q-9.25 0 -15.78125 0.09375q-6.515625 0.09375 -8.875 0.359375l-1.359375 -13.40625q4.171875 -0.453125 7.84375 -0.640625q3.671875 -0.1875 8.015625 -0.21875q4.359375 -0.046875 10.609375 -0.046875zm-6.796875 0.90625l0 62.546875l-19.671875 0l0 -62.546875l19.671875 0zm52.938965 17.21875l2.359375 9.25l1.8125 1.078125l0 35.0l-19.046875 0l0 -45.328125l14.875 0zm22.03125 -1.265625l-1.640625 17.40625l-4.796875 0q-2.453125 0 -5.484375 0.234375q-3.03125 0.21875 -7.9375 1.03125l-1.078125 -10.25q4.4375 -4.25 9.140625 -6.328125q4.71875 -2.09375 9.171875 -2.09375l2.625 0zm27.832764 0q12.78125 0 18.125 4.078125q5.359375 4.078125 5.4375 12.0625q0.09375 6.34375 -3.765625 9.15625q-3.84375 2.796875 -13.8125 2.796875l-24.390625 0l0 -8.96875l19.03125 0q3.09375 0 3.90625 -0.578125q0.8125 -0.59375 0.8125 -2.859375q0 -2.1875 -1.09375 -2.8125q-1.078125 -0.640625 -3.703125 -0.640625q-2.640625 -0.09375 -4.0 0.546875q-1.359375 0.625 -1.859375 2.765625q-0.5 2.125 -0.5 6.65625q0 4.171875 0.59375 6.53125q0.59375 2.359375 2.3125 3.359375q1.71875 1.0 5.078125 1.0q2.71875 0 7.65625 -0.1875q4.953125 -0.1875 10.75 -0.8125l1.71875 11.421875q-3.171875 1.625 -6.796875 2.53125q-3.625 0.90625 -7.484375 1.265625q-3.84375 0.375 -7.921875 0.375q-9.4375 0 -15.15625 -2.625q-5.703125 -2.640625 -8.203125 -7.84375q-2.484375 -5.21875 -2.484375 -12.921875q0 -8.984375 2.53125 -14.28125q2.546875 -5.3125 8.203125 -7.65625q5.671875 -2.359375 15.015625 -2.359375zm79.586914 1.265625l-13.40625 40.890625q-0.640625 1.984375 -2.234375 3.21875q-1.578125 1.21875 -3.75 1.21875l-16.234375 0q-2.171875 0 -3.765625 -1.21875q-1.578125 -1.234375 -2.21875 -3.21875l-13.40625 -40.890625l20.125 0l5.53125 25.015625q0.453125 2.09375 0.71875 4.265625q0.265625 2.171875 0.546875 4.265625l1.171875 0q0.28125 -2.09375 0.640625 -4.265625q0.359375 -2.171875 0.71875 -4.265625l5.4375 -25.015625l20.125 0zm22.9375 0l0 45.328125l-18.9375 0l0 -45.328125l18.9375 0zm-5.4375 -20.765625q5.53125 0 5.53125 5.625l0 4.625q0 5.625 -5.53125 5.625l-8.0625 0q-5.53125 0 -5.53125 -5.625l0 -4.625q0 -5.625 5.53125 -5.625l8.0625 0zm37.718994 19.5q12.78125 0 18.125 4.078125q5.359375 4.078125 5.4375 12.0625q0.09375 6.34375 -3.765625 9.15625q-3.84375 2.796875 -13.8125 2.796875l-24.390625 0l0 -8.96875l19.03125 0q3.09375 0 3.90625 -0.578125q0.8125 -0.59375 0.8125 -2.859375q0 -2.1875 -1.09375 -2.8125q-1.078125 -0.640625 -3.703125 -0.640625q-2.640625 -0.09375 -4.0 0.546875q-1.359375 0.625 -1.859375 2.765625q-0.5 2.125 -0.5 6.65625q0 4.171875 0.59375 6.53125q0.59375 2.359375 2.3125 3.359375q1.71875 1.0 5.078125 1.0q2.71875 0 7.65625 -0.1875q4.953125 -0.1875 10.75 -0.8125l1.71875 11.421875q-3.171875 1.625 -6.796875 2.53125q-3.625 0.90625 -7.484375 1.265625q-3.84375 0.375 -7.921875 0.375q-9.4375 0 -15.15625 -2.625q-5.703125 -2.640625 -8.203125 -7.84375q-2.484375 -5.21875 -2.484375 -12.921875q0 -8.984375 2.53125 -14.28125q2.546875 -5.3125 8.203125 -7.65625q5.671875 -2.359375 15.015625 -2.359375zm103.79639 1.265625l-9.25 40.515625q-0.453125 2.1875 -2.125 3.5q-1.671875 1.3125 -4.03125 1.3125l-13.328125 0q-2.546875 0 -4.40625 -1.53125q-1.84375 -1.546875 -2.125 -4.09375l-2.625 -20.578125q-0.1875 -2.078125 -0.28125 -4.03125q-0.078125 -1.953125 -0.265625 -3.9375l-1.171875 0q-0.09375 1.984375 -0.28125 3.9375q-0.171875 1.953125 -0.359375 4.03125l-2.625 20.578125q-0.28125 2.546875 -2.140625 4.09375q-1.84375 1.53125 -4.390625 1.53125l-13.140625 0q-2.265625 0 -4.0 -1.3125q-1.71875 -1.3125 -2.171875 -3.5l-9.25 -40.515625l18.859375 0l3.265625 25.46875q0.1875 2.0 0.40625 4.0q0.234375 1.984375 0.328125 4.078125l1.078125 0q0.1875 -2.09375 0.40625 -4.078125q0.234375 -2.0 0.40625 -4.0l2.546875 -19.9375q0.265625 -2.453125 2.078125 -3.984375q1.8125 -1.546875 4.359375 -1.546875l10.421875 0q2.53125 0 4.34375 1.546875q1.828125 1.53125 2.09375 4.078125l2.453125 19.84375q0.171875 2.0 0.484375 4.0q0.328125 1.984375 0.421875 4.078125l1.078125 0q0.1875 -2.09375 0.359375 -4.078125q0.1875 -2.0 0.453125 -4.0l3.1875 -25.46875l18.9375 0zm14.696045 3.453125q3.71875 0 5.109375 1.40625q1.40625 1.390625 1.40625 5.109375l0 3.71875q0 3.625 -1.40625 5.078125q-1.390625 1.453125 -5.109375 1.453125l-4.265625 0q-3.71875 0 -5.125 -1.453125q-1.40625 -1.453125 -1.40625 -5.078125l0 -3.71875q0 -3.71875 1.40625 -5.109375q1.40625 -1.40625 5.125 -1.40625l4.265625 0zm0 25.015625q3.71875 0 5.109375 1.40625q1.40625 1.390625 1.40625 5.109375l0 3.71875q0 3.625 -1.40625 5.078125q-1.390625 1.453125 -5.109375 1.453125l-4.265625 0q-3.71875 0 -5.125 -1.453125q-1.40625 -1.453125 -1.40625 -5.078125l0 -3.71875q0 -3.71875 1.40625 -5.109375q1.40625 -1.40625 5.125 -1.40625l4.265625 0z" fill-rule="nonzero"/><path fill="#010000" fill-opacity="0.0" d="m2305.459 587.804l316.48096 0l0 108.78754l-316.48096 0l0 -108.78754z" fill-rule="nonzero"/><path fill="#000000" d="m2336.7402 614.72906q4.890625 0 8.328125 0.28125q3.453125 0.265625 6.296875 0.765625q2.859375 0.5 5.953125 1.40625l-1.453125 14.3125q-3.171875 -0.078125 -5.890625 -0.078125q-2.71875 0 -5.8125 -0.046875q-3.078125 -0.046875 -7.421875 -0.046875q-3.09375 0 -4.765625 1.3125q-1.671875 1.3125 -2.3125 4.71875q-0.625 3.390625 -0.625 9.734375q0 6.34375 0.625 9.75q0.640625 3.40625 2.3125 4.71875q1.671875 1.3125 4.765625 1.3125q6.796875 0 11.375 -0.140625q4.578125 -0.140625 9.109375 -0.59375l1.453125 14.328125q-4.71875 1.640625 -9.65625 2.3125q-4.9375 0.6875 -12.28125 0.6875q-10.34375 0 -16.59375 -3.125q-6.25 -3.140625 -9.015625 -10.203125q-2.765625 -7.078125 -2.765625 -19.046875q0 -11.96875 2.765625 -19.03125q2.765625 -7.078125 9.015625 -10.203125q6.25 -3.125 16.59375 -3.125zm61.644043 1.09375l0 62.546875l-19.671875 0l0 -62.546875l19.671875 0zm17.5 0l0 14.6875l-54.671875 0l0 -14.6875l54.671875 0zm32.181885 -0.90625q9.234375 0 15.03125 1.71875q5.8125 1.71875 8.578125 5.84375q2.765625 4.125 2.765625 11.46875q0 3.71875 -1.140625 6.9375q-1.125 3.21875 -3.890625 5.3125q-2.765625 2.078125 -7.65625 2.625l0 0.53125q1.71875 0.1875 3.796875 1.046875q2.09375 0.859375 3.90625 2.90625q1.8125 2.03125 2.53125 5.84375l4.90625 19.21875l-20.578125 0l-4.078125 -18.578125q-0.546875 -2.640625 -1.6875 -3.453125q-1.125 -0.8125 -3.671875 -0.8125q-6.796875 -0.09375 -11.109375 -0.09375q-4.296875 0 -7.296875 -0.09375q-2.984375 -0.09375 -5.96875 -0.265625l0.265625 -13.421875l24.84375 0q2.8125 0 4.34375 -0.53125q1.546875 -0.546875 2.125 -1.953125q0.59375 -1.40625 0.59375 -3.953125q0 -2.625 -0.59375 -3.984375q-0.578125 -1.359375 -2.125 -1.90625q-1.53125 -0.546875 -4.34375 -0.546875q-9.4375 0 -15.875 0.09375q-6.4375 0.09375 -8.78125 0.359375l-1.453125 -13.40625q4.171875 -0.453125 7.84375 -0.640625q3.671875 -0.1875 8.0625 -0.21875q4.390625 -0.046875 10.65625 -0.046875zm-7.25 0.90625l0 62.546875l-19.3125 0l0 -62.546875l19.3125 0zm61.455566 0l0 43.6875q0 1.453125 1.046875 2.359375q1.046875 0.90625 2.765625 0.90625l21.03125 0l0.90625 14.6875q-6.984375 0.90625 -14.921875 1.078125q-7.921875 0.1875 -15.625 0.1875q-6.8125 0 -10.84375 -3.9375q-4.03125 -3.953125 -4.03125 -10.296875l0 -48.671875l19.671875 0zm56.66748 33.71875l0 11.0625l-26.390625 0l0 -11.0625l26.390625 0zm63.18286 -33.71875l-15.234375 57.28125q-0.546875 2.359375 -2.359375 3.8125q-1.8125 1.453125 -4.34375 1.453125l-17.234375 0q-2.53125 0 -4.34375 -1.453125q-1.8125 -1.453125 -2.359375 -3.8125l-15.234375 -57.28125l20.21875 0l8.078125 40.703125q0.359375 1.71875 0.625 3.578125q0.28125 1.859375 0.546875 3.578125l2.171875 0q0.1875 -1.71875 0.5 -3.578125q0.328125 -1.859375 0.6875 -3.578125l8.0625 -40.703125l20.21875 0z" fill-rule="nonzero"/><path fill="#000000" d="m2659.931 615.4478q5.4375 0 11.1875 0.046875q5.765625 0.046875 11.28125 0.28125q5.53125 0.21875 10.078125 0.859375l-0.90625 13.875l-22.9375 0q-1.734375 0 -2.734375 0.90625q-0.984375 0.90625 -0.984375 2.34375l0 26.65625q0 1.453125 0.984375 2.359375q1.0 0.90625 2.734375 0.90625l22.9375 0l0.90625 13.875q-4.546875 0.546875 -10.078125 0.8125q-5.515625 0.265625 -11.28125 0.3125q-5.75 0.046875 -11.1875 0.046875q-6.4375 0 -10.5625 -3.9375q-4.125 -3.953125 -4.125 -10.296875l0 -34.8125q0 -6.34375 4.125 -10.28125q4.125 -3.953125 10.5625 -3.953125zm-13.0625 24.390625l41.4375 0l0 13.0625l-41.4375 0l0 -13.0625zm102.35913 -6.796875l-12.15625 22.203125l13.140625 23.125l-18.84375 0l-12.0625 -23.125l11.15625 -22.203125l18.765625 0zm-34.734375 0l11.15625 22.203125l-12.0625 23.125l-18.84375 0l13.140625 -23.125l-12.15625 -22.203125l18.765625 0zm17.40625 16.6875l0 10.6875l-18.671875 0l0 -10.6875l18.671875 0zm55.39087 -17.78125q8.890625 0 12.609375 6.359375q3.71875 6.34375 3.71875 17.9375q0 9.34375 -1.953125 14.421875q-1.953125 5.078125 -5.765625 7.03125q-3.796875 1.9375 -9.421875 1.9375q-5.171875 0 -9.65625 -1.53125q-4.484375 -1.546875 -7.203125 -5.359375l1.265625 -7.421875q1.8125 0.625 3.484375 1.265625q1.6875 0.625 4.5 0.625q1.90625 0 3.03125 -0.671875q1.140625 -0.6875 1.640625 -3.0q0.5 -2.3125 0.5 -7.109375q0 -4.890625 -0.5 -7.203125q-0.5 -2.3125 -1.59375 -2.953125q-1.09375 -0.640625 -2.8125 -0.640625q-2.359375 0 -3.71875 0.5q-1.359375 0.5 -2.796875 1.234375l-2.640625 -7.171875q1.1875 -2.265625 3.765625 -4.125q2.578125 -1.859375 6.109375 -2.984375q3.546875 -1.140625 7.4375 -1.140625zm-18.21875 1.09375l1.8125 7.15625l2.0 1.453125l0 30.015625l-0.546875 1.078125q0.28125 2.90625 0.453125 6.34375q0.1875 3.453125 0.09375 6.625l0 8.96875l-19.046875 0l0 -61.640625l15.234375 0zm64.81641 -1.265625q9.25 0 14.828125 2.3125q5.578125 2.3125 8.015625 7.578125q2.453125 5.25 2.453125 14.125q0 8.703125 -2.453125 13.875q-2.4375 5.171875 -8.015625 7.484375q-5.578125 2.3125 -14.828125 2.3125q-9.234375 0 -14.8125 -2.3125q-5.578125 -2.3125 -8.078125 -7.484375q-2.484375 -5.171875 -2.484375 -13.875q0 -8.875 2.484375 -14.125q2.5 -5.265625 8.078125 -7.578125q5.578125 -2.3125 14.8125 -2.3125zm0 12.875q-2.171875 0 -3.359375 0.859375q-1.171875 0.859375 -1.625 3.21875q-0.453125 2.359375 -0.453125 7.0625q0 4.53125 0.453125 6.84375q0.453125 2.3125 1.625 3.140625q1.1875 0.8125 3.359375 0.8125q2.1875 0 3.359375 -0.8125q1.1875 -0.828125 1.59375 -3.140625q0.40625 -2.3125 0.40625 -6.84375q0 -4.703125 -0.40625 -7.0625q-0.40625 -2.359375 -1.59375 -3.21875q-1.171875 -0.859375 -3.359375 -0.859375zm46.42212 -11.609375l2.359375 9.25l1.8125 1.078125l0 35.0l-19.046875 0l0 -45.328125l14.875 0zm22.03125 -1.265625l-1.640625 17.40625l-4.796875 0q-2.453125 0 -5.484375 0.234375q-3.03125 0.21875 -7.9375 1.03125l-1.078125 -10.25q4.4375 -4.25 9.140625 -6.328125q4.71875 -2.09375 9.171875 -2.09375l2.625 0zm27.835938 -10.609375l0 40.703125q0 1.71875 0.90625 2.5q0.90625 0.765625 2.984375 0.765625l4.8125 0l2.078125 12.140625q-1.90625 0.828125 -4.71875 1.3125q-2.8125 0.5 -5.671875 0.765625q-2.84375 0.28125 -5.015625 0.28125q-6.625 0 -10.53125 -3.34375q-3.890625 -3.359375 -3.890625 -9.34375l0 -45.78125l19.046875 0zm10.96875 11.875l0 11.421875l-37.71875 0l0 -10.96875l8.703125 -0.453125l29.015625 0z" fill-rule="nonzero"/><path fill="#000000" d="m2305.459 684.263l316.48096 0l0 8.159973l-316.48096 0l0 -8.159973z" fill-rule="nonzero"/><path fill="#c3c7cb" d="m2023.6351 699.54596l702.2677 0l0 181.82672l-702.2677 0z" fill-rule="evenodd"/><path fill="#ffffff" d="m1357.6588 706.88715l1945.8898 0l0 627.6535l-1945.8898 0z" fill-rule="evenodd"/><path stroke="#000000" stroke-width="4.0" stroke-linejoin="round" stroke-linecap="butt" d="m1357.6588 706.88715l1945.8898 0l0 627.6535l-1945.8898 0z" fill-rule="evenodd"/><path fill="#ffffff" d="m1359.6351 1343.6824l0 -16.26233l1931.6788 0l0 -622.72974l21.738525 0l0 638.99207z" fill-rule="evenodd"/></g></svg>