<svg version="1.1" viewBox="0.0 0.0 3840.0 2160.0" fill="none" stroke="none" stroke-linecap="square" stroke-miterlimit="10" xmlns:xlink="http://www.w3.org/1999/xlink" xmlns="http://www.w3.org/2000/svg"><clipPath id="p.0"><path d="m0 0l3840.0 0l0 2160.0l-3840.0 0l0 -2160.0z" clip-rule="nonzero"/></clipPath><g clip-path="url(#p.0)"><path fill="#386e6e" d="m0 0l3840.0 0l0 2160.0l-3840.0 0z" fill-rule="evenodd"/><g filter="url(#shadowFilter-p.1)"><use xlink:href="#p.1" transform="matrix(1.0 0.0 0.0 1.0 -11.31370839895016 -11.313708398950084)"/></g><defs><filter id="shadowFilter-p.1" filterUnits="userSpaceOnUse"><feGaussianBlur in="SourceAlpha" stdDeviation="12.0" result="blur"/><feComponentTransfer in="blur" color-interpolation-filters="sRGB"><feFuncR type="linear" slope="0" intercept="1.0"/><feFuncG type="linear" slope="0" intercept="1.0"/><feFuncB type="linear" slope="0" intercept="1.0"/><feFuncA type="linear" slope="1.0" intercept="0"/></feComponentTransfer></filter></defs><g id="p.1"><path fill="#c3c7cb" d="m3351.2441 2002.2992l-2862.4883 0l0 -1844.5984l2862.4883 0z" fill-rule="evenodd"/></g><g filter="url(#shadowFilter-p.2)"><use xlink:href="#p.2" transform="matrix(1.0 0.0 0.0 1.0 12.727922047244103 12.72792204724395)"/></g><defs><filter id="shadowFilter-p.2" filterUnits="userSpaceOnUse"><feGaussianBlur in="SourceAlpha" stdDeviation="12.0" result="blur"/><feComponentTransfer in="blur" color-interpolation-filters="sRGB"><feFuncR type="linear" slope="0" intercept="0.0"/><feFuncG type="linear" slope="0" intercept="0.0"/><feFuncB type="linear" slope="0" intercept="0.0"/><feFuncA type="linear" slope="1.0" intercept="0"/></feComponentTransfer></filter></defs><g id="p.2"><path fill="#c3c7cb" d="m488.75592 157.70079l2862.4883 0l0 1844.5984l-2862.4883 0z" fill-rule="evenodd"/></g><path fill="#0000aa" d="m505.85828 178.15486l2828.2837 0l0 126.80315l-2828.2837 0z" fill-rule="evenodd"/><path stroke="#ffffff" stroke-width="1.0" stroke-linejoin="round" stroke-linecap="butt" d="m505.85828 178.15486l2828.2837 0l0 126.80315l-2828.2837 0z" fill-rule="evenodd"/><path fill="#ffffff" d="m591.71765 210.12393q6.90625 0 7.203125 7.09375l2.265625 58.21875l-18.453125 0l-2.0 -49.984375l-1.421875 0l-6.421875 33.328125q-0.953125 6.25 -7.765625 6.25l-10.609375 0q-6.71875 0 -7.859375 -6.25l-6.53125 -33.328125l-1.40625 0l-1.609375 49.984375l-18.46875 0l2.28125 -58.21875q0.28125 -7.09375 7.1875 -7.09375l17.703125 0q6.625 0 7.765625 6.34375l4.734375 25.9375q0.375 2.359375 0.609375 4.828125q0.234375 2.453125 0.421875 4.921875l0.859375 0q0.28125 -2.46875 0.515625 -4.921875q0.234375 -2.46875 0.609375 -4.828125l4.453125 -25.9375q1.140625 -6.34375 7.859375 -6.34375l18.078125 0zm44.768982 16.65625q6.71875 0 11.3125 1.75q4.59375 1.75 7.0 5.96875q2.421875 4.203125 2.421875 11.59375l0 29.34375l-15.8125 0l-2.734375 -10.125l-1.328125 -1.890625l0 -17.421875q-0.09375 -2.46875 -1.28125 -3.59375q-1.1875 -1.140625 -4.3125 -1.140625q-3.6875 0 -9.03125 0.09375q-5.34375 0.09375 -11.40625 0.375l-1.796875 -12.578125q3.59375 -0.671875 8.5625 -1.1875q4.96875 -0.515625 9.890625 -0.84375q4.921875 -0.34375 8.515625 -0.34375zm13.0625 19.59375l-0.09375 9.5625l-19.59375 0q-1.796875 0 -2.703125 0.8125q-0.890625 0.796875 -0.890625 2.125l0 1.515625q0 1.234375 0.984375 2.09375q1.0 0.84375 2.984375 0.84375q2.28125 0 4.734375 -1.09375q2.46875 -1.09375 4.734375 -2.796875q2.28125 -1.703125 3.890625 -3.5l0 6.0625q-0.671875 1.609375 -2.09375 4.078125q-1.40625 2.453125 -3.828125 4.921875q-2.40625 2.453125 -5.96875 4.109375q-3.546875 1.65625 -8.46875 1.65625q-4.34375 0 -8.09375 -1.515625q-3.734375 -1.515625 -5.96875 -4.5q-2.21875 -2.984375 -2.21875 -7.421875l0 -4.734375q0 -5.6875 4.203125 -8.953125q4.21875 -3.265625 11.421875 -3.265625l26.96875 0zm35.503418 -18.265625l0 47.328125l-19.78125 0l0 -47.328125l19.78125 0zm-5.6875 -21.671875q5.78125 0 5.78125 5.859375l0 4.828125q0 5.875 -5.78125 5.875l-8.421875 0q-5.765625 0 -5.765625 -5.875l0 -4.828125q0 -5.859375 5.765625 -5.859375l8.421875 0zm51.118347 20.34375q14.015625 0 14.015625 13.25l0 35.40625l-19.875 0l0 -29.0625q0 -1.609375 -0.765625 -2.21875q-0.75 -0.625 -2.65625 -0.625q-1.796875 0 -4.015625 0.296875q-2.21875 0.28125 -5.828125 1.515625l-0.9375 -9.75q4.734375 -4.453125 9.9375 -6.625q5.203125 -2.1875 10.125 -2.1875zm-21.296875 1.328125l2.46875 9.65625l1.796875 1.140625l0 36.53125l-19.890625 0l0 -47.328125l15.625 0zm135.83118 -17.984375q6.90625 0 7.203125 7.09375l2.265625 58.21875l-18.453125 0l-2.0 -49.984375l-1.421875 0l-6.421875 33.328125q-0.953125 6.25 -7.765625 6.25l-10.609375 0q-6.71875 0 -7.859375 -6.25l-6.53125 -33.328125l-1.40625 0l-1.609375 49.984375l-18.46875 0l2.28125 -58.21875q0.28125 -7.09375 7.1875 -7.09375l17.703125 0q6.625 0 7.765625 6.34375l4.734375 25.9375q0.375 2.359375 0.609375 4.828125q0.234375 2.453125 0.421875 4.921875l0.859375 0q0.28125 -2.46875 0.515625 -4.921875q0.234375 -2.46875 0.609375 -4.828125l4.453125 -25.9375q1.140625 -6.34375 7.859375 -6.34375l18.078125 0zm42.503357 16.65625q13.34375 0 18.921875 4.265625q5.59375 4.25 5.6875 12.59375q0.09375 6.625 -3.9375 9.5625q-4.015625 2.921875 -14.421875 2.921875l-25.46875 0l0 -9.375l19.875 0q3.21875 0 4.0625 -0.609375q0.859375 -0.609375 0.859375 -2.984375q0 -2.265625 -1.140625 -2.921875q-1.125 -0.671875 -3.875 -0.671875q-2.734375 -0.09375 -4.15625 0.578125q-1.421875 0.65625 -1.953125 2.875q-0.515625 2.21875 -0.515625 6.953125q0 4.359375 0.609375 6.828125q0.625 2.453125 2.421875 3.5q1.796875 1.03125 5.296875 1.03125q2.84375 0 8.0 -0.1875q5.15625 -0.1875 11.21875 -0.84375l1.796875 11.921875q-3.3125 1.703125 -7.09375 2.65625q-3.78125 0.9375 -7.8125 1.3125q-4.015625 0.390625 -8.28125 0.390625q-9.84375 0 -15.8125 -2.75q-5.953125 -2.75 -8.5625 -8.1875q-2.609375 -5.4375 -2.609375 -13.484375q0 -9.375 2.65625 -14.90625q2.65625 -5.546875 8.5625 -8.0q5.921875 -2.46875 15.671875 -2.46875zm67.58154 0q14.015625 0 14.015625 13.25l0 35.40625l-19.875 0l0 -29.0625q0 -1.609375 -0.765625 -2.21875q-0.75 -0.625 -2.65625 -0.625q-1.796875 0 -4.015625 0.296875q-2.21875 0.28125 -5.828125 1.515625l-0.9375 -9.75q4.734375 -4.453125 9.9375 -6.625q5.203125 -2.1875 10.125 -2.1875zm-21.296875 1.328125l2.46875 9.65625l1.796875 1.140625l0 36.53125l-19.890625 0l0 -47.328125l15.625 0zm62.750244 0l0 29.0625q0 1.515625 0.859375 2.234375q0.859375 0.703125 2.65625 0.703125q1.890625 0 3.875 -0.328125q1.984375 -0.34375 5.203125 -1.578125l1.140625 9.75q-4.828125 4.453125 -9.5625 6.640625q-4.734375 2.171875 -10.03125 2.171875q-14.015625 0 -14.015625 -13.25l0 -35.40625l19.875 0zm30.484436 0l0 47.328125l-15.609436 0l-2.46875 -9.65625l-1.890625 -1.140625l0 -36.53125l19.968811 0z" fill-rule="nonzero"/><path fill="#f2bb05" d="m1055.163 224.2333l40.890625 14.859375l0 15.234375l-40.890625 14.953125l0 -15.421875l24.21875 -7.109375l-24.21875 -7.09375l0 -15.421875z" fill-rule="nonzero"/><path fill="#ffffff" d="m1148.1051 208.7958q5.109375 0 11.5 0.625q6.390625 0.609375 12.265625 2.6875l-1.234375 13.15625q-4.265625 -0.09375 -10.5625 -0.140625q-6.28125 -0.046875 -12.4375 -0.046875q-1.796875 0 -2.984375 0.09375q-1.1875 0.09375 -1.84375 0.390625q-0.65625 0.28125 -0.953125 0.75q-0.28125 0.46875 -0.28125 1.234375q0 1.3125 1.1875 2.21875q1.1875 0.90625 4.5 2.21875l11.828125 4.921875q8.140625 3.515625 11.40625 8.109375q3.265625 4.578125 3.265625 11.78125q0 5.484375 -1.328125 9.328125q-1.328125 3.828125 -4.40625 6.140625q-3.0625 2.3125 -8.1875 3.40625q-5.109375 1.09375 -12.765625 1.09375q-3.3125 0 -10.046875 -0.53125q-6.71875 -0.515625 -15.234375 -2.6875l1.234375 -14.390625q5.671875 0.09375 10.40625 0.234375q4.734375 0.140625 8.1875 0.1875q3.453125 0.046875 5.15625 0.046875q2.65625 0 4.03125 -0.1875q1.375 -0.1875 1.890625 -0.703125q0.515625 -0.53125 0.515625 -1.375q0 -0.953125 -0.375 -1.5625q-0.375 -0.609375 -1.328125 -1.171875q-0.9375 -0.578125 -2.734375 -1.25l-12.96875 -5.671875q-7.953125 -3.59375 -11.265625 -8.046875q-3.3125 -4.453125 -3.3125 -11.640625q0 -5.578125 1.46875 -9.265625q1.46875 -3.703125 4.578125 -5.875q3.125 -2.1875 8.28125 -3.125q5.171875 -0.953125 12.546875 -0.953125zm57.271484 17.984375q13.34375 0 18.921875 4.265625q5.59375 4.25 5.6875 12.59375q0.09375 6.625 -3.9375 9.5625q-4.015625 2.921875 -14.421875 2.921875l-25.46875 0l0 -9.375l19.875 0q3.21875 0 4.0625 -0.609375q0.859375 -0.609375 0.859375 -2.984375q0 -2.265625 -1.140625 -2.921875q-1.125 -0.671875 -3.875 -0.671875q-2.734375 -0.09375 -4.15625 0.578125q-1.421875 0.65625 -1.953125 2.875q-0.515625 2.21875 -0.515625 6.953125q0 4.359375 0.609375 6.828125q0.625 2.453125 2.421875 3.5q1.796875 1.03125 5.296875 1.03125q2.84375 0 8.0 -0.1875q5.15625 -0.1875 11.21875 -0.84375l1.796875 11.921875q-3.3125 1.703125 -7.09375 2.65625q-3.78125 0.9375 -7.8125 1.3125q-4.015625 0.390625 -8.28125 0.390625q-9.84375 0 -15.8125 -2.75q-5.953125 -2.75 -8.5625 -8.1875q-2.609375 -5.4375 -2.609375 -13.484375q0 -9.375 2.65625 -14.90625q2.65625 -5.546875 8.5625 -8.0q5.921875 -2.46875 15.671875 -2.46875zm50.550293 -17.609375l0 49.03125q0 1.8125 1.171875 2.625q1.1875 0.796875 3.5625 0.796875l3.21875 0l2.171875 12.671875q-1.421875 0.859375 -4.03125 1.375q-2.59375 0.515625 -5.296875 0.796875q-2.6875 0.296875 -4.59375 0.296875q-7.46875 0 -11.734375 -3.5q-4.25 -3.5 -4.25 -9.75l0 -54.34375l19.78125 0zm39.183838 17.609375q13.34375 0 18.921875 4.265625q5.59375 4.25 5.6875 12.59375q0.09375 6.625 -3.9375 9.5625q-4.015625 2.921875 -14.421875 2.921875l-25.46875 0l0 -9.375l19.875 0q3.21875 0 4.0625 -0.609375q0.859375 -0.609375 0.859375 -2.984375q0 -2.265625 -1.140625 -2.921875q-1.125 -0.671875 -3.875 -0.671875q-2.734375 -0.09375 -4.15625 0.578125q-1.421875 0.65625 -1.953125 2.875q-0.515625 2.21875 -0.515625 6.953125q0 4.359375 0.609375 6.828125q0.625 2.453125 2.421875 3.5q1.796875 1.03125 5.296875 1.03125q2.84375 0 8.0 -0.1875q5.15625 -0.1875 11.21875 -0.84375l1.796875 11.921875q-3.3125 1.703125 -7.09375 2.65625q-3.78125 0.9375 -7.8125 1.3125q-4.015625 0.390625 -8.28125 0.390625q-9.84375 0 -15.8125 -2.75q-5.953125 -2.75 -8.5625 -8.1875q-2.609375 -5.4375 -2.609375 -13.484375q0 -9.375 2.65625 -14.90625q2.65625 -5.546875 8.5625 -8.0q5.921875 -2.46875 15.671875 -2.46875zm54.425293 0q2.9375 0 6.4375 0.296875q3.5 0.28125 7.0 1.03125q3.5 0.75 6.34375 2.171875l-1.984375 12.3125q-4.546875 0 -7.953125 0q-3.40625 0 -6.4375 0q-3.03125 0 -4.78125 0.765625q-1.75 0.75 -2.46875 2.6875q-0.703125 1.9375 -0.703125 5.625q0 3.703125 0.703125 5.6875q0.71875 1.984375 2.46875 2.75q1.75 0.75 4.78125 0.75q1.609375 0 4.015625 -0.046875q2.421875 -0.046875 5.359375 -0.1875q2.9375 -0.140625 5.859375 -0.421875l1.8125 12.390625q-4.171875 2.1875 -9.671875 3.078125q-5.484375 0.90625 -10.96875 0.90625q-9.28125 0 -14.828125 -2.40625q-5.53125 -2.421875 -7.9375 -7.90625q-2.40625 -5.5 -2.40625 -14.59375q0 -9.171875 2.453125 -14.609375q2.46875 -5.453125 8.046875 -7.859375q5.578125 -2.421875 14.859375 -2.421875zm51.02539 -11.078125l0 42.5q0 1.8125 0.9375 2.625q0.953125 0.796875 3.125 0.796875l5.015625 0l2.1875 12.671875q-2.0 0.859375 -4.9375 1.375q-2.921875 0.515625 -5.90625 0.796875q-2.984375 0.296875 -5.25 0.296875q-6.921875 0 -10.984375 -3.5q-4.0625 -3.5 -4.0625 -9.75l0 -47.8125l19.875 0zm11.453125 12.40625l0 11.921875l-39.375 0l0 -11.453125l9.078125 -0.46875l30.296875 0zm60.488037 -17.984375q2.453125 0 4.34375 1.421875q1.890625 1.421875 2.5625 3.875l16.9375 60.015625l-20.921875 0l-9.84375 -42.5q-0.375 -1.796875 -0.65625 -3.734375q-0.28125 -1.953125 -0.46875 -3.75l-2.5625 0q-0.1875 1.796875 -0.46875 3.75q-0.28125 1.9375 -0.671875 3.734375l-9.84375 42.5l-20.921875 0l16.953125 -60.015625q0.65625 -2.453125 2.546875 -3.875q1.90625 -1.421875 4.359375 -1.421875l18.65625 0zm8.03125 36.828125l0 14.375l-34.734375 0l0 -14.375l34.734375 0zm42.79077 -20.171875q2.9375 0 6.4375 0.296875q3.5 0.28125 7.0 1.03125q3.5 0.75 6.34375 2.171875l-1.984375 12.3125q-4.546875 0 -7.953125 0q-3.40625 0 -6.4375 0q-3.03125 0 -4.78125 0.765625q-1.75 0.75 -2.46875 2.6875q-0.703125 1.9375 -0.703125 5.625q0 3.703125 0.703125 5.6875q0.71875 1.984375 2.46875 2.75q1.75 0.75 4.78125 0.75q1.609375 0 4.015625 -0.046875q2.421875 -0.046875 5.359375 -0.1875q2.9375 -0.140625 5.859375 -0.421875l1.8125 12.390625q-4.171875 2.1875 -9.671875 3.078125q-5.484375 0.90625 -10.96875 0.90625q-9.28125 0 -14.828125 -2.40625q-5.53125 -2.421875 -7.9375 -7.90625q-2.40625 -5.5 -2.40625 -14.59375q0 -9.171875 2.453125 -14.609375q2.46875 -5.453125 8.046875 -7.859375q5.578125 -2.421875 14.859375 -2.421875zm51.02539 -11.078125l0 42.5q0 1.8125 0.9375 2.625q0.953125 0.796875 3.125 0.796875l5.015625 0l2.1875 12.671875q-2.0 0.859375 -4.9375 1.375q-2.921875 0.515625 -5.90625 0.796875q-2.984375 0.296875 -5.25 0.296875q-6.921875 0 -10.984375 -3.5q-4.0625 -3.5 -4.0625 -9.75l0 -47.8125l19.875 0zm11.453125 12.40625l0 11.921875l-39.375 0l0 -11.453125l9.078125 -0.46875l30.296875 0zm25.365723 0l0 47.328125l-19.78125 0l0 -47.328125l19.78125 0zm-5.6875 -21.671875q5.78125 0 5.78125 5.859375l0 4.828125q0 5.875 -5.78125 5.875l-8.421875 0q-5.765625 0 -5.765625 -5.875l0 -4.828125q0 -5.859375 5.765625 -5.859375l8.421875 0zm67.305786 21.671875l-14.015625 42.6875q-0.65625 2.078125 -2.3125 3.359375q-1.65625 1.28125 -3.921875 1.28125l-16.953125 0q-2.265625 0 -3.921875 -1.28125q-1.65625 -1.28125 -2.328125 -3.359375l-14.0 -42.6875l21.015625 0l5.765625 26.125q0.484375 2.171875 0.765625 4.453125q0.28125 2.265625 0.5625 4.4375l1.234375 0q0.28125 -2.171875 0.65625 -4.4375q0.375 -2.28125 0.765625 -4.453125l5.671875 -26.125l21.015625 0zm23.950928 0l0 47.328125l-19.78125 0l0 -47.328125l19.78125 0zm-5.6875 -21.671875q5.78125 0 5.78125 5.859375l0 4.828125q0 5.875 -5.78125 5.875l-8.421875 0q-5.765625 0 -5.765625 -5.875l0 -4.828125q0 -5.859375 5.765625 -5.859375l8.421875 0zm39.00891 9.265625l0 42.5q0 1.8125 0.9375 2.625q0.953125 0.796875 3.125 0.796875l5.015625 0l2.1875 12.671875q-2.0 0.859375 -4.9375 1.375q-2.921875 0.515625 -5.90625 0.796875q-2.984375 0.296875 -5.25 0.296875q-6.921875 0 -10.984375 -3.5q-4.0625 -3.5 -4.0625 -9.75l0 -47.8125l19.875 0zm11.453125 12.40625l0 11.921875l-39.375 0l0 -11.453125l9.078125 -0.46875l30.296875 0zm58.303223 0l-15.046875 46.0q-1.234375 3.890625 -3.5625 8.046875q-2.3125 4.171875 -6.046875 7.4375q-3.734375 3.265625 -9.140625 4.625q-5.390625 1.375 -12.78125 -0.140625l-1.3125 -10.6875q5.859375 -1.234375 9.3125 -3.265625q3.46875 -2.03125 5.265625 -6.015625l3.5 -7.5625q1.03125 -2.375 1.828125 -6.0625q0.8125 -3.6875 1.296875 -6.25l5.578125 -26.125l21.109375 0zm-36.34375 0l5.578125 26.125q0.375 2.171875 0.65625 4.453125q0.296875 2.265625 0.578125 4.4375l2.84375 0l-6.15625 12.3125l-4.359375 0q-2.265625 0 -3.921875 -1.28125q-1.65625 -1.28125 -2.328125 -3.359375l-14.0 -42.6875l21.109375 0z" fill-rule="nonzero"/><path fill="#c3c7cb" d="m3208.8582 186.39108l110.33081 0l0 110.33069l-110.33081 0z" fill-rule="evenodd"/><path stroke="#000000" stroke-width="3.0" stroke-linejoin="round" stroke-linecap="butt" d="m3208.8582 186.39108l110.33081 0l0 110.33069l-110.33081 0z" fill-rule="evenodd"/><path fill="#000000" d="m3302.683 195.2433l-18.421875 39.65625l20.0625 41.29689l-25.21875 0l-18.3125 -41.29689l16.78125 -39.65625l25.109375 0zm-52.203125 0l16.765625 39.65625l-18.296875 41.29689l-25.234375 0l20.0625 -41.29689l-18.40625 -39.65625l25.109375 0zm24.75 32.375l0 14.078125l-24.40625 0l0 -14.078125l24.40625 0z" fill-rule="nonzero"/><path fill="#c3c7cb" d="m3208.8582 186.39108l110.33081 0l0 0l-109.871826 0l0 109.871735l-0.45898438 0.45895386z" fill-rule="evenodd"/><path stroke="#ffffff" stroke-width="3.0" stroke-linejoin="round" stroke-linecap="butt" d="m3208.8582 186.39108l110.33081 0l0 0l-109.871826 0l0 109.871735l-0.45898438 0.45895386z" fill-rule="evenodd"/><path fill="#c3c7cb" d="m3085.8662 186.39108l110.33057 0l0 110.33069l-110.33057 0z" fill-rule="evenodd"/><path stroke="#000000" stroke-width="3.0" stroke-linejoin="round" stroke-linecap="butt" d="m3085.8662 186.39108l110.33057 0l0 110.33069l-110.33057 0z" fill-rule="evenodd"/><path fill="#000000" d="m3143.266 212.72768l0 19.125l-30.390625 8.796875l30.390625 8.796875l0 19.125015l-51.046875 -18.54689l0 -18.875l51.046875 -18.421875zm44.469482 26.15625l0 14.3125l-34.15625 0l0 -14.3125l34.15625 0z" fill-rule="nonzero"/><path fill="#c3c7cb" d="m3085.8662 186.39108l110.33057 0l0 0l-109.87158 0l0 109.871735l-0.45898438 0.45895386z" fill-rule="evenodd"/><path stroke="#ffffff" stroke-width="3.0" stroke-linejoin="round" stroke-linecap="butt" d="m3085.8662 186.39108l110.33057 0l0 0l-109.87158 0l0 109.871735l-0.45898438 0.45895386z" fill-rule="evenodd"/></g></svg>