<svg version="1.1" viewBox="0.0 0.0 3840.0 2160.0" fill="none" stroke="none" stroke-linecap="square" stroke-miterlimit="10" xmlns:xlink="http://www.w3.org/1999/xlink" xmlns="http://www.w3.org/2000/svg"><clipPath id="p.0"><path d="m0 0l3840.0 0l0 2160.0l-3840.0 0l0 -2160.0z" clip-rule="nonzero"/></clipPath><g clip-path="url(#p.0)"><path fill="#386e6e" d="m0 0l3840.0 0l0 2160.0l-3840.0 0z" fill-rule="evenodd"/><g filter="url(#shadowFilter-p.1)"><use xlink:href="#p.1" transform="matrix(1.0 0.0 0.0 1.0 -11.31370839895016 -11.313708398950084)"/></g><defs><filter id="shadowFilter-p.1" filterUnits="userSpaceOnUse"><feGaussianBlur in="SourceAlpha" stdDeviation="12.0" result="blur"/><feComponentTransfer in="blur" color-interpolation-filters="sRGB"><feFuncR type="linear" slope="0" intercept="1.0"/><feFuncG type="linear" slope="0" intercept="1.0"/><feFuncB type="linear" slope="0" intercept="1.0"/><feFuncA type="linear" slope="1.0" intercept="0"/></feComponentTransfer></filter></defs><g id="p.1"><path fill="#c3c7cb" d="m3351.2441 2002.2992l-2862.4883 0l0 -1844.5984l2862.4883 0z" fill-rule="evenodd"/></g><g filter="url(#shadowFilter-p.2)"><use xlink:href="#p.2" transform="matrix(1.0 0.0 0.0 1.0 12.727922047244103 12.72792204724395)"/></g><defs><filter id="shadowFilter-p.2" filterUnits="userSpaceOnUse"><feGaussianBlur in="SourceAlpha" stdDeviation="12.0" result="blur"/><feComponentTransfer in="blur" color-interpolation-filters="sRGB"><feFuncR type="linear" slope="0" intercept="0.0"/><feFuncG type="linear" slope="0" intercept="0.0"/><feFuncB type="linear" slope="0" intercept="0.0"/><feFuncA type="linear" slope="1.0" intercept="0"/></feComponentTransfer></filter></defs><g id="p.2"><path fill="#c3c7cb" d="m488.75592 157.70079l2862.4883 0l0 1844.5984l-2862.4883 0z" fill-rule="evenodd"/></g><path fill="#0000aa" d="m505.85828 178.15486l2828.2837 0l0 126.80315l-2828.2837 0z" fill-rule="evenodd"/><path stroke="#ffffff" stroke-width="1.0" stroke-linejoin="round" stroke-linecap="butt" d="m505.85828 178.15486l2828.2837 0l0 126.80315l-2828.2837 0z" fill-rule="evenodd"/><path fill="#ffffff" d="m578.7333 215.8108q5.734375 0 5.96875 5.890625l1.890625 48.374985l-15.34375 0l-1.640625 -41.531235l-1.1875 0l-5.34375 27.687485q-0.796875 5.1875 -6.453125 5.1875l-8.8125 0q-5.578125 0 -6.53125 -5.1875l-5.421875 -27.687485l-1.171875 0l-1.34375 41.531235l-15.34375 0l1.890625 -48.374985q0.234375 -5.890625 5.984375 -5.890625l14.703125 0q5.5 0 6.453125 5.265625l3.9375 21.546875q0.3125 1.96875 0.5 4.015625q0.203125 2.046875 0.359375 4.09375l0.703125 0q0.234375 -2.046875 0.4375 -4.09375q0.203125 -2.046875 0.515625 -4.015625l3.6875 -21.546875q0.953125 -5.265625 6.53125 -5.265625l15.03125 0zm37.193176 13.84375q5.59375 0 9.40625 1.453125q3.8125 1.453125 5.8125 4.953125q2.015625 3.5 2.015625 9.625l0 24.39061l-13.140625 0l-2.28125 -8.421875l-1.09375 -1.5625l0 -14.48436q-0.078125 -2.03125 -1.0625 -2.96875q-0.984375 -0.953125 -3.578125 -0.953125q-3.078125 0 -7.53125 0.078125q-4.4375 0.078125 -9.46875 0.3125l-1.484375 -10.46875q2.984375 -0.546875 7.109375 -0.96875q4.125 -0.4375 8.21875 -0.703125q4.09375 -0.28125 7.078125 -0.28125zm10.859375 16.28125l-0.078125 7.9375l-16.28125 0q-1.5 0 -2.25 0.671875q-0.734375 0.671875 -0.734375 1.7656097l0 1.265625q0 1.015625 0.8125 1.734375q0.828125 0.703125 2.484375 0.703125q1.890625 0 3.9375 -0.90625q2.046875 -0.90625 3.921875 -2.3125q1.890625 -1.4218597 3.234375 -2.9218597l0 5.0312347q-0.546875 1.34375 -1.734375 3.390625q-1.171875 2.046875 -3.1875 4.09375q-2.0 2.03125 -4.953125 3.40625q-2.953125 1.375 -7.03125 1.375q-3.625 0 -6.734375 -1.25q-3.109375 -1.265625 -4.953125 -3.734375q-1.84375 -2.484375 -1.84375 -6.171875l0 -3.9375q0 -4.7187347 3.5 -7.4218597q3.5 -2.71875 9.46875 -2.71875l22.421875 0zm29.500916 -15.1875l0 39.32811l-16.4375 0l0 -39.32811l16.4375 0zm-4.71875 -18.015625q4.796875 0 4.796875 4.875l0 4.015625q0 4.875 -4.796875 4.875l-7.0 0q-4.796875 0 -4.796875 -4.875l0 -4.015625q0 -4.875 4.796875 -4.875l7.0 0zm42.47345 16.921875q11.640625 0 11.640625 11.0l0 29.42186l-16.515625 0l0 -24.14061q0 -1.34375 -0.640625 -1.84375q-0.625 -0.515625 -2.203125 -0.515625q-1.484375 0 -3.34375 0.234375q-1.84375 0.234375 -4.828125 1.25l-0.78125 -8.09375q3.921875 -3.703125 8.25 -5.5q4.328125 -1.8125 8.421875 -1.8125zm-17.703125 1.09375l2.046875 8.015625l1.5 0.953125l0 30.35936l-16.53125 0l0 -39.32811l12.984375 0zm112.87897 -14.9375q5.734375 0 5.96875 5.890625l1.890625 48.374985l-15.34375 0l-1.640625 -41.531235l-1.1875 0l-5.34375 27.687485q-0.796875 5.1875 -6.453125 5.1875l-8.8125 0q-5.578125 0 -6.53125 -5.1875l-5.421875 -27.687485l-1.171875 0l-1.34375 41.531235l-15.34375 0l1.890625 -48.374985q0.234375 -5.890625 5.984375 -5.890625l14.703125 0q5.5 0 6.453125 5.265625l3.9375 21.546875q0.3125 1.96875 0.5 4.015625q0.203125 2.046875 0.359375 4.09375l0.703125 0q0.234375 -2.046875 0.4375 -4.09375q0.203125 -2.046875 0.515625 -4.015625l3.6875 -21.546875q0.953125 -5.265625 6.53125 -5.265625l15.03125 0zm35.318176 13.84375q11.078125 0 15.71875 3.546875q4.640625 3.53125 4.71875 10.453125q0.078125 5.5 -3.265625 7.9375q-3.34375 2.4375 -11.984375 2.4375l-21.15625 0l0 -7.78125l16.515625 0q2.671875 0 3.375 -0.515625q0.71875 -0.515625 0.71875 -2.484375q0 -1.875 -0.953125 -2.421875q-0.9375 -0.5625 -3.21875 -0.5625q-2.28125 -0.078125 -3.46875 0.484375q-1.171875 0.546875 -1.609375 2.390625q-0.4375 1.84375 -0.4375 5.78125q0 3.609375 0.515625 5.65625q0.515625 2.0468597 2.0 2.9218597q1.5 0.859375 4.40625 0.859375q2.359375 0 6.640625 -0.15625q4.296875 -0.15625 9.328125 -0.703125l1.5 9.90625q-2.75 1.40625 -5.90625 2.203125q-3.140625 0.78125 -6.484375 1.09375q-3.34375 0.3125 -6.875 0.3125q-8.1875 0 -13.140625 -2.28125q-4.953125 -2.28125 -7.125 -6.796875q-2.15625 -4.515625 -2.15625 -11.20311q0 -7.796875 2.203125 -12.390625q2.203125 -4.609375 7.109375 -6.640625q4.921875 -2.046875 13.03125 -2.046875zm56.157166 0q11.640625 0 11.640625 11.0l0 29.42186l-16.515625 0l0 -24.14061q0 -1.34375 -0.640625 -1.84375q-0.625 -0.515625 -2.203125 -0.515625q-1.484375 0 -3.34375 0.234375q-1.84375 0.234375 -4.828125 1.25l-0.78125 -8.09375q3.921875 -3.703125 8.25 -5.5q4.328125 -1.8125 8.421875 -1.8125zm-17.703125 1.09375l2.046875 8.015625l1.5 0.953125l0 30.35936l-16.53125 0l0 -39.32811l12.984375 0zm52.142395 0l0 24.140625q0 1.2656097 0.703125 1.8593597q0.71875 0.578125 2.21875 0.578125q1.5625 0 3.21875 -0.265625q1.65625 -0.28125 4.328125 -1.2968597l0.9375 8.093735q-4.0 3.703125 -7.9375 5.515625q-3.9375 1.796875 -8.34375 1.796875q-11.640625 0 -11.640625 -11.0l0 -29.42186l16.515625 0zm25.328125 0l0 39.32811l-12.96875 0l-2.046875 -8.015625l-1.578125 -0.953125l0 -30.35936l16.59375 0z" fill-rule="nonzero"/><path fill="#f2bb05" d="m963.8201 227.52956l33.984375 12.34375l0 12.65625l-33.984375 12.437485l0 -12.82811l20.140625 -5.890625l-20.140625 -5.90625l0 -12.8125z" fill-rule="nonzero"/><path fill="#ffffff" d="m1041.0734 214.70143q4.25 0 9.546875 0.515625q5.3125 0.515625 10.1875 2.234375l-1.015625 10.9375q-3.546875 -0.078125 -8.78125 -0.109375q-5.21875 -0.046875 -10.328125 -0.046875q-1.5 0 -2.484375 0.078125q-0.984375 0.078125 -1.53125 0.3125q-0.546875 0.234375 -0.796875 0.640625q-0.234375 0.390625 -0.234375 1.015625q0 1.09375 0.984375 1.84375q0.984375 0.75 3.734375 1.84375l9.84375 4.09375q6.765625 2.90625 9.46875 6.734375q2.71875 3.8125 2.71875 9.78125q0 4.5624847 -1.109375 7.7499847q-1.09375 3.1875 -3.65625 5.125q-2.546875 1.921875 -6.796875 2.8125q-4.25 0.90625 -10.625 0.90625q-2.75 0 -8.34375 -0.4375q-5.578125 -0.421875 -12.65625 -2.234375l1.03125 -11.953125q4.71875 0.078125 8.640625 0.203125q3.9375 0.109375 6.8125 0.15625q2.875 0.03125 4.28125 0.03125q2.203125 0 3.34375 -0.15625q1.140625 -0.15625 1.578125 -0.578125q0.4375 -0.43748474 0.4375 -1.1406097q0 -0.796875 -0.328125 -1.296875q-0.3125 -0.515625 -1.09375 -0.984375q-0.78125 -0.484375 -2.28125 -1.03125l-10.78125 -4.71875q-6.609375 -2.984375 -9.359375 -6.671875q-2.75 -3.703125 -2.75 -9.6875q0 -4.640625 1.21875 -7.703125q1.21875 -3.078125 3.8125 -4.875q2.59375 -1.8125 6.875 -2.59375q4.296875 -0.796875 10.4375 -0.796875zm47.5896 14.953125q11.078125 0 15.71875 3.546875q4.640625 3.53125 4.71875 10.453125q0.078125 5.5 -3.265625 7.9375q-3.34375 2.4375 -11.984375 2.4375l-21.15625 0l0 -7.78125l16.515625 0q2.671875 0 3.375 -0.515625q0.71875 -0.515625 0.71875 -2.484375q0 -1.875 -0.953125 -2.421875q-0.9375 -0.5625 -3.21875 -0.5625q-2.28125 -0.078125 -3.46875 0.484375q-1.171875 0.546875 -1.609375 2.390625q-0.4375 1.84375 -0.4375 5.78125q0 3.609375 0.515625 5.65625q0.515625 2.0468597 2.0 2.9218597q1.5 0.859375 4.40625 0.859375q2.359375 0 6.640625 -0.15625q4.296875 -0.15625 9.328125 -0.703125l1.5 9.90625q-2.75 1.40625 -5.90625 2.203125q-3.140625 0.78125 -6.484375 1.09375q-3.34375 0.3125 -6.875 0.3125q-8.1875 0 -13.140625 -2.28125q-4.953125 -2.28125 -7.125 -6.796875q-2.15625 -4.515625 -2.15625 -11.20311q0 -7.796875 2.203125 -12.390625q2.203125 -4.609375 7.109375 -6.640625q4.921875 -2.046875 13.03125 -2.046875zm46.0791 -9.203125l0 35.3125q0 1.4843597 0.78125 2.1562347q0.796875 0.671875 2.609375 0.671875l4.171875 0l1.796875 10.546875q-1.640625 0.703125 -4.078125 1.125q-2.4375 0.4375 -4.921875 0.671875q-2.484375 0.234375 -4.359375 0.234375q-5.75 0 -9.140625 -2.90625q-3.375 -2.90625 -3.375 -8.09375l0 -39.718735l16.515625 0zm9.515625 10.296875l0 9.90625l-32.71875 0l0 -9.515625l7.5625 -0.390625l25.15625 0zm24.935791 -10.296875l0 35.3125q0 1.4843597 0.78125 2.1562347q0.796875 0.671875 2.609375 0.671875l4.171875 0l1.796875 10.546875q-1.640625 0.703125 -4.078125 1.125q-2.4375 0.4375 -4.921875 0.671875q-2.484375 0.234375 -4.359375 0.234375q-5.75 0 -9.140625 -2.90625q-3.375 -2.90625 -3.375 -8.09375l0 -39.718735l16.515625 0zm9.515625 10.296875l0 9.90625l-32.71875 0l0 -9.515625l7.5625 -0.390625l25.15625 0zm21.092041 0l0 39.32811l-16.4375 0l0 -39.32811l16.4375 0zm-4.71875 -18.015625q4.796875 0 4.796875 4.875l0 4.015625q0 4.875 -4.796875 4.875l-7.0 0q-4.796875 0 -4.796875 -4.875l0 -4.015625q0 -4.875 4.796875 -4.875l7.0 0zm42.47339 16.921875q11.640625 0 11.640625 11.0l0 29.42186l-16.515625 0l0 -24.14061q0 -1.34375 -0.640625 -1.84375q-0.625 -0.515625 -2.203125 -0.515625q-1.484375 0 -3.34375 0.234375q-1.84375 0.234375 -4.828125 1.25l-0.78125 -8.09375q3.921875 -3.703125 8.25 -5.5q4.328125 -1.8125 8.421875 -1.8125zm-17.703125 1.09375l2.046875 8.015625l1.5 0.953125l0 30.35936l-16.53125 0l0 -39.32811l12.984375 0zm55.142334 -1.09375q7.390625 0 11.796875 1.21875q4.40625 1.21875 6.359375 3.9375q1.96875 2.703125 1.96875 7.265625q0 4.5625 -1.921875 7.28125q-1.921875 2.703125 -6.375 3.921875q-4.4375 1.21875 -11.90625 1.21875q-7.390625 0 -11.875 -1.21875q-4.484375 -1.21875 -6.453125 -3.921875q-1.96875 -2.71875 -1.96875 -7.28125q0 -4.5625 2.0 -7.265625q2.015625 -2.71875 6.5 -3.9375q4.484375 -1.21875 11.875 -1.21875zm-0.078125 9.03125q-2.921875 0 -3.9375 0.671875q-1.015625 0.671875 -1.015625 2.71875q0 2.046875 1.015625 2.75q1.015625 0.703125 3.9375 0.703125q2.90625 0 3.890625 -0.703125q0.984375 -0.703125 0.984375 -2.75q0 -2.046875 -0.984375 -2.71875q-0.984375 -0.671875 -3.890625 -0.671875zm24.6875 -7.9375l-0.78125 6.0625l-11.015625 1.875l-2.90625 -7.9375l14.703125 0zm-37.203125 21.546875l7.640625 1.34375q-0.875 0.15625 -1.265625 1.140625q-0.390625 0.984375 0.15625 1.9374847q0.546875 0.9375 2.359375 1.09375l14.3125 0.9375q6.765625 0.46875 9.671875 3.5q2.921875 3.03125 2.921875 8.84375q0 5.59375 -2.359375 8.421875q-2.359375 2.828125 -7.359375 3.8125q-5.0 0.984375 -13.015625 0.984375q-7.078125 0 -11.484375 -0.625q-4.40625 -0.625 -6.84375 -1.9375q-2.4375 -1.296875 -3.34375 -3.421875q-0.90625 -2.109375 -0.90625 -5.1875q0 -2.4375 0.984375 -4.28125q0.984375 -1.84375 3.578125 -3.296875q2.59375 -1.46875 7.390625 -2.5625l6.765625 -1.5l5.359375 2.046875l-2.515625 1.34375q-2.359375 1.640625 -3.703125 2.46875q-1.34375 0.828125 -1.890625 1.421875q-0.546875 0.59375 -0.546875 1.84375q0 1.03125 0.578125 1.578125q0.59375 0.546875 2.125 0.734375q1.546875 0.203125 4.21875 0.203125q2.984375 0 4.640625 -0.15625q1.65625 -0.15625 2.28125 -0.625q0.625 -0.46875 0.625 -1.34375q0 -1.015625 -0.625 -1.4375q-0.625 -0.4375 -2.015625 -0.640625q-1.375 -0.203125 -3.484375 -0.359375l-10.703125 -0.78125q-3.546875 -0.3125 -5.59375 -1.765625q-2.03125 -1.453125 -2.78125 -3.53125q-0.75 -2.09375 -0.40625 -4.21875q0.359375 -2.125 1.734375 -3.7656097q1.375 -1.65625 3.5 -2.21875zm57.586548 -22.640625q3.140625 0 6.875 0.234375q3.734375 0.234375 7.265625 0.59375q3.546875 0.34375 5.984375 0.890625l-1.015625 9.59375q-3.9375 0 -7.90625 0q-3.96875 0 -7.59375 0q-2.59375 0 -3.859375 0.046875q-1.25 0.03125 -1.640625 0.203125q-0.390625 0.15625 -0.390625 0.703125q0 0.625 0.890625 0.859375q0.90625 0.234375 3.75 1.03125l9.046875 2.28125q5.265625 1.484375 7.8125 4.125q2.5625 2.640625 2.5625 7.7499847q0 4.953125 -1.890625 7.78125q-1.890625 2.828125 -6.09375 4.015625q-4.203125 1.171875 -11.046875 1.171875q-2.828125 0 -8.375 -0.28125q-5.546875 -0.265625 -12.078125 -1.359375l1.015625 -9.59375q1.03125 0 3.265625 0q2.25 0 5.109375 0q2.875 0 5.640625 0q3.765625 0 5.578125 -0.046875q1.8125 -0.046875 2.359375 -0.3125q0.546875 -0.28125 0.546875 -0.828125q0 -0.703125 -1.03125 -0.984375q-1.015625 -0.28125 -4.078125 -1.140625l-8.65625 -2.3593597q-4.328125 -1.25 -6.53125 -3.09375q-2.203125 -1.859375 -2.984375 -4.296875q-0.78125 -2.4375 -0.78125 -5.515625q0 -3.609375 1.6875 -6.15625q1.6875 -2.5625 5.65625 -3.9375q3.984375 -1.375 10.90625 -1.375z" fill-rule="nonzero"/><path fill="#c3c7cb" d="m3208.8582 186.39108l110.33081 0l0 110.33069l-110.33081 0z" fill-rule="evenodd"/><path stroke="#000000" stroke-width="3.0" stroke-linejoin="round" stroke-linecap="butt" d="m3208.8582 186.39108l110.33081 0l0 110.33069l-110.33081 0z" fill-rule="evenodd"/><path fill="#000000" d="m3302.683 195.2433l-18.421875 39.65625l20.0625 41.29689l-25.21875 0l-18.3125 -41.29689l16.78125 -39.65625l25.109375 0zm-52.203125 0l16.765625 39.65625l-18.296875 41.29689l-25.234375 0l20.0625 -41.29689l-18.40625 -39.65625l25.109375 0zm24.75 32.375l0 14.078125l-24.40625 0l0 -14.078125l24.40625 0z" fill-rule="nonzero"/><path fill="#c3c7cb" d="m3208.8582 186.39108l110.33081 0l0 0l-109.871826 0l0 109.871735l-0.45898438 0.45895386z" fill-rule="evenodd"/><path stroke="#ffffff" stroke-width="3.0" stroke-linejoin="round" stroke-linecap="butt" d="m3208.8582 186.39108l110.33081 0l0 0l-109.871826 0l0 109.871735l-0.45898438 0.45895386z" fill-rule="evenodd"/><path fill="#c3c7cb" d="m3085.8662 186.39108l110.33057 0l0 110.33069l-110.33057 0z" fill-rule="evenodd"/><path stroke="#000000" stroke-width="3.0" stroke-linejoin="round" stroke-linecap="butt" d="m3085.8662 186.39108l110.33057 0l0 110.33069l-110.33057 0z" fill-rule="evenodd"/><path fill="#000000" d="m3143.266 212.72768l0 19.125l-30.390625 8.796875l30.390625 8.796875l0 19.125015l-51.046875 -18.54689l0 -18.875l51.046875 -18.421875zm44.469482 26.15625l0 14.3125l-34.15625 0l0 -14.3125l34.15625 0z" fill-rule="nonzero"/><path fill="#c3c7cb" d="m3085.8662 186.39108l110.33057 0l0 0l-109.87158 0l0 109.871735l-0.45898438 0.45895386z" fill-rule="evenodd"/><path stroke="#ffffff" stroke-width="3.0" stroke-linejoin="round" stroke-linecap="butt" d="m3085.8662 186.39108l110.33057 0l0 0l-109.87158 0l0 109.871735l-0.45898438 0.45895386z" fill-rule="evenodd"/></g></svg>