<svg version="1.1" viewBox="0.0 0.0 3840.0 2160.0" fill="none" stroke="none" stroke-linecap="square" stroke-miterlimit="10" xmlns:xlink="http://www.w3.org/1999/xlink" xmlns="http://www.w3.org/2000/svg"><clipPath id="p.0"><path d="m0 0l3840.0 0l0 2160.0l-3840.0 0l0 -2160.0z" clip-rule="nonzero"/></clipPath><g clip-path="url(#p.0)"><path fill="#386e6e" d="m0 0l3840.0 0l0 2160.0l-3840.0 0z" fill-rule="evenodd"/><path fill="#ffffff" d="m91.91076 457.67715l715.2126 0l0 595.874l-715.2126 0z" fill-rule="evenodd"/><path stroke="#000000" stroke-width="1.0" stroke-linejoin="round" stroke-linecap="butt" d="m91.91076 457.67715l715.2126 0l0 595.874l-715.2126 0z" fill-rule="evenodd"/><path fill="#000000" d="m361.55362 554.83716l0 -7.578125l11.78125 0l0 -29.328125l-0.5625 0l-8.90625 11.65625l-6.015625 -4.703125l10.46875 -13.78125l14.40625 0l0 36.15625l9.28125 0l0 7.578125l-30.453125 0zm50.49997 0.75q-3.515625 0 -5.046875 -1.53125q-1.53125 -1.53125 -1.53125 -3.671875l0 -2.1875q0 -2.125 1.53125 -3.65625q1.53125 -1.546875 5.046875 -1.546875q3.515625 0 5.046875 1.546875q1.53125 1.53125 1.53125 3.65625l0 2.1875q0 2.140625 -1.53125 3.671875q-1.53125 1.53125 -5.046875 1.53125z" fill-rule="nonzero"/><path fill="#000000" d="m158.92896 586.1028l15.34375 0q6.453125 0 9.859375 3.140625q3.421875 3.125 3.421875 8.515625q0 3.75 -1.84375 5.984375q-1.84375 2.21875 -5.296875 3.21875l0 0.375q4.078125 1.015625 6.296875 3.515625q2.234375 2.5 2.234375 6.953125q0 5.515625 -3.484375 8.78125q-3.484375 3.25 -9.75 3.25l-16.78125 0l0 -43.734375zm13.90625 37.15625q3.390625 0 4.953125 -1.125q1.5625 -1.125 1.5625 -4.140625l0 -1.8125q0 -3.015625 -1.5625 -4.140625q-1.5625 -1.125 -4.953125 -1.125l-4.765625 0l0 12.34375l4.765625 0zm-1.1875 -18.609375q3.3125 0 4.8125 -1.09375q1.515625 -1.09375 1.515625 -3.984375l0 -1.875q0 -2.890625 -1.515625 -3.953125q-1.5 -1.0625 -4.8125 -1.0625l-3.578125 0l0 11.96875l3.578125 0zm39.718704 25.9375q-8.140625 0 -12.34375 -4.5q-4.203125 -4.515625 -4.203125 -12.296875q0 -3.9375 1.09375 -7.09375q1.109375 -3.171875 3.140625 -5.390625q2.03125 -2.234375 4.9375 -3.390625q2.921875 -1.15625 6.5625 -1.15625q3.640625 0 6.515625 1.15625q2.890625 1.15625 4.890625 3.296875q2.0 2.125 3.09375 5.171875q1.09375 3.03125 1.09375 6.78125l0 2.765625l-22.109375 0l0 0.5625q0 3.125 1.9375 5.046875q1.953125 1.90625 5.703125 1.90625q2.890625 0 4.953125 -1.09375q2.0625 -1.09375 3.578125 -2.921875l5.0 5.453125q-1.875 2.328125 -5.265625 4.015625q-3.375 1.6875 -8.578125 1.6875zm-0.75 -27.1875q-3.0 0 -4.796875 1.84375q-1.78125 1.84375 -1.78125 4.984375l0 0.5l13.03125 0l0 -0.5q0 -3.203125 -1.734375 -5.015625q-1.71875 -1.8125 -4.71875 -1.8125zm39.968704 26.4375q-5.0 0 -7.453125 -2.625q-2.4375 -2.640625 -2.4375 -6.703125l0 -15.796875l-8.78125 0l0 -7.203125l5.703125 0q2.078125 0 2.953125 -0.8125q0.875 -0.8125 0.875 -3.015625l0 -7.578125l8.515625 0l0 11.40625l12.59375 0l0 7.203125l-12.59375 0l0 17.921875l12.59375 0l0 7.203125l-11.96875 0zm16.734314 -32.328125l7.703125 0l2.328125 26.1875l0.625 0l3.8125 -26.1875l8.15625 0l3.75 26.1875l0.625 0l2.390625 -26.1875l7.328125 0l-3.828125 32.328125l-11.015625 0l-3.203125 -22.3125l-0.625 0l-3.203125 22.3125l-11.015625 0l-3.828125 -32.328125zm56.828094 33.078125q-8.140625 0 -12.34375 -4.5q-4.203125 -4.515625 -4.203125 -12.296875q0 -3.9375 1.09375 -7.09375q1.109375 -3.171875 3.140625 -5.390625q2.03125 -2.234375 4.9375 -3.390625q2.921875 -1.15625 6.5625 -1.15625q3.640625 0 6.515625 1.15625q2.890625 1.15625 4.890625 3.296875q2.0 2.125 3.09375 5.171875q1.09375 3.03125 1.09375 6.78125l0 2.765625l-22.109375 0l0 0.5625q0 3.125 1.9375 5.046875q1.953125 1.90625 5.703125 1.90625q2.890625 0 4.953125 -1.09375q2.0625 -1.09375 3.578125 -2.921875l5.0 5.453125q-1.875 2.328125 -5.265625 4.015625q-3.375 1.6875 -8.578125 1.6875zm-0.75 -27.1875q-3.0 0 -4.796875 1.84375q-1.78125 1.84375 -1.78125 4.984375l0 0.5l13.03125 0l0 -0.5q0 -3.203125 -1.734375 -5.015625q-1.71875 -1.8125 -4.71875 -1.8125zm38.34369 27.1875q-8.140625 0 -12.34375 -4.5q-4.203125 -4.515625 -4.203125 -12.296875q0 -3.9375 1.09375 -7.09375q1.109375 -3.171875 3.140625 -5.390625q2.03125 -2.234375 4.9375 -3.390625q2.921875 -1.15625 6.5625 -1.15625q3.640625 0 6.515625 1.15625q2.890625 1.15625 4.890625 3.296875q2.0 2.125 3.09375 5.171875q1.09375 3.03125 1.09375 6.78125l0 2.765625l-22.109375 0l0 0.5625q0 3.125 1.9375 5.046875q1.953125 1.90625 5.703125 1.90625q2.890625 0 4.953125 -1.09375q2.0625 -1.09375 3.578125 -2.921875l5.0 5.453125q-1.875 2.328125 -5.265625 4.015625q-3.375 1.6875 -8.578125 1.6875zm-0.75 -27.1875q-3.0 0 -4.796875 1.84375q-1.78125 1.84375 -1.78125 4.984375l0 0.5l13.03125 0l0 -0.5q0 -3.203125 -1.734375 -5.015625q-1.71875 -1.8125 -4.71875 -1.8125zm22.74997 26.4375l0 -32.328125l9.265625 0l0 5.890625l0.375 0q0.5625 -1.375 1.375 -2.5625q0.828125 -1.203125 1.984375 -2.109375q1.15625 -0.90625 2.6875 -1.4375q1.53125 -0.53125 3.484375 -0.53125q2.3125 0 4.25 0.78125q1.953125 0.78125 3.328125 2.34375q1.375 1.5625 2.15625 3.828125q0.78125 2.25 0.78125 5.203125l0 20.921875l-9.265625 0l0 -19.671875q0 -6.265625 -5.453125 -6.265625q-1.0625 0 -2.09375 0.28125q-1.03125 0.28125 -1.859375 0.875q-0.8125 0.59375 -1.28125 1.46875q-0.46875 0.875 -0.46875 2.078125l0 21.234375l-9.265625 0zm92.40616 0q-5.0 0 -7.453125 -2.625q-2.4375 -2.640625 -2.4375 -6.703125l0 -15.796875l-8.78125 0l0 -7.203125l5.703125 0q2.078125 0 2.953125 -0.8125q0.875 -0.8125 0.875 -3.015625l0 -7.578125l8.515625 0l0 11.40625l12.59375 0l0 7.203125l-12.59375 0l0 17.921875l12.59375 0l0 7.203125l-11.96875 0zm35.96869 0.75q-8.140625 0 -12.34375 -4.5q-4.203125 -4.515625 -4.203125 -12.296875q0 -3.9375 1.09375 -7.09375q1.109375 -3.171875 3.140625 -5.390625q2.03125 -2.234375 4.9375 -3.390625q2.921875 -1.15625 6.5625 -1.15625q3.640625 0 6.515625 1.15625q2.890625 1.15625 4.890625 3.296875q2.0 2.125 3.09375 5.171875q1.09375 3.03125 1.09375 6.78125l0 2.765625l-22.109375 0l0 0.5625q0 3.125 1.9375 5.046875q1.953125 1.90625 5.703125 1.90625q2.890625 0 4.953125 -1.09375q2.0625 -1.09375 3.578125 -2.921875l5.0 5.453125q-1.875 2.328125 -5.265625 4.015625q-3.375 1.6875 -8.578125 1.6875zm-0.75 -27.1875q-3.0 0 -4.796875 1.84375q-1.78125 1.84375 -1.78125 4.984375l0 0.5l13.03125 0l0 -0.5q0 -3.203125 -1.734375 -5.015625q-1.71875 -1.8125 -4.71875 -1.8125zm23.312439 19.234375l7.453125 0l0 -17.921875l-7.453125 0l0 -7.203125l16.71875 0l0 9.140625l0.4375 0q0.453125 -1.75 1.234375 -3.40625q0.78125 -1.671875 2.0 -2.953125q1.21875 -1.28125 2.96875 -2.03125q1.765625 -0.75 4.140625 -0.75l3.078125 0l0 8.515625l-6.890625 0q-3.453125 0 -5.21875 2.046875q-1.75 2.03125 -1.75 4.96875l0 9.59375l10.65625 0l0 7.203125l-27.375 0l0 -7.203125zm34.828064 7.203125l0 -32.328125l7.453125 0l0 4.765625l0.453125 0q0.75 -2.265625 2.15625 -3.890625q1.40625 -1.625 3.984375 -1.625q4.6875 0 5.75 5.515625l0.390625 0q0.375 -1.140625 0.9375 -2.140625q0.5625 -1.0 1.375 -1.75q0.8125 -0.75 1.9375 -1.1875q1.125 -0.4375 2.640625 -0.4375q6.765625 0 6.765625 9.953125l0 23.125l-7.453125 0l0 -22.1875q0 -2.25 -0.796875 -3.15625q-0.78125 -0.90625 -2.03125 -0.90625q-1.1875 0 -2.03125 0.78125q-0.84375 0.78125 -0.84375 2.40625l0 23.0625l-7.53125 0l0 -22.1875q0 -2.25 -0.71875 -3.15625q-0.71875 -0.90625 -1.96875 -0.90625q-1.25 0 -2.140625 0.78125q-0.875 0.78125 -0.875 2.40625l0 23.0625l-7.453125 0zm103.828 0q-2.890625 0 -4.640625 -1.46875q-1.75 -1.46875 -2.0625 -4.234375l-0.3125 0q-0.875 3.203125 -3.484375 4.828125q-2.59375 1.625 -6.359375 1.625q-4.703125 0 -7.546875 -2.53125q-2.84375 -2.546875 -2.84375 -7.109375q0 -5.078125 3.6875 -7.515625q3.703125 -2.453125 10.84375 -2.453125l5.203125 0l0 -1.625q0 -2.890625 -1.359375 -4.359375q-1.34375 -1.46875 -4.53125 -1.46875q-2.953125 0 -4.765625 1.125q-1.8125 1.125 -3.140625 2.9375l-5.0625 -4.5q1.625 -2.765625 5.09375 -4.546875q3.484375 -1.78125 8.9375 -1.78125q6.640625 0 10.359375 3.046875q3.734375 3.03125 3.734375 9.171875l0 14.15625l3.578125 0l0 6.703125l-5.328125 0zm-13.34375 -5.328125q2.4375 0 4.125 -1.1875q1.703125 -1.1875 1.703125 -3.453125l0 -3.875l-4.953125 0q-5.703125 0 -5.703125 3.8125l0 1.265625q0 1.6875 1.3125 2.5625q1.3125 0.875 3.515625 0.875zm24.499939 5.328125l0 -32.328125l9.265625 0l0 5.890625l0.375 0q0.5625 -1.375 1.375 -2.5625q0.828125 -1.203125 1.984375 -2.109375q1.15625 -0.90625 2.6875 -1.4375q1.53125 -0.53125 3.484375 -0.53125q2.3125 0 4.25 0.78125q1.953125 0.78125 3.328125 2.34375q1.375 1.5625 2.15625 3.828125q0.78125 2.25 0.78125 5.203125l0 20.921875l-9.265625 0l0 -19.671875q0 -6.265625 -5.453125 -6.265625q-1.0625 0 -2.09375 0.28125q-1.03125 0.28125 -1.859375 0.875q-0.8125 0.59375 -1.28125 1.46875q-0.46875 0.875 -0.46875 2.078125l0 21.234375l-9.265625 0zm58.140564 -5.890625l-0.4375 0q-1.25 2.953125 -3.484375 4.796875q-2.21875 1.84375 -6.109375 1.84375q-2.6875 0 -4.921875 -1.0q-2.21875 -1.0 -3.8125 -3.0625q-1.59375 -2.078125 -2.515625 -5.265625q-0.90625 -3.203125 -0.90625 -7.59375q0 -4.375 0.90625 -7.5625q0.921875 -3.203125 2.515625 -5.265625q1.59375 -2.078125 3.8125 -3.078125q2.234375 -1.0 4.921875 -1.0q1.953125 0 3.453125 0.5q1.5 0.5 2.65625 1.375q1.15625 0.875 2.0 2.109375q0.859375 1.21875 1.484375 2.65625l0.4375 0l0 -19.921875l9.265625 0l0 46.359375l-9.265625 0l0 -5.890625zm-6.015625 -0.5625q2.4375 0 4.21875 -1.1875q1.796875 -1.1875 1.796875 -3.765625l0 -9.515625q0 -2.578125 -1.796875 -3.765625q-1.78125 -1.1875 -4.21875 -1.1875q-3.140625 0 -4.828125 1.90625q-1.6875 1.90625 -1.6875 5.296875l0 5.015625q0 3.375 1.6875 5.296875q1.6875 1.90625 4.828125 1.90625z" fill-rule="nonzero"/><path fill="#000000" d="m235.11636 698.94653l-0.4375 0q-1.25 2.953125 -3.484375 4.796875q-2.21875 1.84375 -6.109375 1.84375q-2.6875 0 -4.921875 -1.0q-2.21875 -1.0 -3.8125 -3.0625q-1.59375 -2.078125 -2.515625 -5.265625q-0.90625 -3.203125 -0.90625 -7.59375q0 -4.375 0.90625 -7.5625q0.921875 -3.203125 2.515625 -5.265625q1.59375 -2.078125 3.8125 -3.078125q2.234375 -1.0 4.921875 -1.0q1.953125 0 3.453125 0.5q1.5 0.5 2.65625 1.375q1.15625 0.875 2.0 2.109375q0.859375 1.21875 1.484375 2.65625l0.4375 0l0 -19.921875l9.265625 0l0 46.359375l-9.265625 0l0 -5.890625zm-6.015625 -0.5625q2.4375 0 4.21875 -1.1875q1.796875 -1.1875 1.796875 -3.765625l0 -9.515625q0 -2.578125 -1.796875 -3.765625q-1.78125 -1.1875 -4.21875 -1.1875q-3.140625 0 -4.828125 1.90625q-1.6875 1.90625 -1.6875 5.296875l0 5.015625q0 3.375 1.6875 5.296875q1.6875 1.90625 4.828125 1.90625zm38.65619 7.203125q-8.140625 0 -12.343735 -4.5q-4.203125 -4.515625 -4.203125 -12.296875q0 -3.9375 1.09375 -7.09375q1.109375 -3.171875 3.140625 -5.390625q2.0312347 -2.234375 4.9374847 -3.390625q2.921875 -1.15625 6.5625 -1.15625q3.640625 0 6.515625 1.15625q2.890625 1.15625 4.890625 3.296875q2.0 2.125 3.09375 5.171875q1.09375 3.03125 1.09375 6.78125l0 2.765625l-22.109375 0l0 0.5625q0 3.125 1.9375 5.046875q1.953125 1.90625 5.703125 1.90625q2.890625 0 4.953125 -1.09375q2.0625 -1.09375 3.578125 -2.921875l5.0 5.453125q-1.875 2.328125 -5.265625 4.015625q-3.375 1.6875 -8.578125 1.6875zm-0.75 -27.1875q-3.0 0 -4.796875 1.84375q-1.78125 1.84375 -1.78125 4.984375l0 0.5l13.03125 0l0 -0.5q0 -3.203125 -1.734375 -5.015625q-1.71875 -1.8125 -4.71875 -1.8125zm23.12497 19.234375l9.515625 0l0 -17.921875l-10.140625 0l0 -7.203125l10.140625 0l0 -4.703125q0 -4.140625 2.40625 -6.734375q2.421875 -2.59375 7.5 -2.59375l10.96875 0l0 7.203125l-11.59375 0l0 6.828125l11.59375 0l0 7.203125l-11.59375 0l0 17.921875l10.140625 0l0 7.203125l-28.9375 0l0 -7.203125zm53.93744 -29.265625q-3.125 0 -4.359375 -1.28125q-1.21875 -1.28125 -1.21875 -3.109375l0 -1.8125q0 -1.875 1.21875 -3.125q1.234375 -1.265625 4.359375 -1.265625q3.140625 0 4.359375 1.265625q1.21875 1.25 1.21875 3.125l0 1.8125q0 1.828125 -1.21875 3.109375q-1.21875 1.28125 -4.359375 1.28125zm-14.90625 29.265625l10.28125 0l0 -17.921875l-10.28125 0l0 -7.203125l19.546875 0l0 25.125l9.53125 0l0 7.203125l-29.078125 0l0 -7.203125zm35.78122 7.203125l0 -32.328125l9.265625 0l0 5.890625l0.375 0q0.5625 -1.375 1.375 -2.5625q0.828125 -1.203125 1.984375 -2.109375q1.15625 -0.90625 2.6875 -1.4375q1.53125 -0.53125 3.484375 -0.53125q2.3125 0 4.25 0.78125q1.953125 0.78125 3.328125 2.34375q1.375 1.5625 2.15625 3.828125q0.78125 2.25 0.78125 5.203125l0 20.921875l-9.265625 0l0 -19.671875q0 -6.265625 -5.453125 -6.265625q-1.0625 0 -2.09375 0.28125q-1.03125 0.28125 -1.859375 0.875q-0.8125 0.59375 -1.28125 1.46875q-0.46875 0.875 -0.46875 2.078125l0 21.234375l-9.265625 0zm54.31247 -36.46875q-3.125 0 -4.359375 -1.28125q-1.21875 -1.28125 -1.21875 -3.109375l0 -1.8125q0 -1.875 1.21875 -3.125q1.234375 -1.265625 4.359375 -1.265625q3.140625 0 4.359375 1.265625q1.21875 1.25 1.21875 3.125l0 1.8125q0 1.828125 -1.21875 3.109375q-1.21875 1.28125 -4.359375 1.28125zm-14.90625 29.265625l10.28125 0l0 -17.921875l-10.28125 0l0 -7.203125l19.546875 0l0 25.125l9.53125 0l0 7.203125l-29.078125 0l0 -7.203125zm52.99994 7.203125q-5.0 0 -7.453125 -2.625q-2.4375 -2.640625 -2.4375 -6.703125l0 -15.796875l-8.78125 0l0 -7.203125l5.703125 0q2.078125 0 2.953125 -0.8125q0.875 -0.8125 0.875 -3.015625l0 -7.578125l8.515625 0l0 11.40625l12.59375 0l0 7.203125l-12.59375 0l0 17.921875l12.59375 0l0 7.203125l-11.96875 0zm37.09372 -36.46875q-3.125 0 -4.359375 -1.28125q-1.21875 -1.28125 -1.21875 -3.109375l0 -1.8125q0 -1.875 1.21875 -3.125q1.234375 -1.265625 4.359375 -1.265625q3.140625 0 4.359375 1.265625q1.21875 1.25 1.21875 3.125l0 1.8125q0 1.828125 -1.21875 3.109375q-1.21875 1.28125 -4.359375 1.28125zm-14.90625 29.265625l10.28125 0l0 -17.921875l-10.28125 0l0 -7.203125l19.546875 0l0 25.125l9.53125 0l0 7.203125l-29.078125 0l0 -7.203125zm50.49991 7.953125q-3.765625 0 -6.78125 -1.15625q-3.0 -1.15625 -5.09375 -3.34375q-2.09375 -2.203125 -3.234375 -5.328125q-1.125 -3.140625 -1.125 -7.09375q0 -3.9375 1.125 -7.0625q1.140625 -3.140625 3.234375 -5.328125q2.09375 -2.203125 5.09375 -3.359375q3.015625 -1.15625 6.78125 -1.15625q3.765625 0 6.765625 1.15625q3.015625 1.15625 5.109375 3.359375q2.09375 2.1875 3.21875 5.328125q1.140625 3.125 1.140625 7.0625q0 3.953125 -1.140625 7.09375q-1.125 3.125 -3.21875 5.328125q-2.09375 2.1875 -5.109375 3.34375q-3.0 1.15625 -6.765625 1.15625zm0 -6.890625q3.125 0 4.875 -1.9375q1.765625 -1.953125 1.765625 -5.515625l0 -5.140625q0 -3.578125 -1.765625 -5.515625q-1.75 -1.9375 -4.875 -1.9375q-3.140625 0 -4.890625 1.9375q-1.75 1.9375 -1.75 5.515625l0 5.140625q0 3.5625 1.75 5.515625q1.75 1.9375 4.890625 1.9375zm22.874939 6.140625l0 -32.328125l9.265625 0l0 5.890625l0.375 0q0.5625 -1.375 1.375 -2.5625q0.828125 -1.203125 1.984375 -2.109375q1.15625 -0.90625 2.6875 -1.4375q1.53125 -0.53125 3.484375 -0.53125q2.3125 0 4.25 0.78125q1.953125 0.78125 3.328125 2.34375q1.375 1.5625 2.15625 3.828125q0.78125 2.25 0.78125 5.203125l0 20.921875l-9.265625 0l0 -19.671875q0 -6.265625 -5.453125 -6.265625q-1.0625 0 -2.09375 0.28125q-1.03125 0.28125 -1.859375 0.875q-0.8125 0.59375 -1.28125 1.46875q-0.46875 0.875 -0.46875 2.078125l0 21.234375l-9.265625 0zm91.90619 -36.46875q-3.125 0 -4.359375 -1.28125q-1.21875 -1.28125 -1.21875 -3.109375l0 -1.8125q0 -1.875 1.21875 -3.125q1.234375 -1.265625 4.359375 -1.265625q3.140625 0 4.359375 1.265625q1.21875 1.25 1.21875 3.125l0 1.8125q0 1.828125 -1.21875 3.109375q-1.21875 1.28125 -4.359375 1.28125zm-14.90625 29.265625l10.28125 0l0 -17.921875l-10.28125 0l0 -7.203125l19.546875 0l0 25.125l9.53125 0l0 7.203125l-29.078125 0l0 -7.203125zm50.124878 7.953125q-5.390625 0 -9.375 -1.625q-3.96875 -1.625 -5.984375 -4.453125l5.203125 -4.828125q1.890625 2.078125 4.421875 3.234375q2.53125 1.15625 5.796875 1.15625q2.75 0 4.3125 -0.84375q1.578125 -0.84375 1.578125 -2.59375q0 -1.390625 -1.0625 -1.921875q-1.0625 -0.53125 -2.953125 -0.84375l-5.203125 -0.8125q-2.1875 -0.3125 -4.078125 -0.96875q-1.875 -0.65625 -3.25 -1.78125q-1.375 -1.140625 -2.1875 -2.765625q-0.8125 -1.625 -0.8125 -3.953125q0 -5.0625 3.875 -7.9375q3.890625 -2.890625 10.90625 -2.890625q4.765625 0 8.109375 1.28125q3.359375 1.28125 5.359375 3.671875l-4.625 5.25q-1.453125 -1.5625 -3.703125 -2.625q-2.25 -1.0625 -5.453125 -1.0625q-5.390625 0 -5.390625 3.25q0 1.453125 1.0625 1.984375q1.078125 0.53125 2.953125 0.84375l5.140625 0.8125q2.1875 0.3125 4.0625 0.96875q1.890625 0.65625 3.296875 1.78125q1.40625 1.125 2.21875 2.765625q0.8125 1.625 0.8125 3.9375q0 5.078125 -3.921875 8.03125q-3.90625 2.9375 -11.109375 2.9375z" fill-rule="nonzero"/><path fill="#000000" d="m172.5227 780.58716q-5.390625 0 -9.375 -1.625q-3.96875 -1.625 -5.984375 -4.453125l5.203125 -4.828125q1.890625 2.078125 4.421875 3.234375q2.53125 1.15625 5.796875 1.15625q2.75 0 4.3125 -0.84375q1.578125 -0.84375 1.578125 -2.59375q0 -1.390625 -1.0625 -1.921875q-1.0625 -0.53125 -2.953125 -0.84375l-5.203125 -0.8125q-2.1875 -0.3125 -4.078125 -0.96875q-1.875 -0.65625 -3.25 -1.78125q-1.375 -1.140625 -2.1875 -2.765625q-0.8125 -1.625 -0.8125 -3.953125q0 -5.0625 3.875 -7.9375q3.890625 -2.890625 10.90625 -2.890625q4.765625 0 8.109375 1.28125q3.359375 1.28125 5.359375 3.671875l-4.625 5.25q-1.453125 -1.5625 -3.703125 -2.625q-2.25 -1.0625 -5.453125 -1.0625q-5.390625 0 -5.390625 3.25q0 1.453125 1.0625 1.984375q1.078125 0.53125 2.953125 0.84375l5.140625 0.8125q2.1875 0.3125 4.0625 0.96875q1.890625 0.65625 3.296875 1.78125q1.40625 1.125 2.21875 2.765625q0.8125 1.625 0.8125 3.9375q0 5.078125 -3.921875 8.03125q-3.90625 2.9375 -11.109375 2.9375zm38.843704 0q-8.140625 0 -12.34375 -4.5q-4.203125 -4.515625 -4.203125 -12.296875q0 -3.9375 1.09375 -7.09375q1.109375 -3.171875 3.140625 -5.390625q2.03125 -2.234375 4.9375 -3.390625q2.921875 -1.15625 6.5625 -1.15625q3.640625 0 6.515625 1.15625q2.890625 1.15625 4.890625 3.296875q2.0 2.125 3.09375 5.171875q1.09375 3.03125 1.09375 6.78125l0 2.765625l-22.109375 0l0 0.5625q0 3.125 1.9375 5.046875q1.953125 1.90625 5.703125 1.90625q2.890625 0 4.953125 -1.09375q2.0625 -1.09375 3.578125 -2.921875l5.0 5.453125q-1.875 2.328125 -5.265625 4.015625q-3.375 1.6875 -8.578125 1.6875zm-0.75 -27.1875q-3.0 0 -4.796875 1.84375q-1.78125 1.84375 -1.78125 4.984375l0 0.5l13.03125 0l0 -0.5q0 -3.203125 -1.734375 -5.015625q-1.71875 -1.8125 -4.71875 -1.8125zm39.968704 26.4375q-5.0 0 -7.453125 -2.625q-2.4375 -2.640625 -2.4375 -6.703125l0 -15.796875l-8.78125 0l0 -7.203125l5.703125 0q2.078125 0 2.953125 -0.8125q0.875 -0.8125 0.875 -3.015625l0 -7.578125l8.515625 0l0 11.40625l12.59375 0l0 7.203125l-12.59375 0l0 17.921875l12.59375 0l0 7.203125l-11.96875 0zm84.40616 0q-2.890625 0 -4.640625 -1.46875q-1.75 -1.46875 -2.0625 -4.234375l-0.3125 0q-0.875 3.203125 -3.484375 4.828125q-2.59375 1.625 -6.359375 1.625q-4.703125 0 -7.546875 -2.53125q-2.84375 -2.546875 -2.84375 -7.109375q0 -5.078125 3.6875 -7.515625q3.703125 -2.453125 10.84375 -2.453125l5.203125 0l0 -1.625q0 -2.890625 -1.359375 -4.359375q-1.34375 -1.46875 -4.53125 -1.46875q-2.953125 0 -4.765625 1.125q-1.8125 1.125 -3.140625 2.9375l-5.0625 -4.5q1.625 -2.765625 5.09375 -4.546875q3.484375 -1.78125 8.9375 -1.78125q6.640625 0 10.359375 3.046875q3.734375 3.03125 3.734375 9.171875l0 14.15625l3.578125 0l0 6.703125l-5.328125 0zm-13.34375 -5.328125q2.4375 0 4.125 -1.1875q1.703125 -1.1875 1.703125 -3.453125l0 -3.875l-4.953125 0q-5.703125 0 -5.703125 3.8125l0 1.265625q0 1.6875 1.3125 2.5625q1.3125 0.875 3.515625 0.875zm38.84369 6.078125q-5.390625 0 -9.375 -1.625q-3.96875 -1.625 -5.984375 -4.453125l5.203125 -4.828125q1.890625 2.078125 4.421875 3.234375q2.53125 1.15625 5.796875 1.15625q2.75 0 4.3125 -0.84375q1.578125 -0.84375 1.578125 -2.59375q0 -1.390625 -1.0625 -1.921875q-1.0625 -0.53125 -2.953125 -0.84375l-5.203125 -0.8125q-2.1875 -0.3125 -4.078125 -0.96875q-1.875 -0.65625 -3.25 -1.78125q-1.375 -1.140625 -2.1875 -2.765625q-0.8125 -1.625 -0.8125 -3.953125q0 -5.0625 3.875 -7.9375q3.890625 -2.890625 10.90625 -2.890625q4.765625 0 8.109375 1.28125q3.359375 1.28125 5.359375 3.671875l-4.625 5.25q-1.453125 -1.5625 -3.703125 -2.625q-2.25 -1.0625 -5.453125 -1.0625q-5.390625 0 -5.390625 3.25q0 1.453125 1.0625 1.984375q1.078125 0.53125 2.953125 0.84375l5.140625 0.8125q2.1875 0.3125 4.0625 0.96875q1.890625 0.65625 3.296875 1.78125q1.40625 1.125 2.21875 2.765625q0.8125 1.625 0.8125 3.9375q0 5.078125 -3.921875 8.03125q-3.90625 2.9375 -11.109375 2.9375zm76.87494 0q-3.8125 0 -6.859375 -1.15625q-3.03125 -1.15625 -5.140625 -3.34375q-2.09375 -2.203125 -3.21875 -5.328125q-1.125 -3.140625 -1.125 -7.09375q0 -3.9375 1.125 -7.0625q1.125 -3.140625 3.21875 -5.328125q2.109375 -2.203125 5.140625 -3.359375q3.046875 -1.15625 6.796875 -1.15625q5.328125 0 8.546875 2.15625q3.234375 2.15625 4.921875 5.734375l-7.140625 3.890625q-0.875 -1.890625 -2.28125 -3.140625q-1.40625 -1.25 -4.046875 -1.25q-3.1875 0 -4.921875 1.84375q-1.71875 1.84375 -1.71875 5.046875l0 5.265625q0 3.1875 1.71875 5.046875q1.734375 1.84375 5.046875 1.84375q2.703125 0 4.234375 -1.25q1.53125 -1.25 2.59375 -3.265625l7.015625 4.015625q-1.75 3.5625 -5.109375 5.734375q-3.34375 2.15625 -8.796875 2.15625zm41.734314 -6.640625l-0.375 0q-1.0625 2.765625 -3.359375 4.703125q-2.28125 1.9375 -6.171875 1.9375q-2.3125 0 -4.265625 -0.78125q-1.9375 -0.78125 -3.3125 -2.34375q-1.375 -1.578125 -2.15625 -3.828125q-0.78125 -2.25 -0.78125 -5.203125l0 -20.921875l9.265625 0l0 19.671875q0 6.265625 5.453125 6.265625q1.0625 0 2.09375 -0.28125q1.03125 -0.28125 1.8125 -0.875q0.796875 -0.59375 1.296875 -1.46875q0.5 -0.890625 0.5 -2.078125l0 -21.234375l9.265625 0l0 32.328125l-9.265625 0l0 -5.890625zm31.765564 6.640625q-5.390625 0 -9.375 -1.625q-3.96875 -1.625 -5.984375 -4.453125l5.203125 -4.828125q1.890625 2.078125 4.421875 3.234375q2.53125 1.15625 5.796875 1.15625q2.75 0 4.3125 -0.84375q1.578125 -0.84375 1.578125 -2.59375q0 -1.390625 -1.0625 -1.921875q-1.0625 -0.53125 -2.953125 -0.84375l-5.203125 -0.8125q-2.1875 -0.3125 -4.078125 -0.96875q-1.875 -0.65625 -3.25 -1.78125q-1.375 -1.140625 -2.1875 -2.765625q-0.8125 -1.625 -0.8125 -3.953125q0 -5.0625 3.875 -7.9375q3.890625 -2.890625 10.90625 -2.890625q4.765625 0 8.109375 1.28125q3.359375 1.28125 5.359375 3.671875l-4.625 5.25q-1.453125 -1.5625 -3.703125 -2.625q-2.25 -1.0625 -5.453125 -1.0625q-5.390625 0 -5.390625 3.25q0 1.453125 1.0625 1.984375q1.078125 0.53125 2.953125 0.84375l5.140625 0.8125q2.1875 0.3125 4.0625 0.96875q1.890625 0.65625 3.296875 1.78125q1.40625 1.125 2.21875 2.765625q0.8125 1.625 0.8125 3.9375q0 5.078125 -3.921875 8.03125q-3.90625 2.9375 -11.109375 2.9375zm40.46869 -0.75q-5.0 0 -7.453125 -2.625q-2.4375 -2.640625 -2.4375 -6.703125l0 -15.796875l-8.78125 0l0 -7.203125l5.703125 0q2.078125 0 2.953125 -0.8125q0.875 -0.8125 0.875 -3.015625l0 -7.578125l8.515625 0l0 11.40625l12.59375 0l0 7.203125l-12.59375 0l0 17.921875l12.59375 0l0 7.203125l-11.96875 0zm35.09369 0.75q-3.765625 0 -6.78125 -1.15625q-3.0 -1.15625 -5.09375 -3.34375q-2.09375 -2.203125 -3.234375 -5.328125q-1.125 -3.140625 -1.125 -7.09375q0 -3.9375 1.125 -7.0625q1.140625 -3.140625 3.234375 -5.328125q2.09375 -2.203125 5.09375 -3.359375q3.015625 -1.15625 6.78125 -1.15625q3.765625 0 6.765625 1.15625q3.015625 1.15625 5.109375 3.359375q2.09375 2.1875 3.21875 5.328125q1.140625 3.125 1.140625 7.0625q0 3.953125 -1.140625 7.09375q-1.125 3.125 -3.21875 5.328125q-2.09375 2.1875 -5.109375 3.34375q-3.0 1.15625 -6.765625 1.15625zm0 -6.890625q3.125 0 4.875 -1.9375q1.765625 -1.953125 1.765625 -5.515625l0 -5.140625q0 -3.578125 -1.765625 -5.515625q-1.75 -1.9375 -4.875 -1.9375q-3.140625 0 -4.890625 1.9375q-1.75 1.9375 -1.75 5.515625l0 5.140625q0 3.5625 1.75 5.515625q1.75 1.9375 4.890625 1.9375zm20.671814 6.140625l0 -32.328125l7.453125 0l0 4.765625l0.453125 0q0.75 -2.265625 2.15625 -3.890625q1.40625 -1.625 3.984375 -1.625q4.6875 0 5.75 5.515625l0.390625 0q0.375 -1.140625 0.9375 -2.140625q0.5625 -1.0 1.375 -1.75q0.8125 -0.75 1.9375 -1.1875q1.125 -0.4375 2.640625 -0.4375q6.765625 0 6.765625 9.953125l0 23.125l-7.453125 0l0 -22.1875q0 -2.25 -0.796875 -3.15625q-0.78125 -0.90625 -2.03125 -0.90625q-1.1875 0 -2.03125 0.78125q-0.84375 0.78125 -0.84375 2.40625l0 23.0625l-7.53125 0l0 -22.1875q0 -2.25 -0.71875 -3.15625q-0.71875 -0.90625 -1.96875 -0.90625q-1.25 0 -2.140625 0.78125q-0.875 0.78125 -0.875 2.40625l0 23.0625l-7.453125 0zm87.53113 -10.90625l11.90625 0l-8.578125 20.375l-6.890625 0l3.5625 -20.375zm4.578125 -9.578125q-3.515625 0 -5.046875 -1.53125q-1.53125 -1.53125 -1.53125 -3.671875l0 -2.1875q0 -2.125 1.53125 -3.65625q1.53125 -1.546875 5.046875 -1.546875q3.515625 0 5.046875 1.546875q1.53125 1.53125 1.53125 3.65625l0 2.1875q0 2.140625 -1.53125 3.671875q-1.53125 1.53125 -5.046875 1.53125zm33.015564 9.578125l11.90625 0l-8.578125 20.375l-6.890625 0l3.5625 -20.375zm4.578125 -9.578125q-3.515625 0 -5.046875 -1.53125q-1.53125 -1.53125 -1.53125 -3.671875l0 -2.1875q0 -2.125 1.53125 -3.65625q1.53125 -1.546875 5.046875 -1.546875q3.515625 0 5.046875 1.546875q1.53125 1.53125 1.53125 3.65625l0 2.1875q0 2.140625 -1.53125 3.671875q-1.53125 1.53125 -5.046875 1.53125z" fill-rule="nonzero"/><path fill="#000000" d="m390.44424 854.83716l-31.453125 0l0 -8.578125l13.78125 -11.46875q3.5625 -3.078125 5.125 -5.328125q1.578125 -2.25 1.578125 -4.765625l0 -0.625q0 -2.75 -1.640625 -4.15625q-1.625 -1.421875 -4.375 -1.421875q-3.140625 0 -4.828125 1.828125q-1.6875 1.8125 -2.375 4.3125l-8.21875 -3.125q0.75 -2.265625 2.0625 -4.296875q1.328125 -2.03125 3.359375 -3.53125q2.046875 -1.515625 4.734375 -2.421875q2.6875 -0.90625 6.203125 -0.90625q3.578125 0 6.390625 1.0q2.8125 1.0 4.75 2.765625q1.953125 1.75 2.953125 4.171875q1.0 2.40625 1.0 5.21875q0 2.75 -0.90625 5.046875q-0.90625 2.28125 -2.5 4.296875q-1.59375 2.0 -3.765625 3.875q-2.15625 1.875 -4.59375 3.765625l-8.34375 6.453125l21.0625 0l0 7.890625zm21.609344 0.75q-3.515625 0 -5.046875 -1.53125q-1.53125 -1.53125 -1.53125 -3.671875l0 -2.1875q0 -2.125 1.53125 -3.65625q1.53125 -1.546875 5.046875 -1.546875q3.515625 0 5.046875 1.546875q1.53125 1.53125 1.53125 3.65625l0 2.1875q0 2.140625 -1.53125 3.671875q-1.53125 1.53125 -5.046875 1.53125z" fill-rule="nonzero"/><path fill="#000000" d="m177.7258 886.1028l15.34375 0q6.453125 0 9.859375 3.140625q3.421875 3.125 3.421875 8.515625q0 3.75 -1.84375 5.984375q-1.84375 2.21875 -5.296875 3.21875l0 0.375q4.078125 1.015625 6.296875 3.515625q2.234375 2.5 2.234375 6.953125q0 5.515625 -3.484375 8.78125q-3.484375 3.25 -9.75 3.25l-16.78125 0l0 -43.734375zm13.90625 37.15625q3.390625 0 4.953125 -1.125q1.5625 -1.125 1.5625 -4.140625l0 -1.8125q0 -3.015625 -1.5625 -4.140625q-1.5625 -1.125 -4.953125 -1.125l-4.765625 0l0 12.34375l4.765625 0zm-1.1875 -18.609375q3.3125 0 4.8125 -1.09375q1.515625 -1.09375 1.515625 -3.984375l0 -1.875q0 -2.890625 -1.515625 -3.953125q-1.5 -1.0625 -4.8125 -1.0625l-3.578125 0l0 11.96875l3.578125 0zm39.718704 25.9375q-8.140625 0 -12.34375 -4.5q-4.203125 -4.515625 -4.203125 -12.296875q0 -3.9375 1.09375 -7.09375q1.109375 -3.171875 3.140625 -5.390625q2.03125 -2.234375 4.9375 -3.390625q2.921875 -1.15625 6.5625 -1.15625q3.640625 0 6.515625 1.15625q2.890625 1.15625 4.890625 3.296875q2.0 2.125 3.09375 5.171875q1.09375 3.03125 1.09375 6.78125l0 2.765625l-22.109375 0l0 0.5625q0 3.125 1.9375 5.046875q1.953125 1.90625 5.703125 1.90625q2.890625 0 4.953125 -1.09375q2.0625 -1.09375 3.578125 -2.921875l5.0 5.453125q-1.875 2.328125 -5.265625 4.015625q-3.375 1.6875 -8.578125 1.6875zm-0.75 -27.1875q-3.0 0 -4.796875 1.84375q-1.78125 1.84375 -1.78125 4.984375l0 0.5l13.03125 0l0 -0.5q0 -3.203125 -1.734375 -5.015625q-1.71875 -1.8125 -4.71875 -1.8125zm39.968704 26.4375q-5.0 0 -7.453125 -2.625q-2.4375 -2.640625 -2.4375 -6.703125l0 -15.796875l-8.78125 0l0 -7.203125l5.703125 0q2.078125 0 2.953125 -0.8125q0.875 -0.8125 0.875 -3.015625l0 -7.578125l8.515625 0l0 11.40625l12.59375 0l0 7.203125l-12.59375 0l0 17.921875l12.59375 0l0 7.203125l-11.96875 0zm16.734314 -32.328125l7.703125 0l2.328125 26.1875l0.625 0l3.8125 -26.1875l8.15625 0l3.75 26.1875l0.625 0l2.390625 -26.1875l7.328125 0l-3.828125 32.328125l-11.015625 0l-3.203125 -22.3125l-0.625 0l-3.203125 22.3125l-11.015625 0l-3.828125 -32.328125zm56.828094 33.078125q-8.140625 0 -12.34375 -4.5q-4.203125 -4.515625 -4.203125 -12.296875q0 -3.9375 1.09375 -7.09375q1.109375 -3.171875 3.140625 -5.390625q2.03125 -2.234375 4.9375 -3.390625q2.921875 -1.15625 6.5625 -1.15625q3.640625 0 6.515625 1.15625q2.890625 1.15625 4.890625 3.296875q2.0 2.125 3.09375 5.171875q1.09375 3.03125 1.09375 6.78125l0 2.765625l-22.109375 0l0 0.5625q0 3.125 1.9375 5.046875q1.953125 1.90625 5.703125 1.90625q2.890625 0 4.953125 -1.09375q2.0625 -1.09375 3.578125 -2.921875l5.0 5.453125q-1.875 2.328125 -5.265625 4.015625q-3.375 1.6875 -8.578125 1.6875zm-0.75 -27.1875q-3.0 0 -4.796875 1.84375q-1.78125 1.84375 -1.78125 4.984375l0 0.5l13.03125 0l0 -0.5q0 -3.203125 -1.734375 -5.015625q-1.71875 -1.8125 -4.71875 -1.8125zm38.34372 27.1875q-8.140625 0 -12.34375 -4.5q-4.203125 -4.515625 -4.203125 -12.296875q0 -3.9375 1.09375 -7.09375q1.109375 -3.171875 3.140625 -5.390625q2.03125 -2.234375 4.9375 -3.390625q2.921875 -1.15625 6.5625 -1.15625q3.640625 0 6.515625 1.15625q2.890625 1.15625 4.890625 3.296875q2.0 2.125 3.09375 5.171875q1.09375 3.03125 1.09375 6.78125l0 2.765625l-22.109375 0l0 0.5625q0 3.125 1.9375 5.046875q1.953125 1.90625 5.703125 1.90625q2.890625 0 4.953125 -1.09375q2.0625 -1.09375 3.578125 -2.921875l5.0 5.453125q-1.875 2.328125 -5.265625 4.015625q-3.375 1.6875 -8.578125 1.6875zm-0.75 -27.1875q-3.0 0 -4.796875 1.84375q-1.78125 1.84375 -1.78125 4.984375l0 0.5l13.03125 0l0 -0.5q0 -3.203125 -1.734375 -5.015625q-1.71875 -1.8125 -4.71875 -1.8125zm22.749939 26.4375l0 -32.328125l9.265625 0l0 5.890625l0.375 0q0.5625 -1.375 1.375 -2.5625q0.828125 -1.203125 1.984375 -2.109375q1.15625 -0.90625 2.6875 -1.4375q1.53125 -0.53125 3.484375 -0.53125q2.3125 0 4.25 0.78125q1.953125 0.78125 3.328125 2.34375q1.375 1.5625 2.15625 3.828125q0.78125 2.25 0.78125 5.203125l0 20.921875l-9.265625 0l0 -19.671875q0 -6.265625 -5.453125 -6.265625q-1.0625 0 -2.09375 0.28125q-1.03125 0.28125 -1.859375 0.875q-0.8125 0.59375 -1.28125 1.46875q-0.46875 0.875 -0.46875 2.078125l0 21.234375l-9.265625 0zm75.74991 -7.203125l7.453125 0l0 -17.921875l-7.453125 0l0 -7.203125l16.71875 0l0 9.140625l0.4375 0q0.453125 -1.75 1.234375 -3.40625q0.78125 -1.671875 2.0 -2.953125q1.21875 -1.28125 2.96875 -2.03125q1.765625 -0.75 4.140625 -0.75l3.078125 0l0 8.515625l-6.890625 0q-3.453125 0 -5.21875 2.046875q-1.75 2.03125 -1.75 4.96875l0 9.59375l10.65625 0l0 7.203125l-27.375 0l0 -7.203125zm51.74991 7.953125q-3.765625 0 -6.78125 -1.15625q-3.0 -1.15625 -5.09375 -3.34375q-2.09375 -2.203125 -3.234375 -5.328125q-1.125 -3.140625 -1.125 -7.09375q0 -3.9375 1.125 -7.0625q1.140625 -3.140625 3.234375 -5.328125q2.09375 -2.203125 5.09375 -3.359375q3.015625 -1.15625 6.78125 -1.15625q3.765625 0 6.765625 1.15625q3.015625 1.15625 5.109375 3.359375q2.09375 2.1875 3.21875 5.328125q1.140625 3.125 1.140625 7.0625q0 3.953125 -1.140625 7.09375q-1.125 3.125 -3.21875 5.328125q-2.09375 2.1875 -5.109375 3.34375q-3.0 1.15625 -6.765625 1.15625zm0 -6.890625q3.125 0 4.875 -1.9375q1.765625 -1.953125 1.765625 -5.515625l0 -5.140625q0 -3.578125 -1.765625 -5.515625q-1.75 -1.9375 -4.875 -1.9375q-3.140625 0 -4.890625 1.9375q-1.75 1.9375 -1.75 5.515625l0 5.140625q0 3.5625 1.75 5.515625q1.75 1.9375 4.890625 1.9375zm19.234314 -26.1875l7.703125 0l2.328125 26.1875l0.625 0l3.8125 -26.1875l8.15625 0l3.75 26.1875l0.625 0l2.390625 -26.1875l7.328125 0l-3.828125 32.328125l-11.015625 0l-3.203125 -22.3125l-0.625 0l-3.203125 22.3125l-11.015625 0l-3.828125 -32.328125zm55.578064 33.078125q-5.390625 0 -9.375 -1.625q-3.96875 -1.625 -5.984375 -4.453125l5.203125 -4.828125q1.890625 2.078125 4.421875 3.234375q2.53125 1.15625 5.796875 1.15625q2.75 0 4.3125 -0.84375q1.578125 -0.84375 1.578125 -2.59375q0 -1.390625 -1.0625 -1.921875q-1.0625 -0.53125 -2.953125 -0.84375l-5.203125 -0.8125q-2.1875 -0.3125 -4.078125 -0.96875q-1.875 -0.65625 -3.25 -1.78125q-1.375 -1.140625 -2.1875 -2.765625q-0.8125 -1.625 -0.8125 -3.953125q0 -5.0625 3.875 -7.9375q3.890625 -2.890625 10.90625 -2.890625q4.765625 0 8.109375 1.28125q3.359375 1.28125 5.359375 3.671875l-4.625 5.25q-1.453125 -1.5625 -3.703125 -2.625q-2.25 -1.0625 -5.453125 -1.0625q-5.390625 0 -5.390625 3.25q0 1.453125 1.0625 1.984375q1.078125 0.53125 2.953125 0.84375l5.140625 0.8125q2.1875 0.3125 4.0625 0.96875q1.890625 0.65625 3.296875 1.78125q1.40625 1.125 2.21875 2.765625q0.8125 1.625 0.8125 3.9375q0 5.078125 -3.921875 8.03125q-3.90625 2.9375 -11.109375 2.9375zm77.56238 -37.21875q-3.125 0 -4.359375 -1.28125q-1.21875 -1.28125 -1.21875 -3.109375l0 -1.8125q0 -1.875 1.21875 -3.125q1.234375 -1.265625 4.359375 -1.265625q3.140625 0 4.359375 1.265625q1.21875 1.25 1.21875 3.125l0 1.8125q0 1.828125 -1.21875 3.109375q-1.21875 1.28125 -4.359375 1.28125zm-14.90625 29.265625l10.28125 0l0 -17.921875l-10.28125 0l0 -7.203125l19.546875 0l0 25.125l9.53125 0l0 7.203125l-29.078125 0l0 -7.203125zm50.125 7.953125q-5.390625 0 -9.375 -1.625q-3.96875 -1.625 -5.984375 -4.453125l5.203125 -4.828125q1.890625 2.078125 4.421875 3.234375q2.53125 1.15625 5.796875 1.15625q2.75 0 4.3125 -0.84375q1.578125 -0.84375 1.578125 -2.59375q0 -1.390625 -1.0625 -1.921875q-1.0625 -0.53125 -2.953125 -0.84375l-5.203125 -0.8125q-2.1875 -0.3125 -4.078125 -0.96875q-1.875 -0.65625 -3.25 -1.78125q-1.375 -1.140625 -2.1875 -2.765625q-0.8125 -1.625 -0.8125 -3.953125q0 -5.0625 3.875 -7.9375q3.890625 -2.890625 10.90625 -2.890625q4.765625 0 8.109375 1.28125q3.359375 1.28125 5.359375 3.671875l-4.625 5.25q-1.453125 -1.5625 -3.703125 -2.625q-2.25 -1.0625 -5.453125 -1.0625q-5.390625 0 -5.390625 3.25q0 1.453125 1.0625 1.984375q1.078125 0.53125 2.953125 0.84375l5.140625 0.8125q2.1875 0.3125 4.0625 0.96875q1.890625 0.65625 3.296875 1.78125q1.40625 1.125 2.21875 2.765625q0.8125 1.625 0.8125 3.9375q0 5.078125 -3.921875 8.03125q-3.90625 2.9375 -11.109375 2.9375z" fill-rule="nonzero"/><path fill="#000000" d="m172.5227 1005.58716q-5.390625 0 -9.375 -1.625q-3.96875 -1.625 -5.984375 -4.453125l5.203125 -4.828125q1.890625 2.078125 4.421875 3.234375q2.53125 1.15625 5.796875 1.15625q2.75 0 4.3125 -0.84375q1.578125 -0.84375 1.578125 -2.59375q0 -1.390625 -1.0625 -1.921875q-1.0625 -0.53125 -2.953125 -0.84375l-5.203125 -0.8125q-2.1875 -0.3125 -4.078125 -0.96875q-1.875 -0.65625 -3.25 -1.78125q-1.375 -1.140625 -2.1875 -2.765625q-0.8125 -1.625 -0.8125 -3.953125q0 -5.0625 3.875 -7.9375q3.890625 -2.890625 10.90625 -2.890625q4.765625 0 8.109375 1.28125q3.359375 1.28125 5.359375 3.671875l-4.625 5.25q-1.453125 -1.5625 -3.703125 -2.625q-2.25 -1.0625 -5.453125 -1.0625q-5.390625 0 -5.390625 3.25q0 1.453125 1.0625 1.984375q1.078125 0.53125 2.953125 0.84375l5.140625 0.8125q2.1875 0.3125 4.0625 0.96875q1.890625 0.65625 3.296875 1.78125q1.40625 1.125 2.21875 2.765625q0.8125 1.625 0.8125 3.9375q0 5.078125 -3.921875 8.03125q-3.90625 2.9375 -11.109375 2.9375zm38.843704 0q-8.140625 0 -12.34375 -4.5q-4.203125 -4.515625 -4.203125 -12.296875q0 -3.9375 1.09375 -7.09375q1.109375 -3.171875 3.140625 -5.390625q2.03125 -2.234375 4.9375 -3.390625q2.921875 -1.15625 6.5625 -1.15625q3.640625 0 6.515625 1.15625q2.890625 1.15625 4.890625 3.296875q2.0 2.125 3.09375 5.171875q1.09375 3.03125 1.09375 6.78125l0 2.765625l-22.109375 0l0 0.5625q0 3.125 1.9375 5.046875q1.953125 1.90625 5.703125 1.90625q2.890625 0 4.953125 -1.09375q2.0625 -1.09375 3.578125 -2.921875l5.0 5.453125q-1.875 2.328125 -5.265625 4.015625q-3.375 1.6875 -8.578125 1.6875zm-0.75 -27.1875q-3.0 0 -4.796875 1.84375q-1.78125 1.84375 -1.78125 4.984375l0 0.5l13.03125 0l0 -0.5q0 -3.203125 -1.734375 -5.015625q-1.71875 -1.8125 -4.71875 -1.8125zm39.968704 26.4375q-5.0 0 -7.453125 -2.625q-2.4375 -2.640625 -2.4375 -6.703125l0 -15.796875l-8.78125 0l0 -7.203125l5.703125 0q2.078125 0 2.953125 -0.8125q0.875 -0.8125 0.875 -3.015625l0 -7.578125l8.515625 0l0 11.40625l12.59375 0l0 7.203125l-12.59375 0l0 17.921875l12.59375 0l0 7.203125l-11.96875 0zm84.40616 0q-2.890625 0 -4.640625 -1.46875q-1.75 -1.46875 -2.0625 -4.234375l-0.3125 0q-0.875 3.203125 -3.484375 4.828125q-2.59375 1.625 -6.359375 1.625q-4.703125 0 -7.546875 -2.53125q-2.84375 -2.546875 -2.84375 -7.109375q0 -5.078125 3.6875 -7.515625q3.703125 -2.453125 10.84375 -2.453125l5.203125 0l0 -1.625q0 -2.890625 -1.359375 -4.359375q-1.34375 -1.46875 -4.53125 -1.46875q-2.953125 0 -4.765625 1.125q-1.8125 1.125 -3.140625 2.9375l-5.0625 -4.5q1.625 -2.765625 5.09375 -4.546875q3.484375 -1.78125 8.9375 -1.78125q6.640625 0 10.359375 3.046875q3.734375 3.03125 3.734375 9.171875l0 14.15625l3.578125 0l0 6.703125l-5.328125 0zm-13.34375 -5.328125q2.4375 0 4.125 -1.1875q1.703125 -1.1875 1.703125 -3.453125l0 -3.875l-4.953125 0q-5.703125 0 -5.703125 3.8125l0 1.265625q0 1.6875 1.3125 2.5625q1.3125 0.875 3.515625 0.875zm38.84369 6.078125q-5.390625 0 -9.375 -1.625q-3.96875 -1.625 -5.984375 -4.453125l5.203125 -4.828125q1.890625 2.078125 4.421875 3.234375q2.53125 1.15625 5.796875 1.15625q2.75 0 4.3125 -0.84375q1.578125 -0.84375 1.578125 -2.59375q0 -1.390625 -1.0625 -1.921875q-1.0625 -0.53125 -2.953125 -0.84375l-5.203125 -0.8125q-2.1875 -0.3125 -4.078125 -0.96875q-1.875 -0.65625 -3.25 -1.78125q-1.375 -1.140625 -2.1875 -2.765625q-0.8125 -1.625 -0.8125 -3.953125q0 -5.0625 3.875 -7.9375q3.890625 -2.890625 10.90625 -2.890625q4.765625 0 8.109375 1.28125q3.359375 1.28125 5.359375 3.671875l-4.625 5.25q-1.453125 -1.5625 -3.703125 -2.625q-2.25 -1.0625 -5.453125 -1.0625q-5.390625 0 -5.390625 3.25q0 1.453125 1.0625 1.984375q1.078125 0.53125 2.953125 0.84375l5.140625 0.8125q2.1875 0.3125 4.0625 0.96875q1.890625 0.65625 3.296875 1.78125q1.40625 1.125 2.21875 2.765625q0.8125 1.625 0.8125 3.9375q0 5.078125 -3.921875 8.03125q-3.90625 2.9375 -11.109375 2.9375zm76.87494 0q-3.8125 0 -6.859375 -1.15625q-3.03125 -1.15625 -5.140625 -3.34375q-2.09375 -2.203125 -3.21875 -5.328125q-1.125 -3.140625 -1.125 -7.09375q0 -3.9375 1.125 -7.0625q1.125 -3.140625 3.21875 -5.328125q2.109375 -2.203125 5.140625 -3.359375q3.046875 -1.15625 6.796875 -1.15625q5.328125 0 8.546875 2.15625q3.234375 2.15625 4.921875 5.734375l-7.140625 3.890625q-0.875 -1.890625 -2.28125 -3.140625q-1.40625 -1.25 -4.046875 -1.25q-3.1875 0 -4.921875 1.84375q-1.71875 1.84375 -1.71875 5.046875l0 5.265625q0 3.1875 1.71875 5.046875q1.734375 1.84375 5.046875 1.84375q2.703125 0 4.234375 -1.25q1.53125 -1.25 2.59375 -3.265625l7.015625 4.015625q-1.75 3.5625 -5.109375 5.734375q-3.34375 2.15625 -8.796875 2.15625zm41.734314 -6.640625l-0.375 0q-1.0625 2.765625 -3.359375 4.703125q-2.28125 1.9375 -6.171875 1.9375q-2.3125 0 -4.265625 -0.78125q-1.9375 -0.78125 -3.3125 -2.34375q-1.375 -1.578125 -2.15625 -3.828125q-0.78125 -2.25 -0.78125 -5.203125l0 -20.921875l9.265625 0l0 19.671875q0 6.265625 5.453125 6.265625q1.0625 0 2.09375 -0.28125q1.03125 -0.28125 1.8125 -0.875q0.796875 -0.59375 1.296875 -1.46875q0.5 -0.890625 0.5 -2.078125l0 -21.234375l9.265625 0l0 32.328125l-9.265625 0l0 -5.890625zm31.765564 6.640625q-5.390625 0 -9.375 -1.625q-3.96875 -1.625 -5.984375 -4.453125l5.203125 -4.828125q1.890625 2.078125 4.421875 3.234375q2.53125 1.15625 5.796875 1.15625q2.75 0 4.3125 -0.84375q1.578125 -0.84375 1.578125 -2.59375q0 -1.390625 -1.0625 -1.921875q-1.0625 -0.53125 -2.953125 -0.84375l-5.203125 -0.8125q-2.1875 -0.3125 -4.078125 -0.96875q-1.875 -0.65625 -3.25 -1.78125q-1.375 -1.140625 -2.1875 -2.765625q-0.8125 -1.625 -0.8125 -3.953125q0 -5.0625 3.875 -7.9375q3.890625 -2.890625 10.90625 -2.890625q4.765625 0 8.109375 1.28125q3.359375 1.28125 5.359375 3.671875l-4.625 5.25q-1.453125 -1.5625 -3.703125 -2.625q-2.25 -1.0625 -5.453125 -1.0625q-5.390625 0 -5.390625 3.25q0 1.453125 1.0625 1.984375q1.078125 0.53125 2.953125 0.84375l5.140625 0.8125q2.1875 0.3125 4.0625 0.96875q1.890625 0.65625 3.296875 1.78125q1.40625 1.125 2.21875 2.765625q0.8125 1.625 0.8125 3.9375q0 5.078125 -3.921875 8.03125q-3.90625 2.9375 -11.109375 2.9375zm40.46869 -0.75q-5.0 0 -7.453125 -2.625q-2.4375 -2.640625 -2.4375 -6.703125l0 -15.796875l-8.78125 0l0 -7.203125l5.703125 0q2.078125 0 2.953125 -0.8125q0.875 -0.8125 0.875 -3.015625l0 -7.578125l8.515625 0l0 11.40625l12.59375 0l0 7.203125l-12.59375 0l0 17.921875l12.59375 0l0 7.203125l-11.96875 0zm35.09369 0.75q-3.765625 0 -6.78125 -1.15625q-3.0 -1.15625 -5.09375 -3.34375q-2.09375 -2.203125 -3.234375 -5.328125q-1.125 -3.140625 -1.125 -7.09375q0 -3.9375 1.125 -7.0625q1.140625 -3.140625 3.234375 -5.328125q2.09375 -2.203125 5.09375 -3.359375q3.015625 -1.15625 6.78125 -1.15625q3.765625 0 6.765625 1.15625q3.015625 1.15625 5.109375 3.359375q2.09375 2.1875 3.21875 5.328125q1.140625 3.125 1.140625 7.0625q0 3.953125 -1.140625 7.09375q-1.125 3.125 -3.21875 5.328125q-2.09375 2.1875 -5.109375 3.34375q-3.0 1.15625 -6.765625 1.15625zm0 -6.890625q3.125 0 4.875 -1.9375q1.765625 -1.953125 1.765625 -5.515625l0 -5.140625q0 -3.578125 -1.765625 -5.515625q-1.75 -1.9375 -4.875 -1.9375q-3.140625 0 -4.890625 1.9375q-1.75 1.9375 -1.75 5.515625l0 5.140625q0 3.5625 1.75 5.515625q1.75 1.9375 4.890625 1.9375zm20.671814 6.140625l0 -32.328125l7.453125 0l0 4.765625l0.453125 0q0.75 -2.265625 2.15625 -3.890625q1.40625 -1.625 3.984375 -1.625q4.6875 0 5.75 5.515625l0.390625 0q0.375 -1.140625 0.9375 -2.140625q0.5625 -1.0 1.375 -1.75q0.8125 -0.75 1.9375 -1.1875q1.125 -0.4375 2.640625 -0.4375q6.765625 0 6.765625 9.953125l0 23.125l-7.453125 0l0 -22.1875q0 -2.25 -0.796875 -3.15625q-0.78125 -0.90625 -2.03125 -0.90625q-1.1875 0 -2.03125 0.78125q-0.84375 0.78125 -0.84375 2.40625l0 23.0625l-7.53125 0l0 -22.1875q0 -2.25 -0.71875 -3.15625q-0.71875 -0.90625 -1.96875 -0.90625q-1.25 0 -2.140625 0.78125q-0.875 0.78125 -0.875 2.40625l0 23.0625l-7.453125 0zm92.10925 0.75q-3.515625 0 -5.046875 -1.53125q-1.53125 -1.53125 -1.53125 -3.671875l0 -2.1875q0 -2.125 1.53125 -3.65625q1.53125 -1.546875 5.046875 -1.546875q3.515625 0 5.046875 1.546875q1.53125 1.53125 1.53125 3.65625l0 2.1875q0 2.140625 -1.53125 3.671875q-1.53125 1.53125 -5.046875 1.53125zm0 -21.234375q-3.515625 0 -5.046875 -1.53125q-1.53125 -1.53125 -1.53125 -3.671875l0 -2.1875q0 -2.125 1.53125 -3.65625q1.53125 -1.546875 5.046875 -1.546875q3.515625 0 5.046875 1.546875q1.53125 1.53125 1.53125 3.65625l0 2.1875q0 2.140625 -1.53125 3.671875q-1.53125 1.53125 -5.046875 1.53125zm37.59369 21.234375q-3.515625 0 -5.046875 -1.53125q-1.53125 -1.53125 -1.53125 -3.671875l0 -2.1875q0 -2.125 1.53125 -3.65625q1.53125 -1.546875 5.046875 -1.546875q3.515625 0 5.046875 1.546875q1.53125 1.53125 1.53125 3.65625l0 2.1875q0 2.140625 -1.53125 3.671875q-1.53125 1.53125 -5.046875 1.53125zm0 -21.234375q-3.515625 0 -5.046875 -1.53125q-1.53125 -1.53125 -1.53125 -3.671875l0 -2.1875q0 -2.125 1.53125 -3.65625q1.53125 -1.546875 5.046875 -1.546875q3.515625 0 5.046875 1.546875q1.53125 1.53125 1.53125 3.65625l0 2.1875q0 2.140625 -1.53125 3.671875q-1.53125 1.53125 -5.046875 1.53125z" fill-rule="nonzero"/><path fill="#474946" d="m91.36483 457.72702l715.21265 0l-50.422485 40.90555l-628.42773 0l0 509.81573l-36.36242 29.499207z" fill-rule="evenodd"/><path stroke="#000000" stroke-width="1.0" stroke-linejoin="round" stroke-linecap="butt" d="m91.36483 457.72702l715.21265 0l-50.422485 40.90555l-628.42773 0l0 509.81573l-36.36242 29.499207z" fill-rule="evenodd"/><path fill="#c3c7cb" d="m91.91076 457.66403l715.2126 0l0 595.874l-715.2126 0zm31.634956 31.634949l0 532.6041l651.9427 0l0 -532.6041z" fill-rule="evenodd"/><g filter="url(#shadowFilter-p.1)"><use xlink:href="#p.1" transform="matrix(1.0 0.0 0.0 1.0 -11.313708398950084 -11.313708398950084)"/></g><defs><filter id="shadowFilter-p.1" filterUnits="userSpaceOnUse"><feGaussianBlur in="SourceAlpha" stdDeviation="12.0" result="blur"/><feComponentTransfer in="blur" color-interpolation-filters="sRGB"><feFuncR type="linear" slope="0" intercept="1.0"/><feFuncG type="linear" slope="0" intercept="1.0"/><feFuncB type="linear" slope="0" intercept="1.0"/><feFuncA type="linear" slope="1.0" intercept="0"/></feComponentTransfer></filter></defs><g id="p.1"><path fill="#c3c7cb" d="m3763.335 2002.2992l-2862.4883 0l0 -1844.5984l2862.4883 0z" fill-rule="evenodd"/></g><g filter="url(#shadowFilter-p.2)"><use xlink:href="#p.2" transform="matrix(1.0 0.0 0.0 1.0 12.727922047244103 12.72792204724395)"/></g><defs><filter id="shadowFilter-p.2" filterUnits="userSpaceOnUse"><feGaussianBlur in="SourceAlpha" stdDeviation="12.0" result="blur"/><feComponentTransfer in="blur" color-interpolation-filters="sRGB"><feFuncR type="linear" slope="0" intercept="0.0"/><feFuncG type="linear" slope="0" intercept="0.0"/><feFuncB type="linear" slope="0" intercept="0.0"/><feFuncA type="linear" slope="1.0" intercept="0"/></feComponentTransfer></filter></defs><g id="p.2"><path fill="#c3c7cb" d="m900.8468 157.70079l2862.4883 0l0 1844.5984l-2862.4883 0z" fill-rule="evenodd"/></g><path fill="#ffffff" d="m3329.8706 584.5722l-1991.1495 0l34.54651 -3.80719l1953.7593 0l0 -215.3125l2.84375 -0.31341553z" fill-rule="evenodd"/><path fill="#ffffff" d="m1340.3754 366.7533l1983.433 0l-68.34912 7.317444l-1906.5221 0l0 204.11237l-8.561768 0.916626z" fill-rule="evenodd"/><path fill="#000000" fill-opacity="0.0" d="m1340.3763 366.75305l1983.433 0l0 212.34644l-1983.433 0z" fill-rule="evenodd"/><path stroke="#868a8e" stroke-width="8.0" stroke-linejoin="round" stroke-linecap="butt" d="m1340.3763 366.75305l1983.433 0l0 212.34644l-1983.433 0z" fill-rule="evenodd"/><path fill="#0000aa" d="m917.94916 178.15486l2828.2834 0l0 126.80315l-2828.2834 0z" fill-rule="evenodd"/><path stroke="#ffffff" stroke-width="1.0" stroke-linejoin="round" stroke-linecap="butt" d="m917.94916 178.15486l2828.2834 0l0 126.80315l-2828.2834 0z" fill-rule="evenodd"/><path fill="#ffffff" d="m960.8554 245.60768l0.625 -15.328125l-0.703125 0l-10.234375 28.23436l-10.21875 -28.23436l-0.71875 0l0.640625 15.328125l0 24.468735l-10.234375 0l0 -54.906235l13.921875 0l6.765625 18.484375l0.640625 0l6.75 -18.484375l12.984375 0l0 54.906235l-10.21875 0l0 -24.468735zm51.599976 24.468735q-3.625 0 -5.828125 -1.84375q-2.203125 -1.859375 -2.59375 -5.3125l-0.390625 0q-1.109375 4.015625 -4.375 6.0625q-3.265625 2.03125 -7.984375 2.03125q-5.890625 0 -9.46875 -3.171875q-3.578125 -3.1875 -3.578125 -8.9375q0 -6.3749847 4.640625 -9.437485q4.640625 -3.0625 13.609375 -3.0625l6.515625 0l0 -2.046875q0 -3.625 -1.6875 -5.46875q-1.6875 -1.84375 -5.703125 -1.84375q-3.6875 0 -5.96875 1.421875q-2.28125 1.40625 -3.9375 3.6875l-6.375 -5.671875q2.046875 -3.453125 6.40625 -5.6875q4.375 -2.25 11.21875 -2.25q8.328125 0 13.015625 3.8125q4.6875 3.8125 4.6875 11.53125l0 17.76561l4.46875 0l0 8.421875l-6.671875 0zm-16.765625 -6.6875q3.078125 0 5.1875 -1.484375q2.125 -1.5 2.125 -4.328125l0 -4.8906097l-6.203125 0q-7.15625 0 -7.15625 4.8124847l0 1.5625q0 2.125 1.640625 3.234375q1.65625 1.09375 4.40625 1.09375zm51.756287 -39.093735q-3.921875 0 -5.46875 -1.609375q-1.53125 -1.609375 -1.53125 -3.890625l0 -2.28125q0 -2.359375 1.53125 -3.9375q1.546875 -1.578125 5.46875 -1.578125q3.9375 0 5.46875 1.578125q1.53125 1.578125 1.53125 3.9375l0 2.28125q0 2.28125 -1.53125 3.890625q-1.53125 1.609375 -5.46875 1.609375zm-18.71875 36.73436l12.90625 0l0 -22.499985l-12.90625 0l0 -9.046875l24.546875 0l0 31.54686l11.953125 0l0 9.046875l-36.5 0l0 -9.046875zm44.912476 9.046875l0 -40.593735l11.640625 0l0 7.40625l0.46875 0q0.71875 -1.734375 1.734375 -3.21875q1.03125 -1.5 2.484375 -2.640625q1.453125 -1.140625 3.375 -1.8125q1.9375 -0.671875 4.375 -0.671875q2.90625 0 5.34375 0.984375q2.4375 0.984375 4.15625 2.953125q1.734375 1.96875 2.71875 4.796875q0.984375 2.828125 0.984375 6.53125l0 26.26561l-11.640625 0l0 -24.70311q0 -7.859375 -6.84375 -7.859375q-1.328125 0 -2.625 0.359375q-1.296875 0.34375 -2.328125 1.09375q-1.015625 0.75 -1.609375 1.859375q-0.59375 1.09375 -0.59375 2.578125l0 26.67186l-11.640625 0zm123.184326 -24.468735l0.625 -15.328125l-0.703125 0l-10.234375 28.23436l-10.21875 -28.23436l-0.71875 0l0.640625 15.328125l0 24.468735l-10.234375 0l0 -54.906235l13.921875 0l6.765625 18.484375l0.640625 0l6.75 -18.484375l12.984375 0l0 54.906235l-10.21875 0l0 -24.468735zm37.9906 25.406235q-10.234375 0 -15.5 -5.65625q-5.265625 -5.65625 -5.265625 -15.42186q0 -4.953125 1.375 -8.921875q1.375 -3.96875 3.921875 -6.765625q2.5625 -2.796875 6.21875 -4.25q3.65625 -1.453125 8.21875 -1.453125q4.5625 0 8.171875 1.453125q3.625 1.453125 6.140625 4.140625q2.53125 2.671875 3.90625 6.484375q1.375 3.8125 1.375 8.53125l0 3.453125l-27.765625 0l0 0.71875q0 3.9218597 2.4375 6.3281097q2.4375 2.40625 7.15625 2.40625q3.609375 0 6.203125 -1.375q2.609375 -1.390625 4.484375 -3.671875l6.296875 6.84375q-2.359375 2.921875 -6.609375 5.046875q-4.25 2.109375 -10.765625 2.109375zm-0.953125 -34.124985q-3.765625 0 -6.015625 2.328125q-2.234375 2.3125 -2.234375 6.234375l0 0.640625l16.359375 0l0 -0.640625q0 -4.0 -2.171875 -6.28125q-2.15625 -2.28125 -5.9375 -2.28125zm28.5531 33.187485l0 -40.593735l11.640625 0l0 7.40625l0.46875 0q0.71875 -1.734375 1.734375 -3.21875q1.03125 -1.5 2.484375 -2.640625q1.453125 -1.140625 3.375 -1.8125q1.9375 -0.671875 4.375 -0.671875q2.90625 0 5.34375 0.984375q2.4375 0.984375 4.15625 2.953125q1.734375 1.96875 2.71875 4.796875q0.984375 2.828125 0.984375 6.53125l0 26.26561l-11.640625 0l0 -24.70311q0 -7.859375 -6.84375 -7.859375q-1.328125 0 -2.625 0.359375q-1.296875 0.34375 -2.328125 1.09375q-1.015625 0.75 -1.609375 1.859375q-0.59375 1.09375 -0.59375 2.578125l0 26.67186l-11.640625 0zm72.52185 -7.390625l-0.46875 0q-1.34375 3.453125 -4.21875 5.890625q-2.859375 2.4375 -7.734375 2.4375q-2.90625 0 -5.359375 -0.96875q-2.4375 -0.984375 -4.171875 -2.953125q-1.71875 -1.96875 -2.703125 -4.796875q-0.984375 -2.84375 -0.984375 -6.5312347l0 -26.28125l11.640625 0l0 24.703125q0 7.8749847 6.84375 7.8749847q1.34375 0 2.640625 -0.359375q1.296875 -0.359375 2.28125 -1.09375q0.984375 -0.75 1.609375 -1.84375q0.625 -1.109375 0.625 -2.609375l0 -26.67186l11.640625 0l0 40.593735l-11.640625 0l0 -7.390625z" fill-rule="nonzero"/><path fill="#f2bb05" d="m1405.574 258.7483l23.359375 -12.343735l0 -0.640625l-23.359375 -12.34375l0 -10.859375l33.828125 18.09375l0 10.859375l-33.828125 18.093735l0 -10.859375z" fill-rule="nonzero"/><path fill="#ffffff" d="m1499.1802 270.07642l0 -8.734375l11.796875 0l0 -37.437485l-11.796875 0l0 -8.734375l35.390625 0l0 8.734375l-11.796875 0l0 37.437485l11.796875 0l0 8.734375l-35.390625 0zm43.64685 0l0 -40.593735l9.359375 0l0 5.984375l0.546875 0q0.953125 -2.828125 2.71875 -4.875q1.765625 -2.046875 5.0 -2.046875q5.890625 0 7.234375 6.921875l0.46875 0q0.46875 -1.421875 1.171875 -2.671875q0.71875 -1.265625 1.734375 -2.203125q1.03125 -0.9375 2.4375 -1.484375q1.421875 -0.5625 3.3125 -0.5625q8.484375 0 8.484375 12.5l0 29.031235l-9.359375 0l0 -27.843735q0 -2.828125 -0.984375 -3.96875q-0.984375 -1.140625 -2.546875 -1.140625q-1.5 0 -2.5625 0.984375q-1.0625 0.984375 -1.0625 3.015625l0 28.95311l-9.4375 0l0 -27.843735q0 -2.828125 -0.90625 -3.96875q-0.90625 -1.140625 -2.46875 -1.140625q-1.578125 0 -2.6875 0.984375q-1.09375 0.984375 -1.09375 3.015625l0 28.95311l-9.359375 0zm49.474976 -40.593735l11.640625 0l0 7.40625l0.546875 0q1.5 -3.625 4.328125 -5.984375q2.828125 -2.359375 7.703125 -2.359375q3.390625 0 6.171875 1.265625q2.796875 1.25 4.796875 3.84375q2.015625 2.59375 3.15625 6.609375q1.140625 4.015625 1.140625 9.515625q0 5.515625 -1.140625 9.531235q-1.140625 4.0 -3.15625 6.59375q-2.0 2.59375 -4.796875 3.859375q-2.78125 1.25 -6.171875 1.25q-4.875 0 -7.703125 -2.3125q-2.828125 -2.328125 -4.328125 -6.015625l-0.546875 0l0 23.125l-11.640625 0l0 -56.32811zm19.1875 32.48436q3.9375 0 6.0625 -2.390625q2.125 -2.40625 2.125 -6.6406097l0 -6.296875q0 -4.25 -2.125 -6.640625q-2.125 -2.40625 -6.0625 -2.40625q-3.0625 0 -5.3125 1.5q-2.234375 1.484375 -2.234375 4.71875l0 11.953125q0 3.2187347 2.234375 4.7187347q2.25 1.484375 5.3125 1.484375zm46.95935 9.046875q-4.71875 0 -8.5 -1.453125q-3.765625 -1.453125 -6.40625 -4.203125q-2.625 -2.75 -4.046875 -6.6875q-1.421875 -3.9374847 -1.421875 -8.89061q0 -4.953125 1.421875 -8.875q1.421875 -3.9375 4.046875 -6.6875q2.640625 -2.765625 6.40625 -4.21875q3.78125 -1.453125 8.5 -1.453125q4.71875 0 8.5 1.453125q3.78125 1.453125 6.40625 4.21875q2.640625 2.75 4.046875 6.6875q1.421875 3.921875 1.421875 8.875q0 4.953125 -1.421875 8.89061q-1.40625 3.9375 -4.046875 6.6875q-2.625 2.75 -6.40625 4.203125q-3.78125 1.453125 -8.5 1.453125zm0 -8.640625q3.9375 0 6.140625 -2.4375q2.203125 -2.4375 2.203125 -6.9218597l0 -6.453125q0 -4.484375 -2.203125 -6.921875q-2.203125 -2.4375 -6.140625 -2.4375q-3.9375 0 -6.140625 2.4375q-2.1875 2.4375 -2.1875 6.921875l0 6.453125q0 4.4843597 2.1875 6.9218597q2.203125 2.4375 6.140625 2.4375zm29.4281 -1.34375l9.359375 0l0 -22.499985l-9.359375 0l0 -9.046875l21.0 0l0 11.484375l0.546875 0q0.546875 -2.203125 1.53125 -4.28125q0.984375 -2.078125 2.515625 -3.6875q1.53125 -1.625 3.734375 -2.5625q2.203125 -0.953125 5.1875 -0.953125l3.859375 0l0 10.703125l-8.65625 0q-4.328125 0 -6.53125 2.5625q-2.1875 2.546875 -2.1875 6.25l0 12.031235l13.359375 0l0 9.046875l-34.359375 0l0 -9.046875zm68.1156 9.046875q-6.296875 0 -9.375 -3.296875q-3.0625 -3.3125 -3.0625 -8.421875l0 -19.82811l-11.015625 0l0 -9.046875l7.171875 0q2.59375 0 3.6875 -1.015625q1.109375 -1.015625 1.109375 -3.78125l0 -9.515625l10.6875 0l0 14.3125l15.8125 0l0 9.046875l-15.8125 0l0 22.499985l15.8125 0l0 9.046875l-15.015625 0zm109.01245 15.015625l-11.171875 0q-6.375 0 -9.046875 -3.0625q-2.671875 -3.0625 -2.671875 -8.25l0 -3.234375q-8.421875 -1.65625 -12.390625 -8.84375q-3.96875 -7.2031097 -3.96875 -19.07811q0 -13.453125 5.21875 -20.921875q5.234375 -7.46875 16.25 -7.46875q11.015625 0 16.234375 7.46875q5.234375 7.46875 5.234375 20.921875q0 11.875 -3.96875 19.07811q-3.96875 7.1875 -12.390625 8.84375l0 6.140625l12.671875 0l0 8.40625zm-17.78125 -23.59375q5.03125 0 6.953125 -3.734375q1.9375 -3.7343597 1.9375 -10.42186l0 -9.515625q0 -6.609375 -1.9375 -10.34375q-1.921875 -3.734375 -6.953125 -3.734375q-5.03125 0 -6.96875 3.734375q-1.921875 3.734375 -1.921875 10.34375l0 9.59375q0 6.609375 1.921875 10.343735q1.9375 3.734375 6.96875 3.734375zm54.037476 1.1875l-0.46875 0q-1.34375 3.453125 -4.21875 5.890625q-2.859375 2.4375 -7.734375 2.4375q-2.90625 0 -5.359375 -0.96875q-2.4375 -0.984375 -4.171875 -2.953125q-1.71875 -1.96875 -2.703125 -4.796875q-0.984375 -2.84375 -0.984375 -6.5312347l0 -26.28125l11.640625 0l0 24.703125q0 7.8749847 6.84375 7.8749847q1.34375 0 2.640625 -0.359375q1.296875 -0.359375 2.28125 -1.09375q0.984375 -0.75 1.609375 -1.84375q0.625 -1.109375 0.625 -2.609375l0 -26.67186l11.640625 0l0 40.593735l-11.640625 0l0 -7.390625zm42.8656 -38.39061q-3.921875 0 -5.46875 -1.609375q-1.53125 -1.609375 -1.53125 -3.890625l0 -2.28125q0 -2.359375 1.53125 -3.9375q1.546875 -1.578125 5.46875 -1.578125q3.9375 0 5.46875 1.578125q1.53125 1.578125 1.53125 3.9375l0 2.28125q0 2.28125 -1.53125 3.890625q-1.53125 1.609375 -5.46875 1.609375zm-18.71875 36.73436l12.90625 0l0 -22.499985l-12.90625 0l0 -9.046875l24.546875 0l0 31.54686l11.953125 0l0 9.046875l-36.5 0l0 -9.046875zm44.9906 9.046875l0 -9.671875l22.578125 -21.874985l-21.78125 0l0 -9.046875l35.234375 0l0 9.6875l-22.578125 21.85936l23.359375 0l0 9.046875l-36.8125 0zm47.349976 -9.046875l12.4375 0l0 -40.10936l-12.4375 0l0 -9.046875l24.078125 0l0 49.156235l12.421753 0l0 9.046875l-36.499878 0l0 -9.046875zm66.5531 9.984375q-10.234375 0 -15.5 -5.65625q-5.265625 -5.65625 -5.265625 -15.42186q0 -4.953125 1.375 -8.921875q1.375 -3.96875 3.921875 -6.765625q2.5625 -2.796875 6.21875 -4.25q3.65625 -1.453125 8.21875 -1.453125q4.5625 0 8.171875 1.453125q3.625 1.453125 6.140625 4.140625q2.53125 2.671875 3.90625 6.484375q1.375 3.8125 1.375 8.53125l0 3.453125l-27.765625 0l0 0.71875q0 3.9218597 2.4375 6.3281097q2.4375 2.40625 7.15625 2.40625q3.609375 0 6.203125 -1.375q2.609375 -1.390625 4.484375 -3.671875l6.296875 6.84375q-2.359375 2.921875 -6.609375 5.046875q-4.25 2.109375 -10.765625 2.109375zm-0.953125 -34.124985q-3.765625 0 -6.015625 2.328125q-2.234375 2.3125 -2.234375 6.234375l0 0.640625l16.359375 0l0 -0.640625q0 -4.0 -2.171875 -6.28125q-2.15625 -2.28125 -5.9375 -2.28125zm50.193604 33.187485q-6.296875 0 -9.375 -3.296875q-3.0625 -3.3125 -3.0625 -8.421875l0 -19.82811l-11.015625 0l0 -9.046875l7.171875 0q2.59375 0 3.6875 -1.015625q1.109375 -1.015625 1.109375 -3.78125l0 -9.515625l10.6875 0l0 14.3125l15.8125 0l0 9.046875l-15.8125 0l0 22.499985l15.8125 0l0 9.046875l-15.015625 0zm90.371826 0.9375q-6.921875 0 -12.046875 -2.28125q-5.109375 -2.28125 -8.25 -6.203125l6.84375 -7.5624847q2.984375 3.3124847 6.5625 4.8906097q3.578125 1.5625 7.28125 1.5625q4.25 0 6.453125 -1.875q2.203125 -1.890625 2.203125 -5.4374847q0 -2.90625 -1.703125 -4.390625q-1.6875 -1.5 -5.6875 -2.140625l-5.75 -0.9375q-7.390625 -1.265625 -10.703125 -5.46875q-3.296875 -4.203125 -3.296875 -10.265625q0 -7.9375 5.1875 -12.296875q5.1875 -4.375 14.5625 -4.375q6.359375 0 11.078125 1.96875q4.71875 1.96875 7.640625 5.34375l-6.6875 7.46875q-2.203125 -2.4375 -5.203125 -3.8125q-2.984375 -1.375 -6.75 -1.375q-7.953125 0 -7.953125 6.53125q0 2.828125 1.765625 4.25q1.78125 1.40625 5.78125 2.125l5.75 1.015625q6.6875 1.1875 10.296875 5.046875q3.625 3.84375 3.625 10.375q0 3.8437347 -1.34375 7.1093597q-1.328125 3.265625 -4.015625 5.671875q-2.671875 2.390625 -6.5625 3.734375q-3.890625 1.328125 -9.078125 1.328125zm49.162598 0q-10.234375 0 -15.5 -5.65625q-5.265625 -5.65625 -5.265625 -15.42186q0 -4.953125 1.375 -8.921875q1.375 -3.96875 3.921875 -6.765625q2.5625 -2.796875 6.21875 -4.25q3.65625 -1.453125 8.21875 -1.453125q4.5625 0 8.171875 1.453125q3.625 1.453125 6.140625 4.140625q2.53125 2.671875 3.90625 6.484375q1.375 3.8125 1.375 8.53125l0 3.453125l-27.765625 0l0 0.71875q0 3.9218597 2.4375 6.3281097q2.4375 2.40625 7.15625 2.40625q3.609375 0 6.203125 -1.375q2.609375 -1.390625 4.484375 -3.671875l6.296875 6.84375q-2.359375 2.921875 -6.609375 5.046875q-4.25 2.109375 -10.765625 2.109375zm-0.953125 -34.124985q-3.765625 0 -6.015625 2.328125q-2.234375 2.3125 -2.234375 6.234375l0 0.640625l16.359375 0l0 -0.640625q0 -4.0 -2.171875 -6.28125q-2.15625 -2.28125 -5.9375 -2.28125zm50.193604 33.187485q-6.296875 0 -9.375 -3.296875q-3.0625 -3.3125 -3.0625 -8.421875l0 -19.82811l-11.015625 0l0 -9.046875l7.171875 0q2.59375 0 3.6875 -1.015625q1.109375 -1.015625 1.109375 -3.78125l0 -9.515625l10.6875 0l0 14.3125l15.8125 0l0 9.046875l-15.8125 0l0 22.499985l15.8125 0l0 9.046875l-15.015625 0z" fill-rule="nonzero"/><path fill="#c3c7cb" d="m3620.9492 186.39108l110.33057 0l0 110.33069l-110.33057 0z" fill-rule="evenodd"/><path stroke="#000000" stroke-width="3.0" stroke-linejoin="round" stroke-linecap="butt" d="m3620.9492 186.39108l110.33057 0l0 110.33069l-110.33057 0z" fill-rule="evenodd"/><path fill="#000000" d="m3694.8833 266.80582q0.46875 1.875 0.46875 4.703125q0 2.6875 -0.46875 4.6875l-9.375 0q-0.484375 -2.0 -0.484375 -4.6875q0 -2.828125 0.484375 -4.703125l-3.53125 0q-0.46875 -1.984375 -0.46875 -4.6875q0 -2.8125 0.46875 -4.6875l-2.34375 0q-0.46875 -2.0000153 -0.46875 -4.7031403q0 -2.8125 0.46875 -4.6875l-7.03125 0q0.46875 1.875 0.46875 4.6875q0 2.703125 -0.46875 4.7031403l-2.359375 0q0.46875 1.875 0.46875 4.6875q0 2.703125 -0.46875 4.6875l-3.515625 0q0.46875 1.875 0.46875 4.703125q0 2.6875 -0.46875 4.6875l-9.390625 0q-0.46875 -2.0 -0.46875 -4.6875q0 -2.828125 0.46875 -4.703125l3.53125 0q-0.46875 -1.984375 -0.46875 -4.6875q0 -2.8125 0.46875 -4.6875l4.6875 0q-0.46875 -2.0000153 -0.46875 -4.7031403q0 -2.8125 0.46875 -4.6875l3.515625 0q-0.46875 -2.0 -0.46875 -4.703125q0 -2.8125 0.46875 -4.6875l-3.515625 0q-0.46875 -2.0 -0.46875 -4.6875q0 -2.8125 0.46875 -4.703125l-4.6875 0q-0.46875 -1.984375 -0.46875 -4.6875q0 -2.8125 0.46875 -4.6875l-3.53125 0q-0.46875 -2.0 -0.46875 -4.703125q0 -2.8125 0.46875 -4.6875l9.390625 0q0.46875 1.875 0.46875 4.6875q0 2.703125 -0.46875 4.703125l3.515625 0q0.46875 1.875 0.46875 4.6875q0 2.703125 -0.46875 4.6875l2.359375 0q0.46875 1.890625 0.46875 4.703125q0 2.6875 -0.46875 4.6875l7.03125 0q-0.46875 -2.0 -0.46875 -4.6875q0 -2.8125 0.46875 -4.703125l2.34375 0q-0.46875 -1.984375 -0.46875 -4.6875q0 -2.8125 0.46875 -4.6875l3.53125 0q-0.484375 -2.0 -0.484375 -4.703125q0 -2.8125 0.484375 -4.6875l9.375 0q0.46875 1.875 0.46875 4.6875q0 2.703125 -0.46875 4.703125l-3.515625 0q0.46875 1.875 0.46875 4.6875q0 2.703125 -0.46875 4.6875l-4.6875 0q0.46875 1.890625 0.46875 4.703125q0 2.6875 -0.46875 4.6875l-3.53125 0q0.46875 1.875 0.46875 4.6875q0 2.703125 -0.46875 4.703125l3.53125 0q0.46875 1.875 0.46875 4.6875q0 2.703125 -0.46875 4.7031403l4.6875 0q0.46875 1.875 0.46875 4.6875q0 2.703125 -0.46875 4.6875l3.515625 0z" fill-rule="nonzero"/><path fill="#c3c7cb" d="m3620.9492 186.39108l110.33057 0l0 0l-109.87158 0l0 109.871735l-0.45898438 0.45895386z" fill-rule="evenodd"/><path stroke="#ffffff" stroke-width="3.0" stroke-linejoin="round" stroke-linecap="butt" d="m3620.9492 186.39108l110.33057 0l0 0l-109.87158 0l0 109.871735l-0.45898438 0.45895386z" fill-rule="evenodd"/><path fill="#c3c7cb" d="m3497.957 186.39108l110.33081 0l0 110.33069l-110.33081 0z" fill-rule="evenodd"/><path stroke="#000000" stroke-width="3.0" stroke-linejoin="round" stroke-linecap="butt" d="m3497.957 186.39108l110.33081 0l0 110.33069l-110.33081 0z" fill-rule="evenodd"/><path fill="#000000" d="m3543.1443 266.80582q0.46875 1.875 0.46875 4.703125q0 2.6875 -0.46875 4.6875l-9.375 0q-0.46875 -2.0 -0.46875 -4.6875q0 -2.828125 0.46875 -4.703125l-5.875 0q-0.46875 -1.984375 -0.46875 -4.6875q0 -2.8125 0.46875 -4.6875l-5.859375 0q-0.46875 -2.0000153 -0.46875 -4.7031403q0 -2.8125 0.46875 -4.6875l-5.875 0q-0.46875 -2.0 -0.46875 -4.703125q0 -2.8125 0.46875 -4.6875l5.875 0q-0.46875 -2.0 -0.46875 -4.6875q0 -2.8125 0.46875 -4.703125l5.859375 0q-0.46875 -1.984375 -0.46875 -4.6875q0 -2.8125 0.46875 -4.6875l5.875 0q-0.46875 -2.0 -0.46875 -4.703125q0 -2.8125 0.46875 -4.6875l9.375 0q0.46875 1.875 0.46875 4.6875q0 2.703125 -0.46875 4.703125l-5.859375 0q0.46875 1.875 0.46875 4.6875q0 2.703125 -0.46875 4.6875l-5.875 0q0.46875 1.890625 0.46875 4.703125q0 2.6875 -0.46875 4.6875l-5.859375 0q0.46875 1.875 0.46875 4.6875q0 2.703125 -0.46875 4.703125l5.859375 0q0.46875 1.875 0.46875 4.6875q0 2.703125 -0.46875 4.7031403l5.875 0q0.46875 1.875 0.46875 4.6875q0 2.703125 -0.46875 4.6875l5.859375 0zm45.181152 -28.156265q0.46875 1.875 0.46875 4.6875q0 2.703125 -0.46875 4.703125l-23.46875 0q-0.46875 -2.0 -0.46875 -4.703125q0 -2.8125 0.46875 -4.6875l23.46875 0z" fill-rule="nonzero"/><path fill="#c3c7cb" d="m3497.957 186.39108l110.33081 0l0 0l-109.871826 0l0 109.871735l-0.45898438 0.45895386z" fill-rule="evenodd"/><path stroke="#ffffff" stroke-width="3.0" stroke-linejoin="round" stroke-linecap="butt" d="m3497.957 186.39108l110.33081 0l0 0l-109.871826 0l0 109.871735l-0.45898438 0.45895386z" fill-rule="evenodd"/><path fill="#0000aa" d="m91.91076 338.34122l715.2126 0l0 117.79526l-715.2126 0z" fill-rule="evenodd"/><path fill="#ffffff" d="m101.860985 425.75885l0 -54.90625l35.078133 0l0 9.671875l-23.281258 0l0 12.59375l22.500008 0l0 9.671875l-22.500008 0l0 13.296875l23.281258 0l0 9.671875l-35.078133 0zm42.70936 0l15.171875 -20.609375l-14.15625 -19.984375l13.296875 0l4.328125 6.53125l3.296875 5.28125l0.640625 0l3.375 -5.28125l4.40625 -6.53125l12.1875 0l-14.15625 19.359375l15.1875 21.234375l-13.375 0l-5.109375 -7.625l-3.546875 -5.4375l-0.625 0l-3.46875 5.4375l-5.1875 7.625l-12.265625 0zm50.02185 -40.59375l11.640625 0l0 7.40625l0.546875 0q1.5 -3.625 4.328125 -5.984375q2.828125 -2.359375 7.703125 -2.359375q3.390625 0 6.171875 1.265625q2.796875 1.25 4.796875 3.84375q2.015625 2.59375 3.15625 6.609375q1.140625 4.015625 1.140625 9.515625q0 5.515625 -1.140625 9.53125q-1.140625 4.0 -3.15625 6.59375q-2.0 2.59375 -4.796875 3.859375q-2.78125 1.25 -6.171875 1.25q-4.875 0 -7.703125 -2.3125q-2.828125 -2.328125 -4.328125 -6.015625l-0.546875 0l0 23.125l-11.640625 0l0 -56.328125zm19.1875 32.484375q3.9375 0 6.0625 -2.390625q2.125 -2.40625 2.125 -6.640625l0 -6.296875q0 -4.25 -2.125 -6.640625q-2.125 -2.40625 -6.0625 -2.40625q-3.0625 0 -5.3125 1.5q-2.234375 1.484375 -2.234375 4.71875l0 11.953125q0 3.21875 2.234375 4.71875q2.25 1.484375 5.3125 1.484375zm46.95935 9.046875q-4.71875 0 -8.5 -1.453125q-3.765625 -1.453125 -6.40625 -4.203125q-2.625 -2.75 -4.046875 -6.6875q-1.421875 -3.9375 -1.421875 -8.890625q0 -4.953125 1.421875 -8.875q1.421875 -3.9375 4.046875 -6.6875q2.640625 -2.765625 6.40625 -4.21875q3.78125 -1.453125 8.5 -1.453125q4.71875 0 8.5 1.453125q3.78125 1.453125 6.40625 4.21875q2.640625 2.75 4.046875 6.6875q1.421875 3.921875 1.421875 8.875q0 4.953125 -1.421875 8.890625q-1.40625 3.9375 -4.046875 6.6875q-2.625 2.75 -6.40625 4.203125q-3.78125 1.453125 -8.5 1.453125zm0 -8.640625q3.9375 0 6.140625 -2.4375q2.203125 -2.4375 2.203125 -6.921875l0 -6.453125q0 -4.484375 -2.203125 -6.921875q-2.203125 -2.4375 -6.140625 -2.4375q-3.9375 0 -6.140625 2.4375q-2.1875 2.4375 -2.1875 6.921875l0 6.453125q0 4.484375 2.1875 6.921875q2.203125 2.4375 6.140625 2.4375zm29.4281 -1.34375l9.359375 0l0 -22.5l-9.359375 0l0 -9.046875l21.0 0l0 11.484375l0.546875 0q0.546875 -2.203125 1.53125 -4.28125q0.984375 -2.078125 2.515625 -3.6875q1.53125 -1.625 3.734375 -2.5625q2.203125 -0.953125 5.1875 -0.953125l3.859375 0l0 10.703125l-8.65625 0q-4.328125 0 -6.53125 2.5625q-2.1875 2.546875 -2.1875 6.25l0 12.03125l13.359375 0l0 9.046875l-34.359375 0l0 -9.046875zm68.1156 9.046875q-6.296875 0 -9.375 -3.296875q-3.0625 -3.3125 -3.0625 -8.421875l0 -19.828125l-11.015625 0l0 -9.046875l7.171875 0q2.59375 0 3.6875 -1.015625q1.109375 -1.015625 1.109375 -3.78125l0 -9.515625l10.6875 0l0 14.3125l15.8125 0l0 9.046875l-15.8125 0l0 22.5l15.8125 0l0 9.046875l-15.015625 0zm90.371826 0.9375q-6.921875 0 -12.046875 -2.28125q-5.109375 -2.28125 -8.25 -6.203125l6.84375 -7.5625q2.984375 3.3125 6.5625 4.890625q3.578125 1.5625 7.28125 1.5625q4.25 0 6.453125 -1.875q2.203125 -1.890625 2.203125 -5.4375q0 -2.90625 -1.703125 -4.390625q-1.6875 -1.5 -5.6875 -2.140625l-5.75 -0.9375q-7.390625 -1.265625 -10.703125 -5.46875q-3.296875 -4.203125 -3.296875 -10.265625q0 -7.9375 5.1875 -12.296875q5.1875 -4.375 14.5625 -4.375q6.359375 0 11.078125 1.96875q4.71875 1.96875 7.640625 5.34375l-6.6875 7.46875q-2.203125 -2.4375 -5.203125 -3.8125q-2.984375 -1.375 -6.75 -1.375q-7.953125 0 -7.953125 6.53125q0 2.828125 1.765625 4.25q1.78125 1.40625 5.78125 2.125l5.75 1.015625q6.6875 1.1875 10.296875 5.046875q3.625 3.84375 3.625 10.375q0 3.84375 -1.34375 7.109375q-1.328125 3.265625 -4.015625 5.671875q-2.671875 2.390625 -6.5625 3.734375q-3.890625 1.328125 -9.078125 1.328125zm49.162476 0q-10.234375 0 -15.5 -5.65625q-5.265625 -5.65625 -5.265625 -15.421875q0 -4.953125 1.375 -8.921875q1.375 -3.96875 3.921875 -6.765625q2.5625 -2.796875 6.21875 -4.25q3.65625 -1.453125 8.21875 -1.453125q4.5625 0 8.171875 1.453125q3.625 1.453125 6.140625 4.140625q2.5312195 2.671875 3.9062195 6.484375q1.375 3.8125 1.375 8.53125l0 3.453125l-27.765594 0l0 0.71875q0 3.921875 2.4375 6.328125q2.4375 2.40625 7.15625 2.40625q3.609375 0 6.203125 -1.375q2.609375 -1.390625 4.484375 -3.671875l6.2968445 6.84375q-2.359375 2.921875 -6.6093445 5.046875q-4.25 2.109375 -10.765625 2.109375zm-0.953125 -34.125q-3.765625 0 -6.015625 2.328125q-2.234375 2.3125 -2.234375 6.234375l0 0.640625l16.359375 0l0 -0.640625q0 -4.0 -2.171875 -6.28125q-2.15625 -2.28125 -5.9375 -2.28125zm50.193695 33.1875q-6.296875 0 -9.375 -3.296875q-3.0625 -3.3125 -3.0625 -8.421875l0 -19.828125l-11.015625 0l0 -9.046875l7.171875 0q2.59375 0 3.6875 -1.015625q1.109375 -1.015625 1.109375 -3.78125l0 -9.515625l10.6875 0l0 14.3125l15.8125 0l0 9.046875l-15.8125 0l0 22.5l15.8125 0l0 9.046875l-15.015625 0zm47.193726 0q-6.296875 0 -9.375 -3.296875q-3.0625 -3.3125 -3.0625 -8.421875l0 -19.828125l-11.015625 0l0 -9.046875l7.171875 0q2.59375 0 3.6875 -1.015625q1.109375 -1.015625 1.109375 -3.78125l0 -9.515625l10.6875 0l0 14.3125l15.8125 0l0 9.046875l-15.8125 0l0 22.5l15.8125 0l0 9.046875l-15.015625 0zm46.5531 -45.78125q-3.921875 0 -5.46875 -1.609375q-1.53125 -1.609375 -1.53125 -3.890625l0 -2.28125q0 -2.359375 1.53125 -3.9375q1.546875 -1.578125 5.46875 -1.578125q3.9375 0 5.46875 1.578125q1.53125 1.578125 1.53125 3.9375l0 2.28125q0 2.28125 -1.53125 3.890625q-1.53125 1.609375 -5.46875 1.609375zm-18.71875 36.734375l12.90625 0l0 -22.5l-12.90625 0l0 -9.046875l24.546875 0l0 31.546875l11.953125 0l0 9.046875l-36.5 0l0 -9.046875zm44.912476 9.046875l0 -40.59375l11.640625 0l0 7.40625l0.46875 0q0.71875 -1.734375 1.734375 -3.21875q1.03125 -1.5 2.484375 -2.640625q1.453125 -1.140625 3.375 -1.8125q1.9375 -0.671875 4.375 -0.671875q2.90625 0 5.34375 0.984375q2.4375 0.984375 4.15625 2.953125q1.734375 1.96875 2.71875 4.796875q0.984375 2.828125 0.984375 6.53125l0 26.265625l-11.640625 0l0 -24.703125q0 -7.859375 -6.84375 -7.859375q-1.328125 0 -2.625 0.359375q-1.296875 0.34375 -2.328125 1.09375q-1.015625 0.75 -1.609375 1.859375q-0.59375 1.09375 -0.59375 2.578125l0 26.671875l-11.640625 0zm87.943726 4.09375q0 6.453125 -5.4375 9.515625q-5.421875 3.0625 -17.0625 3.0625q-5.8125 0 -9.59375 -0.671875q-3.78125 -0.65625 -6.03125 -1.921875q-2.234375 -1.25 -3.140625 -2.984375q-0.890625 -1.734375 -0.890625 -3.78125q0 -3.453125 2.03125 -5.234375q2.046875 -1.765625 5.75 -2.703125l0 -0.46875q-2.59375 -0.796875 -4.125 -2.25q-1.53125 -1.453125 -1.53125 -4.125q0 -3.0 2.0 -4.40625q2.0 -1.421875 5.3125 -2.203125l0 -0.46875q-3.625 -1.734375 -5.640625 -4.875q-2.0 -3.15625 -2.0 -7.640625q0 -3.53125 1.25 -6.25q1.265625 -2.71875 3.578125 -4.515625q2.328125 -1.8125 5.546875 -2.75q3.234375 -0.953125 7.25 -0.953125q3.859375 0 7.15625 0.859375l0 -2.203125q0 -2.359375 1.65625 -3.921875q1.65625 -1.578125 4.5625 -1.578125l7.15625 0l0 8.5l-9.75 0l0 0.703125q3.296875 1.734375 5.140625 4.765625q1.859375 3.015625 1.859375 7.34375q0 3.546875 -1.265625 6.21875q-1.25 2.671875 -3.609375 4.53125q-2.359375 1.84375 -5.625 2.796875q-3.265625 0.9375 -7.28125 0.9375q-1.8125 0 -3.46875 -0.203125q-1.640625 -0.203125 -3.140625 -0.59375q-0.859375 0.46875 -1.453125 1.1875q-0.59375 0.703125 -0.59375 1.8125q0 0.9375 0.46875 1.484375q0.484375 0.546875 1.296875 0.828125q0.828125 0.28125 1.921875 0.359375q1.109375 0.078125 2.296875 0.078125l9.28125 0q4.328125 0 7.390625 0.859375q3.0625 0.859375 5.03125 2.4375q1.96875 1.578125 2.828125 3.703125q0.875 2.125 0.875 4.71875zm-11.015625 0.859375q0 -1.578125 -1.265625 -2.484375q-1.25 -0.890625 -4.796875 -0.890625l-13.921875 0q-1.5625 1.328125 -1.5625 3.296875q0 1.890625 1.609375 3.109375q1.609375 1.21875 5.46875 1.21875l6.84375 0q4.0 0 5.8125 -1.109375q1.8125 -1.09375 1.8125 -3.140625zm-11.71875 -24.9375q3.546875 0 5.15625 -1.71875q1.609375 -1.734375 1.609375 -4.40625l0 -1.890625q0 -2.671875 -1.609375 -4.40625q-1.609375 -1.734375 -5.15625 -1.734375q-3.46875 0 -5.046875 1.734375q-1.5625 1.734375 -1.5625 4.40625l0 1.890625q0 2.671875 1.5625 4.40625q1.578125 1.71875 5.046875 1.71875zm47.193726 20.921875q-6.765625 0 -11.765625 -2.03125q-4.984375 -2.046875 -7.5 -5.59375l6.515625 -6.0625q2.375 2.609375 5.546875 4.0625q3.1875 1.453125 7.28125 1.453125q3.46875 0 5.421875 -1.0625q1.96875 -1.0625 1.96875 -3.265625q0 -1.734375 -1.34375 -2.390625q-1.328125 -0.671875 -3.6875 -1.0625l-6.53125 -1.03125q-2.75 -0.390625 -5.109375 -1.21875q-2.359375 -0.828125 -4.09375 -2.234375q-1.71875 -1.421875 -2.75 -3.46875q-1.015625 -2.046875 -1.015625 -4.953125q0 -6.375 4.875 -9.984375q4.875 -3.625 13.6875 -3.625q5.96875 0 10.171875 1.609375q4.21875 1.609375 6.734375 4.609375l-5.828125 6.609375q-1.796875 -1.96875 -4.640625 -3.296875q-2.828125 -1.34375 -6.84375 -1.34375q-6.75 0 -6.75 4.078125q0 1.8125 1.328125 2.484375q1.34375 0.671875 3.703125 1.0625l6.453125 1.015625q2.75 0.390625 5.109375 1.21875q2.359375 0.828125 4.125 2.25q1.765625 1.40625 2.78125 3.453125q1.03125 2.046875 1.03125 4.953125q0 6.375 -4.921875 10.078125q-4.90625 3.6875 -13.953125 3.6875z" fill-rule="nonzero"/><path fill="#cfe2f3" d="m2040.4934 723.6011l580.22046 0l0 105.07086l-580.22046 0z" fill-rule="evenodd"/><path stroke="#000000" stroke-width="1.0" stroke-linejoin="round" stroke-linecap="butt" d="m2040.4934 723.6011l580.22046 0l0 105.07086l-580.22046 0z" fill-rule="evenodd"/><path fill="#c3c7cb" d="m2078.8242 323.48688l503.55908 0l0 81.66928l-503.55908 0z" fill-rule="evenodd"/><path fill="#000000" d="m2115.2305 397.55966q-7.859375 0 -13.671875 -2.59375q-5.796875 -2.59375 -9.375 -7.0625l7.78125 -8.578125q3.390625 3.75 7.453125 5.546875q4.0625 1.78125 8.265625 1.78125q4.828125 0 7.328125 -2.140625q2.5 -2.140625 2.5 -6.171875q0 -3.296875 -1.921875 -4.984375q-1.921875 -1.703125 -6.484375 -2.421875l-6.515625 -1.078125q-8.390625 -1.421875 -12.15625 -6.203125q-3.75 -4.78125 -3.75 -11.65625q0 -9.015625 5.890625 -13.96875q5.90625 -4.96875 16.53125 -4.96875q7.234375 0 12.59375 2.234375q5.359375 2.234375 8.671875 6.078125l-7.59375 8.484375q-2.5 -2.765625 -5.90625 -4.328125q-3.390625 -1.578125 -7.671875 -1.578125q-9.015625 0 -9.015625 7.421875q0 3.21875 2.0 4.828125q2.015625 1.609375 6.5625 2.40625l6.53125 1.15625q7.59375 1.34375 11.703125 5.71875q4.109375 4.375 4.109375 11.796875q0 4.375 -1.53125 8.078125q-1.515625 3.703125 -4.546875 6.4375q-3.03125 2.71875 -7.453125 4.25q-4.421875 1.515625 -10.328125 1.515625zm55.831055 0q-11.609375 0 -17.59375 -6.4375q-5.984375 -6.4375 -5.984375 -17.515625q0 -5.625 1.5625 -10.125q1.5625 -4.515625 4.46875 -7.6875q2.90625 -3.171875 7.046875 -4.828125q4.15625 -1.65625 9.34375 -1.65625q5.171875 0 9.28125 1.65625q4.109375 1.65625 6.96875 4.703125q2.859375 3.03125 4.421875 7.359375q1.5625 4.328125 1.5625 9.6875l0 3.9375l-31.53125 0l0 0.796875q0 4.46875 2.765625 7.203125q2.78125 2.71875 8.140625 2.71875q4.109375 0 7.046875 -1.5625q2.953125 -1.5625 5.09375 -4.15625l7.15625 7.765625q-2.6875 3.3125 -7.515625 5.734375q-4.8125 2.40625 -12.234375 2.40625zm-1.0625 -38.78125q-4.296875 0 -6.84375 2.640625q-2.546875 2.640625 -2.546875 7.109375l0 0.703125l18.578125 0l0 -0.703125q0 -4.5625 -2.453125 -7.15625q-2.453125 -2.59375 -6.734375 -2.59375zm56.98755 37.703125q-7.15625 0 -10.640625 -3.75q-3.484375 -3.75 -3.484375 -9.5625l0 -22.515625l-12.5 0l0 -10.265625l8.125 0q2.953125 0 4.203125 -1.15625q1.25 -1.171875 1.25 -4.296875l0 -10.796875l12.15625 0l0 16.25l17.953125 0l0 10.265625l-17.953125 0l0 25.5625l17.953125 0l0 10.265625l-17.0625 0zm110.3186 -51.359375l0 51.359375l-13.40625 0l0 -51.359375l-17.953125 0l0 -10.984375l49.3125 0l0 10.984375l-17.953125 0zm49.753174 -0.625q-4.46875 0 -6.21875 -1.828125q-1.734375 -1.84375 -1.734375 -4.421875l0 -2.59375q0 -2.6875 1.734375 -4.46875q1.75 -1.78125 6.21875 -1.78125q4.46875 0 6.203125 1.78125q1.75 1.78125 1.75 4.46875l0 2.59375q0 2.578125 -1.75 4.421875q-1.734375 1.828125 -6.203125 1.828125zm-21.265625 41.71875l14.65625 0l0 -25.5625l-14.65625 0l0 -10.265625l27.875 0l0 35.828125l13.578125 0l0 10.265625l-41.453125 0l0 -10.265625zm75.5813 10.265625q-7.15625 0 -10.640625 -3.75q-3.484375 -3.75 -3.484375 -9.5625l0 -22.515625l-12.5 0l0 -10.265625l8.125 0q2.953125 0 4.203125 -1.15625q1.25 -1.171875 1.25 -4.296875l0 -10.796875l12.15625 0l0 16.25l17.953125 0l0 10.265625l-17.953125 0l0 25.5625l17.953125 0l0 10.265625l-17.0625 0zm29.299805 -10.265625l14.109375 0l0 -45.5625l-14.109375 0l0 -10.28125l27.328125 0l0 55.84375l14.109375 0l0 10.265625l-41.4375 0l0 -10.265625zm75.565674 11.34375q-11.609375 0 -17.59375 -6.4375q-5.984375 -6.4375 -5.984375 -17.515625q0 -5.625 1.5625 -10.125q1.5625 -4.515625 4.46875 -7.6875q2.90625 -3.171875 7.046875 -4.828125q4.15625 -1.65625 9.34375 -1.65625q5.171875 0 9.28125 1.65625q4.109375 1.65625 6.96875 4.703125q2.859375 3.03125 4.421875 7.359375q1.5625 4.328125 1.5625 9.6875l0 3.9375l-31.53125 0l0 0.796875q0 4.46875 2.765625 7.203125q2.78125 2.71875 8.140625 2.71875q4.109375 0 7.046875 -1.5625q2.953125 -1.5625 5.09375 -4.15625l7.15625 7.765625q-2.6875 3.3125 -7.515625 5.734375q-4.8125 2.40625 -12.234375 2.40625zm-1.0625 -38.78125q-4.296875 0 -6.84375 2.640625q-2.546875 2.640625 -2.546875 7.109375l0 0.703125l18.578125 0l0 -0.703125q0 -4.5625 -2.453125 -7.15625q-2.453125 -2.59375 -6.734375 -2.59375z" fill-rule="nonzero"/><path fill="#ffffff" d="m1359.147 423.68765l1942.4253 0l0 134.99216l-1942.4253 0z" fill-rule="evenodd"/><path stroke="#000000" stroke-width="4.0" stroke-linejoin="round" stroke-linecap="butt" d="m1359.147 423.68765l1942.4253 0l0 134.99216l-1942.4253 0z" fill-rule="evenodd"/><path fill="#ffffff" d="m3305.0369 561.0105l-1942.2048 0l64.034546 -4.527527l1872.3698 0l0 -132.3852l5.800537 -0.41012573z" fill-rule="evenodd"/><path fill="#ffffff" d="m3330.6982 1365.7585l-1991.5276 0l34.55298 -12.398071l1947.7136 0l0 -698.8617l9.260986 -3.322937z" fill-rule="evenodd"/><path fill="#000000" fill-opacity="0.0" d="m1340.8214 651.9074l1983.433 0l0 705.4173l-1983.433 0z" fill-rule="evenodd"/><path stroke="#868a8e" stroke-width="8.0" stroke-linejoin="round" stroke-linecap="butt" d="m1340.8214 651.9074l1983.433 0l0 705.4173l-1983.433 0z" fill-rule="evenodd"/><path fill="#ffffff" d="m1340.8204 651.90826l1983.433 0l-9.5998535 3.4141846l-1969.2338 0l0 700.3674l-4.599365 1.6357422z" fill-rule="evenodd"/><path fill="#c3c7cb" d="m1589.5442 604.895l1490.3936 0l0 81.66931l-1490.3936 0z" fill-rule="evenodd"/><path fill="#000000" d="m1653.8251 679.46344q-7.984375 0 -13.875 -2.625q-5.890625 -2.640625 -9.515625 -7.171875l7.890625 -8.703125q3.4375 3.8125 7.5625 5.625q4.125 1.8125 8.390625 1.8125q4.890625 0 7.421875 -2.171875q2.546875 -2.1875 2.546875 -6.265625q0 -3.34375 -1.953125 -5.0625q-1.9375 -1.734375 -6.5625 -2.453125l-6.625 -1.09375q-8.515625 -1.453125 -12.328125 -6.296875q-3.8125 -4.859375 -3.8125 -11.828125q0 -9.15625 5.984375 -14.1875q5.984375 -5.03125 16.78125 -5.03125q7.34375 0 12.78125 2.265625q5.4375 2.265625 8.78125 6.15625l-7.703125 8.609375q-2.53125 -2.8125 -5.984375 -4.390625q-3.4375 -1.59375 -7.796875 -1.59375q-9.15625 0 -9.15625 7.53125q0 3.265625 2.046875 4.90625q2.046875 1.625 6.65625 2.4375l6.625 1.171875q7.703125 1.359375 11.875 5.8125q4.171875 4.4375 4.171875 11.96875q0 4.4375 -1.546875 8.203125q-1.53125 3.75 -4.625 6.515625q-3.078125 2.765625 -7.5625 4.3125q-4.484375 1.546875 -10.46875 1.546875zm56.659424 0q-11.78125 0 -17.859375 -6.53125q-6.078125 -6.53125 -6.078125 -17.765625q0 -5.71875 1.578125 -10.296875q1.59375 -4.578125 4.53125 -7.796875q2.953125 -3.21875 7.171875 -4.890625q4.21875 -1.671875 9.46875 -1.671875q5.265625 0 9.4375 1.671875q4.171875 1.671875 7.0625 4.765625q2.90625 3.078125 4.484375 7.484375q1.59375 4.390625 1.59375 9.828125l0 3.984375l-32.0 0l0 0.8125q0 4.53125 2.8125 7.296875q2.8125 2.765625 8.25 2.765625q4.171875 0 7.15625 -1.578125q3.0 -1.59375 5.171875 -4.21875l7.25 7.890625q-2.71875 3.34375 -7.625 5.796875q-4.890625 2.453125 -12.40625 2.453125zm-1.09375 -39.34375q-4.34375 0 -6.9375 2.671875q-2.578125 2.671875 -2.578125 7.203125l0 0.71875l18.859375 0l0 -0.71875q0 -4.625 -2.5 -7.25q-2.484375 -2.625 -6.84375 -2.625zm57.846924 38.25q-7.25 0 -10.796875 -3.796875q-3.53125 -3.8125 -3.53125 -9.703125l0 -22.859375l-12.6875 0l0 -10.421875l8.25 0q2.984375 0 4.25 -1.171875q1.28125 -1.1875 1.28125 -4.359375l0 -10.96875l12.328125 0l0 16.5l18.21875 0l0 10.421875l-18.21875 0l0 25.9375l18.21875 0l0 10.421875l-17.3125 0zm84.849976 0l0 -63.28125l24.46875 0q4.625 0 8.25 1.40625q3.640625 1.40625 6.125 4.046875q2.5 2.625 3.765625 6.34375q1.265625 3.703125 1.265625 8.328125q0 4.625 -1.265625 8.34375q-1.265625 3.71875 -3.765625 6.34375q-2.484375 2.625 -6.125 4.03125q-3.625 1.40625 -8.25 1.40625l-10.78125 0l0 23.03125l-13.6875 0zm13.6875 -34.0l7.34375 0q4.8125 0 6.65625 -1.8125q1.859375 -1.8125 1.859375 -5.984375l0 -2.71875q0 -4.171875 -1.859375 -5.984375q-1.84375 -1.8125 -6.65625 -1.8125l-7.34375 0l0 18.3125zm40.5188 23.578125l10.796875 0l0 -25.9375l-10.796875 0l0 -10.421875l24.203125 0l0 13.234375l0.640625 0q0.640625 -2.53125 1.765625 -4.9375q1.140625 -2.40625 2.90625 -4.265625q1.765625 -1.859375 4.296875 -2.9375q2.546875 -1.09375 5.984375 -1.09375l4.453125 0l0 12.328125l-9.96875 0q-5.0 0 -7.546875 2.953125q-2.53125 2.9375 -2.53125 7.203125l0 13.875l15.421875 0l0 10.421875l-39.625 0l0 -10.421875zm76.159424 11.515625q-11.78125 0 -17.859375 -6.53125q-6.078125 -6.53125 -6.078125 -17.765625q0 -5.71875 1.578125 -10.296875q1.59375 -4.578125 4.53125 -7.796875q2.953125 -3.21875 7.171875 -4.890625q4.21875 -1.671875 9.46875 -1.671875q5.265625 0 9.4375 1.671875q4.171875 1.671875 7.0625 4.765625q2.90625 3.078125 4.484375 7.484375q1.59375 4.390625 1.59375 9.828125l0 3.984375l-32.0 0l0 0.8125q0 4.53125 2.8125 7.296875q2.8125 2.765625 8.25 2.765625q4.171875 0 7.15625 -1.578125q3.0 -1.59375 5.171875 -4.21875l7.25 7.890625q-2.71875 3.34375 -7.625 5.796875q-4.890625 2.453125 -12.40625 2.453125zm-1.09375 -39.34375q-4.34375 0 -6.9375 2.671875q-2.578125 2.671875 -2.578125 7.203125l0 0.71875l18.859375 0l0 -0.71875q0 -4.625 -2.5 -7.25q-2.484375 -2.625 -6.84375 -2.625zm46.23755 38.25l-16.765625 -46.78125l14.140625 0l6.078125 20.03125l4.4375 15.59375l0.71875 0l4.453125 -15.59375l6.0625 -20.03125l13.609375 0l-16.78125 46.78125l-15.953125 0zm65.2688 -52.765625q-4.53125 0 -6.296875 -1.859375q-1.765625 -1.859375 -1.765625 -4.484375l0 -2.625q0 -2.71875 1.765625 -4.53125q1.765625 -1.8125 6.296875 -1.8125q4.53125 0 6.296875 1.8125q1.78125 1.8125 1.78125 4.53125l0 2.625q0 2.625 -1.78125 4.484375q-1.765625 1.859375 -6.296875 1.859375zm-21.578125 42.34375l14.875 0l0 -25.9375l-14.875 0l0 -10.421875l28.296875 0l0 36.359375l13.78125 0l0 10.421875l-42.078125 0l0 -10.421875zm74.34668 11.515625q-11.78125 0 -17.859375 -6.53125q-6.078125 -6.53125 -6.078125 -17.765625q0 -5.71875 1.578125 -10.296875q1.59375 -4.578125 4.53125 -7.796875q2.953125 -3.21875 7.171875 -4.890625q4.21875 -1.671875 9.46875 -1.671875q5.265625 0 9.4375 1.671875q4.171875 1.671875 7.0625 4.765625q2.90625 3.078125 4.484375 7.484375q1.59375 4.390625 1.59375 9.828125l0 3.984375l-32.0 0l0 0.8125q0 4.53125 2.8125 7.296875q2.8125 2.765625 8.25 2.765625q4.171875 0 7.15625 -1.578125q3.0 -1.59375 5.171875 -4.21875l7.25 7.890625q-2.71875 3.34375 -7.625 5.796875q-4.890625 2.453125 -12.40625 2.453125zm-1.09375 -39.34375q-4.34375 0 -6.9375 2.671875q-2.578125 2.671875 -2.578125 7.203125l0 0.71875l18.859375 0l0 -0.71875q0 -4.625 -2.5 -7.25q-2.484375 -2.625 -6.84375 -2.625zm27.659424 -8.53125l11.140625 0l3.359375 37.890625l0.90625 0l5.53125 -37.890625l11.78125 0l5.4375 37.890625l0.90625 0l3.453125 -37.890625l10.609375 0l-5.53125 46.78125l-15.953125 0l-4.625 -32.28125l-0.90625 0l-4.625 32.28125l-15.953125 0l-5.53125 -46.78125zm80.9563 47.875q-5.078125 0 -7.3125 -2.21875q-2.21875 -2.234375 -2.21875 -5.3125l0 -3.171875q0 -3.078125 2.21875 -5.296875q2.234375 -2.234375 7.3125 -2.234375q5.078125 0 7.296875 2.234375q2.21875 2.21875 2.21875 5.296875l0 3.171875q0 3.078125 -2.21875 5.3125q-2.21875 2.21875 -7.296875 2.21875zm0 -30.734375q-5.078125 0 -7.3125 -2.21875q-2.21875 -2.234375 -2.21875 -5.3125l0 -3.171875q0 -3.078125 2.21875 -5.296875q2.234375 -2.234375 7.3125 -2.234375q5.078125 0 7.296875 2.234375q2.21875 2.21875 2.21875 5.296875l0 3.171875q0 3.078125 -2.21875 5.3125q-2.21875 2.21875 -7.296875 2.21875z" fill-rule="nonzero"/><path fill="#010000" fill-opacity="0.0" d="m2334.741 585.44696l326.36255 0l0 117.85321l-326.36255 0l0 -117.85321z" fill-rule="nonzero"/><path fill="#000000" d="m2363.3816 679.46344q-12.6875 0 -18.8125 -8.5625q-6.109375 -8.578125 -6.109375 -24.171875q0 -15.59375 6.109375 -24.15625q6.125 -8.5625 18.8125 -8.5625q4.90625 0 8.65625 1.3125q3.765625 1.3125 6.484375 3.671875q2.71875 2.359375 4.484375 5.71875q1.78125 3.34375 2.78125 7.515625l-12.703125 3.078125q-0.546875 -2.265625 -1.265625 -4.171875q-0.71875 -1.90625 -1.859375 -3.265625q-1.125 -1.359375 -2.8125 -2.125q-1.671875 -0.765625 -4.03125 -0.765625q-5.53125 0 -7.84375 4.3125q-2.3125 4.296875 -2.3125 11.90625l0 11.0625q0 7.609375 2.3125 11.921875q2.3125 4.3125 7.84375 4.3125q4.71875 0 6.84375 -2.90625q2.125 -2.90625 3.125 -7.4375l12.703125 3.078125q-1.0 4.171875 -2.78125 7.53125q-1.765625 3.359375 -4.484375 5.765625q-2.71875 2.390625 -6.484375 3.671875q-3.75 1.265625 -8.65625 1.265625zm59.753174 -53.21875l0 52.125l-13.609375 0l0 -52.125l-18.21875 0l0 -11.15625l50.046875 0l0 11.15625l-18.21875 0zm40.7063 52.125l-13.421875 0l0 -63.28125l24.46875 0q4.625 0 8.25 1.40625q3.640625 1.40625 6.125 4.046875q2.5 2.625 3.765625 6.34375q1.265625 3.703125 1.265625 8.328125q0 6.71875 -2.90625 11.53125q-2.890625 4.796875 -8.25 6.328125l12.421875 25.296875l-14.859375 0l-10.609375 -23.484375l-6.25 0l0 23.484375zm7.796875 -34.0q4.796875 0 6.65625 -1.8125q1.859375 -1.8125 1.859375 -5.984375l0 -2.71875q0 -4.171875 -1.859375 -5.984375q-1.859375 -1.8125 -6.65625 -1.8125l-7.796875 0l0 18.3125l7.796875 0zm34.628174 34.0l0 -63.28125l13.6875 0l0 52.125l27.1875 0l0 11.15625l-40.875 0zm58.73755 -21.21875l0 -12.875l29.015625 0l0 12.875l-29.015625 0zm59.299805 21.21875l-16.78125 -63.28125l15.140625 0l7.4375 32.1875l3.71875 18.21875l0.71875 0l3.8125 -18.21875l7.515625 -32.1875l14.421875 0l-16.765625 63.28125l-19.21875 0z" fill-rule="nonzero"/><path fill="#000000" d="m2722.7476 678.3697l0 -63.28125l40.4375 0l0 11.15625l-26.84375 0l0 14.5l25.9375 0l0 11.15625l-25.9375 0l0 15.3125l26.84375 0l0 11.15625l-40.4375 0zm49.221924 0l17.5 -23.75l-16.3125 -23.03125l15.3125 0l5.0 7.53125l3.796875 6.0625l0.734375 0l3.890625 -6.0625l5.078125 -7.53125l14.046875 0l-16.3125 22.296875l17.5 24.484375l-15.421875 0l-5.890625 -8.796875l-4.078125 -6.25l-0.71875 0l-4.0 6.25l-5.96875 8.796875l-14.15625 0zm57.65918 -46.78125l13.421875 0l0 8.53125l0.640625 0q1.71875 -4.171875 4.984375 -6.890625q3.265625 -2.71875 8.875 -2.71875q3.90625 0 7.125 1.453125q3.21875 1.4375 5.53125 4.4375q2.3125 2.984375 3.625 7.609375q1.3125 4.625 1.3125 10.96875q0 6.34375 -1.3125 10.96875q-1.3125 4.625 -3.625 7.625q-2.3125 2.984375 -5.53125 4.4375q-3.21875 1.453125 -7.125 1.453125q-5.609375 0 -8.875 -2.671875q-3.265625 -2.6875 -4.984375 -6.9375l-0.640625 0l0 26.640625l-13.421875 0l0 -64.90625zm22.125 37.4375q4.53125 0 6.96875 -2.765625q2.453125 -2.765625 2.453125 -7.65625l0 -7.25q0 -4.890625 -2.453125 -7.65625q-2.4375 -2.765625 -6.96875 -2.765625q-3.53125 0 -6.125 1.71875q-2.578125 1.71875 -2.578125 5.4375l0 13.78125q0 3.71875 2.578125 5.4375q2.59375 1.71875 6.125 1.71875zm54.128174 10.4375q-5.453125 0 -9.8125 -1.671875q-4.34375 -1.6875 -7.375 -4.859375q-3.03125 -3.171875 -4.671875 -7.703125q-1.625 -4.53125 -1.625 -10.25q0 -5.703125 1.625 -10.234375q1.640625 -4.546875 4.671875 -7.71875q3.03125 -3.171875 7.375 -4.84375q4.359375 -1.671875 9.8125 -1.671875q5.4375 0 9.78125 1.671875q4.359375 1.671875 7.390625 4.84375q3.03125 3.171875 4.65625 7.71875q1.640625 4.53125 1.640625 10.234375q0 5.71875 -1.640625 10.25q-1.625 4.53125 -4.65625 7.703125q-3.03125 3.171875 -7.390625 4.859375q-4.34375 1.671875 -9.78125 1.671875zm0 -9.984375q4.53125 0 7.0625 -2.796875q2.546875 -2.8125 2.546875 -7.984375l0 -7.4375q0 -5.171875 -2.546875 -7.96875q-2.53125 -2.8125 -7.0625 -2.8125q-4.53125 0 -7.078125 2.8125q-2.53125 2.796875 -2.53125 7.96875l0 7.4375q0 5.171875 2.53125 7.984375q2.546875 2.796875 7.078125 2.796875zm33.8938 -1.53125l10.796875 0l0 -25.9375l-10.796875 0l0 -10.421875l24.203125 0l0 13.234375l0.640625 0q0.640625 -2.53125 1.765625 -4.9375q1.140625 -2.40625 2.90625 -4.265625q1.765625 -1.859375 4.296875 -2.9375q2.546875 -1.09375 5.984375 -1.09375l4.453125 0l0 12.328125l-9.96875 0q-5.0 0 -7.546875 2.953125q-2.53125 2.9375 -2.53125 7.203125l0 13.875l15.421875 0l0 10.421875l-39.625 0l0 -10.421875zm78.5188 10.421875q-7.25 0 -10.796875 -3.796875q-3.53125 -3.8125 -3.53125 -9.703125l0 -22.859375l-12.6875 0l0 -10.421875l8.25 0q2.984375 0 4.25 -1.171875q1.28125 -1.1875 1.28125 -4.359375l0 -10.96875l12.328125 0l0 16.5l18.21875 0l0 10.421875l-18.21875 0l0 25.9375l18.21875 0l0 10.421875l-17.3125 0z" fill-rule="nonzero"/><path fill="#000000" d="m2334.741 684.263l326.3628 0l0 8.159973l-326.3628 0l0 -8.159973z" fill-rule="nonzero"/><path fill="#c3c7cb" d="m2023.6351 699.54596l702.2677 0l0 181.82672l-702.2677 0z" fill-rule="evenodd"/><path fill="#ffffff" d="m1357.6588 706.88715l1945.8898 0l0 627.6535l-1945.8898 0z" fill-rule="evenodd"/><path stroke="#000000" stroke-width="4.0" stroke-linejoin="round" stroke-linecap="butt" d="m1357.6588 706.88715l1945.8898 0l0 627.6535l-1945.8898 0z" fill-rule="evenodd"/><path fill="#ffffff" d="m1359.6351 1343.6824l0 -16.26233l1931.6788 0l0 -622.72974l21.738525 0l0 638.99207z" fill-rule="evenodd"/></g></svg>