<svg version="1.1" viewBox="0.0 0.0 3840.0 2160.0" fill="none" stroke="none" stroke-linecap="square" stroke-miterlimit="10" xmlns:xlink="http://www.w3.org/1999/xlink" xmlns="http://www.w3.org/2000/svg"><clipPath id="p.0"><path d="m0 0l3840.0 0l0 2160.0l-3840.0 0l0 -2160.0z" clip-rule="nonzero"/></clipPath><g clip-path="url(#p.0)"><path fill="#c3c7cb" d="m0 0l3840.0 0l0 2160.0l-3840.0 0z" fill-rule="evenodd"/><path fill="#0000aa" d="m0 0l3840.0 0l0 172.12599l-3840.0 0z" fill-rule="evenodd"/><path fill="#ffffff" d="m15.921875 142.60298l0 -105.09375l37.28125 0l21.875 75.359375l22.1875 -75.359375l37.28125 0l0 105.09375l-24.234375 0l0 -82.59375l-25.015625 82.59375l-20.453125 0l-24.84375 -82.59375l0 82.59375l-24.078125 0zm156.22029 1.890625q-7.390625 0 -13.53125 -2.828125q-6.125 -2.84375 -9.75 -7.953125q-3.609375 -5.109375 -3.609375 -12.1875q0 -9.59375 6.6875 -15.25q6.6875 -5.671875 18.328125 -8.5q11.640625 -2.84375 26.734375 -3.9375q0 -8.34375 -2.671875 -11.796875q-2.671875 -3.46875 -10.375 -3.46875q-4.890625 0 -8.59375 2.28125q-3.6875 2.28125 -4.9375 7.0l-20.140625 -7.234375q3.9375 -7.875 13.140625 -13.0625q9.203125 -5.1875 22.578125 -5.1875q16.671875 0 25.640625 7.390625q8.96875 7.390625 8.96875 25.171875l0 17.15625q0 5.03125 0.3125 10.859375q0.3125 5.8125 0.9375 11.0q0.640625 5.1875 1.421875 8.65625l-22.1875 0l-2.828125 -9.4375q-4.40625 6.140625 -11.09375 8.734375q-6.6875 2.59375 -15.03125 2.59375zm8.8125 -16.359375q7.078125 0 11.796875 -3.78125q4.734375 -3.78125 4.734375 -14.46875l0 -1.890625q-12.4375 1.09375 -20.0 3.375q-7.546875 2.28125 -7.546875 8.421875q0 3.78125 3.140625 6.0625q3.15625 2.28125 7.875 2.28125zm78.18996 -76.46875q-5.8125 0 -9.984375 -4.171875q-4.171875 -4.171875 -4.171875 -9.984375q0 -5.984375 4.171875 -10.0625q4.171875 -4.09375 9.984375 -4.09375q5.984375 0 10.078125 4.09375q4.09375 4.078125 4.09375 10.0625q0 5.8125 -4.09375 9.984375q-4.09375 4.171875 -10.078125 4.171875zm-12.109375 90.9375l0 -59.78125l-14.78125 0l0 -18.25l38.859375 0l0 78.03125l-24.078125 0zm38.855255 0l0 -78.03125l20.9375 0l2.984375 10.375q2.671875 -4.40625 8.890625 -8.484375q6.21875 -4.09375 15.171875 -4.09375q15.109375 0 20.6875 8.421875q5.59375 8.40625 5.59375 24.296875l0 47.515625l-23.90625 0l0 -41.53125q0 -5.515625 -0.640625 -10.078125q-0.625 -4.5625 -3.0625 -7.3125q-2.4375 -2.75 -8.265625 -2.75q-7.546875 0 -11.015625 5.4375q-3.453125 5.421875 -3.453125 16.109375l0 40.125l-23.921875 0zm139.3992 0l0 -105.09375l37.28125 0l21.875 75.359375l22.1875 -75.359375l37.28122 0l0 105.09375l-24.234375 0l0 -82.59375l-25.015594 82.59375l-20.453125 0l-24.84375 -82.59375l0 82.59375l-24.078125 0zm172.11093 1.890625q-12.578125 0 -22.265625 -4.953125q-9.671875 -4.96875 -15.09375 -14.25q-5.421875 -9.28125 -5.421875 -22.171875q0 -12.4375 5.734375 -21.5625q5.75 -9.125 15.265625 -14.15625q9.515625 -5.03125 20.84375 -5.03125q12.90625 0 22.109375 6.0625q9.203125 6.046875 13.921875 16.671875q4.71875 10.609375 3.9375 24.46875l-57.75 0q0.625 8.171875 6.046875 12.265625q5.4375 4.09375 12.046875 4.09375q5.515625 0 9.515625 -1.65625q4.015625 -1.65625 6.21875 -4.171875l19.03125 6.921875q-6.125 8.96875 -15.328125 13.21875q-9.203125 4.25 -18.8125 4.25zm-18.71875 -49.09375l35.5625 0q-0.15625 -7.546875 -5.203125 -11.390625q-5.03125 -3.859375 -11.953125 -3.859375q-6.765625 0 -12.03125 3.625q-5.265625 3.609375 -6.375 11.625zm69.063354 47.203125l0 -78.03125l20.9375 0l2.984375 10.375q2.671875 -4.40625 8.890625 -8.484375q6.21875 -4.09375 15.171875 -4.09375q15.109375 0 20.6875 8.421875q5.59375 8.40625 5.59375 24.296875l0 47.515625l-23.90625 0l0 -41.53125q0 -5.515625 -0.640625 -10.078125q-0.625 -4.5625 -3.0625 -7.3125q-2.4375 -2.75 -8.265625 -2.75q-7.546875 0 -11.015625 5.4375q-3.453125 5.421875 -3.453125 16.109375l0 40.125l-23.921875 0zm117.0542 1.890625q-10.375 0 -16.28125 -3.859375q-5.890625 -3.859375 -8.34375 -11.25q-2.4375 -7.390625 -2.4375 -17.9375l0 -46.875l23.921875 0l0 43.578125q0 10.703125 3.21875 14.25q3.234375 3.53125 9.046875 3.53125q7.078125 0 10.296875 -4.71875q3.234375 -4.71875 3.234375 -15.578125l0 -41.0625l24.078125 0l0 78.03125l-20.765625 0l-3.3125 -11.015625q-3.453125 5.828125 -8.578125 9.375q-5.109375 3.53125 -14.078125 3.53125z" fill-rule="nonzero"/><path fill="#f2bb05" d="m876.1964 144.4936l0 -22.34375l51.125 -18.875l-51.125 -18.5625l0 -22.34375l77.5625 33.1875l0 15.578125l-77.5625 33.359375z" fill-rule="nonzero"/><path fill="#ffffff" d="m1059.7998 144.4936q-17.15625 0 -28.875 -7.0q-11.71875 -7.0 -16.59375 -19.59375l22.65625 -8.171875q2.203125 7.546875 8.25 11.171875q6.0625 3.609375 14.71875 3.609375q4.5625 0 8.796875 -1.015625q4.25 -1.03125 7.078125 -3.46875q2.84375 -2.4375 2.84375 -6.53125q0 -5.5 -5.359375 -8.5625q-5.34375 -3.078125 -13.828125 -4.65625l-12.75 -2.515625q-8.5 -1.71875 -15.8125 -5.265625q-7.3125 -3.546875 -11.71875 -9.4375q-4.40625 -5.90625 -4.40625 -14.875q0 -8.484375 3.921875 -14.625q3.9375 -6.140625 10.46875 -10.0625q6.53125 -3.9375 14.390625 -5.90625q7.875 -1.96875 15.734375 -1.96875q8.5 0 16.4375 2.359375q7.953125 2.359375 14.25 7.3125q6.296875 4.953125 9.59375 13.140625l-22.5 8.1875q-2.046875 -5.359375 -7.3125 -8.1875q-5.265625 -2.828125 -12.671875 -2.828125q-7.234375 0 -12.03125 2.59375q-4.796875 2.59375 -4.796875 7.46875q0 3.9375 3.296875 6.765625q3.3125 2.828125 8.65625 3.9375l14.171875 2.828125q6.4375 1.265625 13.046875 3.234375q6.609375 1.953125 12.1875 5.1875q5.59375 3.21875 9.046875 8.578125q3.46875 5.34375 3.46875 13.53125q0 8.328125 -3.859375 14.859375q-3.84375 6.53125 -10.21875 10.9375q-6.375 4.40625 -14.25 6.6875q-7.859375 2.28125 -16.03125 2.28125zm94.54236 0q-12.578125 0 -22.265625 -4.953125q-9.671875 -4.96875 -15.09375 -14.25q-5.421875 -9.28125 -5.421875 -22.171875q0 -12.4375 5.734375 -21.5625q5.75 -9.125 15.265625 -14.15625q9.515625 -5.03125 20.84375 -5.03125q12.90625 0 22.109375 6.0625q9.203125 6.046875 13.921875 16.671875q4.71875 10.609375 3.9375 24.46875l-57.75 0q0.625 8.171875 6.046875 12.265625q5.4375 4.09375 12.046875 4.09375q5.515625 0 9.515625 -1.65625q4.015625 -1.65625 6.21875 -4.171875l19.03125 6.921875q-6.125 8.96875 -15.328125 13.21875q-9.203125 4.25 -18.8125 4.25zm-18.71875 -49.09375l35.5625 0q-0.15625 -7.546875 -5.203125 -11.390625q-5.03125 -3.859375 -11.953125 -3.859375q-6.765625 0 -12.03125 3.625q-5.265625 3.609375 -6.375 11.625zm94.875854 47.203125q-9.59375 0 -15.265625 -1.640625q-5.65625 -1.65625 -8.109375 -6.453125q-2.4375 -4.8125 -2.4375 -13.9375l0 -83.0625l23.921875 0l0 76.78125q0 5.5 2.203125 7.15625q2.203125 1.640625 8.171875 1.640625l6.765625 0l0 19.515625l-15.25 0zm62.291748 1.890625q-12.578125 0 -22.265625 -4.953125q-9.671875 -4.96875 -15.09375 -14.25q-5.421875 -9.28125 -5.421875 -22.171875q0 -12.4375 5.734375 -21.5625q5.75 -9.125 15.265625 -14.15625q9.515625 -5.03125 20.84375 -5.03125q12.90625 0 22.109375 6.0625q9.203125 6.046875 13.921875 16.671875q4.71875 10.609375 3.9375 24.46875l-57.75 0q0.625 8.171875 6.046875 12.265625q5.4375 4.09375 12.046875 4.09375q5.515625 0 9.515625 -1.65625q4.015625 -1.65625 6.21875 -4.171875l19.03125 6.921875q-6.125 8.96875 -15.328125 13.21875q-9.203125 4.25 -18.8125 4.25zm-18.71875 -49.09375l35.5625 0q-0.15625 -7.546875 -5.203125 -11.390625q-5.03125 -3.859375 -11.953125 -3.859375q-6.765625 0 -12.03125 3.625q-5.265625 3.609375 -6.375 11.625zm104.93823 49.09375q-12.890625 0 -21.78125 -5.1875q-8.890625 -5.203125 -13.53125 -14.5625q-4.640625 -9.359375 -4.640625 -21.625q0 -12.28125 5.03125 -21.484375q5.03125 -9.203125 14.078125 -14.234375q9.046875 -5.03125 20.84375 -5.03125q6.765625 0 13.453125 1.890625q6.6875 1.875 12.421875 6.359375q5.75 4.484375 9.375 12.203125l-19.984375 7.234375q-1.890625 -5.03125 -5.59375 -7.078125q-3.6875 -2.046875 -8.25 -2.046875q-4.25 0 -8.1875 2.125q-3.9375 2.125 -6.375 7.0q-2.4375 4.875 -2.4375 13.21875q0 8.484375 2.515625 13.453125q2.53125 4.953125 6.375 7.078125q3.859375 2.125 8.109375 2.125q5.03125 0 8.484375 -1.96875q3.46875 -1.96875 5.515625 -5.4375l19.515625 7.09375q-3.9375 7.078125 -9.765625 11.25q-5.8125 4.15625 -12.34375 5.890625q-6.53125 1.734375 -12.828125 1.734375zm78.826294 -1.890625q-9.59375 0 -15.265625 -1.640625q-5.65625 -1.65625 -8.09375 -6.453125q-2.4375 -4.8125 -2.4375 -13.9375l0 -37.75l-12.90625 0l0 -18.25l12.90625 0l0 -19.515625l23.90625 0l0 19.515625l16.984375 0l0 18.25l-16.984375 0l0 31.46875q0 5.5 2.125 7.15625q2.125 1.640625 7.9375 1.640625l6.921875 0l0 19.515625l-15.09375 0zm70.00366 0l39.8125 -105.09375l27.375 0l39.796875 105.09375l-27.0625 0l-6.28125 -18.71875l-40.28125 0l-6.296875 18.71875l-27.0625 0zm40.125 -38.859375l26.75 0l-13.53125 -39.96875l-13.21875 39.96875zm111.38452 40.75q-12.890625 0 -21.78125 -5.1875q-8.890625 -5.203125 -13.53125 -14.5625q-4.640625 -9.359375 -4.640625 -21.625q0 -12.28125 5.03125 -21.484375q5.03125 -9.203125 14.078125 -14.234375q9.046875 -5.03125 20.84375 -5.03125q6.765625 0 13.453125 1.890625q6.6875 1.875 12.421875 6.359375q5.75 4.484375 9.375 12.203125l-19.984375 7.234375q-1.890625 -5.03125 -5.59375 -7.078125q-3.6875 -2.046875 -8.25 -2.046875q-4.25 0 -8.1875 2.125q-3.9375 2.125 -6.375 7.0q-2.4375 4.875 -2.4375 13.21875q0 8.484375 2.515625 13.453125q2.53125 4.953125 6.375 7.078125q3.859375 2.125 8.109375 2.125q5.03125 0 8.484375 -1.96875q3.46875 -1.96875 5.515625 -5.4375l19.515625 7.09375q-3.9375 7.078125 -9.765625 11.25q-5.8125 4.15625 -12.34375 5.890625q-6.53125 1.734375 -12.828125 1.734375zm78.826294 -1.890625q-9.59375 0 -15.265625 -1.640625q-5.65625 -1.65625 -8.09375 -6.453125q-2.4375 -4.8125 -2.4375 -13.9375l0 -37.75l-12.90625 0l0 -18.25l12.90625 0l0 -19.515625l23.90625 0l0 19.515625l16.984375 0l0 18.25l-16.984375 0l0 31.46875q0 5.5 2.125 7.15625q2.125 1.640625 7.9375 1.640625l6.921875 0l0 19.515625l-15.09375 0zm49.549194 -90.9375q-5.8125 0 -9.984375 -4.171875q-4.171875 -4.171875 -4.171875 -9.984375q0 -5.984375 4.171875 -10.0625q4.171875 -4.09375 9.984375 -4.09375q5.984375 0 10.078125 4.09375q4.09375 4.078125 4.09375 10.0625q0 5.8125 -4.09375 9.984375q-4.09375 4.171875 -10.078125 4.171875zm-12.109375 90.9375l0 -59.78125l-14.78125 0l0 -18.25l38.859375 0l0 78.03125l-24.078125 0zm58.8396 0l-27.84375 -78.03125l24.703125 0l16.671875 53.171875l16.671875 -53.171875l24.703125 0l-28.0 78.03125l-26.90625 0zm88.25745 -90.9375q-5.8125 0 -9.984375 -4.171875q-4.171875 -4.171875 -4.171875 -9.984375q0 -5.984375 4.171875 -10.0625q4.171875 -4.09375 9.984375 -4.09375q5.984375 0 10.078125 4.09375q4.09375 4.078125 4.09375 10.0625q0 5.8125 -4.09375 9.984375q-4.09375 4.171875 -10.078125 4.171875zm-12.109375 90.9375l0 -59.78125l-14.78125 0l0 -18.25l38.859375 0l0 78.03125l-24.078125 0zm71.74585 0q-9.59375 0 -15.265625 -1.640625q-5.65625 -1.65625 -8.09375 -6.453125q-2.4375 -4.8125 -2.4375 -13.9375l0 -37.75l-12.90625 0l0 -18.25l12.90625 0l0 -19.515625l23.90625 0l0 19.515625l16.984375 0l0 18.25l-16.984375 0l0 31.46875q0 5.5 2.125 7.15625q2.125 1.640625 7.9375 1.640625l6.921875 0l0 19.515625l-15.09375 0zm29.09607 25.328125l0 -17.296875l4.734375 0q5.34375 0 8.015625 -0.484375q2.671875 -0.46875 4.171997 -2.28125q1.5 -1.796875 2.75 -5.734375l-29.890747 -77.5625l25.640625 0l15.265747 48.765625l14.9375 -48.765625l25.65625 0l-29.890625 78.03125q-3.78125 9.90625 -7.640625 15.40625q-3.84375 5.515625 -9.828125 7.71875q-5.984375 2.203125 -16.203247 2.203125l-7.71875 0z" fill-rule="nonzero"/><path fill="#f2bb05" d="m2159.3647 144.4936l0 -22.34375l51.125 -18.875l-51.125 -18.5625l0 -22.34375l77.5625 33.1875l0 15.578125l-77.5625 33.359375z" fill-rule="nonzero"/><path fill="#c3c7cb" d="m3670.1746 11.197684l149.80688 0l0 149.80704l-149.80688 0z" fill-rule="evenodd"/><path stroke="#000000" stroke-width="3.0" stroke-linejoin="round" stroke-linecap="butt" d="m3670.1746 11.197684l149.80688 0l0 149.80704l-149.80688 0z" fill-rule="evenodd"/><path fill="#000000" d="m3700.8633 131.4012l35.921875 -50.453117l-33.875 -47.515625l16.421875 0l25.671875 35.9375l25.671875 -35.9375l16.5625 0l-33.875 47.515625l35.9375 50.453117l-16.578125 0l-27.71875 -38.859367l-27.578125 38.859367l-16.5625 0z" fill-rule="nonzero"/><path fill="#c3c7cb" d="m3670.1746 11.197684l149.80688 0l0 0l-149.18384 0l0 149.18385l-0.6230469 0.6231842z" fill-rule="evenodd"/><path stroke="#ffffff" stroke-width="3.0" stroke-linejoin="round" stroke-linecap="butt" d="m3670.1746 11.197684l149.80688 0l0 0l-149.18384 0l0 149.18385l-0.6230469 0.6231842z" fill-rule="evenodd"/><path fill="#c3c7cb" d="m3503.1758 11.197684l149.80713 0l0 149.80704l-149.80713 0z" fill-rule="evenodd"/><path stroke="#000000" stroke-width="3.0" stroke-linejoin="round" stroke-linecap="butt" d="m3503.1758 11.197684l149.80713 0l0 149.80704l-149.80713 0z" fill-rule="evenodd"/><path fill="#000000" d="m3585.7786 131.4012l-69.375 -31.234367l0 -10.265625l69.375 -31.234375l0 13.1875l-53.96875 23.171875l53.96875 23.171875l0 13.203117zm11.44458 -30.499992l0 -11.890625l42.8125 0l0 11.890625l-42.8125 0z" fill-rule="nonzero"/><path fill="#c3c7cb" d="m3503.1758 11.197684l149.80713 0l0 0l-149.18384 0l0 149.18385l-0.623291 0.6231842z" fill-rule="evenodd"/><path stroke="#ffffff" stroke-width="3.0" stroke-linejoin="round" stroke-linecap="butt" d="m3503.1758 11.197684l149.80713 0l0 0l-149.18384 0l0 149.18385l-0.623291 0.6231842z" fill-rule="evenodd"/></g></svg>