<svg version="1.1" viewBox="0.0 0.0 3840.0 2160.0" fill="none" stroke="none" stroke-linecap="square" stroke-miterlimit="10" xmlns:xlink="http://www.w3.org/1999/xlink" xmlns="http://www.w3.org/2000/svg"><clipPath id="p.0"><path d="m0 0l3840.0 0l0 2160.0l-3840.0 0l0 -2160.0z" clip-rule="nonzero"/></clipPath><g clip-path="url(#p.0)"><path fill="#386e6e" d="m0 0l3840.0 0l0 2160.0l-3840.0 0z" fill-rule="evenodd"/><path fill="#ffffff" d="m91.91076 457.67715l715.2126 0l0 595.874l-715.2126 0z" fill-rule="evenodd"/><path stroke="#000000" stroke-width="1.0" stroke-linejoin="round" stroke-linecap="butt" d="m91.91076 457.67715l715.2126 0l0 595.874l-715.2126 0z" fill-rule="evenodd"/><path fill="#000000" d="m400.02374 554.83716l0 -28.0625l-9.53125 0l0 -7.71875q3.328125 0 5.515625 -0.34375q2.203125 -0.34375 3.671875 -1.625q1.46875 -1.28125 2.59375 -4.109375l7.203125 0l0 41.859375l-9.453125 0zm23.241821 0.75q-2.5 0 -4.328125 -1.8125q-1.8125 -1.8125 -1.8125 -4.328125q0 -2.5625 1.8125 -4.3125q1.828125 -1.765625 4.328125 -1.765625q2.515625 0 4.296875 1.765625q1.78125 1.75 1.78125 4.3125q0 2.515625 -1.78125 4.328125q-1.78125 1.8125 -4.296875 1.8125z" fill-rule="nonzero"/><path fill="#000000" d="m188.83673 629.83716l0 -41.859375l18.296875 0q4.578125 0 8.140625 0.921875q3.578125 0.90625 5.671875 3.25q2.109375 2.34375 2.109375 6.734375q0 2.890625 -1.296875 5.078125q-1.28125 2.1875 -3.65625 3.625q2.953125 1.015625 4.796875 3.265625q1.84375 2.25 1.84375 6.078125q0 4.703125 -2.109375 7.53125q-2.09375 2.8125 -5.921875 4.09375q-3.8125 1.28125 -8.890625 1.28125l-18.984375 0zm9.90625 -25.3125l8.703125 0q2.515625 0 3.921875 -1.15625q1.40625 -1.15625 1.40625 -3.109375q0 -2.0 -1.40625 -3.09375q-1.40625 -1.09375 -3.921875 -1.09375l-8.703125 0l0 8.453125zm0 17.109375l9.140625 0q3.203125 0 4.796875 -1.28125q1.59375 -1.296875 1.59375 -3.484375q0 -2.1875 -1.59375 -3.4375q-1.59375 -1.265625 -4.796875 -1.265625l-9.140625 0l0 9.46875zm45.927917 8.953125q-5.015625 0 -8.875 -1.96875q-3.84375 -1.984375 -6.015625 -5.671875q-2.15625 -3.703125 -2.15625 -8.84375q0 -4.9375 2.28125 -8.5625q2.296875 -3.640625 6.078125 -5.640625q3.796875 -2.015625 8.3125 -2.015625q5.140625 0 8.796875 2.421875q3.671875 2.40625 5.546875 6.640625q1.875 4.21875 1.5625 9.734375l-22.984375 0q0.25 3.25 2.40625 4.890625q2.15625 1.625 4.796875 1.625q2.1875 0 3.78125 -0.65625q1.609375 -0.65625 2.484375 -1.65625l7.578125 2.75q-2.4375 3.578125 -6.109375 5.265625q-3.65625 1.6875 -7.484375 1.6875zm-7.453125 -19.546875l14.15625 0q-0.0625 -3.0 -2.078125 -4.53125q-2.0 -1.546875 -4.75 -1.546875q-2.6875 0 -4.796875 1.4375q-2.09375 1.4375 -2.53125 4.640625zm40.604004 18.796875q-3.828125 0 -6.09375 -0.65625q-2.25 -0.65625 -3.21875 -2.5625q-0.96875 -1.921875 -0.96875 -5.546875l0 -15.046875l-5.140625 0l0 -7.265625l5.140625 0l0 -7.765625l9.515625 0l0 7.765625l6.78125 0l0 7.265625l-6.78125 0l0 12.53125q0 2.203125 0.84375 2.859375q0.859375 0.65625 3.171875 0.65625l2.765625 0l0 7.765625l-6.015625 0zm16.029938 0l-7.765625 -31.078125l9.390625 0l4.703125 21.046875l4.015625 -21.046875l9.015625 0l4.015625 21.046875l4.703125 -21.046875l9.453125 0l-7.765625 31.078125l-10.40625 0l-4.5 -22.3125l-4.453125 22.3125l-10.40625 0zm56.081665 0.75q-5.015625 0 -8.875 -1.96875q-3.84375 -1.984375 -6.015625 -5.671875q-2.15625 -3.703125 -2.15625 -8.84375q0 -4.9375 2.28125 -8.5625q2.296875 -3.640625 6.078125 -5.640625q3.796875 -2.015625 8.3125 -2.015625q5.140625 0 8.796875 2.421875q3.671875 2.40625 5.546875 6.640625q1.875 4.21875 1.5625 9.734375l-22.984375 0q0.25 3.25 2.40625 4.890625q2.15625 1.625 4.796875 1.625q2.1875 0 3.78125 -0.65625q1.609375 -0.65625 2.484375 -1.65625l7.578125 2.75q-2.4375 3.578125 -6.109375 5.265625q-3.65625 1.6875 -7.484375 1.6875zm-7.453125 -19.546875l14.15625 0q-0.0625 -3.0 -2.078125 -4.53125q-2.0 -1.546875 -4.75 -1.546875q-2.6875 0 -4.796875 1.4375q-2.09375 1.4375 -2.53125 4.640625zm42.916534 19.546875q-5.015625 0 -8.875 -1.96875q-3.84375 -1.984375 -6.015625 -5.671875q-2.15625 -3.703125 -2.15625 -8.84375q0 -4.9375 2.28125 -8.5625q2.296875 -3.640625 6.078125 -5.640625q3.796875 -2.015625 8.3125 -2.015625q5.140625 0 8.796875 2.421875q3.671875 2.40625 5.546875 6.640625q1.875 4.21875 1.5625 9.734375l-22.984375 0q0.25 3.25 2.40625 4.890625q2.15625 1.625 4.796875 1.625q2.1875 0 3.78125 -0.65625q1.609375 -0.65625 2.484375 -1.65625l7.578125 2.75q-2.4375 3.578125 -6.109375 5.265625q-3.65625 1.6875 -7.484375 1.6875zm-7.453125 -19.546875l14.15625 0q-0.0625 -3.0 -2.078125 -4.53125q-2.0 -1.546875 -4.75 -1.546875q-2.6875 0 -4.796875 1.4375q-2.09375 1.4375 -2.53125 4.640625zm27.494629 18.796875l0 -31.078125l8.34375 0l1.1875 4.140625q1.0625 -1.765625 3.53125 -3.390625q2.484375 -1.625 6.0625 -1.625q6.015625 0 8.234375 3.359375q2.21875 3.34375 2.21875 9.671875l0 18.921875l-9.515625 0l0 -16.546875q0 -2.1875 -0.25 -4.0q-0.25 -1.828125 -1.234375 -2.921875q-0.96875 -1.09375 -3.28125 -1.09375q-3.015625 0 -4.390625 2.171875q-1.375 2.15625 -1.375 6.40625l0 15.984375l-9.53125 0zm68.99866 0q-3.828125 0 -6.09375 -0.65625q-2.25 -0.65625 -3.21875 -2.5625q-0.96875 -1.921875 -0.96875 -5.546875l0 -15.046875l-5.140625 0l0 -7.265625l5.140625 0l0 -7.765625l9.515625 0l0 7.765625l6.78125 0l0 7.265625l-6.78125 0l0 12.53125q0 2.203125 0.84375 2.859375q0.859375 0.65625 3.171875 0.65625l2.765625 0l0 7.765625l-6.015625 0zm26.059204 0.75q-5.015625 0 -8.875 -1.96875q-3.84375 -1.984375 -6.015625 -5.671875q-2.15625 -3.703125 -2.15625 -8.84375q0 -4.9375 2.28125 -8.5625q2.296875 -3.640625 6.078125 -5.640625q3.796875 -2.015625 8.3125 -2.015625q5.140625 0 8.796875 2.421875q3.671875 2.40625 5.546875 6.640625q1.875 4.21875 1.5625 9.734375l-22.984375 0q0.25 3.25 2.40625 4.890625q2.15625 1.625 4.796875 1.625q2.1875 0 3.78125 -0.65625q1.609375 -0.65625 2.484375 -1.65625l7.578125 2.75q-2.4375 3.578125 -6.109375 5.265625q-3.65625 1.6875 -7.484375 1.6875zm-7.453125 -19.546875l14.15625 0q-0.0625 -3.0 -2.078125 -4.53125q-2.0 -1.546875 -4.75 -1.546875q-2.6875 0 -4.796875 1.4375q-2.09375 1.4375 -2.53125 4.640625zm27.494629 18.796875l0 -31.078125l7.53125 0l1.6875 5.703125q1.4375 -3.765625 3.9375 -5.265625q2.515625 -1.5 6.09375 -1.3125l0 9.515625q-0.765625 -0.125 -1.328125 -0.15625q-0.5625 -0.03125 -1.25 -0.03125q-3.4375 0 -5.296875 1.640625q-1.84375 1.625 -1.84375 5.328125l0 15.65625l-9.53125 0zm23.308105 0l0 -31.078125l8.34375 0l1.1875 4.140625q1.0625 -1.765625 3.5 -3.390625q2.453125 -1.625 5.90625 -1.625q3.6875 0 5.90625 1.3125q2.234375 1.3125 3.296875 3.890625q1.8125 -2.578125 4.59375 -3.890625q2.796875 -1.3125 6.0625 -1.3125q5.953125 0 8.203125 3.359375q2.25 3.34375 2.25 9.671875l0 18.921875l-9.515625 0l0 -16.546875q0 -2.1875 -0.25 -4.0q-0.25 -1.828125 -1.265625 -2.921875q-1.0 -1.09375 -3.3125 -1.09375q-2.875 0 -4.203125 2.046875q-1.3125 2.03125 -1.3125 6.09375l0 16.421875l-9.578125 0l0 -16.546875q0 -2.1875 -0.21875 -4.0q-0.21875 -1.828125 -1.203125 -2.921875q-0.96875 -1.09375 -3.21875 -1.09375q-2.953125 0 -4.296875 2.140625q-1.34375 2.125 -1.34375 6.1875l0 16.234375l-9.53125 0zm84.657104 0.75q-2.953125 0 -5.390625 -1.125q-2.4375 -1.125 -3.890625 -3.15625q-1.4375 -2.046875 -1.4375 -4.859375q0 -3.828125 2.65625 -6.078125q2.671875 -2.265625 7.3125 -3.390625q4.640625 -1.125 10.65625 -1.5625q0 -3.328125 -1.078125 -4.703125q-1.0625 -1.375 -4.125 -1.375q-1.953125 0 -3.421875 0.90625q-1.46875 0.90625 -1.96875 2.796875l-8.015625 -2.890625q1.5625 -3.125 5.21875 -5.1875q3.671875 -2.078125 9.0 -2.078125q6.640625 0 10.203125 2.953125q3.578125 2.9375 3.578125 10.015625l0 6.828125q0 2.0 0.125 4.328125q0.125 2.3125 0.375 4.390625q0.25 2.0625 0.5625 3.4375l-8.828125 0l-1.125 -3.765625q-1.765625 2.453125 -4.4375 3.484375q-2.65625 1.03125 -5.96875 1.03125zm3.515625 -6.515625q2.8125 0 4.6875 -1.5q1.890625 -1.5 1.890625 -5.765625l0 -0.75q-4.953125 0.4375 -7.96875 1.34375q-3.0 0.90625 -3.0 3.359375q0 1.5 1.25 2.40625q1.25 0.90625 3.140625 0.90625zm22.03949 5.765625l0 -31.078125l8.34375 0l1.1875 4.140625q1.0625 -1.765625 3.53125 -3.390625q2.484375 -1.625 6.0625 -1.625q6.015625 0 8.234375 3.359375q2.21875 3.34375 2.21875 9.671875l0 18.921875l-9.515625 0l0 -16.546875q0 -2.1875 -0.25 -4.0q-0.25 -1.828125 -1.234375 -2.921875q-0.96875 -1.09375 -3.28125 -1.09375q-3.015625 0 -4.390625 2.171875q-1.375 2.15625 -1.375 6.40625l0 15.984375l-9.53125 0zm47.431763 0.75q-4.0 0 -7.109375 -2.0q-3.09375 -2.015625 -4.859375 -5.734375q-1.75 -3.734375 -1.75 -8.8125q0 -5.0625 1.75 -8.65625q1.765625 -3.609375 4.859375 -5.546875q3.109375 -1.953125 7.109375 -1.953125q2.578125 0 5.265625 1.28125q2.703125 1.28125 4.203125 3.859375l0 -15.046875l9.515625 0l0 29.703125q0 2.3125 0.21875 5.515625q0.234375 3.1875 0.859375 6.640625l-9.09375 0l-1.25 -4.203125q-1.9375 2.703125 -4.546875 3.828125q-2.59375 1.125 -5.171875 1.125zm3.078125 -7.390625q2.75 0 4.78125 -2.0625q2.046875 -2.078125 2.046875 -6.890625q0 -4.765625 -2.046875 -6.859375q-2.03125 -2.109375 -4.78125 -2.109375q-2.828125 0 -4.859375 2.265625q-2.03125 2.25 -2.03125 6.5q0 4.328125 2.03125 6.75q2.03125 2.40625 4.859375 2.40625z" fill-rule="nonzero"/><path fill="#000000" d="m190.30945 705.58716q-4.0 0 -7.109375 -2.0q-3.09375 -2.015625 -4.859375 -5.734375q-1.75 -3.734375 -1.75 -8.8125q0 -5.0625 1.75 -8.65625q1.765625 -3.609375 4.859375 -5.546875q3.109375 -1.953125 7.109375 -1.953125q2.578125 0 5.265625 1.28125q2.703125 1.28125 4.203125 3.859375l0 -15.046875l9.515625 0l0 29.703125q0 2.3125 0.21875 5.515625q0.234375 3.1875 0.859375 6.640625l-9.09375 0l-1.25 -4.203125q-1.9375 2.703125 -4.546875 3.828125q-2.59375 1.125 -5.171875 1.125zm3.078125 -7.390625q2.75 0 4.78125 -2.0625q2.046875 -2.078125 2.046875 -6.890625q0 -4.765625 -2.046875 -6.859375q-2.03125 -2.109375 -4.78125 -2.109375q-2.828125 0 -4.859375 2.265625q-2.03125 2.25 -2.03125 6.5q0 4.328125 2.03125 6.75q2.03125 2.40625 4.859375 2.40625zm37.59308 7.390625q-5.015625 0 -8.875 -1.96875q-3.84375 -1.984375 -6.015625 -5.671875q-2.15625 -3.703125 -2.15625 -8.84375q0 -4.9375 2.28125 -8.5625q2.296875 -3.640625 6.078125 -5.640625q3.796875 -2.015625 8.3125 -2.015625q5.140625 0 8.796875 2.421875q3.671875 2.40625 5.546875 6.640625q1.875 4.21875 1.5625 9.734375l-22.984375 0q0.25 3.25 2.40625 4.890625q2.15625 1.625 4.796875 1.625q2.1875 0 3.78125 -0.65625q1.609375 -0.65625 2.484375 -1.65625l7.578125 2.75q-2.4375 3.578125 -6.109375 5.265625q-3.65625 1.6875 -7.484375 1.6875zm-7.453125 -19.546875l14.15625 0q-0.0625 -3.0 -2.078125 -4.53125q-2.0 -1.546875 -4.75 -1.546875q-2.6875 0 -4.796875 1.4375q-2.09375 1.4375 -2.53125 4.640625zm29.82277 18.796875l0 -23.8125l-5.140625 0l0 -7.265625l5.140625 0l0 -5.078125q0 -3.6875 1.25 -5.75q1.25 -2.078125 3.8749847 -2.890625q2.640625 -0.8125 6.84375 -0.8125l4.3125 0l0 7.515625l-2.625 0q-2.5 0 -3.328125 0.5q-0.8125 0.5 -0.8125 2.3125l0 4.203125l6.765625 0l0 7.265625l-6.765625 0l0 23.8125l-9.51561 0zm29.760422 -36.21875q-2.3125 0 -3.984375 -1.65625q-1.65625 -1.65625 -1.65625 -3.984375q0 -2.375 1.65625 -4.0q1.671875 -1.640625 3.984375 -1.640625q2.375 0 4.0 1.640625q1.640625 1.625 1.640625 4.0q0 2.328125 -1.640625 3.984375q-1.625 1.65625 -4.0 1.65625zm-4.828125 36.21875l0 -23.8125l-5.890625 0l0 -7.265625l15.484375 0l0 31.078125l-9.59375 0zm15.471069 0l0 -31.078125l8.34375 0l1.1875 4.140625q1.0625 -1.765625 3.53125 -3.390625q2.484375 -1.625 6.0625 -1.625q6.015625 0 8.234375 3.359375q2.21875 3.34375 2.21875 9.671875l0 18.921875l-9.515625 0l0 -16.546875q0 -2.1875 -0.25 -4.0q-0.25 -1.828125 -1.234375 -2.921875q-0.96875 -1.09375 -3.28125 -1.09375q-3.015625 0 -4.390625 2.171875q-1.375 2.15625 -1.375 6.40625l0 15.984375l-9.53125 0zm43.993073 -36.21875q-2.3125 0 -3.984375 -1.65625q-1.65625 -1.65625 -1.65625 -3.984375q0 -2.375 1.65625 -4.0q1.671875 -1.640625 3.984375 -1.640625q2.375 0 4.0 1.640625q1.640625 1.625 1.640625 4.0q0 2.328125 -1.640625 3.984375q-1.625 1.65625 -4.0 1.65625zm-4.828125 36.21875l0 -23.8125l-5.890625 0l0 -7.265625l15.484375 0l0 31.078125l-9.59375 0zm28.580475 0q-3.828125 0 -6.09375 -0.65625q-2.25 -0.65625 -3.21875 -2.5625q-0.96875 -1.921875 -0.96875 -5.546875l0 -15.046875l-5.1406555 0l0 -7.265625l5.1406555 0l0 -7.765625l9.515625 0l0 7.765625l6.78125 0l0 7.265625l-6.78125 0l0 12.53125q0 2.203125 0.84375 2.859375q0.859375 0.65625 3.171875 0.65625l2.765625 0l0 7.765625l-6.015625 0zm19.731049 -36.21875q-2.3125 0 -3.984375 -1.65625q-1.65625 -1.65625 -1.65625 -3.984375q0 -2.375 1.65625 -4.0q1.671875 -1.640625 3.984375 -1.640625q2.375 0 4.0 1.640625q1.640625 1.625 1.640625 4.0q0 2.328125 -1.640625 3.984375q-1.625 1.65625 -4.0 1.65625zm-4.828125 36.21875l0 -23.8125l-5.890625 0l0 -7.265625l15.484375 0l0 31.078125l-9.59375 0zm30.330444 0.75q-4.328125 0 -8.09375 -1.75q-3.75 -1.75 -6.078125 -5.421875q-2.3125 -3.671875 -2.3125 -9.234375q0 -5.640625 2.3125 -9.25q2.328125 -3.609375 6.078125 -5.328125q3.765625 -1.71875 8.09375 -1.71875q4.265625 0 8.015625 1.71875q3.765625 1.71875 6.078125 5.328125q2.3125 3.609375 2.3125 9.25q0 5.5625 -2.3125 9.234375q-2.3125 3.671875 -6.078125 5.421875q-3.75 1.75 -8.015625 1.75zm0 -7.390625q2.875 0 4.78125 -2.0625q1.921875 -2.078125 1.921875 -6.953125q0 -4.953125 -1.984375 -6.921875q-1.96875 -1.984375 -4.71875 -1.984375q-2.828125 0 -4.796875 1.984375q-1.96875 1.96875 -1.96875 6.921875q0 4.875 1.9375 6.953125q1.9375 2.0625 4.828125 2.0625zm21.042603 6.640625l0 -31.078125l8.34375 0l1.1875 4.140625q1.0625 -1.765625 3.53125 -3.390625q2.484375 -1.625 6.0625 -1.625q6.015625 0 8.234375 3.359375q2.21875 3.34375 2.21875 9.671875l0 18.921875l-9.515625 0l0 -16.546875q0 -2.1875 -0.25 -4.0q-0.25 -1.828125 -1.234375 -2.921875q-0.96875 -1.09375 -3.28125 -1.09375q-3.015625 0 -4.390625 2.171875q-1.375 2.15625 -1.375 6.40625l0 15.984375l-9.53125 0zm64.98306 -36.21875q-2.3125 0 -3.984375 -1.65625q-1.65625 -1.65625 -1.65625 -3.984375q0 -2.375 1.65625 -4.0q1.671875 -1.640625 3.984375 -1.640625q2.375 0 4.0 1.640625q1.640625 1.625 1.640625 4.0q0 2.328125 -1.640625 3.984375q-1.625 1.65625 -4.0 1.65625zm-4.828125 36.21875l0 -23.8125l-5.890625 0l0 -7.265625l15.484375 0l0 31.078125l-9.59375 0zm28.892944 0.75q-5.453125 0 -9.4375 -2.0q-3.984375 -2.015625 -5.796875 -5.890625l8.078125 -2.953125q0.703125 1.953125 2.671875 2.921875q1.96875 0.96875 4.671875 0.96875q2.3125 0 4.09375 -0.71875q1.796875 -0.71875 1.796875 -2.15625q0 -1.015625 -1.078125 -1.703125q-1.0625 -0.6875 -3.75 -1.125l-5.578125 -0.9375q-4.515625 -0.75 -7.34375 -3.0625q-2.8125 -2.328125 -2.8125 -6.21875q0 -3.25 1.96875 -5.4375q1.984375 -2.203125 5.234375 -3.296875q3.265625 -1.09375 7.09375 -1.09375q4.4375 0 8.234375 1.59375q3.796875 1.59375 5.546875 5.296875l-8.015625 2.9375q-0.453125 -1.6875 -2.078125 -2.28125q-1.625 -0.59375 -3.75 -0.59375q-5.140625 0 -5.140625 2.5q0 0.953125 0.875 1.546875q0.875 0.59375 2.9375 0.96875l5.765625 1.0625q5.640625 1.0 8.328125 2.953125q2.703125 1.9375 2.703125 5.8125q0 3.640625 -2.078125 6.09375q-2.0625 2.4375 -5.515625 3.625q-3.4375 1.1875 -7.625 1.1875zm53.50836 0q-5.453125 0 -9.4375 -2.0q-3.984375 -2.015625 -5.796875 -5.890625l8.078125 -2.953125q0.703125 1.953125 2.671875 2.921875q1.96875 0.96875 4.671875 0.96875q2.3125 0 4.09375 -0.71875q1.796875 -0.71875 1.796875 -2.15625q0 -1.015625 -1.078125 -1.703125q-1.0625 -0.6875 -3.75 -1.125l-5.578125 -0.9375q-4.515625 -0.75 -7.34375 -3.0625q-2.8125 -2.328125 -2.8125 -6.21875q0 -3.25 1.96875 -5.4375q1.984375 -2.203125 5.234375 -3.296875q3.265625 -1.09375 7.09375 -1.09375q4.4375 0 8.234375 1.59375q3.796875 1.59375 5.546875 5.296875l-8.015625 2.9375q-0.453125 -1.6875 -2.078125 -2.28125q-1.625 -0.59375 -3.75 -0.59375q-5.140625 0 -5.140625 2.5q0 0.953125 0.875 1.546875q0.875 0.59375 2.9375 0.96875l5.765625 1.0625q5.640625 1.0 8.328125 2.953125q2.703125 1.9375 2.703125 5.8125q0 3.640625 -2.078125 6.09375q-2.0625 2.4375 -5.515625 3.625q-3.4375 1.1875 -7.625 1.1875zm35.458374 0q-5.015625 0 -8.875 -1.96875q-3.84375 -1.984375 -6.015625 -5.671875q-2.15625 -3.703125 -2.15625 -8.84375q0 -4.9375 2.28125 -8.5625q2.296875 -3.640625 6.078125 -5.640625q3.796875 -2.015625 8.3125 -2.015625q5.140625 0 8.796875 2.421875q3.671875 2.40625 5.546875 6.640625q1.875 4.21875 1.5625 9.734375l-22.984375 0q0.25 3.25 2.40625 4.890625q2.15625 1.625 4.796875 1.625q2.1875 0 3.78125 -0.65625q1.609375 -0.65625 2.484375 -1.65625l7.578125 2.75q-2.4375 3.578125 -6.109375 5.265625q-3.65625 1.6875 -7.484375 1.6875zm-7.453125 -19.546875l14.15625 0q-0.0625 -3.0 -2.078125 -4.53125q-2.0 -1.546875 -4.75 -1.546875q-2.6875 0 -4.796875 1.4375q-2.09375 1.4375 -2.53125 4.640625zm40.604004 18.796875q-3.828125 0 -6.09375 -0.65625q-2.25 -0.65625 -3.21875 -2.5625q-0.96875 -1.921875 -0.96875 -5.546875l0 -15.046875l-5.140625 0l0 -7.265625l5.140625 0l0 -7.765625l9.515625 0l0 7.765625l6.78125 0l0 7.265625l-6.78125 0l0 12.53125q0 2.203125 0.84375 2.859375q0.859375 0.65625 3.171875 0.65625l2.765625 0l0 7.765625l-6.015625 0zm39.781067 0.75q-2.953125 0 -5.390625 -1.125q-2.4375 -1.125 -3.890625 -3.15625q-1.4375 -2.046875 -1.4375 -4.859375q0 -3.828125 2.65625 -6.078125q2.671875 -2.265625 7.3125 -3.390625q4.640625 -1.125 10.65625 -1.5625q0 -3.328125 -1.078125 -4.703125q-1.0625 -1.375 -4.125 -1.375q-1.953125 0 -3.421875 0.90625q-1.46875 0.90625 -1.96875 2.796875l-8.015625 -2.890625q1.5625 -3.125 5.21875 -5.1875q3.671875 -2.078125 9.0 -2.078125q6.640625 0 10.203125 2.953125q3.578125 2.9375 3.578125 10.015625l0 6.828125q0 2.0 0.125 4.328125q0.125 2.3125 0.375 4.390625q0.25 2.0625 0.5625 3.4375l-8.828125 0l-1.125 -3.765625q-1.765625 2.453125 -4.4375 3.484375q-2.65625 1.03125 -5.96875 1.03125zm3.515625 -6.515625q2.8125 0 4.6875 -1.5q1.890625 -1.5 1.890625 -5.765625l0 -0.75q-4.953125 0.4375 -7.96875 1.34375q-3.0 0.90625 -3.0 3.359375q0 1.5 1.25 2.40625q1.25 0.90625 3.140625 0.90625zm35.461365 6.515625q-5.453125 0 -9.4375 -2.0q-3.984375 -2.015625 -5.796875 -5.890625l8.078125 -2.953125q0.703125 1.953125 2.671875 2.921875q1.96875 0.96875 4.671875 0.96875q2.3125 0 4.09375 -0.71875q1.796875 -0.71875 1.796875 -2.15625q0 -1.015625 -1.078125 -1.703125q-1.0625 -0.6875 -3.75 -1.125l-5.578125 -0.9375q-4.515625 -0.75 -7.34375 -3.0625q-2.8125 -2.328125 -2.8125 -6.21875q0 -3.25 1.96875 -5.4375q1.984375 -2.203125 5.234375 -3.296875q3.265625 -1.09375 7.09375 -1.09375q4.4375 0 8.234375 1.59375q3.796875 1.59375 5.546875 5.296875l-8.015625 2.9375q-0.453125 -1.6875 -2.078125 -2.28125q-1.625 -0.59375 -3.75 -0.59375q-5.140625 0 -5.140625 2.5q0 0.953125 0.875 1.546875q0.875 0.59375 2.9375 0.96875l5.765625 1.0625q5.640625 1.0 8.328125 2.953125q2.703125 1.9375 2.703125 5.8125q0 3.640625 -2.078125 6.09375q-2.0625 2.4375 -5.515625 3.625q-3.4375 1.1875 -7.625 1.1875z" fill-rule="nonzero"/><path fill="#000000" d="m338.56403 780.58716q-5.140625 0 -8.6875 -2.0625q-3.53125 -2.078125 -5.390625 -5.796875q-1.84375 -3.734375 -1.84375 -8.625q0 -4.875 2.0 -8.53125q2.015625 -3.671875 5.609375 -5.671875q3.609375 -2.015625 8.3125 -2.015625q2.6875 0 5.34375 0.75q2.671875 0.75 4.953125 2.546875q2.296875 1.78125 3.734375 4.84375l-7.953125 2.890625q-0.75 -2.015625 -2.234375 -2.828125q-1.46875 -0.8125 -3.28125 -0.8125q-1.6875 0 -3.265625 0.84375q-1.5625 0.84375 -2.53125 2.796875q-0.96875 1.9375 -0.96875 5.265625q0 3.375 1.0 5.359375q1.0 1.96875 2.53125 2.8125q1.546875 0.84375 3.234375 0.84375q2.0 0 3.375 -0.78125q1.390625 -0.78125 2.203125 -2.171875l7.765625 2.828125q-1.5625 2.8125 -3.890625 4.484375q-2.3125 1.65625 -4.921875 2.34375q-2.59375 0.6875 -5.09375 0.6875zm29.065582 0q-4.125 0 -6.484375 -1.53125q-2.34375 -1.53125 -3.328125 -4.46875q-0.96875 -2.953125 -0.96875 -7.15625l0 -18.671875l9.53125 0l0 17.359375q0 4.25 1.28125 5.671875q1.28125 1.40625 3.609375 1.40625q2.8125 0 4.09375 -1.875q1.296875 -1.890625 1.296875 -6.203125l0 -16.359375l9.578125 0l0 31.078125l-8.265625 0l-1.3125 -4.390625q-1.390625 2.328125 -3.421875 3.734375q-2.03125 1.40625 -5.609375 1.40625zm38.354645 0q-5.453125 0 -9.4375 -2.0q-3.984375 -2.015625 -5.796875 -5.890625l8.078125 -2.953125q0.703125 1.953125 2.671875 2.921875q1.96875 0.96875 4.671875 0.96875q2.3125 0 4.09375 -0.71875q1.796875 -0.71875 1.796875 -2.15625q0 -1.015625 -1.078125 -1.703125q-1.0625 -0.6875 -3.75 -1.125l-5.578125 -0.9375q-4.515625 -0.75 -7.34375 -3.0625q-2.8125 -2.328125 -2.8125 -6.21875q0 -3.25 1.96875 -5.4375q1.984375 -2.203125 5.234375 -3.296875q3.265625 -1.09375 7.09375 -1.09375q4.4375 0 8.234375 1.59375q3.796875 1.59375 5.546875 5.296875l-8.015625 2.9375q-0.453125 -1.6875 -2.078125 -2.28125q-1.625 -0.59375 -3.75 -0.59375q-5.140625 0 -5.140625 2.5q0 0.953125 0.875 1.546875q0.875 0.59375 2.9375 0.96875l5.765625 1.0625q5.640625 1.0 8.328125 2.953125q2.703125 1.9375 2.703125 5.8125q0 3.640625 -2.078125 6.09375q-2.0625 2.4375 -5.515625 3.625q-3.4375 1.1875 -7.625 1.1875zm33.145874 -0.75q-3.828125 0 -6.09375 -0.65625q-2.25 -0.65625 -3.21875 -2.5625q-0.96875 -1.921875 -0.96875 -5.546875l0 -15.046875l-5.140625 0l0 -7.265625l5.140625 0l0 -7.765625l9.515625 0l0 7.765625l6.78125 0l0 7.265625l-6.78125 0l0 12.53125q0 2.203125 0.84375 2.859375q0.859375 0.65625 3.171875 0.65625l2.765625 0l0 7.765625l-6.015625 0zm25.496704 0.75q-4.328125 0 -8.09375 -1.75q-3.75 -1.75 -6.078125 -5.421875q-2.3125 -3.671875 -2.3125 -9.234375q0 -5.640625 2.3125 -9.25q2.328125 -3.609375 6.078125 -5.328125q3.765625 -1.71875 8.09375 -1.71875q4.265625 0 8.015625 1.71875q3.765625 1.71875 6.078125 5.328125q2.3125 3.609375 2.3125 9.25q0 5.5625 -2.3125 9.234375q-2.3125 3.671875 -6.078125 5.421875q-3.75 1.75 -8.015625 1.75zm0 -7.390625q2.875 0 4.78125 -2.0625q1.921875 -2.078125 1.921875 -6.953125q0 -4.953125 -1.984375 -6.921875q-1.96875 -1.984375 -4.71875 -1.984375q-2.828125 0 -4.796875 1.984375q-1.96875 1.96875 -1.96875 6.921875q0 4.875 1.9375 6.953125q1.9375 2.0625 4.828125 2.0625zm21.042603 6.640625l0 -31.078125l8.34375 0l1.1875 4.140625q1.0625 -1.765625 3.5 -3.390625q2.453125 -1.625 5.90625 -1.625q3.6875 0 5.90625 1.3125q2.234375 1.3125 3.296875 3.890625q1.8125 -2.578125 4.59375 -3.890625q2.796875 -1.3125 6.0625 -1.3125q5.953125 0 8.203125 3.359375q2.25 3.34375 2.25 9.671875l0 18.921875l-9.515625 0l0 -16.546875q0 -2.1875 -0.25 -4.0q-0.25 -1.828125 -1.265625 -2.921875q-1.0 -1.09375 -3.3125 -1.09375q-2.875 0 -4.203125 2.046875q-1.3125 2.03125 -1.3125 6.09375l0 16.421875l-9.578125 0l0 -16.546875q0 -2.1875 -0.21875 -4.0q-0.21875 -1.828125 -1.203125 -2.921875q-0.96875 -1.09375 -3.21875 -1.09375q-2.953125 0 -4.296875 2.140625q-1.34375 2.125 -1.34375 6.1875l0 16.234375l-9.53125 0zm80.07898 -19.796875q-2.5 0 -4.328125 -1.75q-1.8125 -1.765625 -1.8125 -4.265625q0 -2.578125 1.8125 -4.359375q1.828125 -1.78125 4.328125 -1.78125q2.515625 0 4.296875 1.78125q1.78125 1.78125 1.78125 4.359375q0 2.5 -1.78125 4.265625q-1.78125 1.75 -4.296875 1.75zm-4.765625 28.9375l3.328125 -8.578125q-2.0 -0.5 -3.359375 -2.15625q-1.34375 -1.671875 -1.34375 -3.796875q0 -2.5625 1.8125 -4.3125q1.828125 -1.765625 4.328125 -1.765625q2.515625 0 4.296875 1.765625q1.78125 1.75 1.78125 4.3125q0 1.1875 -0.375 2.265625l-4.828125 12.265625l-5.640625 0zm19.991028 -28.9375q-2.5 0 -4.328125 -1.75q-1.8125 -1.765625 -1.8125 -4.265625q0 -2.578125 1.8125 -4.359375q1.828125 -1.78125 4.328125 -1.78125q2.515625 0 4.296875 1.78125q1.78125 1.78125 1.78125 4.359375q0 2.5 -1.78125 4.265625q-1.78125 1.75 -4.296875 1.75zm-4.765625 28.9375l3.328125 -8.578125q-2.0 -0.5 -3.359375 -2.15625q-1.34375 -1.671875 -1.34375 -3.796875q0 -2.5625 1.8125 -4.3125q1.828125 -1.765625 4.328125 -1.765625q2.515625 0 4.296875 1.765625q1.78125 1.75 1.78125 4.3125q0 1.1875 -0.375 2.265625l-4.828125 12.265625l-5.640625 0z" fill-rule="nonzero"/><path fill="#000000" d="m381.03345 854.83716l0 -7.828125q8.28125 -5.828125 13.15625 -9.859375q4.890625 -4.046875 7.046875 -7.109375q2.171875 -3.078125 2.171875 -5.78125q0 -2.4375 -1.734375 -3.6875q-1.71875 -1.265625 -4.03125 -1.265625q-1.9375 0 -3.828125 1.109375q-1.875 1.09375 -2.5625 4.03125l-8.640625 -3.125q1.6875 -4.390625 5.8125 -6.734375q4.140625 -2.359375 9.65625 -2.359375q4.265625 0 7.640625 1.421875q3.390625 1.40625 5.328125 4.140625q1.9375 2.71875 1.9375 6.65625q0 6.328125 -5.296875 11.75q-5.28125 5.421875 -14.5 10.8125l19.984375 0l0 7.828125l-32.140625 0zm42.232117 0.75q-2.5 0 -4.328125 -1.8125q-1.8125 -1.8125 -1.8125 -4.328125q0 -2.5625 1.8125 -4.3125q1.828125 -1.765625 4.328125 -1.765625q2.515625 0 4.296875 1.765625q1.78125 1.75 1.78125 4.3125q0 2.515625 -1.78125 4.328125q-1.78125 1.8125 -4.296875 1.8125z" fill-rule="nonzero"/><path fill="#000000" d="m159.5763 929.83716l0 -41.859375l18.296875 0q4.578125 0 8.140625 0.921875q3.578125 0.90625 5.671875 3.25q2.109375 2.34375 2.109375 6.734375q0 2.890625 -1.296875 5.078125q-1.28125 2.1875 -3.65625 3.625q2.953125 1.015625 4.796875 3.265625q1.84375 2.25 1.84375 6.078125q0 4.703125 -2.109375 7.53125q-2.09375 2.8125 -5.921875 4.09375q-3.8125 1.28125 -8.890625 1.28125l-18.984375 0zm9.90625 -25.3125l8.703125 0q2.515625 0 3.921875 -1.15625q1.40625 -1.15625 1.40625 -3.109375q0 -2.0 -1.40625 -3.09375q-1.40625 -1.09375 -3.921875 -1.09375l-8.703125 0l0 8.453125zm0 17.109375l9.140625 0q3.203125 0 4.796875 -1.28125q1.59375 -1.296875 1.59375 -3.484375q0 -2.1875 -1.59375 -3.4375q-1.59375 -1.265625 -4.796875 -1.265625l-9.140625 0l0 9.46875zm45.927917 8.953125q-5.015625 0 -8.875 -1.96875q-3.84375 -1.984375 -6.015625 -5.671875q-2.15625 -3.703125 -2.15625 -8.84375q0 -4.9375 2.28125 -8.5625q2.296875 -3.640625 6.078125 -5.640625q3.796875 -2.015625 8.3125 -2.015625q5.140625 0 8.796875 2.421875q3.671875 2.40625 5.546875 6.640625q1.875 4.21875 1.5625 9.734375l-22.984375 0q0.25 3.25 2.40625 4.890625q2.15625 1.625 4.796875 1.625q2.1875 0 3.78125 -0.65625q1.609375 -0.65625 2.484375 -1.65625l7.578125 2.75q-2.4375 3.578125 -6.109375 5.265625q-3.65625 1.6875 -7.484375 1.6875zm-7.453125 -19.546875l14.15625 0q-0.0625 -3.0 -2.078125 -4.53125q-2.0 -1.546875 -4.75 -1.546875q-2.6875 0 -4.796875 1.4375q-2.09375 1.4375 -2.53125 4.640625zm40.60402 18.796875q-3.828125 0 -6.09375 -0.65625q-2.25 -0.65625 -3.21875 -2.5625q-0.96875 -1.921875 -0.96875 -5.546875l0 -15.046875l-5.140625 0l0 -7.265625l5.140625 0l0 -7.765625l9.515625 0l0 7.765625l6.78125 0l0 7.265625l-6.78125 0l0 12.53125q0 2.203125 0.84375 2.859375q0.859375 0.65625 3.171875 0.65625l2.765625 0l0 7.765625l-6.015625 0zm16.029922 0l-7.765625 -31.078125l9.390625 0l4.703125 21.046875l4.015625 -21.046875l9.015625 0l4.015625 21.046875l4.703125 -21.046875l9.453125 0l-7.765625 31.078125l-10.40625 0l-4.5 -22.3125l-4.453125 22.3125l-10.40625 0zm56.081665 0.75q-5.015625 0 -8.875 -1.96875q-3.84375 -1.984375 -6.015625 -5.671875q-2.15625 -3.703125 -2.15625 -8.84375q0 -4.9375 2.28125 -8.5625q2.296875 -3.640625 6.078125 -5.640625q3.796875 -2.015625 8.3125 -2.015625q5.140625 0 8.796875 2.421875q3.671875 2.40625 5.546875 6.640625q1.875 4.21875 1.5625 9.734375l-22.984375 0q0.25 3.25 2.40625 4.890625q2.15625 1.625 4.796875 1.625q2.1875 0 3.78125 -0.65625q1.609375 -0.65625 2.484375 -1.65625l7.578125 2.75q-2.4375 3.578125 -6.109375 5.265625q-3.65625 1.6875 -7.484375 1.6875zm-7.453125 -19.546875l14.15625 0q-0.0625 -3.0 -2.078125 -4.53125q-2.0 -1.546875 -4.75 -1.546875q-2.6875 0 -4.796875 1.4375q-2.09375 1.4375 -2.53125 4.640625zm42.916534 19.546875q-5.015625 0 -8.8750305 -1.96875q-3.84375 -1.984375 -6.015625 -5.671875q-2.15625 -3.703125 -2.15625 -8.84375q0 -4.9375 2.28125 -8.5625q2.296875 -3.640625 6.078125 -5.640625q3.7969055 -2.015625 8.3125305 -2.015625q5.140625 0 8.796875 2.421875q3.671875 2.40625 5.546875 6.640625q1.875 4.21875 1.5625 9.734375l-22.984375 0q0.25 3.25 2.40625 4.890625q2.15625 1.625 4.796875 1.625q2.1875 0 3.78125 -0.65625q1.609375 -0.65625 2.484375 -1.65625l7.578125 2.75q-2.4375 3.578125 -6.109375 5.265625q-3.65625 1.6875 -7.484375 1.6875zm-7.453125 -19.546875l14.15625 0q-0.0625 -3.0 -2.078125 -4.53125q-2.0 -1.546875 -4.75 -1.546875q-2.6875 0 -4.796875 1.4375q-2.09375 1.4375 -2.53125 4.640625zm27.494629 18.796875l0 -31.078125l8.34375 0l1.1875 4.140625q1.0625 -1.765625 3.53125 -3.390625q2.484375 -1.625 6.0625 -1.625q6.015625 0 8.234375 3.359375q2.21875 3.34375 2.21875 9.671875l0 18.921875l-9.515625 0l0 -16.546875q0 -2.1875 -0.25 -4.0q-0.25 -1.828125 -1.234375 -2.921875q-0.96875 -1.09375 -3.28125 -1.09375q-3.015625 0 -4.390625 2.171875q-1.375 2.15625 -1.375 6.40625l0 15.984375l-9.53125 0zm55.889282 0l0 -31.078125l7.53125 0l1.6875 5.703125q1.4375 -3.765625 3.9375 -5.265625q2.515625 -1.5 6.09375 -1.3125l0 9.515625q-0.765625 -0.125 -1.328125 -0.15625q-0.5625 -0.03125 -1.25 -0.03125q-3.4375 0 -5.296875 1.640625q-1.84375 1.625 -1.84375 5.328125l0 15.65625l-9.53125 0zm38.16748 0.75q-4.328125 0 -8.09375 -1.75q-3.75 -1.75 -6.078125 -5.421875q-2.3125 -3.671875 -2.3125 -9.234375q0 -5.640625 2.3125 -9.25q2.328125 -3.609375 6.078125 -5.328125q3.765625 -1.71875 8.09375 -1.71875q4.265625 0 8.015625 1.71875q3.765625 1.71875 6.078125 5.328125q2.3125 3.609375 2.3125 9.25q0 5.5625 -2.3125 9.234375q-2.3125 3.671875 -6.078125 5.421875q-3.75 1.75 -8.015625 1.75zm0 -7.390625q2.875 0 4.78125 -2.0625q1.921875 -2.078125 1.921875 -6.953125q0 -4.953125 -1.984375 -6.921875q-1.96875 -1.984375 -4.71875 -1.984375q-2.828125 0 -4.796875 1.984375q-1.96875 1.96875 -1.96875 6.921875q0 4.875 1.9375 6.953125q1.9375 2.0625 4.828125 2.0625zm25.683228 6.640625l-7.765625 -31.078125l9.390625 0l4.703125 21.046875l4.015625 -21.046875l9.015625 0l4.015625 21.046875l4.703125 -21.046875l9.453125 0l-7.765625 31.078125l-10.40625 0l-4.5 -22.3125l-4.453125 22.3125l-10.40625 0zm54.081665 0.75q-5.453125 0 -9.4375 -2.0q-3.984375 -2.015625 -5.796875 -5.890625l8.078125 -2.953125q0.703125 1.953125 2.671875 2.921875q1.96875 0.96875 4.671875 0.96875q2.3125 0 4.09375 -0.71875q1.796875 -0.71875 1.796875 -2.15625q0 -1.015625 -1.078125 -1.703125q-1.0625 -0.6875 -3.75 -1.125l-5.578125 -0.9375q-4.515625 -0.75 -7.34375 -3.0625q-2.8125 -2.328125 -2.8125 -6.21875q0 -3.25 1.96875 -5.4375q1.984375 -2.203125 5.234375 -3.296875q3.265625 -1.09375 7.09375 -1.09375q4.4375 0 8.234375 1.59375q3.796875 1.59375 5.546875 5.296875l-8.015625 2.9375q-0.453125 -1.6875 -2.078125 -2.28125q-1.625 -0.59375 -3.75 -0.59375q-5.140625 0 -5.140625 2.5q0 0.953125 0.875 1.546875q0.875 0.59375 2.9375 0.96875l5.765625 1.0625q5.640625 1.0 8.328125 2.953125q2.703125 1.9375 2.703125 5.8125q0 3.640625 -2.078125 6.09375q-2.0625 2.4375 -5.515625 3.625q-3.4375 1.1875 -7.625 1.1875zm49.180237 -36.96875q-2.3125 0 -3.984375 -1.65625q-1.65625 -1.65625 -1.65625 -3.984375q0 -2.375 1.65625 -4.0q1.671875 -1.640625 3.984375 -1.640625q2.375 0 4.0 1.640625q1.640625 1.625 1.640625 4.0q0 2.328125 -1.640625 3.984375q-1.625 1.65625 -4.0 1.65625zm-4.828125 36.21875l0 -23.8125l-5.890625 0l0 -7.265625l15.484375 0l0 31.078125l-9.59375 0zm28.892944 0.75q-5.453125 0 -9.4375 -2.0q-3.984375 -2.015625 -5.796875 -5.890625l8.078125 -2.953125q0.703125 1.953125 2.671875 2.921875q1.96875 0.96875 4.671875 0.96875q2.3125 0 4.09375 -0.71875q1.796875 -0.71875 1.796875 -2.15625q0 -1.015625 -1.078125 -1.703125q-1.0625 -0.6875 -3.75 -1.125l-5.578125 -0.9375q-4.515625 -0.75 -7.34375 -3.0625q-2.8125 -2.328125 -2.8125 -6.21875q0 -3.25 1.96875 -5.4375q1.984375 -2.203125 5.234375 -3.296875q3.265625 -1.09375 7.09375 -1.09375q4.4375 0 8.234375 1.59375q3.796875 1.59375 5.546875 5.296875l-8.015625 2.9375q-0.453125 -1.6875 -2.078125 -2.28125q-1.625 -0.59375 -3.75 -0.59375q-5.140625 0 -5.140625 2.5q0 0.953125 0.875 1.546875q0.875 0.59375 2.9375 0.96875l5.765625 1.0625q5.640625 1.0 8.328125 2.953125q2.703125 1.9375 2.703125 5.8125q0 3.640625 -2.078125 6.09375q-2.0625 2.4375 -5.515625 3.625q-3.4375 1.1875 -7.625 1.1875zm53.50836 0q-5.453125 0 -9.4375 -2.0q-3.984375 -2.015625 -5.796875 -5.890625l8.078125 -2.953125q0.703125 1.953125 2.671875 2.921875q1.96875 0.96875 4.671875 0.96875q2.3125 0 4.09375 -0.71875q1.796875 -0.71875 1.796875 -2.15625q0 -1.015625 -1.078125 -1.703125q-1.0625 -0.6875 -3.75 -1.125l-5.578125 -0.9375q-4.515625 -0.75 -7.34375 -3.0625q-2.8125 -2.328125 -2.8125 -6.21875q0 -3.25 1.96875 -5.4375q1.984375 -2.203125 5.234375 -3.296875q3.265625 -1.09375 7.09375 -1.09375q4.4375 0 8.234375 1.59375q3.796875 1.59375 5.546875 5.296875l-8.015625 2.9375q-0.453125 -1.6875 -2.078125 -2.28125q-1.625 -0.59375 -3.75 -0.59375q-5.140625 0 -5.140625 2.5q0 0.953125 0.875 1.546875q0.875 0.59375 2.9375 0.96875l5.765625 1.0625q5.640625 1.0 8.328125 2.953125q2.703125 1.9375 2.703125 5.8125q0 3.640625 -2.078125 6.09375q-2.0625 2.4375 -5.515625 3.625q-3.4375 1.1875 -7.625 1.1875zm35.458374 0q-5.015625 0 -8.875 -1.96875q-3.84375 -1.984375 -6.015625 -5.671875q-2.15625 -3.703125 -2.15625 -8.84375q0 -4.9375 2.28125 -8.5625q2.296875 -3.640625 6.078125 -5.640625q3.796875 -2.015625 8.3125 -2.015625q5.140625 0 8.796875 2.421875q3.671875 2.40625 5.546875 6.640625q1.875 4.21875 1.5625 9.734375l-22.984375 0q0.25 3.25 2.40625 4.890625q2.15625 1.625 4.796875 1.625q2.1875 0 3.78125 -0.65625q1.609375 -0.65625 2.484375 -1.65625l7.578125 2.75q-2.4375 3.578125 -6.109375 5.265625q-3.65625 1.6875 -7.484375 1.6875zm-7.453125 -19.546875l14.15625 0q-0.0625 -3.0 -2.078125 -4.53125q-2.0 -1.546875 -4.75 -1.546875q-2.6875 0 -4.796875 1.4375q-2.09375 1.4375 -2.53125 4.640625zm40.604004 18.796875q-3.828125 0 -6.09375 -0.65625q-2.25 -0.65625 -3.21875 -2.5625q-0.96875 -1.921875 -0.96875 -5.546875l0 -15.046875l-5.140625 0l0 -7.265625l5.140625 0l0 -7.765625l9.515625 0l0 7.765625l6.78125 0l0 7.265625l-6.78125 0l0 12.53125q0 2.203125 0.84375 2.859375q0.859375 0.65625 3.171875 0.65625l2.765625 0l0 7.765625l-6.015625 0z" fill-rule="nonzero"/><path fill="#000000" d="m289.28226 1005.58716q-2.953125 0 -5.390625 -1.125q-2.4375 -1.125 -3.890625 -3.15625q-1.4375 -2.046875 -1.4375 -4.859375q0 -3.828125 2.65625 -6.078125q2.671875 -2.265625 7.3125 -3.390625q4.640625 -1.125 10.65625 -1.5625q0 -3.328125 -1.078125 -4.703125q-1.0625 -1.375 -4.125 -1.375q-1.953125 0 -3.421875 0.90625q-1.46875 0.90625 -1.96875 2.796875l-8.015625 -2.890625q1.5625 -3.125 5.21875 -5.1875q3.671875 -2.078125 9.0 -2.078125q6.640625 0 10.203125 2.953125q3.578125 2.9375 3.578125 10.015625l0 6.828125q0 2.0 0.125 4.328125q0.125 2.3125 0.375 4.390625q0.25 2.0625 0.5625 3.4375l-8.828125 0l-1.125 -3.765625q-1.765625 2.453125 -4.4375 3.484375q-2.65625 1.03125 -5.96875 1.03125zm3.515625 -6.515625q2.8125 0 4.6875 -1.5q1.890625 -1.5 1.890625 -5.765625l0 -0.75q-4.953125 0.4375 -7.96875 1.34375q-3.0 0.90625 -3.0 3.359375q0 1.5 1.25 2.40625q1.25 0.90625 3.140625 0.90625zm35.461365 6.515625q-5.453125 0 -9.4375 -2.0q-3.984375 -2.015625 -5.796875 -5.890625l8.078125 -2.953125q0.703125 1.953125 2.671875 2.921875q1.96875 0.96875 4.671875 0.96875q2.3125 0 4.09375 -0.71875q1.796875 -0.71875 1.796875 -2.15625q0 -1.015625 -1.078125 -1.703125q-1.0625 -0.6875 -3.75 -1.125l-5.578125 -0.9375q-4.515625 -0.75 -7.34375 -3.0625q-2.8125 -2.328125 -2.8125 -6.21875q0 -3.25 1.96875 -5.4375q1.984375 -2.203125 5.234375 -3.296875q3.265625 -1.09375 7.09375 -1.09375q4.4375 0 8.234375 1.59375q3.796875 1.59375 5.546875 5.296875l-8.015625 2.9375q-0.453125 -1.6875 -2.078125 -2.28125q-1.625 -0.59375 -3.75 -0.59375q-5.140625 0 -5.140625 2.5q0 0.953125 0.875 1.546875q0.875 0.59375 2.9375 0.96875l5.765625 1.0625q5.640625 1.0 8.328125 2.953125q2.703125 1.9375 2.703125 5.8125q0 3.640625 -2.078125 6.09375q-2.0625 2.4375 -5.515625 3.625q-3.4375 1.1875 -7.625 1.1875zm54.38336 0q-5.140625 0 -8.6875 -2.0625q-3.53125 -2.078125 -5.390625 -5.796875q-1.84375 -3.734375 -1.84375 -8.625q0 -4.875 2.0 -8.53125q2.015625 -3.671875 5.609375 -5.671875q3.609375 -2.015625 8.3125 -2.015625q2.6875 0 5.34375 0.75q2.671875 0.75 4.953125 2.546875q2.296875 1.78125 3.734375 4.84375l-7.953125 2.890625q-0.75 -2.015625 -2.234375 -2.828125q-1.46875 -0.8125 -3.28125 -0.8125q-1.6875 0 -3.265625 0.84375q-1.5625 0.84375 -2.53125 2.796875q-0.96875 1.9375 -0.96875 5.265625q0 3.375 1.0 5.359375q1.0 1.96875 2.53125 2.8125q1.546875 0.84375 3.234375 0.84375q2.0 0 3.375 -0.78125q1.390625 -0.78125 2.203125 -2.171875l7.765625 2.828125q-1.5625 2.8125 -3.890625 4.484375q-2.3125 1.65625 -4.921875 2.34375q-2.59375 0.6875 -5.09375 0.6875zm29.065582 0q-4.125 0 -6.484375 -1.53125q-2.34375 -1.53125 -3.328125 -4.46875q-0.96875 -2.953125 -0.96875 -7.15625l0 -18.671875l9.53125 0l0 17.359375q0 4.25 1.28125 5.671875q1.28125 1.40625 3.609375 1.40625q2.8125 0 4.09375 -1.875q1.296875 -1.890625 1.296875 -6.203125l0 -16.359375l9.578125 0l0 31.078125l-8.265625 0l-1.3125 -4.390625q-1.390625 2.328125 -3.421875 3.734375q-2.03125 1.40625 -5.609375 1.40625zm38.354645 0q-5.453125 0 -9.4375 -2.0q-3.984375 -2.015625 -5.796875 -5.890625l8.078125 -2.953125q0.703125 1.953125 2.671875 2.921875q1.96875 0.96875 4.671875 0.96875q2.3125 0 4.09375 -0.71875q1.796875 -0.71875 1.796875 -2.15625q0 -1.015625 -1.078125 -1.703125q-1.0625 -0.6875 -3.75 -1.125l-5.578125 -0.9375q-4.515625 -0.75 -7.34375 -3.0625q-2.8125 -2.328125 -2.8125 -6.21875q0 -3.25 1.96875 -5.4375q1.984375 -2.203125 5.234375 -3.296875q3.265625 -1.09375 7.09375 -1.09375q4.4375 0 8.234375 1.59375q3.796875 1.59375 5.546875 5.296875l-8.015625 2.9375q-0.453125 -1.6875 -2.078125 -2.28125q-1.625 -0.59375 -3.75 -0.59375q-5.140625 0 -5.140625 2.5q0 0.953125 0.875 1.546875q0.875 0.59375 2.9375 0.96875l5.765625 1.0625q5.640625 1.0 8.328125 2.953125q2.703125 1.9375 2.703125 5.8125q0 3.640625 -2.078125 6.09375q-2.0625 2.4375 -5.515625 3.625q-3.4375 1.1875 -7.625 1.1875zm33.145905 -0.75q-3.828125 0 -6.09375 -0.65625q-2.25 -0.65625 -3.21875 -2.5625q-0.96875 -1.921875 -0.96875 -5.546875l0 -15.046875l-5.140625 0l0 -7.265625l5.140625 0l0 -7.765625l9.515625 0l0 7.765625l6.78125 0l0 7.265625l-6.78125 0l0 12.53125q0 2.203125 0.84375 2.859375q0.859375 0.65625 3.171875 0.65625l2.765625 0l0 7.765625l-6.015625 0zm25.496674 0.75q-4.328125 0 -8.09375 -1.75q-3.75 -1.75 -6.078125 -5.421875q-2.3125 -3.671875 -2.3125 -9.234375q0 -5.640625 2.3125 -9.25q2.328125 -3.609375 6.078125 -5.328125q3.765625 -1.71875 8.09375 -1.71875q4.2655945 0 8.0155945 1.71875q3.765625 1.71875 6.078125 5.328125q2.3125 3.609375 2.3125 9.25q0 5.5625 -2.3125 9.234375q-2.3125 3.671875 -6.078125 5.421875q-3.75 1.75 -8.0155945 1.75zm0 -7.390625q2.875 0 4.7812195 -2.0625q1.921875 -2.078125 1.921875 -6.953125q0 -4.953125 -1.984375 -6.921875q-1.9687195 -1.984375 -4.7187195 -1.984375q-2.828125 0 -4.796875 1.984375q-1.96875 1.96875 -1.96875 6.921875q0 4.875 1.9375 6.953125q1.9375 2.0625 4.828125 2.0625zm21.042572 6.640625l0 -31.078125l8.34375 0l1.1875 4.140625q1.0625 -1.765625 3.5 -3.390625q2.453125 -1.625 5.90625 -1.625q3.6875 0 5.90625 1.3125q2.234375 1.3125 3.296875 3.890625q1.8125 -2.578125 4.59375 -3.890625q2.796875 -1.3125 6.0625 -1.3125q5.953125 0 8.203125 3.359375q2.25 3.34375 2.25 9.671875l0 18.921875l-9.515625 0l0 -16.546875q0 -2.1875 -0.25 -4.0q-0.25 -1.828125 -1.265625 -2.921875q-1.0 -1.09375 -3.3125 -1.09375q-2.875 0 -4.203125 2.046875q-1.3125 2.03125 -1.3125 6.09375l0 16.421875l-9.578125 0l0 -16.546875q0 -2.1875 -0.21875 -4.0q-0.21875 -1.828125 -1.203125 -2.921875q-0.96875 -1.09375 -3.21875 -1.09375q-2.953125 0 -4.296875 2.140625q-1.34375 2.125 -1.34375 6.1875l0 16.234375l-9.53125 0zm80.07904 -19.796875q-2.5 0 -4.328125 -1.75q-1.812561 -1.765625 -1.812561 -4.265625q0 -2.578125 1.812561 -4.359375q1.828125 -1.78125 4.328125 -1.78125q2.515625 0 4.296875 1.78125q1.78125 1.78125 1.78125 4.359375q0 2.5 -1.78125 4.265625q-1.78125 1.75 -4.296875 1.75zm0 20.546875q-2.5 0 -4.328125 -1.8125q-1.812561 -1.8125 -1.812561 -4.328125q0 -2.5625 1.812561 -4.3125q1.828125 -1.765625 4.328125 -1.765625q2.515625 0 4.296875 1.765625q1.78125 1.75 1.78125 4.3125q0 2.515625 -1.78125 4.328125q-1.78125 1.8125 -4.296875 1.8125zm15.225464 -20.546875q-2.5 0 -4.328125 -1.75q-1.8125 -1.765625 -1.8125 -4.265625q0 -2.578125 1.8125 -4.359375q1.828125 -1.78125 4.328125 -1.78125q2.515625 0 4.296875 1.78125q1.78125 1.78125 1.78125 4.359375q0 2.5 -1.78125 4.265625q-1.78125 1.75 -4.296875 1.75zm0 20.546875q-2.5 0 -4.328125 -1.8125q-1.8125 -1.8125 -1.8125 -4.328125q0 -2.5625 1.8125 -4.3125q1.828125 -1.765625 4.328125 -1.765625q2.515625 0 4.296875 1.765625q1.78125 1.75 1.78125 4.3125q0 2.515625 -1.78125 4.328125q-1.78125 1.8125 -4.296875 1.8125z" fill-rule="nonzero"/><path fill="#474946" d="m91.36483 457.72702l715.21265 0l-50.422485 40.90555l-628.42773 0l0 509.81573l-36.36242 29.499207z" fill-rule="evenodd"/><path stroke="#000000" stroke-width="1.0" stroke-linejoin="round" stroke-linecap="butt" d="m91.36483 457.72702l715.21265 0l-50.422485 40.90555l-628.42773 0l0 509.81573l-36.36242 29.499207z" fill-rule="evenodd"/><path fill="#c3c7cb" d="m91.91076 457.66403l715.2126 0l0 595.874l-715.2126 0zm31.634956 31.634949l0 532.6041l651.9427 0l0 -532.6041z" fill-rule="evenodd"/><g filter="url(#shadowFilter-p.1)"><use xlink:href="#p.1" transform="matrix(1.0 0.0 0.0 1.0 -11.313708398950084 -11.313708398950084)"/></g><defs><filter id="shadowFilter-p.1" filterUnits="userSpaceOnUse"><feGaussianBlur in="SourceAlpha" stdDeviation="12.0" result="blur"/><feComponentTransfer in="blur" color-interpolation-filters="sRGB"><feFuncR type="linear" slope="0" intercept="1.0"/><feFuncG type="linear" slope="0" intercept="1.0"/><feFuncB type="linear" slope="0" intercept="1.0"/><feFuncA type="linear" slope="1.0" intercept="0"/></feComponentTransfer></filter></defs><g id="p.1"><path fill="#c3c7cb" d="m3763.335 2002.2992l-2862.4883 0l0 -1844.5984l2862.4883 0z" fill-rule="evenodd"/></g><g filter="url(#shadowFilter-p.2)"><use xlink:href="#p.2" transform="matrix(1.0 0.0 0.0 1.0 12.727922047244103 12.72792204724395)"/></g><defs><filter id="shadowFilter-p.2" filterUnits="userSpaceOnUse"><feGaussianBlur in="SourceAlpha" stdDeviation="12.0" result="blur"/><feComponentTransfer in="blur" color-interpolation-filters="sRGB"><feFuncR type="linear" slope="0" intercept="0.0"/><feFuncG type="linear" slope="0" intercept="0.0"/><feFuncB type="linear" slope="0" intercept="0.0"/><feFuncA type="linear" slope="1.0" intercept="0"/></feComponentTransfer></filter></defs><g id="p.2"><path fill="#c3c7cb" d="m900.8468 157.70079l2862.4883 0l0 1844.5984l-2862.4883 0z" fill-rule="evenodd"/></g><path fill="#ffffff" d="m3329.8706 584.5722l-1991.1495 0l34.54651 -3.80719l1953.7593 0l0 -215.3125l2.84375 -0.31341553z" fill-rule="evenodd"/><path fill="#ffffff" d="m1340.3754 366.7533l1983.433 0l-68.34912 7.317444l-1906.5221 0l0 204.11237l-8.561768 0.916626z" fill-rule="evenodd"/><path fill="#000000" fill-opacity="0.0" d="m1340.3763 366.75305l1983.433 0l0 212.34644l-1983.433 0z" fill-rule="evenodd"/><path stroke="#868a8e" stroke-width="8.0" stroke-linejoin="round" stroke-linecap="butt" d="m1340.3763 366.75305l1983.433 0l0 212.34644l-1983.433 0z" fill-rule="evenodd"/><path fill="#0000aa" d="m917.94916 178.15486l2828.2834 0l0 126.80315l-2828.2834 0z" fill-rule="evenodd"/><path stroke="#ffffff" stroke-width="1.0" stroke-linejoin="round" stroke-linecap="butt" d="m917.94916 178.15486l2828.2834 0l0 126.80315l-2828.2834 0z" fill-rule="evenodd"/><path fill="#ffffff" d="m930.5273 270.63644l0 -54.32814l19.28125 0l11.296875 38.953125l11.46875 -38.953125l19.28125 0l0 54.32814l-12.53125 0l0 -42.70314l-12.9375 42.70314l-10.5625 0l-12.859375 -42.70314l0 42.70314l-12.4375 0zm80.75958 0.96875q-3.828125 0 -7.0 -1.453125q-3.171875 -1.46875 -5.046875 -4.109375q-1.859375 -2.640625 -1.859375 -6.296875q0 -4.9687653 3.453125 -7.8906403q3.453125 -2.9375 9.46875 -4.390625q6.03125 -1.46875 13.828125 -2.046875q0 -4.296875 -1.390625 -6.078125q-1.375 -1.796875 -5.359375 -1.796875q-2.515625 0 -4.4375 1.1875q-1.90625 1.171875 -2.546875 3.609375l-10.421875 -3.75q2.046875 -4.0625 6.796875 -6.75q4.765625 -2.6875 11.671875 -2.6875q8.625 0 13.25 3.828125q4.640625 3.828125 4.640625 13.015625l0 8.859375q0 2.6093903 0.15625 5.6250153q0.171875 3.0 0.5 5.6875q0.328125 2.671875 0.734375 4.46875l-11.46875 0l-1.46875 -4.875q-2.28125 3.171875 -5.734375 4.515625q-3.453125 1.328125 -7.765625 1.328125zm4.546875 -8.453125q3.671875 0 6.109375 -1.953125q2.4375 -1.953125 2.4375 -7.4843903l0 -0.96875q-6.421875 0.5625 -10.328125 1.75q-3.90625 1.171875 -3.90625 4.3437653q0 1.953125 1.625 3.140625q1.625 1.171875 4.0625 1.171875zm40.427612 -39.51564q-3.015625 0 -5.171875 -2.15625q-2.140625 -2.15625 -2.140625 -5.171875q0 -3.09375 2.140625 -5.203125q2.15625 -2.109375 5.171875 -2.109375q3.09375 0 5.203125 2.109375q2.109375 2.109375 2.109375 5.203125q0 3.015625 -2.109375 5.171875q-2.109375 2.15625 -5.203125 2.15625zm-6.265625 47.000015l0 -30.906265l-7.640625 0l0 -9.4375l20.09375 0l0 40.343765l-12.453125 0zm20.087036 0l0 -40.343765l10.828125 0l1.53125 5.375q1.390625 -2.28125 4.59375 -4.390625q3.21875 -2.125 7.859375 -2.125q7.796875 0 10.6875 4.359375q2.890625 4.34375 2.890625 12.5625l0 24.562515l-12.359375 0l0 -21.468765q0 -2.84375 -0.328125 -5.203125q-0.328125 -2.359375 -1.59375 -3.78125q-1.25 -1.421875 -4.265625 -1.421875q-3.90625 0 -5.703125 2.8125q-1.78125 2.796875 -1.78125 8.328125l0 20.73439l-12.359375 0zm72.060425 0l0 -54.32814l19.28125 0l11.296875 38.953125l11.46875 -38.953125l19.28125 0l0 54.32814l-12.53125 0l0 -42.70314l-12.9375 42.70314l-10.5625 0l-12.859375 -42.70314l0 42.70314l-12.4375 0zm88.97827 0.96875q-6.515625 0 -11.515625 -2.546875q-5.0 -2.5625 -7.8125 -7.359375q-2.796875 -4.8125 -2.796875 -11.468765q0 -6.4375 2.96875 -11.140625q2.96875 -4.71875 7.890625 -7.328125q4.921875 -2.609375 10.765625 -2.609375q6.671875 0 11.421875 3.140625q4.765625 3.125 7.203125 8.625q2.453125 5.484375 2.046875 12.640625l-29.859375 0q0.328125 4.2343903 3.125 6.3437653q2.8125 2.109375 6.234375 2.109375q2.84375 0 4.90625 -0.84375q2.078125 -0.859375 3.21875 -2.15625l9.84375 3.578125q-3.171875 4.625 -7.9375 6.828125q-4.75 2.1875 -9.703125 2.1875zm-9.6875 -25.375015l18.390625 0q-0.09375 -3.890625 -2.703125 -5.875q-2.59375 -2.0 -6.171875 -2.0q-3.5 0 -6.21875 1.875q-2.71875 1.859375 -3.296875 6.0zm35.703613 24.406265l0 -40.343765l10.828125 0l1.53125 5.375q1.390625 -2.28125 4.59375 -4.390625q3.21875 -2.125 7.859375 -2.125q7.796875 0 10.6875 4.359375q2.890625 4.34375 2.890625 12.5625l0 24.562515l-12.359375 0l0 -21.468765q0 -2.84375 -0.328125 -5.203125q-0.328125 -2.359375 -1.59375 -3.78125q-1.25 -1.421875 -4.265625 -1.421875q-3.90625 0 -5.703125 2.8125q-1.78125 2.796875 -1.78125 8.328125l0 20.73439l-12.359375 0zm60.519653 0.96875q-5.375 0 -8.421875 -1.984375q-3.046875 -2.0 -4.3125 -5.8125q-1.265625 -3.828125 -1.265625 -9.281265l0 -24.234375l12.359375 0l0 22.53125q0 5.5312653 1.671875 7.3593903q1.671875 1.828125 4.671875 1.828125q3.671875 0 5.328125 -2.4375q1.671875 -2.4375 1.671875 -8.04689l0 -21.234375l12.4375 0l0 40.343765l-10.734375 0l-1.703125 -5.6875q-1.78125 3.0 -4.4375 4.828125q-2.640625 1.828125 -7.265625 1.828125z" fill-rule="nonzero"/><path fill="#f2bb05" d="m1375.2268 271.6052l0 -11.546875l26.4375 -9.750015l-26.4375 -9.59375l0 -11.5625l40.09375 17.171875l0 8.046875l-40.09375 17.23439z" fill-rule="nonzero"/><path fill="#ffffff" d="m1449.2435 270.63644l0 -10.078125l7.640625 0l0 -34.17189l-7.640625 0l0 -10.078125l27.96875 0l0 10.078125l-7.484375 0l0 34.17189l7.484375 0l0 10.078125l-27.96875 0zm36.670166 0l0 -40.343765l10.828125 0l1.53125 5.375q1.390625 -2.28125 4.5625 -4.390625q3.171875 -2.125 7.640625 -2.125q4.796875 0 7.6875 1.71875q2.890625 1.703125 4.265625 5.03125q2.359375 -3.328125 5.96875 -5.03125q3.625 -1.71875 7.859375 -1.71875q7.734375 0 10.65625 4.359375q2.921875 4.34375 2.921875 12.5625l0 24.562515l-12.359375 0l0 -21.468765q0 -2.84375 -0.328125 -5.203125q-0.3125 -2.359375 -1.625 -3.78125q-1.296875 -1.421875 -4.3125 -1.421875q-3.734375 0 -5.453125 2.640625q-1.703125 2.640625 -1.703125 7.921875l0 21.312515l-12.4375 0l0 -21.468765q0 -2.84375 -0.28125 -5.203125q-0.28125 -2.359375 -1.546875 -3.78125q-1.265625 -1.421875 -4.1875 -1.421875q-3.828125 0 -5.578125 2.765625q-1.75 2.765625 -1.75 8.046875l0 21.062515l-12.359375 0zm72.05676 13.09375l0 -53.437515l10.734375 0l1.625 5.53125q1.953125 -3.328125 5.484375 -5.0q3.546875 -1.671875 6.796875 -1.671875q5.203125 0 9.234375 2.609375q4.03125 2.609375 6.296875 7.375q2.28125 4.75 2.28125 11.328125q0 6.5937653 -2.28125 11.35939q-2.265625 4.75 -6.296875 7.265625q-4.03125 2.515625 -9.234375 2.515625q-3.25 0 -6.796875 -1.703125q-3.53125 -1.703125 -5.484375 -5.046875l0 18.875l-12.359375 0zm20.75 -21.71875q3.578125 0 6.21875 -2.921875q2.640625 -2.921875 2.640625 -8.625015q0 -5.53125 -2.640625 -8.609375q-2.640625 -3.09375 -6.21875 -3.09375q-3.671875 0 -6.3125 2.609375q-2.640625 2.59375 -2.640625 8.859375q0 6.1718903 2.640625 8.98439q2.640625 2.796875 6.3125 2.796875zm47.002808 9.59375q-5.609375 0 -10.5 -2.265625q-4.875 -2.28125 -7.890625 -7.03125q-3.0 -4.765625 -3.0 -12.000015q0 -7.328125 3.0 -12.0q3.015625 -4.671875 7.890625 -6.90625q4.890625 -2.25 10.5 -2.25q5.53125 0 10.40625 2.25q4.875 2.234375 7.890625 6.90625q3.015625 4.671875 3.015625 12.0q0 7.2343903 -3.015625 12.000015q-3.015625 4.75 -7.890625 7.03125q-4.875 2.265625 -10.40625 2.265625zm0 -9.59375q3.734375 0 6.21875 -2.671875q2.484375 -2.6875 2.484375 -9.031265q0 -6.421875 -2.5625 -8.984375q-2.5625 -2.5625 -6.140625 -2.5625q-3.65625 0 -6.21875 2.5625q-2.5625 2.5625 -2.5625 8.984375q0 6.3437653 2.515625 9.031265q2.515625 2.671875 6.265625 2.671875zm27.319702 8.625l0 -40.343765l9.765625 0l2.1875 7.40625q1.875 -4.875 5.125 -6.828125q3.265625 -1.953125 7.890625 -1.71875l0 12.375q-0.96875 -0.171875 -1.703125 -0.203125q-0.734375 -0.046875 -1.625 -0.046875q-4.46875 0 -6.875 2.125q-2.40625 2.109375 -2.40625 6.90625l0 20.32814l-12.359375 0zm48.55542 0q-4.953125 0 -7.890625 -0.84375q-2.921875 -0.859375 -4.1875 -3.34375q-1.265625 -2.484375 -1.265625 -7.203125l0 -19.51564l-6.65625 0l0 -9.4375l6.65625 0l0 -10.078125l12.375 0l0 10.078125l8.78125 0l0 9.4375l-8.78125 0l0 16.265625q0 2.8437653 1.09375 3.7031403q1.09375 0.859375 4.109375 0.859375l3.578125 0l0 10.078125l-7.8125 0zm92.55151 4.46875l-8.859375 -8.375q-7.0 4.875 -16.921875 4.875q-8.296875 0 -14.640625 -3.484375q-6.34375 -3.5 -9.921875 -9.84375q-3.578125 -6.3437653 -3.578125 -14.79689q0 -8.46875 3.578125 -14.8125q3.578125 -6.34375 9.921875 -9.828125q6.34375 -3.5 14.640625 -3.5q8.375 0 14.71875 3.5q6.34375 3.484375 9.953125 9.828125q3.625 6.34375 3.625 14.8125q0 4.703125 -1.171875 8.78125q-1.171875 4.0625153 -3.296875 7.3906403l8.703125 8.21875l-6.75 7.234375zm-25.78125 -14.0625q4.640625 0 8.140625 -2.53125l-11.640625 -11.04689l6.75 -7.078125l10.5 9.84375q0.484375 -1.546875 0.6875 -3.21875q0.203125 -1.671875 0.203125 -3.53125q0 -5.78125 -2.0 -9.6875q-1.984375 -3.90625 -5.328125 -5.890625q-3.328125 -2.0 -7.3125 -2.0q-3.90625 0 -7.25 2.0q-3.328125 1.984375 -5.328125 5.890625q-1.984375 3.90625 -1.984375 9.6875q0 5.765625 1.984375 9.671875q2.0 3.9062653 5.328125 5.9062653q3.34375 1.984375 7.25 1.984375zm50.59546 10.5625q-5.375 0 -8.421875 -1.984375q-3.046875 -2.0 -4.3125 -5.8125q-1.265625 -3.828125 -1.265625 -9.281265l0 -24.234375l12.359375 0l0 22.53125q0 5.5312653 1.671875 7.3593903q1.671875 1.828125 4.671875 1.828125q3.671875 0 5.328125 -2.4375q1.671875 -2.4375 1.671875 -8.04689l0 -21.234375l12.4375 0l0 40.343765l-10.734375 0l-1.703125 -5.6875q-1.78125 3.0 -4.4375 4.828125q-2.640625 1.828125 -7.265625 1.828125zm44.15393 -47.968765q-3.015625 0 -5.171875 -2.15625q-2.140625 -2.15625 -2.140625 -5.171875q0 -3.09375 2.140625 -5.203125q2.15625 -2.109375 5.171875 -2.109375q3.09375 0 5.203125 2.109375q2.109375 2.109375 2.109375 5.203125q0 3.015625 -2.109375 5.171875q-2.109375 2.15625 -5.203125 2.15625zm-6.265625 47.000015l0 -30.906265l-7.640625 0l0 -9.4375l20.09375 0l0 40.343765l-12.453125 0zm18.462036 0l0 -9.84375l20.90625 -20.656265l-19.765625 0l0 -9.84375l35.625 0l0 9.84375l-20.828125 20.656265l21.96875 0l0 9.84375l-37.90625 0zm56.934082 0q-4.96875 0 -7.890625 -0.84375q-2.921875 -0.859375 -4.1875 -3.34375q-1.265625 -2.484375 -1.265625 -7.203125l0 -42.937515l12.359375 0l0 39.6875q0 2.8437653 1.140625 3.7031403q1.140625 0.859375 4.234375 0.859375l3.5 0l0 10.078125l-7.890625 0zm32.208984 0.96875q-6.515625 0 -11.515625 -2.546875q-5.0 -2.5625 -7.8125 -7.359375q-2.796875 -4.8125 -2.796875 -11.468765q0 -6.4375 2.96875 -11.140625q2.96875 -4.71875 7.890625 -7.328125q4.921875 -2.609375 10.765625 -2.609375q6.671875 0 11.421875 3.140625q4.765625 3.125 7.203125 8.625q2.453125 5.484375 2.046875 12.640625l-29.859375 0q0.328125 4.2343903 3.125 6.3437653q2.8125 2.109375 6.234375 2.109375q2.84375 0 4.90625 -0.84375q2.078125 -0.859375 3.21875 -2.15625l9.84375 3.578125q-3.171875 4.625 -7.9375 6.828125q-4.75 2.1875 -9.703125 2.1875zm-9.6875 -25.375015l18.390625 0q-0.09375 -3.890625 -2.703125 -5.875q-2.59375 -2.0 -6.171875 -2.0q-3.5 0 -6.21875 1.875q-2.71875 1.859375 -3.296875 6.0zm52.703613 24.406265q-4.953125 0 -7.890625 -0.84375q-2.921875 -0.859375 -4.1875 -3.34375q-1.265625 -2.484375 -1.265625 -7.203125l0 -19.51564l-6.65625 0l0 -9.4375l6.65625 0l0 -10.078125l12.375 0l0 10.078125l8.78125 0l0 9.4375l-8.78125 0l0 16.265625q0 2.8437653 1.09375 3.7031403q1.09375 0.859375 4.109375 0.859375l3.578125 0l0 10.078125l-7.8125 0zm61.31714 0.96875q-8.859375 0 -14.921875 -3.609375q-6.0625 -3.625 -8.578125 -10.125l11.71875 -4.2343903q1.140625 3.9062653 4.265625 5.7812653q3.125 1.859375 7.609375 1.859375q2.359375 0 4.546875 -0.515625q2.203125 -0.53125 3.65625 -1.796875q1.46875 -1.265625 1.46875 -3.3750153q0 -2.84375 -2.765625 -4.421875q-2.765625 -1.59375 -7.15625 -2.40625l-6.59375 -1.296875q-4.390625 -0.90625 -8.171875 -2.734375q-3.78125 -1.828125 -6.0625 -4.875q-2.265625 -3.046875 -2.265625 -7.6875q0 -4.390625 2.03125 -7.5625q2.03125 -3.171875 5.40625 -5.203125q3.375 -2.03125 7.4375 -3.046875q4.078125 -1.015625 8.140625 -1.015625q4.390625 0 8.5 1.21875q4.109375 1.21875 7.359375 3.78125q3.25 2.5625 4.953125 6.78125l-11.625 4.234375q-1.0625 -2.765625 -3.78125 -4.21875q-2.71875 -1.46875 -6.546875 -1.46875q-3.75 0 -6.234375 1.34375q-2.46875 1.328125 -2.46875 3.859375q0 2.03125 1.703125 3.5q1.71875 1.453125 4.484375 2.03125l7.3125 1.453125q3.328125 0.65625 6.75 1.671875q3.421875 1.015625 6.296875 2.6875q2.890625 1.671875 4.671875 4.4375q1.796875 2.75 1.796875 6.984375q0 4.3125153 -2.0 7.6875153q-1.984375 3.375 -5.28125 5.65625q-3.28125 2.28125 -7.359375 3.453125q-4.0625 1.171875 -8.296875 1.171875zm48.888916 0q-6.515625 0 -11.515625 -2.546875q-5.0 -2.5625 -7.8125 -7.359375q-2.796875 -4.8125 -2.796875 -11.468765q0 -6.4375 2.96875 -11.140625q2.96875 -4.71875 7.890625 -7.328125q4.921875 -2.609375 10.765625 -2.609375q6.671875 0 11.421875 3.140625q4.765625 3.125 7.203125 8.625q2.453125 5.484375 2.046875 12.640625l-29.859375 0q0.328125 4.2343903 3.125 6.3437653q2.8125 2.109375 6.234375 2.109375q2.84375 0 4.90625 -0.84375q2.078125 -0.859375 3.21875 -2.15625l9.84375 3.578125q-3.171875 4.625 -7.9375 6.828125q-4.75 2.1875 -9.703125 2.1875zm-9.6875 -25.375015l18.390625 0q-0.09375 -3.890625 -2.703125 -5.875q-2.59375 -2.0 -6.171875 -2.0q-3.5 0 -6.21875 1.875q-2.71875 1.859375 -3.296875 6.0zm52.703613 24.406265q-4.953125 0 -7.890625 -0.84375q-2.921875 -0.859375 -4.1875 -3.34375q-1.265625 -2.484375 -1.265625 -7.203125l0 -19.51564l-6.65625 0l0 -9.4375l6.65625 0l0 -10.078125l12.375 0l0 10.078125l8.78125 0l0 9.4375l-8.78125 0l0 16.265625q0 2.8437653 1.09375 3.7031403q1.09375 0.859375 4.109375 0.859375l3.578125 0l0 10.078125l-7.8125 0z" fill-rule="nonzero"/><path fill="#c3c7cb" d="m3620.9492 186.39108l110.33057 0l0 110.33069l-110.33057 0z" fill-rule="evenodd"/><path stroke="#000000" stroke-width="3.0" stroke-linejoin="round" stroke-linecap="butt" d="m3620.9492 186.39108l110.33057 0l0 110.33069l-110.33057 0z" fill-rule="evenodd"/><path fill="#000000" d="m3640.7388 276.19644l28.75 -40.35939l-27.109375 -38.015625l13.140625 0l20.53125 28.75l20.53125 -28.75l13.265625 0l-27.109375 38.015625l28.75 40.35939l-13.25 0l-22.1875 -31.093765l-22.046875 31.093765l-13.265625 0z" fill-rule="nonzero"/><path fill="#c3c7cb" d="m3620.9492 186.39108l110.33057 0l0 0l-109.87158 0l0 109.871735l-0.45898438 0.45895386z" fill-rule="evenodd"/><path stroke="#ffffff" stroke-width="3.0" stroke-linejoin="round" stroke-linecap="butt" d="m3620.9492 186.39108l110.33057 0l0 0l-109.87158 0l0 109.871735l-0.45898438 0.45895386z" fill-rule="evenodd"/><path fill="#c3c7cb" d="m3497.957 186.39108l110.33081 0l0 110.33069l-110.33081 0z" fill-rule="evenodd"/><path stroke="#000000" stroke-width="3.0" stroke-linejoin="round" stroke-linecap="butt" d="m3497.957 186.39108l110.33081 0l0 110.33069l-110.33081 0z" fill-rule="evenodd"/><path fill="#000000" d="m3559.2803 276.19644l-55.5 -24.98439l0 -8.21875l55.5 -24.984375l0 10.546875l-43.171875 18.546875l43.171875 18.531265l0 10.5625zm9.148193 -24.406265l0 -9.5l34.265625 0l0 9.5l-34.265625 0z" fill-rule="nonzero"/><path fill="#c3c7cb" d="m3497.957 186.39108l110.33081 0l0 0l-109.871826 0l0 109.871735l-0.45898438 0.45895386z" fill-rule="evenodd"/><path stroke="#ffffff" stroke-width="3.0" stroke-linejoin="round" stroke-linecap="butt" d="m3497.957 186.39108l110.33081 0l0 0l-109.871826 0l0 109.871735l-0.45898438 0.45895386z" fill-rule="evenodd"/><path fill="#0000aa" d="m91.91076 338.34122l715.2126 0l0 117.79526l-715.2126 0z" fill-rule="evenodd"/><path fill="#ffffff" d="m164.6951 425.75885l0 -52.546875l40.4375 0l0 10.9375l-28.0 0l0 9.125l17.0625 0l0 10.9375l-17.0625 0l0 10.609375l28.0 0l0 10.9375l-40.4375 0zm42.167465 0l14.46875 -20.375l-13.28125 -18.640625l13.046875 0l6.765625 9.515625l6.6875 -9.515625l13.0625 0l-13.296875 18.640625l14.46875 20.375l-13.0625 0l-7.859375 -11.25l-7.9375 11.25l-13.0625 0zm45.86125 12.65625l0 -51.671875l10.375 0l1.578125 5.34375q1.890625 -3.21875 5.3125 -4.828125q3.421875 -1.609375 6.5625 -1.609375q5.03125 0 8.921875 2.515625q3.90625 2.515625 6.09375 7.125q2.203125 4.59375 2.203125 10.96875q0 6.359375 -2.203125 10.96875q-2.1875 4.59375 -6.09375 7.03125q-3.890625 2.4375 -8.921875 2.4375q-3.140625 0 -6.5625 -1.640625q-3.421875 -1.65625 -5.3125 -4.875l0 18.234375l-11.953125 0zm20.046875 -21.0q3.46875 0 6.015625 -2.828125q2.5625 -2.828125 2.5625 -8.328125q0 -5.359375 -2.5625 -8.34375q-2.546875 -2.984375 -6.015625 -2.984375q-3.53125 0 -6.09375 2.515625q-2.546875 2.515625 -2.546875 8.5625q0 5.984375 2.546875 8.703125q2.5625 2.703125 6.09375 2.703125zm45.47284 9.28125q-5.4375 0 -10.15625 -2.1875q-4.71875 -2.203125 -7.625 -6.796875q-2.90625 -4.609375 -2.90625 -11.609375q0 -7.09375 2.90625 -11.609375q2.90625 -4.515625 7.625 -6.671875q4.71875 -2.171875 10.15625 -2.171875q5.34375 0 10.0625 2.171875q4.71875 2.15625 7.625 6.671875q2.921875 4.515625 2.921875 11.609375q0 7.0 -2.921875 11.609375q-2.90625 4.59375 -7.625 6.796875q-4.71875 2.1875 -10.0625 2.1875zm0 -9.28125q3.609375 0 6.0 -2.59375q2.40625 -2.59375 2.40625 -8.71875q0 -6.21875 -2.484375 -8.6875q-2.46875 -2.484375 -5.921875 -2.484375q-3.546875 0 -6.03125 2.484375q-2.46875 2.46875 -2.46875 8.6875q0 6.125 2.4375 8.71875q2.4375 2.59375 6.0625 2.59375zm26.429382 8.34375l0 -39.015625l9.4375 0l2.125 7.15625q1.796875 -4.71875 4.9375 -6.59375q3.15625 -1.890625 7.640625 -1.65625l0 11.953125q-0.9375 -0.15625 -1.65625 -0.1875q-0.703125 -0.046875 -1.5625 -0.046875q-4.328125 0 -6.65625 2.046875q-2.3125 2.03125 -2.3125 6.6875l0 19.65625l-11.953125 0zm46.95627 0q-4.796875 0 -7.640625 -0.828125q-2.828125 -0.828125 -4.046875 -3.21875q-1.21875 -2.40625 -1.21875 -6.96875l0 -18.875l-6.453125 0l0 -9.125l6.453125 0l0 -9.75l11.953125 0l0 9.75l8.5 0l0 9.125l-8.5 0l0 15.734375q0 2.75 1.0625 3.578125q1.0625 0.828125 3.984375 0.828125l3.453125 0l0 9.75l-7.546875 0zm59.308807 0.9375q-8.578125 0 -14.4375 -3.5q-5.859375 -3.5 -8.296875 -9.78125l11.328125 -4.09375q1.09375 3.78125 4.125 5.59375q3.03125 1.796875 7.359375 1.796875q2.28125 0 4.40625 -0.5q2.125 -0.515625 3.53125 -1.734375q1.421875 -1.21875 1.421875 -3.265625q0 -2.75 -2.6875 -4.28125q-2.671875 -1.546875 -6.90625 -2.328125l-6.375 -1.265625q-4.25 -0.859375 -7.90625 -2.625q-3.65625 -1.78125 -5.859375 -4.71875q-2.203125 -2.953125 -2.203125 -7.4375q0 -4.25 1.96875 -7.3125q1.96875 -3.078125 5.21875 -5.03125q3.265625 -1.96875 7.203125 -2.953125q3.9375 -0.984375 7.875 -0.984375q4.234375 0 8.203125 1.1875q3.984375 1.171875 7.125 3.65625q3.15625 2.46875 4.796875 6.5625l-11.25 4.09375q-1.015625 -2.6875 -3.65625 -4.09375q-2.625 -1.421875 -6.328125 -1.421875q-3.609375 0 -6.015625 1.296875q-2.40625 1.296875 -2.40625 3.734375q0 1.96875 1.65625 3.390625q1.65625 1.40625 4.328125 1.96875l7.078125 1.40625q3.21875 0.640625 6.515625 1.625q3.3125 0.96875 6.109375 2.59375q2.796875 1.609375 4.515625 4.28125q1.734375 2.671875 1.734375 6.765625q0 4.171875 -1.921875 7.4375q-1.921875 3.265625 -5.109375 5.46875q-3.1875 2.1875 -7.125 3.328125q-3.9375 1.140625 -8.015625 1.140625zm47.266327 0q-6.296875 0 -11.140625 -2.46875q-4.828125 -2.484375 -7.546875 -7.125q-2.703125 -4.640625 -2.703125 -11.09375q0 -6.203125 2.859375 -10.765625q2.875 -4.5625 7.625 -7.078125q4.765625 -2.515625 10.4375 -2.515625q6.453125 0 11.046875 3.03125q4.6093445 3.015625 6.9687195 8.328125q2.359375 5.3125 1.953125 12.234375l-28.859344 0q0.3125 4.09375 3.015625 6.140625q2.71875 2.03125 6.03125 2.03125q2.75 0 4.75 -0.8125q2.015625 -0.828125 3.109375 -2.09375l9.5155945 3.46875q-3.0625 4.484375 -7.6718445 6.609375q-4.59375 2.109375 -9.390625 2.109375zm-9.359375 -24.53125l17.78125 0q-0.078125 -3.78125 -2.609375 -5.703125q-2.515625 -1.921875 -5.96875 -1.921875q-3.375 0 -6.015625 1.8125q-2.640625 1.796875 -3.1875 5.8125zm50.972504 23.59375q-4.796875 0 -7.640625 -0.828125q-2.828125 -0.828125 -4.046875 -3.21875q-1.21875 -2.40625 -1.21875 -6.96875l0 -18.875l-6.453125 0l0 -9.125l6.453125 0l0 -9.75l11.953125 0l0 9.75l8.5 0l0 9.125l-8.5 0l0 15.734375q0 2.75 1.0625 3.578125q1.0625 0.828125 3.984375 0.828125l3.453125 0l0 9.75l-7.546875 0zm29.81073 0q-4.796875 0 -7.640625 -0.828125q-2.828125 -0.828125 -4.046875 -3.21875q-1.21875 -2.40625 -1.21875 -6.96875l0 -18.875l-6.453125 0l0 -9.125l6.453125 0l0 -9.75l11.953125 0l0 9.75l8.5 0l0 9.125l-8.5 0l0 15.734375q0 2.75 1.0625 3.578125q1.0625 0.828125 3.984375 0.828125l3.453125 0l0 9.75l-7.546875 0zm24.779419 -45.46875q-2.921875 0 -5.0 -2.078125q-2.078125 -2.078125 -2.078125 -5.0q0 -2.984375 2.078125 -5.03125q2.078125 -2.046875 5.0 -2.046875q2.984375 0 5.03125 2.046875q2.046875 2.046875 2.046875 5.03125q0 2.921875 -2.046875 5.0q-2.046875 2.078125 -5.03125 2.078125zm-6.0625 45.46875l0 -29.890625l-7.390625 0l0 -9.125l19.421875 0l0 39.015625l-12.03125 0zm19.432983 0l0 -39.015625l10.453125 0l1.5 5.1875q1.328125 -2.203125 4.4375 -4.234375q3.109375 -2.046875 7.59375 -2.046875q7.546875 0 10.34375 4.203125q2.796875 4.203125 2.796875 12.15625l0 23.75l-11.953125 0l0 -20.765625q0 -2.75 -0.328125 -5.03125q-0.3125 -2.28125 -1.53125 -3.65625q-1.21875 -1.375 -4.125 -1.375q-3.78125 0 -5.515625 2.71875q-1.71875 2.703125 -1.71875 8.046875l0 20.0625l-11.953125 0zm64.10071 15.96875q-3.21875 0 -6.53125 -0.828125q-3.296875 -0.828125 -6.140625 -2.875q-2.828125 -2.046875 -4.640625 -5.578125l9.765625 -3.546875q1.09375 2.125 3.140625 2.90625q2.046875 0.796875 4.09375 0.796875q3.765625 0 6.046875 -1.78125q2.28125 -1.765625 2.28125 -5.609375l0 -7.0q-2.515625 3.140625 -5.78125 4.640625q-3.25 1.484375 -6.5625 1.484375q-4.25 0 -8.109375 -2.28125q-3.84375 -2.28125 -6.28125 -6.515625q-2.4375 -4.25 -2.4375 -10.15625q0 -6.84375 2.4375 -11.203125q2.4375 -4.375 6.203125 -6.484375q3.78125 -2.125 7.796875 -2.125q3.703125 0 7.109375 1.65625q3.421875 1.640625 5.625 4.859375l1.578125 -5.34375l10.3125 0l0 36.109375q0 9.75 -5.28125 14.3125q-5.265625 4.5625 -14.625 4.5625zm-0.078125 -26.671875q2.359375 0 4.28125 -0.890625q1.9375 -0.90625 3.109375 -3.109375q1.1875 -2.203125 1.1875 -5.984375q0 -5.734375 -2.5625 -7.9375q-2.5625 -2.203125 -6.015625 -2.203125q-3.546875 0 -6.109375 2.359375q-2.546875 2.359375 -2.546875 7.46875q0 5.1875 2.546875 7.75q2.5625 2.546875 6.109375 2.546875zm44.75464 11.640625q-6.84375 0 -11.84375 -2.515625q-4.984375 -2.515625 -7.265625 -7.390625l10.140625 -3.6875q0.859375 2.4375 3.34375 3.65625q2.484375 1.21875 5.859375 1.21875q2.90625 0 5.140625 -0.90625q2.25 -0.90625 2.25 -2.71875q0 -1.25 -1.34375 -2.109375q-1.328125 -0.875 -4.703125 -1.421875l-7.0 -1.1875q-5.671875 -0.9375 -9.21875 -3.84375q-3.53125 -2.921875 -3.53125 -7.796875q0 -4.09375 2.46875 -6.84375q2.484375 -2.75 6.578125 -4.125q4.09375 -1.375 8.890625 -1.375q5.578125 0 10.328125 2.0q4.765625 2.0 6.96875 6.640625l-10.0625 3.703125q-0.546875 -2.125 -2.59375 -2.875q-2.046875 -0.75 -4.71875 -0.75q-6.453125 0 -6.453125 3.15625q0 1.171875 1.09375 1.921875q1.109375 0.75 3.703125 1.21875l7.234375 1.34375q7.078125 1.25 10.453125 3.6875q3.390625 2.4375 3.390625 7.3125q0 4.5625 -2.59375 7.640625q-2.59375 3.0625 -6.921875 4.5625q-4.328125 1.484375 -9.59375 1.484375z" fill-rule="nonzero"/><path fill="#cfe2f3" d="m2040.4934 723.6011l580.22046 0l0 105.07086l-580.22046 0z" fill-rule="evenodd"/><path stroke="#000000" stroke-width="1.0" stroke-linejoin="round" stroke-linecap="butt" d="m2040.4934 723.6011l580.22046 0l0 105.07086l-580.22046 0z" fill-rule="evenodd"/><path fill="#c3c7cb" d="m2122.0288 323.4882l420.12598 0l0 81.66928l-420.12598 0z" fill-rule="evenodd"/><path fill="#000000" d="m2176.882 397.56097q-9.734375 0 -16.390625 -3.96875q-6.65625 -3.984375 -9.421875 -11.140625l12.859375 -4.640625q1.25 4.296875 4.6875 6.359375q3.4375 2.046875 8.359375 2.046875q2.59375 0 5.0 -0.578125q2.40625 -0.59375 4.015625 -1.96875q1.609375 -1.390625 1.609375 -3.71875q0 -3.125 -3.046875 -4.859375q-3.03125 -1.75 -7.84375 -2.640625l-7.234375 -1.421875q-4.828125 -0.984375 -8.984375 -2.984375q-4.15625 -2.015625 -6.65625 -5.359375q-2.5 -3.359375 -2.5 -8.453125q0 -4.828125 2.234375 -8.3125q2.234375 -3.484375 5.9375 -5.71875q3.703125 -2.234375 8.171875 -3.34375q4.46875 -1.125 8.9375 -1.125q4.828125 0 9.328125 1.34375q4.515625 1.34375 8.078125 4.15625q3.578125 2.8125 5.46875 7.453125l-12.78125 4.65625q-1.15625 -3.046875 -4.15625 -4.640625q-2.984375 -1.609375 -7.1875 -1.609375q-4.109375 0 -6.84375 1.46875q-2.71875 1.46875 -2.71875 4.234375q0 2.234375 1.875 3.84375q1.875 1.609375 4.921875 2.234375l8.03125 1.609375q3.671875 0.71875 7.421875 1.84375q3.75 1.109375 6.921875 2.9375q3.171875 1.828125 5.125 4.875q1.96875 3.03125 1.96875 7.671875q0 4.734375 -2.1875 8.453125q-2.1875 3.703125 -5.8125 6.203125q-3.609375 2.5 -8.078125 3.796875q-4.46875 1.296875 -9.109375 1.296875zm53.684814 0q-7.140625 0 -12.640625 -2.8125q-5.484375 -2.828125 -8.578125 -8.09375q-3.078125 -5.265625 -3.078125 -12.59375q0 -7.0625 3.265625 -12.234375q3.265625 -5.1875 8.65625 -8.046875q5.40625 -2.859375 11.84375 -2.859375q7.328125 0 12.546875 3.453125q5.234375 3.4375 7.90625 9.46875q2.6875 6.015625 2.234375 13.875l-32.78125 0q0.359375 4.65625 3.4375 6.984375q3.078125 2.3125 6.828125 2.3125q3.125 0 5.40625 -0.9375q2.28125 -0.9375 3.53125 -2.375l10.8125 3.9375q-3.484375 5.09375 -8.71875 7.515625q-5.21875 2.40625 -10.671875 2.40625zm-10.625 -27.875l20.1875 0q-0.09375 -4.296875 -2.953125 -6.484375q-2.859375 -2.1875 -6.78125 -2.1875q-3.84375 0 -6.84375 2.0625q-2.984375 2.046875 -3.609375 6.609375zm57.887695 26.796875q-5.453125 0 -8.671875 -0.9375q-3.21875 -0.9375 -4.609375 -3.65625q-1.375 -2.734375 -1.375 -7.90625l0 -21.4375l-7.328125 0l0 -10.375l7.328125 0l0 -11.078125l13.578125 0l0 11.078125l9.65625 0l0 10.375l-9.65625 0l0 17.859375q0 3.125 1.203125 4.0625q1.203125 0.9375 4.515625 0.9375l3.9375 0l0 11.078125l-8.578125 0zm59.84668 0l0 -47.25l-19.203125 0l0 -12.421875l52.4375 0l0 12.421875l-19.21875 0l0 47.25l-14.015625 0zm51.99048 -51.625q-3.3125 0 -5.6875 -2.359375q-2.359375 -2.375 -2.359375 -5.6875q0 -3.390625 2.359375 -5.703125q2.375 -2.328125 5.6875 -2.328125q3.390625 0 5.703125 2.328125q2.328125 2.3125 2.328125 5.703125q0 3.3125 -2.328125 5.6875q-2.3125 2.359375 -5.703125 2.359375zm-6.875 51.625l0 -33.9375l-8.40625 0l0 -10.375l22.0625 0l0 44.3125l-13.65625 0zm40.731934 0q-5.453125 0 -8.671875 -0.9375q-3.21875 -0.9375 -4.609375 -3.65625q-1.375 -2.734375 -1.375 -7.90625l0 -21.4375l-7.328125 0l0 -10.375l7.328125 0l0 -11.078125l13.578125 0l0 11.078125l9.65625 0l0 10.375l-9.65625 0l0 17.859375q0 3.125 1.203125 4.0625q1.203125 0.9375 4.515625 0.9375l3.9375 0l0 11.078125l-8.578125 0zm32.32544 0q-5.4375 0 -8.65625 -0.9375q-3.21875 -0.9375 -4.609375 -3.65625q-1.375 -2.734375 -1.375 -7.90625l0 -47.171875l13.578125 0l0 43.59375q0 3.125 1.25 4.0625q1.25 0.9375 4.640625 0.9375l3.84375 0l0 11.078125l-8.671875 0zm35.377197 1.078125q-7.140625 0 -12.640625 -2.8125q-5.484375 -2.828125 -8.578125 -8.09375q-3.078125 -5.265625 -3.078125 -12.59375q0 -7.0625 3.265625 -12.234375q3.265625 -5.1875 8.65625 -8.046875q5.40625 -2.859375 11.84375 -2.859375q7.328125 0 12.546875 3.453125q5.234375 3.4375 7.90625 9.46875q2.6875 6.015625 2.234375 13.875l-32.78125 0q0.359375 4.65625 3.4375 6.984375q3.078125 2.3125 6.828125 2.3125q3.125 0 5.40625 -0.9375q2.28125 -0.9375 3.53125 -2.375l10.8125 3.9375q-3.484375 5.09375 -8.71875 7.515625q-5.21875 2.40625 -10.671875 2.40625zm-10.625 -27.875l20.1875 0q-0.09375 -4.296875 -2.953125 -6.484375q-2.859375 -2.1875 -6.78125 -2.1875q-3.84375 0 -6.84375 2.0625q-2.984375 2.046875 -3.609375 6.609375z" fill-rule="nonzero"/><path fill="#ffffff" d="m1359.147 423.68765l1942.4253 0l0 134.99216l-1942.4253 0z" fill-rule="evenodd"/><path stroke="#000000" stroke-width="4.0" stroke-linejoin="round" stroke-linecap="butt" d="m1359.147 423.68765l1942.4253 0l0 134.99216l-1942.4253 0z" fill-rule="evenodd"/><path fill="#ffffff" d="m3305.0369 561.0105l-1942.2048 0l64.034546 -4.527527l1872.3698 0l0 -132.3852l5.800537 -0.41012573z" fill-rule="evenodd"/><path fill="#ffffff" d="m3330.6982 1365.7585l-1991.5276 0l34.55298 -12.398071l1947.7136 0l0 -698.8617l9.260986 -3.322937z" fill-rule="evenodd"/><path fill="#000000" fill-opacity="0.0" d="m1340.8214 651.9074l1983.433 0l0 705.4173l-1983.433 0z" fill-rule="evenodd"/><path stroke="#868a8e" stroke-width="8.0" stroke-linejoin="round" stroke-linecap="butt" d="m1340.8214 651.9074l1983.433 0l0 705.4173l-1983.433 0z" fill-rule="evenodd"/><path fill="#ffffff" d="m1340.8204 651.90826l1983.433 0l-9.5998535 3.4141846l-1969.2338 0l0 700.3674l-4.599365 1.6357422z" fill-rule="evenodd"/><path fill="#c3c7cb" d="m1726.596 604.895l1210.9922 0l0 81.66931l-1210.9922 0z" fill-rule="evenodd"/><path fill="#000000" d="m1770.1162 679.46344q-9.890625 0 -16.640625 -4.03125q-6.75 -4.046875 -9.5625 -11.296875l13.0625 -4.71875q1.265625 4.359375 4.75 6.453125q3.5 2.078125 8.484375 2.078125q2.625 0 5.0625 -0.59375q2.453125 -0.59375 4.078125 -2.0q1.640625 -1.40625 1.640625 -3.75q0 -3.171875 -3.078125 -4.9375q-3.078125 -1.78125 -7.984375 -2.6875l-7.34375 -1.453125q-4.890625 -0.984375 -9.109375 -3.015625q-4.21875 -2.046875 -6.765625 -5.453125q-2.53125 -3.40625 -2.53125 -8.5625q0 -4.90625 2.265625 -8.4375q2.28125 -3.53125 6.03125 -5.796875q3.765625 -2.265625 8.296875 -3.390625q4.53125 -1.140625 9.0625 -1.140625q4.90625 0 9.484375 1.359375q4.578125 1.359375 8.203125 4.21875q3.625 2.84375 5.53125 7.5625l-12.96875 4.71875q-1.171875 -3.09375 -4.21875 -4.71875q-3.03125 -1.640625 -7.296875 -1.640625q-4.171875 0 -6.9375 1.5q-2.765625 1.5 -2.765625 4.3125q0 2.265625 1.90625 3.90625q1.90625 1.625 4.984375 2.25l8.171875 1.640625q3.703125 0.71875 7.515625 1.859375q3.8125 1.125 7.03125 2.984375q3.21875 1.859375 5.203125 4.953125q2.0 3.078125 2.0 7.78125q0 4.8125 -2.21875 8.578125q-2.21875 3.75 -5.890625 6.296875q-3.671875 2.53125 -8.203125 3.859375q-4.53125 1.3125 -9.25 1.3125zm54.475586 0q-7.25 0 -12.828125 -2.859375q-5.5625 -2.859375 -8.703125 -8.203125q-3.125 -5.359375 -3.125 -12.78125q0 -7.171875 3.3125 -12.421875q3.3125 -5.265625 8.796875 -8.15625q5.484375 -2.90625 12.015625 -2.90625q7.421875 0 12.71875 3.5q5.3125 3.484375 8.03125 9.609375q2.71875 6.109375 2.265625 14.09375l-33.265625 0q0.359375 4.703125 3.484375 7.0625q3.140625 2.359375 6.9375 2.359375q3.171875 0 5.484375 -0.953125q2.3125 -0.953125 3.578125 -2.40625l10.96875 4.0q-3.53125 5.15625 -8.84375 7.609375q-5.296875 2.453125 -10.828125 2.453125zm-10.78125 -28.296875l20.484375 0q-0.09375 -4.34375 -3.0 -6.5625q-2.890625 -2.21875 -6.875 -2.21875q-3.90625 0 -6.9375 2.078125q-3.03125 2.078125 -3.671875 6.703125zm58.749023 27.203125q-5.53125 0 -8.796875 -0.953125q-3.265625 -0.953125 -4.671875 -3.71875q-1.40625 -2.765625 -1.40625 -8.015625l0 -21.765625l-7.4375 0l0 -10.515625l7.4375 0l0 -11.234375l13.78125 0l0 11.234375l9.796875 0l0 10.515625l-9.796875 0l0 18.140625q0 3.171875 1.21875 4.125q1.234375 0.953125 4.578125 0.953125l4.0 0l0 11.234375l-8.703125 0zm43.868774 0l0 -60.5625l23.296875 0q7.890625 0 14.09375 1.640625q6.21875 1.625 9.796875 5.890625q3.578125 4.265625 3.578125 12.234375q0 7.890625 -3.578125 12.203125q-3.578125 4.296875 -9.796875 5.9375q-6.203125 1.625 -14.09375 1.625l-8.96875 0l0 21.03125l-14.328125 0zm14.328125 -32.90625l9.421875 0q3.359375 0 6.03125 -0.625q2.671875 -0.640625 4.25 -2.359375q1.59375 -1.734375 1.59375 -4.90625q0 -3.171875 -1.59375 -4.84375q-1.578125 -1.6875 -4.25 -2.265625q-2.671875 -0.59375 -6.03125 -0.59375l-9.421875 0l0 15.59375zm42.969482 32.90625l0 -44.96875l10.875122 0l2.453125 8.25q2.078125 -5.4375 5.703125 -7.609375q3.640625 -2.171875 8.796875 -1.90625l0 13.78125q-1.078125 -0.1875 -1.90625 -0.234375q-0.8125 -0.046875 -1.8125 -0.046875q-4.984375 0 -7.65625 2.359375q-2.671875 2.359375 -2.671875 7.703125l0 22.671875l-13.781372 0zm56.02112 1.09375q-7.25 0 -12.828125 -2.859375q-5.5625 -2.859375 -8.703125 -8.203125q-3.125 -5.359375 -3.125 -12.78125q0 -7.171875 3.3125 -12.421875q3.3125 -5.265625 8.796875 -8.15625q5.484375 -2.90625 12.015625 -2.90625q7.421875 0 12.71875 3.5q5.3125 3.484375 8.03125 9.609375q2.71875 6.109375 2.265625 14.09375l-33.265625 0q0.359375 4.703125 3.484375 7.0625q3.140625 2.359375 6.9375 2.359375q3.171875 0 5.484375 -0.953125q2.3125 -0.953125 3.578125 -2.40625l10.96875 4.0q-3.53125 5.15625 -8.84375 7.609375q-5.296875 2.453125 -10.828125 2.453125zm-10.78125 -28.296875l20.484375 0q-0.09375 -4.34375 -3.0 -6.5625q-2.890625 -2.21875 -6.875 -2.21875q-3.90625 0 -6.9375 2.078125q-3.03125 2.078125 -3.671875 6.703125zm50.22339 27.203125l-16.046875 -44.96875l14.234375 0l9.609375 30.640625l9.609375 -30.640625l14.234375 0l-16.140625 44.96875l-15.5 0zm50.851562 -52.40625q-3.34375 0 -5.75 -2.390625q-2.40625 -2.40625 -2.40625 -5.765625q0 -3.4375 2.40625 -5.796875q2.40625 -2.359375 5.75 -2.359375q3.453125 0 5.8125 2.359375q2.359375 2.359375 2.359375 5.796875q0 3.359375 -2.359375 5.765625q-2.359375 2.390625 -5.8125 2.390625zm-6.96875 52.40625l0 -34.453125l-8.53125 0l0 -10.515625l22.390625 0l0 44.96875l-13.859375 0zm44.68164 1.09375q-7.25 0 -12.828125 -2.859375q-5.5625 -2.859375 -8.703125 -8.203125q-3.125 -5.359375 -3.125 -12.78125q0 -7.171875 3.3125 -12.421875q3.3125 -5.265625 8.796875 -8.15625q5.484375 -2.90625 12.015625 -2.90625q7.421875 0 12.71875 3.5q5.3125 3.484375 8.03125 9.609375q2.71875 6.109375 2.265625 14.09375l-33.265625 0q0.359375 4.703125 3.484375 7.0625q3.140625 2.359375 6.9375 2.359375q3.171875 0 5.484375 -0.953125q2.3125 -0.953125 3.578125 -2.40625l10.96875 4.0q-3.53125 5.15625 -8.84375 7.609375q-5.296875 2.453125 -10.828125 2.453125zm-10.78125 -28.296875l20.484375 0q-0.09375 -4.34375 -3.0 -6.5625q-2.890625 -2.21875 -6.875 -2.21875q-3.90625 0 -6.9375 2.078125q-3.03125 2.078125 -3.671875 6.703125zm46.499023 27.203125l-11.234375 -44.96875l13.59375 0l6.796875 30.46875l5.8125 -30.46875l13.046875 0l5.8125 30.46875l6.796875 -30.46875l13.6875 0l-11.25 44.96875l-15.046875 0l-6.515625 -32.28125l-6.4375 32.28125l-15.0625 0zm65.3728 -28.640625q-3.625 0 -6.265625 -2.53125q-2.625 -2.546875 -2.625 -6.171875q0 -3.71875 2.625 -6.296875q2.640625 -2.59375 6.265625 -2.59375q3.625 0 6.203125 2.59375q2.59375 2.578125 2.59375 6.296875q0 3.625 -2.59375 6.171875q-2.578125 2.53125 -6.203125 2.53125zm0 29.734375q-3.625 0 -6.265625 -2.625q-2.625 -2.640625 -2.625 -6.265625q0 -3.71875 2.625 -6.25q2.640625 -2.546875 6.265625 -2.546875q3.625 0 6.203125 2.546875q2.59375 2.53125 2.59375 6.25q0 3.625 -2.59375 6.265625q-2.578125 2.625 -6.203125 2.625z" fill-rule="nonzero"/><path fill="#010000" fill-opacity="0.0" d="m2298.821 592.2462l318.2942 0l0 112.41376l-318.2942 0l0 -112.41376z" fill-rule="nonzero"/><path fill="#000000" d="m2332.2742 679.46344q-9.421875 0 -16.234375 -3.8125q-6.796875 -3.8125 -10.421875 -10.875q-3.625 -7.078125 -3.625 -16.6875q0 -9.609375 3.765625 -16.625q3.765625 -7.03125 10.65625 -10.875q6.890625 -3.859375 16.21875 -3.859375q8.609375 0 15.0 3.8125q6.390625 3.796875 9.84375 10.234375l-12.6875 4.625q-2.0 -3.71875 -5.453125 -5.296875q-3.4375 -1.59375 -7.15625 -1.59375q-4.171875 0 -7.625 2.3125q-3.4375 2.3125 -5.4375 6.71875q-1.984375 4.390625 -1.984375 10.546875q0 9.515625 4.390625 14.546875q4.40625 5.03125 10.84375 5.03125q3.4375 0 7.109375 -1.4375q3.671875 -1.453125 5.765625 -5.359375l12.59375 4.625q-3.625 6.4375 -10.296875 10.203125q-6.65625 3.765625 -15.265625 3.765625zm48.402344 -1.09375l0 -47.953125l-19.484375 0l0 -12.609375l53.21875 0l0 12.609375l-19.5 0l0 47.953125l-14.234375 0zm39.07544 0l0 -60.5625l23.296875 0q7.890625 0 14.09375 1.546875q6.21875 1.546875 9.796875 5.625q3.578125 4.078125 3.578125 11.59375q0 3.453125 -1.265625 6.859375q-1.265625 3.390625 -4.390625 6.203125q-3.125 2.8125 -8.9375 4.34375l17.59375 24.390625l-16.59375 0l-16.40625 -22.84375l-6.4375 0l0 22.84375l-14.328125 0zm14.328125 -34.8125l9.421875 0q5.078125 0 8.46875 -1.3125q3.40625 -1.3125 3.40625 -5.484375q0 -4.265625 -3.40625 -5.578125q-3.390625 -1.3125 -8.46875 -1.3125l-9.421875 0l0 13.6875zm44.96118 34.8125l0 -60.5625l14.328125 0l0 47.96875l29.015625 0l0 12.59375l-43.34375 0zm46.869873 -16.6875l0 -11.6875l29.5625 0l0 11.6875l-29.5625 0zm53.124268 16.6875l-20.484375 -60.5625l14.875 0l13.859375 44.515625l13.96875 -44.515625l14.953125 0l-20.578125 60.5625l-16.59375 0z" fill-rule="nonzero"/><path fill="#000000" d="m2650.1096 678.3697l0 -60.5625l46.609375 0l0 12.609375l-32.28125 0l0 10.515625l19.671875 0l0 12.59375l-19.671875 0l0 12.25l32.28125 0l0 12.59375l-46.609375 0zm48.59619 0l16.6875 -23.484375l-15.328125 -21.484375l15.046875 0l7.796875 10.96875l7.703125 -10.96875l15.046875 0l-15.3125 21.484375l16.671875 23.484375l-15.046875 0l-9.0625 -12.96875l-9.15625 12.96875l-15.046875 0zm52.851074 14.59375l0 -59.5625l11.96875 0l1.8125 6.171875q2.171875 -3.71875 6.109375 -5.578125q3.953125 -1.859375 7.578125 -1.859375q5.796875 0 10.28125 2.90625q4.5 2.890625 7.03125 8.203125q2.546875 5.296875 2.546875 12.640625q0 7.34375 -2.546875 12.65625q-2.53125 5.296875 -7.03125 8.109375q-4.484375 2.8125 -10.28125 2.8125q-3.625 0 -7.578125 -1.90625q-3.9375 -1.90625 -6.109375 -5.625l0 21.03125l-13.78125 0zm23.125 -24.203125q3.984375 0 6.921875 -3.265625q2.953125 -3.265625 2.953125 -9.609375q0 -6.15625 -2.953125 -9.59375q-2.9375 -3.453125 -6.921875 -3.453125q-4.078125 0 -7.03125 2.90625q-2.953125 2.890625 -2.953125 9.875q0 6.890625 2.953125 10.015625q2.953125 3.125 7.03125 3.125zm52.390625 10.703125q-6.25 0 -11.6875 -2.53125q-5.4375 -2.546875 -8.796875 -7.84375q-3.359375 -5.3125 -3.359375 -13.390625q0 -8.15625 3.359375 -13.359375q3.359375 -5.21875 8.796875 -7.703125q5.4375 -2.5 11.6875 -2.5q6.171875 0 11.609375 2.5q5.4375 2.484375 8.78125 7.703125q3.359375 5.203125 3.359375 13.359375q0 8.078125 -3.359375 13.390625q-3.34375 5.296875 -8.78125 7.84375q-5.4375 2.53125 -11.609375 2.53125zm0 -10.703125q4.171875 0 6.9375 -2.984375q2.765625 -3.0 2.765625 -10.078125q0 -7.15625 -2.859375 -10.0q-2.859375 -2.859375 -6.84375 -2.859375q-4.078125 0 -6.9375 2.859375q-2.84375 2.84375 -2.84375 10.0q0 7.078125 2.796875 10.078125q2.8125 2.984375 6.984375 2.984375zm30.46167 9.609375l0 -44.96875l10.875 0l2.453125 8.25q2.078125 -5.4375 5.703125 -7.609375q3.640625 -2.171875 8.796875 -1.90625l0 13.78125q-1.078125 -0.1875 -1.90625 -0.234375q-0.8125 -0.046875 -1.8125 -0.046875q-4.984375 0 -7.65625 2.359375q-2.671875 2.359375 -2.671875 7.703125l0 22.671875l-13.78125 0zm54.12793 0q-5.53125 0 -8.796875 -0.953125q-3.265625 -0.953125 -4.671875 -3.71875q-1.40625 -2.765625 -1.40625 -8.015625l0 -21.765625l-7.4375 0l0 -10.515625l7.4375 0l0 -11.234375l13.78125 0l0 11.234375l9.796875 0l0 10.515625l-9.796875 0l0 18.140625q0 3.171875 1.21875 4.125q1.234375 0.953125 4.578125 0.953125l4.0 0l0 11.234375l-8.703125 0z" fill-rule="nonzero"/><path fill="#000000" d="m2298.821 684.263l318.2942 0l0 8.159973l-318.2942 0l0 -8.159973z" fill-rule="nonzero"/><path fill="#c3c7cb" d="m2023.6351 699.54596l702.2677 0l0 181.82672l-702.2677 0z" fill-rule="evenodd"/><path fill="#ffffff" d="m1357.6588 706.88715l1945.8898 0l0 627.6535l-1945.8898 0z" fill-rule="evenodd"/><path stroke="#000000" stroke-width="4.0" stroke-linejoin="round" stroke-linecap="butt" d="m1357.6588 706.88715l1945.8898 0l0 627.6535l-1945.8898 0z" fill-rule="evenodd"/><path fill="#ffffff" d="m1359.6351 1343.6824l0 -16.26233l1931.6788 0l0 -622.72974l21.738525 0l0 638.99207z" fill-rule="evenodd"/></g></svg>