<svg version="1.1" viewBox="0.0 0.0 3840.0 2160.0" fill="none" stroke="none" stroke-linecap="square" stroke-miterlimit="10" xmlns:xlink="http://www.w3.org/1999/xlink" xmlns="http://www.w3.org/2000/svg"><clipPath id="p.0"><path d="m0 0l3840.0 0l0 2160.0l-3840.0 0l0 -2160.0z" clip-rule="nonzero"/></clipPath><g clip-path="url(#p.0)"><path fill="#386e6e" d="m0 0l3840.0 0l0 2160.0l-3840.0 0z" fill-rule="evenodd"/><g filter="url(#shadowFilter-p.1)"><use xlink:href="#p.1" transform="matrix(1.0 0.0 0.0 1.0 -11.31370839895016 -11.313708398950084)"/></g><defs><filter id="shadowFilter-p.1" filterUnits="userSpaceOnUse"><feGaussianBlur in="SourceAlpha" stdDeviation="12.0" result="blur"/><feComponentTransfer in="blur" color-interpolation-filters="sRGB"><feFuncR type="linear" slope="0" intercept="1.0"/><feFuncG type="linear" slope="0" intercept="1.0"/><feFuncB type="linear" slope="0" intercept="1.0"/><feFuncA type="linear" slope="1.0" intercept="0"/></feComponentTransfer></filter></defs><g id="p.1"><path fill="#c3c7cb" d="m3351.2441 2002.2992l-2862.4883 0l0 -1844.5984l2862.4883 0z" fill-rule="evenodd"/></g><g filter="url(#shadowFilter-p.2)"><use xlink:href="#p.2" transform="matrix(1.0 0.0 0.0 1.0 12.727922047244103 12.72792204724395)"/></g><defs><filter id="shadowFilter-p.2" filterUnits="userSpaceOnUse"><feGaussianBlur in="SourceAlpha" stdDeviation="12.0" result="blur"/><feComponentTransfer in="blur" color-interpolation-filters="sRGB"><feFuncR type="linear" slope="0" intercept="0.0"/><feFuncG type="linear" slope="0" intercept="0.0"/><feFuncB type="linear" slope="0" intercept="0.0"/><feFuncA type="linear" slope="1.0" intercept="0"/></feComponentTransfer></filter></defs><g id="p.2"><path fill="#c3c7cb" d="m488.75592 157.70079l2862.4883 0l0 1844.5984l-2862.4883 0z" fill-rule="evenodd"/></g><path fill="#0000aa" d="m505.85828 178.15486l2828.2837 0l0 126.80315l-2828.2837 0z" fill-rule="evenodd"/><path stroke="#ffffff" stroke-width="1.0" stroke-linejoin="round" stroke-linecap="butt" d="m505.85828 178.15486l2828.2837 0l0 126.80315l-2828.2837 0z" fill-rule="evenodd"/><path fill="#ffffff" d="m518.7333 273.03644l0 -58.781265l20.859375 0l12.21875 42.156265l12.421875 -42.156265l20.84375 0l0 58.781265l-13.546875 0l0 -46.20314l-13.984375 46.20314l-11.453125 0l-13.890625 -46.20314l0 46.20314l-13.46875 0zm87.37732 1.0625q-4.125 0 -7.5625 -1.578125q-3.4375 -1.59375 -5.46875 -4.453125q-2.015625 -2.859375 -2.015625 -6.828125q0 -5.3593903 3.734375 -8.531265q3.75 -3.171875 10.25 -4.75q6.515625 -1.578125 14.96875 -2.203125q0 -4.65625 -1.5 -6.59375q-1.484375 -1.9375 -5.796875 -1.9375q-2.734375 0 -4.8125 1.28125q-2.0625 1.265625 -2.765625 3.90625l-11.265625 -4.046875q2.203125 -4.40625 7.34375 -7.296875q5.15625 -2.90625 12.640625 -2.90625q9.328125 0 14.34375 4.140625q5.015625 4.125 5.015625 14.078125l0 9.578125q0 2.8281403 0.171875 6.0781403q0.171875 3.25 0.515625 6.15625q0.359375 2.90625 0.8125 4.84375l-12.40625 0l-1.59375 -5.28125q-2.46875 3.4375 -6.203125 4.890625q-3.734375 1.453125 -8.40625 1.453125zm4.9375 -9.15625q3.953125 0 6.59375 -2.109375q2.640625 -2.109375 2.640625 -8.093765l0 -1.0625q-6.953125 0.609375 -11.1875 1.890625q-4.21875 1.2812653 -4.21875 4.7031403q0 2.125 1.765625 3.40625q1.765625 1.265625 4.40625 1.265625zm52.3515 25.953125q-3.609375 0 -7.3125 -0.921875q-3.6875 -0.921875 -6.859375 -3.21875q-3.15625 -2.28125 -5.1875 -6.234375l10.921875 -3.96875q1.21875 2.375 3.5 3.25q2.296875 0.890625 4.59375 0.890625q4.21875 0 6.765625 -1.984375q2.5625 -1.96875 2.5625 -6.28125l0 -7.84375q-2.828125 3.53125 -6.484375 5.203125q-3.640625 1.671875 -7.34375 1.671875q-4.75 0 -9.0625 -2.546875q-4.3125 -2.5625 -7.046875 -7.3125q-2.71875 -4.75 -2.71875 -11.35939q0 -7.65625 2.71875 -12.53125q2.734375 -4.890625 6.953125 -7.265625q4.234375 -2.375 8.71875 -2.375q4.140625 0 7.96875 1.859375q3.828125 1.84375 6.296875 5.453125l1.75 -5.984375l11.53125 0l0 40.39064q0 10.90625 -5.90625 16.0q-5.890625 5.109375 -16.359375 5.109375zm-0.078125 -29.828125q2.640625 0 4.78125 -1.0q2.15625 -1.015625 3.46875 -3.484375q1.328125 -2.4687653 1.328125 -6.6875153q0 -6.421875 -2.859375 -8.890625q-2.859375 -2.46875 -6.71875 -2.46875q-3.96875 0 -6.828125 2.640625q-2.859375 2.640625 -2.859375 8.359375q0 5.8125 2.859375 8.67189q2.859375 2.859375 6.828125 2.859375zm52.87982 13.03125q-7.03125 0 -12.453125 -2.765625q-5.40625 -2.78125 -8.453125 -7.96875q-3.03125 -5.203125 -3.03125 -12.42189q0 -6.953125 3.203125 -12.046875q3.21875 -5.109375 8.546875 -7.921875q5.328125 -2.8125 11.65625 -2.8125q7.21875 0 12.359375 3.390625q5.15625 3.375 7.796875 9.328125q2.640625 5.9375 2.203125 13.671875l-32.296875 0q0.34375 4.5781403 3.375 6.8750153q3.046875 2.28125 6.75 2.28125q3.078125 0 5.3125 -0.921875q2.25 -0.921875 3.484375 -2.328125l10.640625 3.859375q-3.421875 5.015625 -8.578125 7.40625q-5.140625 2.375 -10.515625 2.375zm-10.46875 -27.468765l19.890625 0q-0.09375 -4.21875 -2.90625 -6.375q-2.8125 -2.15625 -6.6875 -2.15625q-3.78125 0 -6.734375 2.03125q-2.953125 2.015625 -3.5625 6.5zm53.057983 26.406265q-5.359375 0 -8.53125 -0.921875q-3.171875 -0.921875 -4.53125 -3.609375q-1.359375 -2.6875 -1.359375 -7.78125l0 -46.468765l13.375 0l0 42.937515q0 3.078125 1.21875 4.015625q1.234375 0.921875 4.578125 0.921875l3.796875 0l0 10.90625l-8.546875 0zm27.632019 0q-5.359375 0 -8.53125 -0.921875q-3.171875 -0.921875 -4.53125 -3.609375q-1.359375 -2.6875 -1.359375 -7.78125l0 -46.468765l13.375 0l0 42.937515q0 3.078125 1.21875 4.015625q1.234375 0.921875 4.578125 0.921875l3.796875 0l0 10.90625l-8.546875 0zm27.89618 1.0625q-4.125 0 -7.5625 -1.578125q-3.4375 -1.59375 -5.46875 -4.453125q-2.015625 -2.859375 -2.015625 -6.828125q0 -5.3593903 3.734375 -8.531265q3.75 -3.171875 10.25 -4.75q6.515625 -1.578125 14.96875 -2.203125q0 -4.65625 -1.5 -6.59375q-1.484375 -1.9375 -5.796875 -1.9375q-2.734375 0 -4.8125 1.28125q-2.0625 1.265625 -2.765625 3.90625l-11.265625 -4.046875q2.203125 -4.40625 7.34375 -7.296875q5.15625 -2.90625 12.640625 -2.90625q9.328125 0 14.34375 4.140625q5.015625 4.125 5.015625 14.078125l0 9.578125q0 2.8281403 0.171875 6.0781403q0.171875 3.25 0.515625 6.15625q0.359375 2.90625 0.8125 4.84375l-12.40625 0l-1.59375 -5.28125q-2.46875 3.4375 -6.203125 4.890625q-3.734375 1.453125 -8.40625 1.453125zm4.9375 -9.15625q3.953125 0 6.59375 -2.109375q2.640625 -2.109375 2.640625 -8.093765l0 -1.0625q-6.953125 0.609375 -11.1875 1.890625q-4.21875 1.2812653 -4.21875 4.7031403q0 2.125 1.765625 3.40625q1.765625 1.265625 4.40625 1.265625zm30.976501 8.09375l0 -43.64064l11.703125 0l1.671875 5.796875q1.484375 -2.453125 4.953125 -4.734375q3.484375 -2.296875 8.5 -2.296875q8.453125 0 11.578125 4.703125q3.125 4.703125 3.125 13.59375l0 26.57814l-13.375 0l0 -23.23439q0 -3.078125 -0.359375 -5.625q-0.34375 -2.5625 -1.71875 -4.09375q-1.359375 -1.546875 -4.609375 -1.546875q-4.234375 0 -6.171875 3.046875q-1.921875 3.03125 -1.921875 9.015625l0 22.437515l-13.375 0zm107.62109 1.0625q-8.984375 0 -15.84375 -3.78125q-6.859375 -3.796875 -10.734375 -10.65625q-3.875 -6.8593903 -3.875 -16.01564q0 -9.15625 3.875 -16.015625q3.875 -6.859375 10.734375 -10.640625q6.859375 -3.796875 15.84375 -3.796875q9.0625 0 15.921875 3.796875q6.859375 3.78125 10.78125 10.640625q3.921875 6.859375 3.921875 16.015625q0 9.15625 -3.921875 16.01564q-3.921875 6.859375 -10.78125 10.65625q-6.859375 3.78125 -15.921875 3.78125zm0 -11.453125q4.3125 0 7.921875 -2.15625q3.609375 -2.15625 5.765625 -6.3750153q2.15625 -4.21875 2.15625 -10.46875q0 -6.25 -2.15625 -10.46875q-2.15625 -4.234375 -5.765625 -6.390625q-3.609375 -2.15625 -7.921875 -2.15625q-4.234375 0 -7.84375 2.15625q-3.59375 2.15625 -5.75 6.390625q-2.15625 4.21875 -2.15625 10.46875q0 6.25 2.15625 10.46875q2.15625 4.2187653 5.75 6.3750153q3.609375 2.15625 7.84375 2.15625zm41.357056 10.390625l0 -33.437515l-7.21875 0l0 -10.203125l7.21875 0l0 -7.140625q0 -5.1875 1.75 -8.09375q1.765625 -2.90625 5.453125 -4.046875q3.703125 -1.140625 9.609375 -1.140625l6.0625 0l0 10.5625l-3.6875 0q-3.53125 0 -4.671875 0.703125q-1.140625 0.703125 -1.140625 3.25l0 5.90625l9.5 0l0 10.203125l-9.5 0l0 33.437515l-13.375 0zm32.29596 0l0 -33.437515l-7.21875 0l0 -10.203125l7.21875 0l0 -7.140625q0 -5.1875 1.75 -8.09375q1.765625 -2.90625 5.453125 -4.046875q3.703125 -1.140625 9.609375 -1.140625l6.0625 0l0 10.5625l-3.6875 0q-3.53125 0 -4.671875 0.703125q-1.140625 0.703125 -1.140625 3.25l0 5.90625l9.5 0l0 10.203125l-9.5 0l0 33.437515l-13.375 0zm43.467896 0q-5.359375 0 -8.53125 -0.921875q-3.171875 -0.921875 -4.53125 -3.609375q-1.359375 -2.6875 -1.359375 -7.78125l0 -46.468765l13.375 0l0 42.937515q0 3.078125 1.21875 4.015625q1.234375 0.921875 4.578125 0.921875l3.796875 0l0 10.90625l-8.546875 0zm23.584229 -50.85939q-3.25 0 -5.59375 -2.328125q-2.328125 -2.34375 -2.328125 -5.59375q0 -3.34375 2.328125 -5.625q2.34375 -2.296875 5.59375 -2.296875q3.34375 0 5.625 2.296875q2.296875 2.28125 2.296875 5.625q0 3.25 -2.296875 5.59375q-2.28125 2.328125 -5.625 2.328125zm-6.765625 50.85939l0 -33.437515l-8.28125 0l0 -10.203125l21.734375 0l0 43.64064l-13.453125 0zm21.735596 0l0 -43.64064l11.703125 0l1.671875 5.796875q1.484375 -2.453125 4.953125 -4.734375q3.484375 -2.296875 8.5 -2.296875q8.453125 0 11.578125 4.703125q3.125 4.703125 3.125 13.59375l0 26.57814l-13.375 0l0 -23.23439q0 -3.078125 -0.359375 -5.625q-0.34375 -2.5625 -1.71875 -4.09375q-1.359375 -1.546875 -4.609375 -1.546875q-4.234375 0 -6.171875 3.046875q-1.921875 3.03125 -1.921875 9.015625l0 22.437515l-13.375 0zm71.272705 1.0625q-7.03125 0 -12.453125 -2.765625q-5.40625 -2.78125 -8.453125 -7.96875q-3.03125 -5.203125 -3.03125 -12.42189q0 -6.953125 3.203125 -12.046875q3.21875 -5.109375 8.546875 -7.921875q5.328125 -2.8125 11.65625 -2.8125q7.21875 0 12.359375 3.390625q5.15625 3.375 7.796875 9.328125q2.640625 5.9375 2.203125 13.671875l-32.296875 0q0.34375 4.5781403 3.375 6.8750153q3.046875 2.28125 6.75 2.28125q3.078125 0 5.3125 -0.921875q2.25 -0.921875 3.484375 -2.328125l10.640625 3.859375q-3.421875 5.015625 -8.578125 7.40625q-5.140625 2.375 -10.515625 2.375zm-10.46875 -27.468765l19.890625 0q-0.09375 -4.21875 -2.90625 -6.375q-2.8125 -2.15625 -6.6875 -2.15625q-3.78125 0 -6.734375 2.03125q-2.953125 2.015625 -3.5625 6.5zm90.01489 27.468765q-9.578125 0 -16.140625 -3.921875q-6.5625 -3.921875 -9.28125 -10.953125l12.671875 -4.5781403q1.234375 4.2187653 4.609375 6.2500153q3.390625 2.015625 8.234375 2.015625q2.546875 0 4.921875 -0.5625q2.390625 -0.578125 3.96875 -1.9375q1.578125 -1.359375 1.578125 -3.65625q0 -3.0781403 -3.0 -4.7968903q-2.984375 -1.71875 -7.734375 -2.59375l-7.125 -1.40625q-4.75 -0.96875 -8.84375 -2.953125q-4.09375 -1.984375 -6.5625 -5.28125q-2.453125 -3.296875 -2.453125 -8.3125q0 -4.75 2.1875 -8.171875q2.203125 -3.4375 5.859375 -5.640625q3.65625 -2.203125 8.046875 -3.296875q4.40625 -1.109375 8.8125 -1.109375q4.75 0 9.1875 1.328125q4.453125 1.3125 7.96875 4.09375q3.515625 2.765625 5.359375 7.34375l-12.578125 4.578125q-1.140625 -3.0 -4.09375 -4.578125q-2.953125 -1.578125 -7.078125 -1.578125q-4.046875 0 -6.734375 1.453125q-2.6875 1.4375 -2.6875 4.171875q0 2.203125 1.84375 3.796875q1.859375 1.578125 4.84375 2.1875l7.921875 1.578125q3.609375 0.703125 7.296875 1.8125q3.703125 1.09375 6.828125 2.90625q3.125 1.796875 5.0625 4.796875q1.9375 2.984375 1.9375 7.5625q0 4.6562653 -2.15625 8.312515q-2.15625 3.65625 -5.71875 6.125q-3.5625 2.453125 -7.96875 3.734375q-4.40625 1.28125 -8.984375 1.28125zm49.64392 -1.0625q-5.375 0 -8.546875 -0.921875q-3.15625 -0.921875 -4.53125 -3.609375q-1.359375 -2.6875 -1.359375 -7.78125l0 -21.125015l-7.21875 0l0 -10.203125l7.21875 0l0 -10.921875l13.375 0l0 10.921875l9.5 0l0 10.203125l-9.5 0l0 17.593765q0 3.078125 1.1875 4.015625q1.1875 0.921875 4.453125 0.921875l3.859375 0l0 10.90625l-8.4375 0zm30.086426 1.0625q-5.796875 0 -9.109375 -2.15625q-3.296875 -2.15625 -4.65625 -6.296875q-1.359375 -4.140625 -1.359375 -10.031265l0 -26.21875l13.375 0l0 24.375q0 5.9843903 1.796875 7.9687653q1.8125 1.96875 5.0625 1.96875q3.953125 0 5.75 -2.640625q1.8125 -2.640625 1.8125 -8.718765l0 -22.953125l13.46875 0l0 43.64064l-11.609375 0l-1.859375 -6.15625q-1.9375 3.25 -4.796875 5.234375q-2.859375 1.984375 -7.875 1.984375zm52.01941 0q-5.640625 0 -10.0 -2.8125q-4.34375 -2.828125 -6.8125 -8.0625q-2.46875 -5.234375 -2.46875 -12.35939q0 -7.125 2.46875 -12.1875q2.46875 -5.0625 6.8125 -7.78125q4.359375 -2.734375 10.0 -2.734375q3.59375 0 7.375 1.8125q3.796875 1.796875 5.90625 5.40625l0 -21.125l13.375 0l0 41.703125q0 3.2656403 0.296875 7.7500153q0.3125 4.484375 1.203125 9.328125l-12.765625 0l-1.75 -5.890625q-2.734375 3.78125 -6.390625 5.375q-3.65625 1.578125 -7.25 1.578125zm4.3125 -10.390625q3.859375 0 6.71875 -2.90625q2.859375 -2.90625 2.859375 -9.67189q0 -6.6875 -2.859375 -9.640625q-2.859375 -2.953125 -6.71875 -2.953125q-3.96875 0 -6.828125 3.171875q-2.859375 3.171875 -2.859375 9.15625q0 6.0625153 2.859375 9.45314q2.859375 3.390625 6.828125 3.390625zm32.463623 23.5l0 -9.6875l2.640625 0q3.0 0 4.484375 -0.265625q1.5 -0.265625 2.328125 -1.28125q0.84375 -1.0 1.546875 -3.203125l-16.71875 -43.375015l14.34375 0l8.53125 27.26564l8.359375 -27.26564l14.34375 0l-16.71875 43.64064q-2.109375 5.546875 -4.265625 8.625q-2.15625 3.078125 -5.5 4.3125q-3.34375 1.234375 -9.0625 1.234375l-4.3125 0zm95.65027 -13.109375q-9.578125 0 -16.140625 -3.921875q-6.5625 -3.921875 -9.28125 -10.953125l12.671875 -4.5781403q1.234375 4.2187653 4.609375 6.2500153q3.390625 2.015625 8.234375 2.015625q2.546997 0 4.921997 -0.5625q2.390625 -0.578125 3.96875 -1.9375q1.578125 -1.359375 1.578125 -3.65625q0 -3.0781403 -3.0 -4.7968903q-2.984375 -1.71875 -7.734497 -2.59375l-7.125 -1.40625q-4.75 -0.96875 -8.84375 -2.953125q-4.09375 -1.984375 -6.5625 -5.28125q-2.453125 -3.296875 -2.453125 -8.3125q0 -4.75 2.1875 -8.171875q2.203125 -3.4375 5.859375 -5.640625q3.65625 -2.203125 8.046875 -3.296875q4.40625 -1.109375 8.8125 -1.109375q4.750122 0 9.187622 1.328125q4.453125 1.3125 7.96875 4.09375q3.515625 2.765625 5.359375 7.34375l-12.578125 4.578125q-1.140625 -3.0 -4.09375 -4.578125q-2.953125 -1.578125 -7.078247 -1.578125q-4.046875 0 -6.734375 1.453125q-2.6875 1.4375 -2.6875 4.171875q0 2.203125 1.84375 3.796875q1.859375 1.578125 4.84375 2.1875l7.921997 1.578125q3.609375 0.703125 7.296875 1.8125q3.703125 1.09375 6.828125 2.90625q3.125 1.796875 5.0625 4.796875q1.9375 2.984375 1.9375 7.5625q0 4.6562653 -2.15625 8.312515q-2.15625 3.65625 -5.71875 6.125q-3.5625 2.453125 -7.96875 3.734375q-4.40625 1.28125 -8.984497 1.28125zm32.565796 13.109375l0 -9.6875l2.640625 0q3.0 0 4.484375 -0.265625q1.5 -0.265625 2.328125 -1.28125q0.84375 -1.0 1.546875 -3.203125l-16.71875 -43.375015l14.34375 0l8.53125 27.26564l8.359375 -27.26564l14.34375 0l-16.71875 43.64064q-2.109375 5.546875 -4.265625 8.625q-2.15625 3.078125 -5.5 4.3125q-3.34375 1.234375 -9.0625 1.234375l-4.3125 0zm63.09961 -13.109375q-7.65625 0 -13.25 -2.8125q-5.578125 -2.828125 -8.140625 -8.28125l11.359375 -4.140625q0.96875 2.734375 3.734375 4.09375q2.78125 1.359375 6.5625 1.359375q3.25 0 5.75 -1.0q2.515625 -1.015625 2.515625 -3.046875q0 -1.40625 -1.5 -2.375q-1.484375 -0.96875 -5.28125 -1.578125l-7.828125 -1.3281403q-6.328125 -1.046875 -10.296875 -4.296875q-3.953125 -3.265625 -3.953125 -8.71875q0 -4.578125 2.765625 -7.65625q2.78125 -3.078125 7.34375 -4.609375q4.578125 -1.546875 9.953125 -1.546875q6.25 0 11.5625 2.25q5.328125 2.234375 7.796875 7.421875l-11.265625 4.140625q-0.609375 -2.375 -2.90625 -3.203125q-2.28125 -0.84375 -5.28125 -0.84375q-7.21875 0 -7.21875 3.515625q0 1.328125 1.234375 2.171875q1.234375 0.828125 4.140625 1.34375l8.09375 1.5q7.921875 1.40625 11.703125 4.140625q3.78125 2.71875 3.78125 8.187515q0 5.09375 -2.90625 8.53125q-2.890625 3.4375 -7.734375 5.109375q-4.84375 1.671875 -10.734375 1.671875zm46.554565 -1.0625q-5.375 0 -8.546875 -0.921875q-3.15625 -0.921875 -4.53125 -3.609375q-1.359375 -2.6875 -1.359375 -7.78125l0 -21.125015l-7.21875 0l0 -10.203125l7.21875 0l0 -10.921875l13.375 0l0 10.921875l9.5 0l0 10.203125l-9.5 0l0 17.593765q0 3.078125 1.1875 4.015625q1.1875 0.921875 4.453125 0.921875l3.859375 0l0 10.90625l-8.4375 0zm36.60205 1.0625q-7.03125 0 -12.453125 -2.765625q-5.40625 -2.78125 -8.453125 -7.96875q-3.03125 -5.203125 -3.03125 -12.42189q0 -6.953125 3.203125 -12.046875q3.21875 -5.109375 8.546875 -7.921875q5.328125 -2.8125 11.65625 -2.8125q7.21875 0 12.359375 3.390625q5.15625 3.375 7.796875 9.328125q2.640625 5.9375 2.203125 13.671875l-32.296875 0q0.34375 4.5781403 3.375 6.8750153q3.046875 2.28125 6.75 2.28125q3.078125 0 5.3125 -0.921875q2.25 -0.921875 3.484375 -2.328125l10.640625 3.859375q-3.421875 5.015625 -8.578125 7.40625q-5.140625 2.375 -10.515625 2.375zm-10.46875 -27.468765l19.890625 0q-0.09375 -4.21875 -2.90625 -6.375q-2.8125 -2.15625 -6.6875 -2.15625q-3.78125 0 -6.734375 2.03125q-2.953125 2.015625 -3.5625 6.5zm38.63611 26.406265l0 -43.64064l11.703125 0l1.671875 5.796875q1.484375 -2.453125 4.921875 -4.734375q3.4375 -2.296875 8.265625 -2.296875q5.203125 0 8.328125 1.84375q3.125 1.84375 4.609375 5.453125q2.5625 -3.609375 6.46875 -5.453125q3.921875 -1.84375 8.5 -1.84375q8.359375 0 11.515625 4.703125q3.171875 4.703125 3.171875 13.59375l0 26.57814l-13.375 0l0 -23.23439q0 -3.078125 -0.359375 -5.625q-0.34375 -2.5625 -1.75 -4.09375q-1.40625 -1.546875 -4.65625 -1.546875q-4.046875 0 -5.90625 2.859375q-1.84375 2.859375 -1.84375 8.578125l0 23.062515l-13.46875 0l0 -23.23439q0 -3.078125 -0.3125 -5.625q-0.296875 -2.5625 -1.671875 -4.09375q-1.359375 -1.546875 -4.515625 -1.546875q-4.140625 0 -6.03125 3.0q-1.890625 2.984375 -1.890625 8.703125l0 22.79689l-13.375 0z" fill-rule="nonzero"/><path fill="#c3c7cb" d="m3208.8582 186.39108l110.33081 0l0 110.33069l-110.33081 0z" fill-rule="evenodd"/><path stroke="#000000" stroke-width="3.0" stroke-linejoin="round" stroke-linecap="butt" d="m3208.8582 186.39108l110.33081 0l0 110.33069l-110.33081 0z" fill-rule="evenodd"/><path fill="#000000" d="m3228.6477 276.19644l28.75 -40.35939l-27.109375 -38.015625l13.140625 0l20.53125 28.75l20.53125 -28.75l13.265625 0l-27.109375 38.015625l28.75 40.35939l-13.25 0l-22.1875 -31.093765l-22.046875 31.093765l-13.265625 0z" fill-rule="nonzero"/><path fill="#c3c7cb" d="m3208.8582 186.39108l110.33081 0l0 0l-109.871826 0l0 109.871735l-0.45898438 0.45895386z" fill-rule="evenodd"/><path stroke="#ffffff" stroke-width="3.0" stroke-linejoin="round" stroke-linecap="butt" d="m3208.8582 186.39108l110.33081 0l0 0l-109.871826 0l0 109.871735l-0.45898438 0.45895386z" fill-rule="evenodd"/><path fill="#c3c7cb" d="m3085.8662 186.39108l110.33057 0l0 110.33069l-110.33057 0z" fill-rule="evenodd"/><path stroke="#000000" stroke-width="3.0" stroke-linejoin="round" stroke-linecap="butt" d="m3085.8662 186.39108l110.33057 0l0 110.33069l-110.33057 0z" fill-rule="evenodd"/><path fill="#000000" d="m3152.9417 253.32143q-4.21875 0 -8.28125 -1.578125q-4.046875 -1.59375 -7.859375 -3.171875q-3.8125 -1.59375 -7.328125 -1.59375q-2.9375 0 -4.9375 1.46875q-1.984375 1.46875 -2.5625 4.40625l-8.8125 -2.578125q1.296875 -5.40625 5.515625 -8.6875q4.234375 -3.28125 10.5625 -3.28125q4.921875 0 9.09375 1.578125q4.171875 1.578125 7.796875 3.234375q3.640625 1.640625 6.6875 1.640625q2.703125 0 4.75 -1.53125q2.0625 -1.53125 2.640625 -4.453125l8.6875 2.578125q-1.28125 5.390625 -5.515625 8.6875q-4.21875 3.28125 -10.4375 3.28125z" fill-rule="nonzero"/><path fill="#c3c7cb" d="m3085.8662 186.39108l110.33057 0l0 0l-109.87158 0l0 109.871735l-0.45898438 0.45895386z" fill-rule="evenodd"/><path stroke="#ffffff" stroke-width="3.0" stroke-linejoin="round" stroke-linecap="butt" d="m3085.8662 186.39108l110.33057 0l0 0l-109.87158 0l0 109.871735l-0.45898438 0.45895386z" fill-rule="evenodd"/></g></svg>