<svg version="1.1" viewBox="0.0 0.0 3840.0 2160.0" fill="none" stroke="none" stroke-linecap="square" stroke-miterlimit="10" xmlns:xlink="http://www.w3.org/1999/xlink" xmlns="http://www.w3.org/2000/svg"><clipPath id="p.0"><path d="m0 0l3840.0 0l0 2160.0l-3840.0 0l0 -2160.0z" clip-rule="nonzero"/></clipPath><g clip-path="url(#p.0)"><path fill="#386e6e" d="m0 0l3840.0 0l0 2160.0l-3840.0 0z" fill-rule="evenodd"/><g filter="url(#shadowFilter-p.1)"><use xlink:href="#p.1" transform="matrix(1.0 0.0 0.0 1.0 -11.31370839895016 -11.313708398950084)"/></g><defs><filter id="shadowFilter-p.1" filterUnits="userSpaceOnUse"><feGaussianBlur in="SourceAlpha" stdDeviation="12.0" result="blur"/><feComponentTransfer in="blur" color-interpolation-filters="sRGB"><feFuncR type="linear" slope="0" intercept="1.0"/><feFuncG type="linear" slope="0" intercept="1.0"/><feFuncB type="linear" slope="0" intercept="1.0"/><feFuncA type="linear" slope="1.0" intercept="0"/></feComponentTransfer></filter></defs><g id="p.1"><path fill="#c3c7cb" d="m3351.2441 2002.2992l-2862.4883 0l0 -1844.5984l2862.4883 0z" fill-rule="evenodd"/></g><g filter="url(#shadowFilter-p.2)"><use xlink:href="#p.2" transform="matrix(1.0 0.0 0.0 1.0 12.727922047244103 12.72792204724395)"/></g><defs><filter id="shadowFilter-p.2" filterUnits="userSpaceOnUse"><feGaussianBlur in="SourceAlpha" stdDeviation="12.0" result="blur"/><feComponentTransfer in="blur" color-interpolation-filters="sRGB"><feFuncR type="linear" slope="0" intercept="0.0"/><feFuncG type="linear" slope="0" intercept="0.0"/><feFuncB type="linear" slope="0" intercept="0.0"/><feFuncA type="linear" slope="1.0" intercept="0"/></feComponentTransfer></filter></defs><g id="p.2"><path fill="#c3c7cb" d="m488.75592 157.70079l2862.4883 0l0 1844.5984l-2862.4883 0z" fill-rule="evenodd"/></g><path fill="#0000aa" d="m505.85828 178.15486l2828.2837 0l0 126.80315l-2828.2837 0z" fill-rule="evenodd"/><path stroke="#ffffff" stroke-width="1.0" stroke-linejoin="round" stroke-linecap="butt" d="m505.85828 178.15486l2828.2837 0l0 126.80315l-2828.2837 0z" fill-rule="evenodd"/><path fill="#ffffff" d="m518.3114 270.07642l0 -52.54686l18.65625 0l10.921875 37.6875l11.09375 -37.6875l18.640625 0l0 52.54686l-12.109375 0l0 -41.29686l-12.515625 41.29686l-10.21875 0l-12.421875 -41.29686l0 41.29686l-12.046875 0zm78.11914 0.9375q-3.703125 0 -6.78125 -1.40625q-3.0625 -1.421875 -4.875 -3.96875q-1.796875 -2.5625 -1.796875 -6.109375q0 -4.7968597 3.34375 -7.6249847q3.34375 -2.828125 9.15625 -4.234375q5.828125 -1.421875 13.375 -1.984375q0 -4.15625 -1.34375 -5.890625q-1.328125 -1.734375 -5.1875 -1.734375q-2.4375 0 -4.28125 1.140625q-1.84375 1.140625 -2.484375 3.5l-10.0625 -3.609375q1.96875 -3.9375 6.5625 -6.53125q4.609375 -2.59375 11.296875 -2.59375q8.328125 0 12.8125 3.703125q4.484375 3.6875 4.484375 12.578125l0 8.5625q0 2.5156097 0.15625 5.4374847q0.15625 2.90625 0.46875 5.5q0.328125 2.59375 0.71875 4.328125l-11.09375 0l-1.421875 -4.71875q-2.203125 3.0625 -5.546875 4.359375q-3.34375 1.296875 -7.5 1.296875zm4.40625 -8.171875q3.53125 0 5.890625 -1.890625q2.359375 -1.890625 2.359375 -7.2343597l0 -0.9375q-6.21875 0.546875 -10.0 1.6875q-3.765625 1.140625 -3.765625 4.2031097q0 1.890625 1.578125 3.03125q1.578125 1.140625 3.9375 1.140625zm39.090637 -38.23436q-2.921875 0 -5.0 -2.078125q-2.078125 -2.078125 -2.078125 -5.0q0 -2.984375 2.078125 -5.03125q2.078125 -2.046875 5.0 -2.046875q2.984375 0 5.03125 2.046875q2.046875 2.046875 2.046875 5.03125q0 2.921875 -2.046875 5.0q-2.046875 2.078125 -5.03125 2.078125zm-6.0625 45.468735l0 -29.89061l-7.390625 0l0 -9.125l19.421875 0l0 39.01561l-12.03125 0zm19.432922 0l0 -39.01561l10.453125 0l1.5 5.1875q1.328125 -2.203125 4.4375 -4.234375q3.109375 -2.046875 7.59375 -2.046875q7.546875 0 10.34375 4.203125q2.796875 4.203125 2.796875 12.15625l0 23.749985l-11.953125 0l0 -20.76561q0 -2.75 -0.328125 -5.03125q-0.3125 -2.28125 -1.53125 -3.65625q-1.21875 -1.375 -4.125 -1.375q-3.78125 0 -5.515625 2.71875q-1.71875 2.703125 -1.71875 8.046875l0 20.062485l-11.953125 0zm69.67694 0l0 -52.54686l18.65625 0l10.921875 37.6875l11.09375 -37.6875l18.640625 0l0 52.54686l-12.109375 0l0 -41.29686l-12.515625 41.29686l-10.21875 0l-12.421875 -41.29686l0 41.29686l-12.046875 0zm86.05664 0.9375q-6.296875 0 -11.140625 -2.46875q-4.828125 -2.484375 -7.546875 -7.125q-2.703125 -4.640625 -2.703125 -11.093735q0 -6.203125 2.859375 -10.765625q2.875 -4.5625 7.625 -7.078125q4.765625 -2.515625 10.4375 -2.515625q6.453125 0 11.046875 3.03125q4.609375 3.015625 6.96875 8.328125q2.359375 5.3125 1.953125 12.234375l-28.859375 0q0.3125 4.0937347 3.015625 6.1406097q2.71875 2.03125 6.03125 2.03125q2.75 0 4.75 -0.8125q2.015625 -0.828125 3.109375 -2.09375l9.515625 3.46875q-3.0625 4.484375 -7.671875 6.609375q-4.59375 2.109375 -9.390625 2.109375zm-9.359375 -24.531235l17.78125 0q-0.078125 -3.78125 -2.609375 -5.703125q-2.515625 -1.921875 -5.96875 -1.921875q-3.375 0 -6.015625 1.8125q-2.640625 1.796875 -3.1875 5.8125zm34.535034 23.593735l0 -39.01561l10.453125 0l1.5 5.1875q1.328125 -2.203125 4.4375 -4.234375q3.109375 -2.046875 7.59375 -2.046875q7.546875 0 10.34375 4.203125q2.796875 4.203125 2.796875 12.15625l0 23.749985l-11.953125 0l0 -20.76561q0 -2.75 -0.328125 -5.03125q-0.3125 -2.28125 -1.53125 -3.65625q-1.21875 -1.375 -4.125 -1.375q-3.78125 0 -5.515625 2.71875q-1.71875 2.703125 -1.71875 8.046875l0 20.062485l-11.953125 0zm58.522644 0.9375q-5.203125 0 -8.15625 -1.921875q-2.9375 -1.921875 -4.15625 -5.609375q-1.21875 -3.703125 -1.21875 -8.98436l0 -23.4375l11.953125 0l0 21.796875q0 5.3437347 1.609375 7.1093597q1.609375 1.765625 4.53125 1.765625q3.53125 0 5.140625 -2.359375q1.609375 -2.359375 1.609375 -7.7812347l0 -20.53125l12.046875 0l0 39.01561l-10.390625 0l-1.65625 -5.5q-1.71875 2.90625 -4.28125 4.671875q-2.5625 1.765625 -7.03125 1.765625z" fill-rule="nonzero"/><path fill="#f2bb05" d="m948.40564 271.01392l0 -11.15625l25.5625 -9.437485l-25.5625 -9.296875l0 -11.15625l38.78125 16.59375l0 7.78125l-38.78125 16.67186z" fill-rule="nonzero"/><path fill="#ffffff" d="m1040.2081 271.01392q-8.578125 0 -14.4375 -3.5q-5.859375 -3.5 -8.296875 -9.78125l11.328125 -4.0937347q1.09375 3.7812347 4.125 5.5937347q3.03125 1.796875 7.359375 1.796875q2.28125 0 4.40625 -0.5q2.125 -0.515625 3.53125 -1.734375q1.421875 -1.21875 1.421875 -3.2656097q0 -2.75 -2.6875 -4.28125q-2.671875 -1.546875 -6.90625 -2.328125l-6.375 -1.265625q-4.25 -0.859375 -7.90625 -2.625q-3.65625 -1.78125 -5.859375 -4.71875q-2.203125 -2.953125 -2.203125 -7.4375q0 -4.25 1.96875 -7.3125q1.96875 -3.078125 5.21875 -5.03125q3.265625 -1.96875 7.203125 -2.953125q3.9375 -0.984375 7.875 -0.984375q4.234375 0 8.203125 1.1875q3.984375 1.171875 7.125 3.65625q3.15625 2.46875 4.796875 6.5625l-11.25 4.09375q-1.015625 -2.6875 -3.65625 -4.09375q-2.625 -1.421875 -6.328125 -1.421875q-3.609375 0 -6.015625 1.296875q-2.40625 1.296875 -2.40625 3.734375q0 1.96875 1.65625 3.390625q1.65625 1.40625 4.328125 1.96875l7.078125 1.40625q3.21875 0.640625 6.515625 1.625q3.3125 0.96875 6.109375 2.59375q2.796875 1.609375 4.515625 4.28125q1.734375 2.671875 1.734375 6.765625q0 4.1718597 -1.921875 7.4374847q-1.921875 3.265625 -5.109375 5.46875q-3.1875 2.1875 -7.125 3.328125q-3.9375 1.140625 -8.015625 1.140625zm47.266235 0q-6.296875 0 -11.140625 -2.46875q-4.828125 -2.484375 -7.546875 -7.125q-2.703125 -4.640625 -2.703125 -11.093735q0 -6.203125 2.859375 -10.765625q2.875 -4.5625 7.625 -7.078125q4.765625 -2.515625 10.4375 -2.515625q6.453125 0 11.046875 3.03125q4.609375 3.015625 6.96875 8.328125q2.359375 5.3125 1.953125 12.234375l-28.859375 0q0.3125 4.0937347 3.015625 6.1406097q2.71875 2.03125 6.03125 2.03125q2.75 0 4.75 -0.8125q2.015625 -0.828125 3.109375 -2.09375l9.515625 3.46875q-3.0625 4.484375 -7.671875 6.609375q-4.59375 2.109375 -9.390625 2.109375zm-9.359375 -24.531235l17.78125 0q-0.078125 -3.78125 -2.609375 -5.703125q-2.515625 -1.921875 -5.96875 -1.921875q-3.375 0 -6.015625 1.8125q-2.640625 1.796875 -3.1875 5.8125zm47.42566 23.593735q-4.796875 0 -7.625 -0.828125q-2.828125 -0.828125 -4.046875 -3.21875q-1.21875 -2.40625 -1.21875 -6.96875l0 -41.531235l11.953125 0l0 38.390625q0 2.7499847 1.09375 3.5781097q1.109375 0.828125 4.09375 0.828125l3.390625 0l0 9.75l-7.640625 0zm31.151245 0.9375q-6.296875 0 -11.140625 -2.46875q-4.828125 -2.484375 -7.546875 -7.125q-2.703125 -4.640625 -2.703125 -11.093735q0 -6.203125 2.859375 -10.765625q2.875 -4.5625 7.625 -7.078125q4.765625 -2.515625 10.4375 -2.515625q6.453125 0 11.046875 3.03125q4.609375 3.015625 6.96875 8.328125q2.359375 5.3125 1.953125 12.234375l-28.859375 0q0.3125 4.0937347 3.015625 6.1406097q2.71875 2.03125 6.03125 2.03125q2.75 0 4.75 -0.8125q2.015625 -0.828125 3.109375 -2.09375l9.515625 3.46875q-3.0625 4.484375 -7.671875 6.609375q-4.59375 2.109375 -9.390625 2.109375zm-9.359375 -24.531235l17.78125 0q-0.078125 -3.78125 -2.609375 -5.703125q-2.515625 -1.921875 -5.96875 -1.921875q-3.375 0 -6.015625 1.8125q-2.640625 1.796875 -3.1875 5.8125zm52.45691 24.531235q-6.4375 0 -10.890625 -2.59375q-4.4375 -2.59375 -6.765625 -7.265625q-2.3125 -4.6875 -2.3125 -10.82811q0 -6.125 2.515625 -10.71875q2.515625 -4.609375 7.03125 -7.125q4.53125 -2.515625 10.421875 -2.515625q3.390625 0 6.734375 0.9375q3.34375 0.9375 6.203125 3.1875q2.875 2.234375 4.6875 6.09375l-9.984375 3.625q-0.953125 -2.515625 -2.796875 -3.53125q-1.84375 -1.03125 -4.125 -1.03125q-2.125 0 -4.09375 1.0625q-1.96875 1.0625 -3.1875 3.5q-1.21875 2.4375 -1.21875 6.609375q0 4.234375 1.25 6.7187347q1.265625 2.46875 3.1875 3.53125q1.9375 1.0625 4.0625 1.0625q2.515625 0 4.234375 -0.96875q1.734375 -0.984375 2.765625 -2.71875l9.75 3.53125q-1.96875 3.546875 -4.875 5.640625q-2.90625 2.078125 -6.171875 2.9375q-3.265625 0.859375 -6.421875 0.859375zm39.41687 -0.9375q-4.796875 0 -7.640625 -0.828125q-2.828125 -0.828125 -4.046875 -3.21875q-1.21875 -2.40625 -1.21875 -6.96875l0 -18.874985l-6.453125 0l0 -9.125l6.453125 0l0 -9.75l11.953125 0l0 9.75l8.5 0l0 9.125l-8.5 0l0 15.734375q0 2.7499847 1.0625 3.5781097q1.0625 0.828125 3.984375 0.828125l3.453125 0l0 9.75l-7.546875 0zm34.996216 0l19.90625 -52.54686l13.6875 0l19.890625 52.54686l-13.53125 0l-3.140625 -9.359375l-20.140625 0l-3.140625 9.359375l-13.53125 0zm20.0625 -19.42186l13.375 0l-6.765625 -19.984375l-6.609375 19.984375zm55.679077 20.35936q-6.4375 0 -10.890625 -2.59375q-4.4375 -2.59375 -6.765625 -7.265625q-2.3125 -4.6875 -2.3125 -10.82811q0 -6.125 2.515625 -10.71875q2.515625 -4.609375 7.03125 -7.125q4.53125 -2.515625 10.421875 -2.515625q3.390625 0 6.734375 0.9375q3.34375 0.9375 6.203125 3.1875q2.875 2.234375 4.6875 6.09375l-9.984375 3.625q-0.953125 -2.515625 -2.796875 -3.53125q-1.84375 -1.03125 -4.125 -1.03125q-2.125 0 -4.09375 1.0625q-1.96875 1.0625 -3.1875 3.5q-1.21875 2.4375 -1.21875 6.609375q0 4.234375 1.25 6.7187347q1.265625 2.46875 3.1875 3.53125q1.9375 1.0625 4.0625 1.0625q2.515625 0 4.234375 -0.96875q1.734375 -0.984375 2.765625 -2.71875l9.75 3.53125q-1.96875 3.546875 -4.875 5.640625q-2.90625 2.078125 -6.171875 2.9375q-3.265625 0.859375 -6.421875 0.859375zm39.41687 -0.9375q-4.796875 0 -7.640625 -0.828125q-2.828125 -0.828125 -4.046875 -3.21875q-1.21875 -2.40625 -1.21875 -6.96875l0 -18.874985l-6.453125 0l0 -9.125l6.453125 0l0 -9.75l11.953125 0l0 9.75l8.5 0l0 9.125l-8.5 0l0 15.734375q0 2.7499847 1.0625 3.5781097q1.0625 0.828125 3.984375 0.828125l3.453125 0l0 9.75l-7.546875 0zm24.779419 -45.468735q-2.921875 0 -5.0 -2.078125q-2.078125 -2.078125 -2.078125 -5.0q0 -2.984375 2.078125 -5.03125q2.078125 -2.046875 5.0 -2.046875q2.984375 0 5.03125 2.046875q2.046875 2.046875 2.046875 5.03125q0 2.921875 -2.046875 5.0q-2.046875 2.078125 -5.03125 2.078125zm-6.0625 45.468735l0 -29.89061l-7.390625 0l0 -9.125l19.421875 0l0 39.01561l-12.03125 0zm29.417358 0l-13.921875 -39.01561l12.34375 0l8.34375 26.593735l8.34375 -26.593735l12.34375 0l-14.0 39.01561l-13.453125 0zm44.132324 -45.468735q-2.921875 0 -5.0 -2.078125q-2.078125 -2.078125 -2.078125 -5.0q0 -2.984375 2.078125 -5.03125q2.078125 -2.046875 5.0 -2.046875q2.984375 0 5.03125 2.046875q2.046875 2.046875 2.046875 5.03125q0 2.921875 -2.046875 5.0q-2.046875 2.078125 -5.03125 2.078125zm-6.0625 45.468735l0 -29.89061l-7.390625 0l0 -9.125l19.421875 0l0 39.01561l-12.03125 0zm35.870483 0q-4.796875 0 -7.640625 -0.828125q-2.828125 -0.828125 -4.046875 -3.21875q-1.21875 -2.40625 -1.21875 -6.96875l0 -18.874985l-6.453125 0l0 -9.125l6.453125 0l0 -9.75l11.953125 0l0 9.75l8.5 0l0 9.125l-8.5 0l0 15.734375q0 2.7499847 1.0625 3.5781097q1.0625 0.828125 3.984375 0.828125l3.453125 0l0 9.75l-7.546875 0zm14.545044 12.65625l0 -8.640625l2.359375 0q2.671875 0 4.015625 -0.234375q1.34375 -0.234375 2.078125 -1.140625q0.75 -0.90625 1.375 -2.875l-14.9375 -38.781235l12.828125 0l7.625 24.390625l7.46875 -24.390625l12.828125 0l-14.953125 39.01561q-1.890625 4.953125 -3.8125 7.703125q-1.921875 2.765625 -4.921875 3.859375q-2.984375 1.09375 -8.09375 1.09375l-3.859375 0z" fill-rule="nonzero"/><path fill="#c3c7cb" d="m3208.8582 186.39108l110.33081 0l0 110.33069l-110.33081 0z" fill-rule="evenodd"/><path stroke="#000000" stroke-width="3.0" stroke-linejoin="round" stroke-linecap="butt" d="m3208.8582 186.39108l110.33081 0l0 110.33069l-110.33081 0z" fill-rule="evenodd"/><path fill="#000000" d="m3228.6477 276.19644l28.75 -40.35939l-27.109375 -38.015625l13.140625 0l20.53125 28.75l20.53125 -28.75l13.265625 0l-27.109375 38.015625l28.75 40.35939l-13.25 0l-22.1875 -31.093765l-22.046875 31.093765l-13.265625 0z" fill-rule="nonzero"/><path fill="#c3c7cb" d="m3208.8582 186.39108l110.33081 0l0 0l-109.871826 0l0 109.871735l-0.45898438 0.45895386z" fill-rule="evenodd"/><path stroke="#ffffff" stroke-width="3.0" stroke-linejoin="round" stroke-linecap="butt" d="m3208.8582 186.39108l110.33081 0l0 0l-109.871826 0l0 109.871735l-0.45898438 0.45895386z" fill-rule="evenodd"/><path fill="#c3c7cb" d="m3085.8662 186.39108l110.33057 0l0 110.33069l-110.33057 0z" fill-rule="evenodd"/><path stroke="#000000" stroke-width="3.0" stroke-linejoin="round" stroke-linecap="butt" d="m3085.8662 186.39108l110.33057 0l0 110.33069l-110.33057 0z" fill-rule="evenodd"/><path fill="#000000" d="m3147.1895 276.19644l-55.5 -24.98439l0 -8.21875l55.5 -24.984375l0 10.546875l-43.171875 18.546875l43.171875 18.531265l0 10.5625zm9.147949 -24.406265l0 -9.5l34.265625 0l0 9.5l-34.265625 0z" fill-rule="nonzero"/><path fill="#c3c7cb" d="m3085.8662 186.39108l110.33057 0l0 0l-109.87158 0l0 109.871735l-0.45898438 0.45895386z" fill-rule="evenodd"/><path stroke="#ffffff" stroke-width="3.0" stroke-linejoin="round" stroke-linecap="butt" d="m3085.8662 186.39108l110.33057 0l0 0l-109.87158 0l0 109.871735l-0.45898438 0.45895386z" fill-rule="evenodd"/></g></svg>